<?xml version="1.0" encoding="UTF-8"?>
<svg xmlns="http://www.w3.org/2000/svg" xmlns:xlink="http://www.w3.org/1999/xlink" width="px" height="20px" viewBox="0 0 34 20" version="1.1">
<defs>
<linearGradient id="linear0" gradientUnits="userSpaceOnUse" x1="-0.000000000000000016" y1="0.500001" x2="1" y2="0.500001" gradientTransform="matrix(31.214844,0,0,10.277344,1.546875,5.035156)">
<stop offset="0" style="stop-color:rgb(13.72549%,11.764706%,36.470588%);stop-opacity:1;"/>
<stop offset="1" style="stop-color:rgb(2.745098%,30.588235%,63.529412%);stop-opacity:1;"/>
</linearGradient>
</defs>
<g id="surface1">
<path style=" stroke:none;fill-rule:evenodd;fill:url(#linear0);" d="M 17.003906 5.21875 L 14.917969 15.15625 L 12.394531 15.15625 L 14.480469 5.21875 Z M 27.617188 11.636719 L 28.945312 7.902344 L 29.707031 11.636719 Z M 30.429688 15.15625 L 32.761719 15.15625 L 30.726562 5.21875 L 28.574219 5.21875 C 28.089844 5.21875 27.679688 5.503906 27.5 5.945312 L 23.714844 15.15625 L 26.363281 15.15625 L 26.890625 13.671875 L 30.125 13.671875 Z M 23.847656 11.910156 C 23.859375 9.289062 20.289062 9.144531 20.3125 7.972656 C 20.320312 7.617188 20.652344 7.238281 21.382812 7.140625 C 21.742188 7.089844 22.738281 7.054688 23.867188 7.582031 L 24.3125 5.476562 C 23.703125 5.25 22.925781 5.035156 21.953125 5.035156 C 19.460938 5.035156 17.703125 6.386719 17.691406 8.320312 C 17.671875 9.753906 18.941406 10.550781 19.898438 11.027344 C 20.882812 11.511719 21.210938 11.824219 21.207031 12.261719 C 21.199219 12.929688 20.421875 13.222656 19.695312 13.234375 C 18.429688 13.253906 17.691406 12.886719 17.105469 12.605469 L 16.648438 14.785156 C 17.238281 15.058594 18.328125 15.300781 19.453125 15.3125 C 22.105469 15.3125 23.839844 13.980469 23.847656 11.910156 Z M 13.398438 5.21875 L 9.3125 15.15625 L 6.644531 15.15625 L 4.632812 7.222656 C 4.511719 6.734375 4.40625 6.558594 4.035156 6.351562 C 3.425781 6.015625 2.425781 5.699219 1.546875 5.503906 L 1.605469 5.21875 L 5.898438 5.21875 C 6.445312 5.21875 6.9375 5.589844 7.0625 6.230469 L 8.121094 11.984375 L 10.75 5.21875 Z M 13.398438 5.21875 "/>
</g>
</svg>
