<?xml version="1.0" encoding="UTF-8"?>
<svg xmlns="http://www.w3.org/2000/svg" xmlns:xlink="http://www.w3.org/1999/xlink" width="px" height="20px" viewBox="0 0 34 20" version="1.1">
<g id="surface1">
<path style=" stroke:none;fill-rule:evenodd;fill:rgb(0%,0%,0%);fill-opacity:1;" d="M 13.210938 17.394531 L 13.210938 16.402344 C 13.222656 16.234375 13.160156 16.070312 13.042969 15.949219 C 12.925781 15.828125 12.761719 15.765625 12.59375 15.777344 C 12.375 15.761719 12.164062 15.871094 12.042969 16.058594 C 11.933594 15.875 11.734375 15.769531 11.527344 15.777344 C 11.34375 15.765625 11.167969 15.855469 11.066406 16.011719 L 11.066406 15.816406 L 10.726562 15.816406 L 10.726562 17.394531 L 11.070312 17.394531 L 11.070312 16.519531 C 11.054688 16.410156 11.089844 16.300781 11.164062 16.21875 C 11.238281 16.136719 11.34375 16.09375 11.453125 16.101562 C 11.679688 16.101562 11.792969 16.25 11.792969 16.515625 L 11.792969 17.394531 L 12.140625 17.394531 L 12.140625 16.519531 C 12.125 16.410156 12.160156 16.300781 12.234375 16.21875 C 12.308594 16.140625 12.414062 16.09375 12.523438 16.101562 C 12.753906 16.101562 12.867188 16.25 12.867188 16.515625 L 12.867188 17.394531 Z M 15.128906 16.605469 L 15.128906 15.816406 L 14.785156 15.816406 L 14.785156 16.011719 C 14.667969 15.855469 14.484375 15.769531 14.292969 15.777344 C 13.839844 15.777344 13.472656 16.148438 13.472656 16.605469 C 13.472656 17.0625 13.839844 17.429688 14.292969 17.429688 C 14.484375 17.4375 14.667969 17.351562 14.785156 17.199219 L 14.785156 17.390625 L 15.125 17.390625 Z M 13.859375 16.605469 C 13.875 16.347656 14.09375 16.148438 14.351562 16.15625 C 14.609375 16.167969 14.8125 16.382812 14.808594 16.640625 C 14.804688 16.902344 14.59375 17.109375 14.335938 17.113281 C 14.203125 17.117188 14.078125 17.0625 13.984375 16.964844 C 13.894531 16.871094 13.847656 16.738281 13.859375 16.605469 Z M 22.417969 15.78125 C 22.53125 15.78125 22.640625 15.800781 22.746094 15.84375 C 22.84375 15.882812 22.9375 15.941406 23.011719 16.019531 C 23.089844 16.09375 23.148438 16.183594 23.191406 16.28125 C 23.273438 16.492188 23.273438 16.730469 23.191406 16.941406 C 23.148438 17.039062 23.089844 17.128906 23.011719 17.203125 C 22.9375 17.28125 22.84375 17.339844 22.746094 17.378906 C 22.527344 17.464844 22.289062 17.464844 22.074219 17.378906 C 21.972656 17.339844 21.882812 17.28125 21.808594 17.203125 C 21.730469 17.128906 21.671875 17.039062 21.632812 16.941406 C 21.546875 16.730469 21.546875 16.492188 21.632812 16.28125 C 21.671875 16.183594 21.730469 16.09375 21.808594 16.019531 C 21.882812 15.941406 21.972656 15.882812 22.074219 15.84375 C 22.179688 15.796875 22.296875 15.773438 22.414062 15.773438 Z M 22.417969 16.109375 C 22.351562 16.109375 22.285156 16.121094 22.222656 16.148438 C 22.164062 16.171875 22.109375 16.207031 22.066406 16.25 C 22.019531 16.296875 21.984375 16.355469 21.960938 16.417969 C 21.914062 16.546875 21.914062 16.695312 21.960938 16.828125 C 21.984375 16.886719 22.019531 16.945312 22.066406 16.992188 C 22.109375 17.035156 22.164062 17.074219 22.222656 17.097656 C 22.347656 17.144531 22.484375 17.144531 22.609375 17.097656 C 22.671875 17.074219 22.726562 17.039062 22.773438 16.992188 C 22.820312 16.945312 22.855469 16.886719 22.878906 16.828125 C 22.929688 16.695312 22.929688 16.546875 22.878906 16.417969 C 22.855469 16.355469 22.820312 16.296875 22.773438 16.25 C 22.726562 16.207031 22.671875 16.171875 22.609375 16.148438 C 22.546875 16.117188 22.480469 16.101562 22.414062 16.101562 Z M 16.980469 16.605469 C 16.980469 16.109375 16.675781 15.78125 16.238281 15.78125 C 15.785156 15.785156 15.425781 16.160156 15.429688 16.617188 C 15.4375 17.074219 15.808594 17.4375 16.261719 17.433594 C 16.496094 17.441406 16.722656 17.363281 16.902344 17.210938 L 16.738281 16.957031 C 16.609375 17.0625 16.449219 17.121094 16.285156 17.121094 C 16.046875 17.144531 15.839844 16.972656 15.8125 16.734375 L 16.976562 16.734375 C 16.980469 16.695312 16.980469 16.652344 16.980469 16.605469 Z M 15.816406 16.46875 C 15.828125 16.25 16.011719 16.082031 16.226562 16.085938 C 16.332031 16.082031 16.429688 16.121094 16.503906 16.195312 C 16.578125 16.265625 16.621094 16.367188 16.625 16.46875 Z M 18.417969 16.21875 C 18.265625 16.132812 18.097656 16.085938 17.925781 16.085938 C 17.738281 16.085938 17.625 16.152344 17.625 16.269531 C 17.625 16.386719 17.746094 16.40625 17.890625 16.425781 L 18.054688 16.449219 C 18.398438 16.496094 18.605469 16.644531 18.605469 16.921875 C 18.605469 17.199219 18.339844 17.4375 17.890625 17.4375 C 17.648438 17.441406 17.410156 17.371094 17.214844 17.230469 L 17.378906 16.964844 C 17.527344 17.074219 17.710938 17.132812 17.898438 17.128906 C 18.132812 17.128906 18.257812 17.058594 18.257812 16.9375 C 18.257812 16.847656 18.167969 16.796875 17.980469 16.773438 L 17.816406 16.75 C 17.464844 16.699219 17.277344 16.539062 17.277344 16.28125 C 17.277344 15.96875 17.53125 15.777344 17.929688 15.777344 C 18.15625 15.769531 18.378906 15.828125 18.570312 15.941406 Z M 20.058594 16.128906 L 19.5 16.128906 L 19.5 16.84375 C 19.5 17.007812 19.558594 17.109375 19.726562 17.109375 C 19.832031 17.105469 19.9375 17.074219 20.027344 17.019531 L 20.128906 17.3125 C 20 17.394531 19.851562 17.433594 19.703125 17.433594 C 19.296875 17.433594 19.15625 17.214844 19.15625 16.847656 L 19.15625 16.128906 L 18.839844 16.128906 L 18.839844 15.816406 L 19.15625 15.816406 L 19.15625 15.335938 L 19.5 15.335938 L 19.5 15.816406 L 20.058594 15.816406 Z M 21.234375 15.777344 C 21.320312 15.777344 21.402344 15.792969 21.480469 15.820312 L 21.375 16.152344 C 21.304688 16.125 21.234375 16.109375 21.160156 16.109375 C 20.9375 16.109375 20.832031 16.257812 20.832031 16.515625 L 20.832031 17.402344 L 20.492188 17.402344 L 20.492188 15.824219 L 20.828125 15.824219 L 20.828125 16.015625 C 20.914062 15.867188 21.074219 15.777344 21.242188 15.785156 Z M 23.59375 17.164062 C 23.617188 17.164062 23.636719 17.167969 23.65625 17.175781 C 23.675781 17.183594 23.691406 17.195312 23.707031 17.210938 C 23.722656 17.222656 23.734375 17.242188 23.742188 17.257812 C 23.757812 17.296875 23.757812 17.34375 23.742188 17.382812 C 23.734375 17.398438 23.722656 17.417969 23.707031 17.429688 C 23.691406 17.445312 23.675781 17.457031 23.65625 17.464844 C 23.636719 17.472656 23.617188 17.476562 23.59375 17.476562 C 23.53125 17.476562 23.472656 17.441406 23.445312 17.382812 C 23.429688 17.34375 23.429688 17.296875 23.445312 17.257812 C 23.457031 17.242188 23.46875 17.222656 23.480469 17.210938 C 23.496094 17.195312 23.511719 17.183594 23.53125 17.175781 C 23.550781 17.171875 23.566406 17.167969 23.585938 17.164062 Z M 23.59375 17.445312 C 23.609375 17.445312 23.628906 17.441406 23.640625 17.433594 C 23.65625 17.429688 23.667969 17.417969 23.679688 17.410156 C 23.707031 17.378906 23.71875 17.339844 23.714844 17.300781 C 23.707031 17.257812 23.679688 17.226562 23.640625 17.210938 C 23.628906 17.203125 23.609375 17.199219 23.59375 17.199219 C 23.578125 17.199219 23.5625 17.203125 23.546875 17.210938 C 23.53125 17.214844 23.519531 17.226562 23.507812 17.238281 C 23.464844 17.28125 23.464844 17.355469 23.507812 17.402344 C 23.53125 17.425781 23.5625 17.4375 23.59375 17.4375 Z M 23.605469 17.246094 C 23.621094 17.246094 23.636719 17.25 23.648438 17.261719 C 23.65625 17.269531 23.664062 17.28125 23.660156 17.296875 C 23.664062 17.308594 23.660156 17.316406 23.652344 17.324219 C 23.640625 17.335938 23.628906 17.339844 23.617188 17.339844 L 23.664062 17.394531 L 23.625 17.394531 L 23.582031 17.339844 L 23.566406 17.339844 L 23.566406 17.394531 L 23.535156 17.394531 L 23.535156 17.242188 Z M 23.570312 17.277344 L 23.570312 17.316406 L 23.605469 17.316406 C 23.609375 17.316406 23.617188 17.316406 23.625 17.316406 C 23.625 17.3125 23.625 17.304688 23.625 17.300781 C 23.625 17.296875 23.625 17.289062 23.625 17.285156 C 23.617188 17.285156 23.609375 17.285156 23.605469 17.285156 Z M 23.570312 17.277344 "/>
<path style=" stroke:none;fill-rule:evenodd;fill:rgb(46.27451%,45.098039%,75.294118%);fill-opacity:1;" d="M 14.398438 3.773438 L 19.566406 3.773438 L 19.566406 13.128906 L 14.398438 13.128906 Z M 14.398438 3.773438 "/>
<path style=" stroke:none;fill-rule:evenodd;fill:rgb(92.156863%,0%,10.588235%);fill-opacity:1;" d="M 14.726562 8.453125 C 14.726562 6.625 15.554688 4.902344 16.980469 3.773438 C 14.5625 1.855469 11.085938 2.136719 8.996094 4.414062 C 6.90625 6.695312 6.90625 10.210938 8.996094 12.488281 C 11.085938 14.769531 14.5625 15.046875 16.980469 13.128906 C 15.558594 12.003906 14.726562 10.277344 14.726562 8.453125 Z M 14.726562 8.453125 "/>
<path style=" stroke:none;fill-rule:evenodd;fill:rgb(0%,63.137255%,87.45098%);fill-opacity:1;" d="M 25.972656 12.140625 L 25.972656 11.953125 L 26.046875 11.953125 L 26.046875 11.914062 L 25.851562 11.914062 L 25.851562 11.953125 L 25.929688 11.953125 L 25.929688 12.144531 Z M 26.351562 12.140625 L 26.351562 11.90625 L 26.292969 11.90625 L 26.222656 12.074219 L 26.152344 11.90625 L 26.09375 11.90625 L 26.09375 12.140625 L 26.136719 12.140625 L 26.136719 11.964844 L 26.199219 12.117188 L 26.242188 12.117188 L 26.308594 11.964844 L 26.308594 12.140625 Z M 26.351562 12.140625 "/>
<path style=" stroke:none;fill-rule:evenodd;fill:rgb(0%,63.137255%,87.45098%);fill-opacity:1;" d="M 26.535156 8.453125 C 26.535156 10.730469 25.242188 12.808594 23.210938 13.804688 C 21.175781 14.800781 18.757812 14.539062 16.980469 13.128906 C 18.40625 12.003906 19.238281 10.277344 19.238281 8.453125 C 19.238281 6.625 18.40625 4.902344 16.980469 3.773438 C 18.757812 2.367188 21.179688 2.105469 23.210938 3.097656 C 25.246094 4.09375 26.535156 6.171875 26.535156 8.453125 Z M 26.535156 8.453125 "/>
</g>
</svg>
