<?xml version="1.0" encoding="UTF-8"?>
<svg xmlns="http://www.w3.org/2000/svg" xmlns:xlink="http://www.w3.org/1999/xlink" width="34px" height="20px" viewBox="0 0 34 20" version="1.1">
<defs>
<linearGradient id="linear0" gradientUnits="userSpaceOnUse" x1="-0.000000000000017052" y1="0.5" x2="1.000013" y2="0.5" gradientTransform="matrix(6.078125,0,0,15,20.824219,2.566406)">
<stop offset="0" style="stop-color:rgb(0%,48.235294%,25.098039%);stop-opacity:1;"/>
<stop offset="1" style="stop-color:rgb(33.333333%,70.196078%,18.823529%);stop-opacity:1;"/>
</linearGradient>
<linearGradient id="linear1" gradientUnits="userSpaceOnUse" x1="0.000000000000000029" y1="0.5" x2="1" y2="0.5" gradientTransform="matrix(6.078125,0,0,15,7.195313,2.566406)">
<stop offset="0" style="stop-color:rgb(11.372549%,16.078431%,43.921569%);stop-opacity:1;"/>
<stop offset="1" style="stop-color:rgb(0%,42.745098%,72.941176%);stop-opacity:1;"/>
</linearGradient>
<linearGradient id="linear2" gradientUnits="userSpaceOnUse" x1="0" y1="0.5" x2="1" y2="0.5" gradientTransform="matrix(6.074219,0,0,15,14.011719,2.566406)">
<stop offset="0" style="stop-color:rgb(43.137255%,16.862745%,18.431373%);stop-opacity:1;"/>
<stop offset="1" style="stop-color:rgb(89.019608%,0.392157%,21.960784%);stop-opacity:1;"/>
</linearGradient>
</defs>
<g id="surface1">
<path style=" stroke:none;fill-rule:evenodd;fill:url(#linear0);" d="M 22.03125 10.371094 L 23.46875 10.371094 C 23.476562 10.371094 23.484375 10.371094 23.492188 10.371094 C 23.5 10.371094 23.507812 10.371094 23.515625 10.375 C 23.523438 10.375 23.53125 10.375 23.539062 10.375 C 23.546875 10.375 23.554688 10.378906 23.5625 10.378906 C 23.570312 10.378906 23.578125 10.378906 23.585938 10.382812 C 23.59375 10.382812 23.605469 10.382812 23.609375 10.382812 C 23.617188 10.386719 23.621094 10.386719 23.625 10.386719 L 23.632812 10.390625 C 23.644531 10.390625 23.652344 10.394531 23.660156 10.394531 C 23.667969 10.398438 23.675781 10.398438 23.683594 10.402344 C 23.691406 10.40625 23.699219 10.40625 23.707031 10.410156 C 23.714844 10.414062 23.722656 10.417969 23.730469 10.421875 C 23.738281 10.421875 23.746094 10.425781 23.753906 10.429688 C 23.761719 10.433594 23.769531 10.4375 23.777344 10.441406 C 23.785156 10.445312 23.792969 10.449219 23.800781 10.457031 C 23.808594 10.460938 23.816406 10.464844 23.824219 10.46875 C 23.832031 10.476562 23.839844 10.480469 23.847656 10.484375 C 23.855469 10.492188 23.863281 10.496094 23.871094 10.503906 C 23.878906 10.507812 23.886719 10.515625 23.894531 10.523438 C 23.902344 10.527344 23.914062 10.535156 23.921875 10.542969 C 23.929688 10.550781 23.9375 10.558594 23.945312 10.566406 C 23.953125 10.574219 23.960938 10.582031 23.96875 10.59375 C 23.976562 10.601562 23.984375 10.613281 23.992188 10.621094 C 24 10.632812 24.007812 10.644531 24.015625 10.65625 C 24.023438 10.667969 24.03125 10.679688 24.039062 10.691406 C 24.046875 10.707031 24.054688 10.722656 24.0625 10.738281 C 24.070312 10.757812 24.078125 10.777344 24.085938 10.796875 C 24.097656 10.820312 24.105469 10.847656 24.109375 10.875 C 24.121094 10.925781 24.125 10.976562 24.125 11.03125 C 24.125 11.085938 24.121094 11.136719 24.109375 11.183594 C 24.105469 11.210938 24.097656 11.238281 24.085938 11.265625 C 24.078125 11.285156 24.070312 11.304688 24.0625 11.324219 C 24.054688 11.339844 24.046875 11.355469 24.039062 11.367188 C 24.03125 11.382812 24.023438 11.394531 24.015625 11.40625 C 24.007812 11.417969 24 11.429688 23.992188 11.441406 C 23.984375 11.449219 23.976562 11.460938 23.96875 11.46875 C 23.960938 11.476562 23.953125 11.488281 23.945312 11.496094 C 23.9375 11.503906 23.929688 11.511719 23.921875 11.519531 C 23.914062 11.527344 23.902344 11.53125 23.894531 11.539062 C 23.886719 11.546875 23.878906 11.550781 23.871094 11.558594 C 23.863281 11.566406 23.855469 11.570312 23.847656 11.574219 C 23.839844 11.582031 23.832031 11.585938 23.824219 11.589844 C 23.816406 11.597656 23.808594 11.601562 23.800781 11.605469 C 23.792969 11.609375 23.785156 11.613281 23.777344 11.617188 C 23.769531 11.621094 23.761719 11.625 23.753906 11.628906 C 23.746094 11.632812 23.738281 11.636719 23.730469 11.640625 C 23.722656 11.644531 23.714844 11.648438 23.707031 11.648438 C 23.699219 11.652344 23.691406 11.65625 23.683594 11.65625 C 23.675781 11.660156 23.667969 11.664062 23.660156 11.664062 C 23.652344 11.667969 23.644531 11.667969 23.632812 11.671875 L 23.625 11.671875 C 23.621094 11.675781 23.617188 11.675781 23.609375 11.675781 C 23.605469 11.675781 23.59375 11.679688 23.585938 11.679688 C 23.578125 11.679688 23.570312 11.683594 23.5625 11.683594 C 23.554688 11.683594 23.546875 11.683594 23.539062 11.683594 C 23.53125 11.6875 23.523438 11.6875 23.515625 11.6875 C 23.507812 11.6875 23.5 11.6875 23.492188 11.6875 C 23.484375 11.6875 23.476562 11.691406 23.46875 11.691406 L 22.03125 11.691406 Z M 23.945312 8.878906 C 23.953125 8.921875 23.957031 8.96875 23.957031 9.019531 C 23.957031 9.066406 23.953125 9.113281 23.945312 9.160156 C 23.9375 9.1875 23.929688 9.214844 23.921875 9.242188 C 23.914062 9.261719 23.90625 9.277344 23.894531 9.296875 C 23.890625 9.3125 23.882812 9.324219 23.871094 9.339844 C 23.863281 9.351562 23.855469 9.363281 23.847656 9.375 C 23.839844 9.386719 23.832031 9.398438 23.824219 9.40625 C 23.816406 9.417969 23.808594 9.425781 23.800781 9.433594 C 23.792969 9.441406 23.785156 9.449219 23.777344 9.457031 C 23.769531 9.464844 23.761719 9.472656 23.753906 9.480469 C 23.746094 9.488281 23.738281 9.492188 23.730469 9.5 C 23.722656 9.503906 23.714844 9.511719 23.707031 9.515625 C 23.699219 9.523438 23.691406 9.527344 23.683594 9.53125 C 23.675781 9.539062 23.667969 9.542969 23.660156 9.546875 C 23.652344 9.550781 23.644531 9.554688 23.636719 9.558594 C 23.628906 9.5625 23.617188 9.566406 23.609375 9.570312 C 23.601562 9.574219 23.59375 9.578125 23.585938 9.582031 C 23.578125 9.582031 23.570312 9.585938 23.5625 9.589844 C 23.554688 9.59375 23.546875 9.59375 23.539062 9.597656 C 23.53125 9.601562 23.523438 9.601562 23.515625 9.605469 C 23.507812 9.605469 23.5 9.609375 23.492188 9.609375 C 23.484375 9.613281 23.476562 9.613281 23.46875 9.613281 L 23.460938 9.617188 C 23.457031 9.617188 23.453125 9.617188 23.445312 9.617188 C 23.4375 9.621094 23.429688 9.621094 23.421875 9.621094 C 23.414062 9.621094 23.40625 9.621094 23.398438 9.625 C 23.390625 9.625 23.382812 9.625 23.375 9.625 C 23.367188 9.625 23.355469 9.625 23.347656 9.625 C 23.339844 9.625 23.332031 9.628906 23.324219 9.628906 L 22.03125 9.628906 L 22.03125 8.410156 L 23.347656 8.410156 C 23.355469 8.410156 23.367188 8.410156 23.375 8.410156 C 23.382812 8.414062 23.390625 8.414062 23.398438 8.414062 C 23.40625 8.414062 23.414062 8.414062 23.421875 8.414062 C 23.429688 8.417969 23.4375 8.417969 23.445312 8.417969 C 23.453125 8.417969 23.457031 8.417969 23.460938 8.421875 L 23.46875 8.421875 C 23.476562 8.421875 23.484375 8.425781 23.492188 8.425781 C 23.5 8.429688 23.507812 8.429688 23.515625 8.433594 C 23.523438 8.433594 23.53125 8.4375 23.539062 8.4375 C 23.546875 8.441406 23.554688 8.445312 23.5625 8.445312 C 23.570312 8.449219 23.578125 8.453125 23.585938 8.457031 C 23.59375 8.460938 23.601562 8.460938 23.609375 8.464844 C 23.617188 8.46875 23.628906 8.472656 23.636719 8.476562 C 23.644531 8.480469 23.652344 8.484375 23.660156 8.492188 C 23.667969 8.496094 23.675781 8.5 23.683594 8.503906 C 23.691406 8.507812 23.699219 8.515625 23.707031 8.519531 C 23.714844 8.527344 23.722656 8.53125 23.730469 8.539062 C 23.738281 8.542969 23.746094 8.550781 23.753906 8.558594 C 23.761719 8.5625 23.769531 8.570312 23.777344 8.578125 C 23.785156 8.585938 23.792969 8.59375 23.800781 8.601562 C 23.808594 8.609375 23.816406 8.621094 23.824219 8.628906 C 23.832031 8.640625 23.839844 8.648438 23.847656 8.660156 C 23.855469 8.671875 23.863281 8.683594 23.871094 8.695312 C 23.882812 8.710938 23.890625 8.726562 23.894531 8.742188 C 23.90625 8.757812 23.914062 8.777344 23.921875 8.796875 C 23.929688 8.820312 23.9375 8.847656 23.945312 8.878906 Z M 26.890625 2.566406 L 26.902344 2.566406 L 26.902344 15.066406 C 26.902344 15.140625 26.898438 15.214844 26.890625 15.289062 C 26.886719 15.351562 26.878906 15.417969 26.867188 15.480469 C 26.859375 15.519531 26.851562 15.5625 26.84375 15.605469 C 26.835938 15.636719 26.828125 15.671875 26.820312 15.703125 C 26.8125 15.734375 26.804688 15.761719 26.796875 15.789062 C 26.789062 15.816406 26.78125 15.839844 26.773438 15.867188 C 26.765625 15.890625 26.757812 15.910156 26.75 15.933594 C 26.742188 15.957031 26.734375 15.976562 26.726562 15.996094 C 26.71875 16.015625 26.710938 16.035156 26.703125 16.054688 C 26.695312 16.074219 26.6875 16.089844 26.675781 16.109375 C 26.671875 16.125 26.660156 16.144531 26.652344 16.160156 C 26.644531 16.175781 26.636719 16.191406 26.628906 16.207031 C 26.621094 16.222656 26.613281 16.238281 26.605469 16.253906 C 26.597656 16.269531 26.589844 16.285156 26.582031 16.296875 C 26.574219 16.3125 26.566406 16.324219 26.558594 16.339844 C 26.550781 16.351562 26.542969 16.367188 26.535156 16.378906 C 26.527344 16.390625 26.519531 16.40625 26.511719 16.417969 C 26.503906 16.429688 26.496094 16.441406 26.488281 16.453125 C 26.480469 16.464844 26.472656 16.476562 26.464844 16.488281 C 26.457031 16.5 26.449219 16.511719 26.441406 16.523438 C 26.433594 16.535156 26.425781 16.546875 26.417969 16.558594 C 26.410156 16.566406 26.402344 16.578125 26.390625 16.589844 C 26.382812 16.597656 26.375 16.609375 26.367188 16.621094 C 26.359375 16.628906 26.351562 16.640625 26.34375 16.648438 C 26.335938 16.660156 26.328125 16.667969 26.320312 16.679688 C 26.3125 16.6875 26.304688 16.699219 26.296875 16.707031 C 26.289062 16.714844 26.28125 16.726562 26.273438 16.734375 C 26.265625 16.742188 26.257812 16.753906 26.25 16.761719 C 26.242188 16.769531 26.234375 16.777344 26.226562 16.785156 C 26.21875 16.796875 26.210938 16.804688 26.203125 16.8125 C 26.195312 16.820312 26.1875 16.828125 26.179688 16.835938 C 26.171875 16.84375 26.164062 16.851562 26.15625 16.859375 C 26.148438 16.867188 26.140625 16.875 26.132812 16.882812 C 26.125 16.890625 26.113281 16.898438 26.105469 16.90625 C 26.097656 16.914062 26.089844 16.921875 26.082031 16.925781 C 26.074219 16.933594 26.066406 16.941406 26.058594 16.949219 C 26.050781 16.957031 26.042969 16.964844 26.035156 16.96875 C 26.027344 16.976562 26.019531 16.984375 26.011719 16.992188 C 26.003906 16.996094 25.996094 17.003906 25.988281 17.011719 C 25.980469 17.015625 25.972656 17.023438 25.964844 17.03125 C 25.957031 17.035156 25.949219 17.042969 25.941406 17.046875 C 25.933594 17.054688 25.925781 17.058594 25.917969 17.066406 C 25.910156 17.074219 25.902344 17.078125 25.894531 17.085938 C 25.886719 17.089844 25.878906 17.097656 25.871094 17.101562 C 25.863281 17.109375 25.855469 17.113281 25.84375 17.117188 C 25.835938 17.125 25.828125 17.128906 25.820312 17.136719 C 25.8125 17.140625 25.804688 17.144531 25.796875 17.152344 C 25.789062 17.15625 25.78125 17.164062 25.773438 17.167969 C 25.765625 17.171875 25.757812 17.179688 25.75 17.183594 C 25.742188 17.1875 25.734375 17.191406 25.726562 17.199219 C 25.71875 17.203125 25.710938 17.207031 25.703125 17.210938 L 25.679688 17.226562 C 25.671875 17.230469 25.664062 17.238281 25.65625 17.242188 C 25.648438 17.246094 25.640625 17.25 25.632812 17.253906 C 25.625 17.257812 25.617188 17.261719 25.609375 17.269531 C 25.601562 17.273438 25.59375 17.277344 25.585938 17.28125 C 25.574219 17.285156 25.566406 17.289062 25.558594 17.292969 C 25.550781 17.296875 25.542969 17.300781 25.535156 17.304688 C 25.527344 17.308594 25.519531 17.3125 25.511719 17.316406 C 25.503906 17.320312 25.496094 17.324219 25.488281 17.328125 L 25.441406 17.351562 C 25.433594 17.355469 25.425781 17.359375 25.417969 17.363281 C 25.410156 17.363281 25.402344 17.367188 25.394531 17.371094 C 25.386719 17.375 25.378906 17.378906 25.371094 17.382812 C 25.363281 17.386719 25.355469 17.386719 25.347656 17.390625 C 25.339844 17.394531 25.332031 17.398438 25.324219 17.402344 C 25.316406 17.402344 25.308594 17.40625 25.296875 17.410156 L 25.273438 17.417969 C 25.265625 17.421875 25.257812 17.425781 25.25 17.425781 C 25.242188 17.429688 25.234375 17.433594 25.226562 17.4375 C 25.21875 17.4375 25.210938 17.441406 25.203125 17.445312 L 25.179688 17.453125 C 25.171875 17.453125 25.164062 17.457031 25.15625 17.460938 L 25.132812 17.464844 C 25.125 17.46875 25.117188 17.472656 25.109375 17.472656 C 25.101562 17.476562 25.09375 17.476562 25.085938 17.480469 C 25.078125 17.480469 25.070312 17.484375 25.0625 17.488281 L 25.039062 17.492188 L 25.011719 17.5 L 24.988281 17.503906 C 24.980469 17.507812 24.972656 17.507812 24.964844 17.507812 C 24.957031 17.511719 24.949219 17.511719 24.941406 17.515625 L 24.894531 17.523438 C 24.886719 17.527344 24.878906 17.527344 24.871094 17.527344 C 24.863281 17.53125 24.855469 17.53125 24.847656 17.53125 L 24.777344 17.542969 C 24.769531 17.542969 24.761719 17.546875 24.753906 17.546875 C 24.742188 17.546875 24.734375 17.550781 24.726562 17.550781 C 24.71875 17.550781 24.710938 17.550781 24.703125 17.550781 C 24.695312 17.554688 24.6875 17.554688 24.679688 17.554688 C 24.671875 17.554688 24.664062 17.554688 24.65625 17.558594 C 24.648438 17.558594 24.640625 17.558594 24.632812 17.558594 C 24.625 17.558594 24.617188 17.558594 24.609375 17.5625 L 24.585938 17.5625 C 24.578125 17.5625 24.570312 17.5625 24.5625 17.5625 C 24.554688 17.5625 24.546875 17.566406 24.539062 17.566406 L 24.492188 17.566406 C 24.484375 17.566406 24.476562 17.566406 24.464844 17.566406 L 20.824219 17.566406 L 20.824219 12.46875 L 24.703125 12.46875 C 24.710938 12.46875 24.71875 12.46875 24.726562 12.46875 C 24.734375 12.46875 24.742188 12.46875 24.753906 12.46875 L 24.777344 12.464844 L 24.824219 12.464844 L 24.847656 12.460938 L 24.871094 12.460938 C 24.878906 12.457031 24.886719 12.457031 24.894531 12.457031 C 24.902344 12.457031 24.910156 12.457031 24.917969 12.453125 L 24.941406 12.453125 C 24.949219 12.449219 24.957031 12.449219 24.964844 12.449219 C 24.972656 12.445312 24.980469 12.445312 24.988281 12.445312 C 24.996094 12.445312 25.003906 12.441406 25.011719 12.441406 L 25.039062 12.4375 L 25.0625 12.433594 C 25.070312 12.429688 25.078125 12.429688 25.085938 12.429688 C 25.09375 12.425781 25.101562 12.425781 25.109375 12.421875 L 25.132812 12.417969 C 25.140625 12.417969 25.148438 12.414062 25.15625 12.414062 C 25.164062 12.410156 25.171875 12.410156 25.179688 12.40625 C 25.1875 12.40625 25.195312 12.402344 25.203125 12.402344 C 25.210938 12.398438 25.21875 12.394531 25.226562 12.394531 C 25.234375 12.390625 25.242188 12.390625 25.25 12.386719 C 25.257812 12.382812 25.265625 12.382812 25.273438 12.378906 L 25.296875 12.371094 C 25.308594 12.371094 25.316406 12.367188 25.324219 12.363281 C 25.332031 12.363281 25.339844 12.359375 25.347656 12.355469 C 25.355469 12.351562 25.363281 12.351562 25.371094 12.347656 C 25.378906 12.34375 25.386719 12.339844 25.394531 12.339844 C 25.402344 12.335938 25.410156 12.332031 25.417969 12.328125 C 25.425781 12.324219 25.433594 12.324219 25.441406 12.320312 C 25.449219 12.316406 25.457031 12.3125 25.464844 12.308594 C 25.472656 12.304688 25.480469 12.300781 25.488281 12.296875 C 25.496094 12.292969 25.503906 12.289062 25.511719 12.285156 C 25.519531 12.28125 25.527344 12.277344 25.535156 12.273438 C 25.542969 12.269531 25.550781 12.265625 25.558594 12.261719 C 25.566406 12.257812 25.578125 12.253906 25.585938 12.25 C 25.59375 12.246094 25.601562 12.242188 25.609375 12.234375 C 25.617188 12.230469 25.625 12.226562 25.632812 12.222656 C 25.640625 12.21875 25.648438 12.210938 25.65625 12.207031 C 25.664062 12.203125 25.671875 12.195312 25.679688 12.191406 C 25.6875 12.1875 25.695312 12.179688 25.703125 12.175781 C 25.710938 12.171875 25.71875 12.164062 25.726562 12.160156 C 25.734375 12.152344 25.742188 12.148438 25.75 12.140625 C 25.757812 12.136719 25.765625 12.128906 25.773438 12.125 C 25.78125 12.117188 25.789062 12.109375 25.796875 12.105469 C 25.804688 12.097656 25.8125 12.089844 25.820312 12.082031 C 25.828125 12.078125 25.835938 12.070312 25.84375 12.0625 C 25.855469 12.054688 25.863281 12.046875 25.871094 12.039062 C 25.878906 12.03125 25.886719 12.023438 25.894531 12.015625 C 25.902344 12.007812 25.910156 12 25.917969 11.992188 C 25.925781 11.984375 25.933594 11.972656 25.941406 11.964844 C 25.949219 11.957031 25.957031 11.945312 25.964844 11.9375 C 25.972656 11.925781 25.980469 11.917969 25.988281 11.90625 C 25.996094 11.894531 26.003906 11.882812 26.011719 11.875 C 26.019531 11.863281 26.027344 11.851562 26.035156 11.839844 C 26.042969 11.824219 26.050781 11.8125 26.058594 11.800781 C 26.066406 11.785156 26.074219 11.769531 26.082031 11.757812 C 26.089844 11.742188 26.101562 11.726562 26.105469 11.710938 C 26.117188 11.691406 26.125 11.671875 26.132812 11.65625 C 26.140625 11.632812 26.148438 11.613281 26.15625 11.589844 C 26.164062 11.5625 26.171875 11.535156 26.179688 11.507812 C 26.1875 11.46875 26.195312 11.425781 26.203125 11.382812 C 26.210938 11.328125 26.210938 11.277344 26.210938 11.222656 C 26.210938 11.167969 26.210938 11.113281 26.203125 11.066406 C 26.195312 11.023438 26.1875 10.984375 26.179688 10.941406 C 26.171875 10.917969 26.164062 10.890625 26.15625 10.863281 C 26.148438 10.84375 26.140625 10.820312 26.132812 10.800781 C 26.125 10.785156 26.117188 10.765625 26.105469 10.75 C 26.097656 10.734375 26.089844 10.71875 26.082031 10.703125 C 26.074219 10.6875 26.066406 10.675781 26.058594 10.660156 C 26.050781 10.648438 26.042969 10.636719 26.035156 10.625 C 26.027344 10.613281 26.019531 10.601562 26.011719 10.589844 C 26.003906 10.578125 25.996094 10.570312 25.988281 10.558594 C 25.980469 10.550781 25.972656 10.539062 25.964844 10.53125 C 25.957031 10.519531 25.949219 10.511719 25.941406 10.503906 C 25.933594 10.492188 25.925781 10.484375 25.917969 10.476562 C 25.910156 10.46875 25.902344 10.460938 25.894531 10.453125 C 25.886719 10.445312 25.878906 10.4375 25.871094 10.429688 C 25.863281 10.421875 25.855469 10.414062 25.84375 10.40625 C 25.835938 10.402344 25.828125 10.394531 25.820312 10.386719 C 25.8125 10.378906 25.804688 10.375 25.796875 10.367188 C 25.789062 10.363281 25.78125 10.355469 25.773438 10.347656 C 25.765625 10.34375 25.757812 10.335938 25.75 10.332031 C 25.742188 10.324219 25.734375 10.320312 25.726562 10.316406 C 25.71875 10.308594 25.710938 10.304688 25.703125 10.296875 C 25.695312 10.292969 25.6875 10.289062 25.679688 10.28125 C 25.671875 10.277344 25.664062 10.273438 25.65625 10.269531 C 25.648438 10.261719 25.640625 10.257812 25.632812 10.253906 C 25.625 10.25 25.617188 10.246094 25.609375 10.242188 C 25.601562 10.234375 25.59375 10.230469 25.585938 10.226562 C 25.578125 10.222656 25.566406 10.21875 25.558594 10.214844 C 25.550781 10.210938 25.542969 10.207031 25.535156 10.203125 C 25.527344 10.199219 25.519531 10.195312 25.511719 10.191406 C 25.503906 10.1875 25.496094 10.183594 25.488281 10.179688 C 25.480469 10.175781 25.472656 10.171875 25.464844 10.167969 C 25.457031 10.167969 25.449219 10.164062 25.441406 10.160156 C 25.433594 10.15625 25.425781 10.152344 25.417969 10.148438 C 25.410156 10.148438 25.402344 10.144531 25.394531 10.140625 C 25.386719 10.136719 25.378906 10.132812 25.371094 10.132812 C 25.363281 10.128906 25.355469 10.125 25.347656 10.125 C 25.339844 10.121094 25.332031 10.117188 25.324219 10.113281 C 25.316406 10.113281 25.308594 10.109375 25.296875 10.105469 C 25.289062 10.105469 25.28125 10.101562 25.273438 10.101562 L 25.25 10.09375 C 25.242188 10.089844 25.234375 10.089844 25.226562 10.085938 C 25.21875 10.082031 25.210938 10.082031 25.203125 10.078125 C 25.195312 10.078125 25.1875 10.074219 25.179688 10.074219 C 25.171875 10.070312 25.164062 10.070312 25.15625 10.066406 C 25.148438 10.066406 25.140625 10.0625 25.132812 10.0625 C 25.125 10.0625 25.117188 10.058594 25.109375 10.058594 C 25.101562 10.054688 25.09375 10.054688 25.085938 10.050781 L 25.039062 10.042969 C 25.03125 10.042969 25.019531 10.039062 25.011719 10.039062 L 24.988281 10.035156 C 24.980469 10.035156 24.972656 10.03125 24.964844 10.03125 L 24.941406 10.027344 L 24.917969 10.027344 L 24.871094 10.019531 L 24.847656 10.019531 L 24.824219 10.015625 L 24.800781 10.015625 L 24.800781 9.984375 L 24.847656 9.976562 C 24.855469 9.976562 24.863281 9.976562 24.871094 9.972656 L 24.894531 9.96875 C 24.902344 9.96875 24.910156 9.964844 24.917969 9.964844 L 24.941406 9.960938 C 24.949219 9.957031 24.957031 9.957031 24.964844 9.953125 C 24.972656 9.953125 24.980469 9.949219 24.988281 9.949219 C 24.996094 9.945312 25.003906 9.941406 25.011719 9.941406 C 25.019531 9.9375 25.03125 9.9375 25.039062 9.933594 C 25.046875 9.933594 25.054688 9.929688 25.0625 9.925781 C 25.070312 9.925781 25.078125 9.921875 25.085938 9.917969 C 25.09375 9.917969 25.101562 9.914062 25.109375 9.910156 C 25.117188 9.910156 25.125 9.90625 25.132812 9.902344 C 25.140625 9.902344 25.148438 9.898438 25.15625 9.894531 C 25.164062 9.890625 25.171875 9.886719 25.179688 9.886719 C 25.1875 9.882812 25.195312 9.878906 25.203125 9.875 C 25.210938 9.871094 25.21875 9.867188 25.226562 9.867188 C 25.234375 9.863281 25.242188 9.859375 25.25 9.855469 C 25.257812 9.851562 25.265625 9.847656 25.273438 9.84375 C 25.28125 9.839844 25.289062 9.835938 25.296875 9.832031 C 25.308594 9.828125 25.316406 9.824219 25.324219 9.820312 C 25.332031 9.8125 25.339844 9.808594 25.347656 9.804688 C 25.355469 9.800781 25.363281 9.796875 25.371094 9.792969 C 25.378906 9.789062 25.386719 9.78125 25.394531 9.777344 C 25.402344 9.773438 25.410156 9.765625 25.417969 9.761719 C 25.425781 9.757812 25.433594 9.75 25.441406 9.746094 C 25.449219 9.742188 25.457031 9.734375 25.464844 9.730469 C 25.472656 9.722656 25.480469 9.71875 25.488281 9.710938 C 25.496094 9.707031 25.503906 9.699219 25.511719 9.695312 C 25.519531 9.6875 25.527344 9.679688 25.535156 9.675781 C 25.542969 9.667969 25.550781 9.660156 25.558594 9.652344 C 25.570312 9.644531 25.578125 9.640625 25.585938 9.632812 C 25.59375 9.625 25.601562 9.617188 25.609375 9.609375 C 25.617188 9.601562 25.625 9.59375 25.632812 9.582031 C 25.640625 9.574219 25.648438 9.566406 25.65625 9.558594 C 25.664062 9.546875 25.671875 9.539062 25.679688 9.53125 C 25.6875 9.519531 25.695312 9.507812 25.703125 9.5 C 25.710938 9.488281 25.71875 9.476562 25.726562 9.46875 C 25.734375 9.457031 25.742188 9.445312 25.75 9.433594 C 25.757812 9.417969 25.765625 9.40625 25.773438 9.394531 C 25.78125 9.378906 25.789062 9.367188 25.796875 9.351562 C 25.804688 9.335938 25.8125 9.320312 25.820312 9.304688 C 25.832031 9.285156 25.839844 9.265625 25.84375 9.25 C 25.855469 9.226562 25.863281 9.203125 25.871094 9.183594 C 25.878906 9.15625 25.886719 9.125 25.894531 9.097656 C 25.902344 9.050781 25.910156 9.003906 25.917969 8.953125 C 25.921875 8.914062 25.921875 8.878906 25.921875 8.835938 C 25.921875 8.796875 25.921875 8.757812 25.917969 8.71875 C 25.910156 8.667969 25.902344 8.617188 25.894531 8.570312 C 25.886719 8.542969 25.878906 8.511719 25.871094 8.484375 C 25.863281 8.464844 25.855469 8.441406 25.84375 8.417969 C 25.839844 8.402344 25.832031 8.382812 25.820312 8.363281 C 25.8125 8.347656 25.804688 8.332031 25.796875 8.316406 C 25.789062 8.304688 25.78125 8.289062 25.773438 8.277344 C 25.765625 8.265625 25.757812 8.25 25.75 8.238281 C 25.742188 8.226562 25.734375 8.214844 25.726562 8.203125 C 25.71875 8.195312 25.710938 8.183594 25.703125 8.171875 C 25.695312 8.164062 25.6875 8.152344 25.679688 8.144531 C 25.671875 8.136719 25.664062 8.125 25.65625 8.117188 C 25.648438 8.109375 25.640625 8.101562 25.632812 8.09375 C 25.625 8.085938 25.617188 8.078125 25.609375 8.070312 C 25.601562 8.0625 25.59375 8.054688 25.585938 8.046875 C 25.578125 8.039062 25.570312 8.03125 25.558594 8.023438 C 25.550781 8.019531 25.542969 8.011719 25.535156 8.003906 C 25.527344 8 25.519531 7.992188 25.511719 7.988281 C 25.503906 7.980469 25.496094 7.972656 25.488281 7.96875 C 25.480469 7.960938 25.472656 7.957031 25.464844 7.953125 C 25.457031 7.945312 25.449219 7.941406 25.441406 7.933594 C 25.433594 7.929688 25.425781 7.925781 25.417969 7.921875 C 25.410156 7.914062 25.402344 7.910156 25.394531 7.90625 C 25.386719 7.902344 25.378906 7.894531 25.371094 7.890625 C 25.363281 7.886719 25.355469 7.882812 25.347656 7.878906 C 25.339844 7.875 25.332031 7.871094 25.324219 7.867188 C 25.316406 7.863281 25.308594 7.855469 25.296875 7.851562 C 25.289062 7.847656 25.28125 7.84375 25.273438 7.84375 C 25.265625 7.839844 25.257812 7.835938 25.25 7.832031 C 25.242188 7.828125 25.234375 7.824219 25.226562 7.820312 C 25.21875 7.816406 25.210938 7.8125 25.203125 7.808594 C 25.195312 7.808594 25.1875 7.804688 25.179688 7.800781 C 25.171875 7.796875 25.164062 7.792969 25.15625 7.792969 C 25.148438 7.789062 25.140625 7.785156 25.132812 7.78125 C 25.125 7.78125 25.117188 7.777344 25.109375 7.773438 C 25.101562 7.773438 25.09375 7.769531 25.085938 7.765625 C 25.078125 7.765625 25.070312 7.761719 25.0625 7.757812 C 25.054688 7.757812 25.046875 7.753906 25.039062 7.75 C 25.03125 7.75 25.019531 7.746094 25.011719 7.746094 C 25.003906 7.742188 24.996094 7.742188 24.988281 7.738281 L 24.964844 7.734375 C 24.957031 7.730469 24.949219 7.730469 24.941406 7.726562 C 24.933594 7.726562 24.925781 7.722656 24.917969 7.722656 L 24.894531 7.714844 C 24.886719 7.714844 24.878906 7.714844 24.871094 7.710938 C 24.863281 7.710938 24.855469 7.707031 24.847656 7.707031 L 24.824219 7.703125 C 24.816406 7.703125 24.808594 7.699219 24.800781 7.699219 L 24.753906 7.691406 L 24.726562 7.6875 L 24.703125 7.683594 L 24.679688 7.683594 L 24.65625 7.679688 L 24.632812 7.679688 L 24.609375 7.675781 L 24.585938 7.675781 L 24.5625 7.671875 L 24.515625 7.671875 L 24.492188 7.667969 L 24.441406 7.667969 L 24.417969 7.664062 L 20.824219 7.664062 L 20.824219 5.066406 C 20.824219 4.890625 20.84375 4.722656 20.875 4.558594 C 20.882812 4.523438 20.890625 4.488281 20.902344 4.453125 C 20.90625 4.421875 20.914062 4.394531 20.925781 4.363281 C 20.933594 4.339844 20.941406 4.3125 20.949219 4.285156 C 20.957031 4.261719 20.964844 4.238281 20.972656 4.214844 C 20.980469 4.195312 20.988281 4.171875 20.996094 4.152344 C 21.003906 4.132812 21.011719 4.113281 21.019531 4.09375 C 21.027344 4.074219 21.035156 4.054688 21.042969 4.039062 C 21.050781 4.019531 21.058594 4.003906 21.066406 3.984375 C 21.074219 3.96875 21.082031 3.953125 21.089844 3.9375 C 21.097656 3.921875 21.105469 3.90625 21.113281 3.890625 C 21.121094 3.875 21.128906 3.863281 21.136719 3.847656 C 21.144531 3.832031 21.152344 3.820312 21.160156 3.804688 C 21.167969 3.792969 21.179688 3.777344 21.1875 3.765625 C 21.195312 3.75 21.203125 3.738281 21.210938 3.726562 C 21.21875 3.714844 21.226562 3.699219 21.234375 3.6875 C 21.242188 3.675781 21.25 3.664062 21.257812 3.652344 C 21.265625 3.640625 21.273438 3.628906 21.28125 3.617188 C 21.289062 3.605469 21.296875 3.597656 21.304688 3.585938 C 21.3125 3.574219 21.320312 3.5625 21.328125 3.554688 C 21.335938 3.542969 21.34375 3.53125 21.351562 3.523438 C 21.359375 3.511719 21.367188 3.5 21.375 3.492188 C 21.382812 3.480469 21.390625 3.472656 21.398438 3.460938 C 21.40625 3.453125 21.414062 3.441406 21.421875 3.433594 C 21.429688 3.425781 21.4375 3.414062 21.449219 3.40625 C 21.457031 3.398438 21.464844 3.386719 21.472656 3.378906 C 21.480469 3.371094 21.488281 3.363281 21.496094 3.355469 C 21.503906 3.34375 21.511719 3.335938 21.519531 3.328125 C 21.527344 3.320312 21.535156 3.3125 21.542969 3.304688 C 21.550781 3.296875 21.558594 3.289062 21.566406 3.28125 C 21.574219 3.273438 21.582031 3.265625 21.589844 3.257812 C 21.597656 3.25 21.605469 3.242188 21.613281 3.234375 C 21.621094 3.226562 21.628906 3.21875 21.636719 3.210938 C 21.644531 3.203125 21.652344 3.199219 21.660156 3.191406 C 21.667969 3.183594 21.675781 3.175781 21.683594 3.167969 C 21.691406 3.164062 21.699219 3.15625 21.707031 3.148438 C 21.714844 3.140625 21.726562 3.136719 21.734375 3.128906 C 21.742188 3.121094 21.75 3.117188 21.757812 3.109375 L 21.804688 3.070312 C 21.8125 3.066406 21.820312 3.058594 21.828125 3.054688 C 21.835938 3.046875 21.84375 3.042969 21.851562 3.035156 L 21.875 3.019531 C 21.882812 3.011719 21.890625 3.007812 21.898438 3.003906 L 21.921875 2.984375 L 21.945312 2.96875 C 21.953125 2.964844 21.960938 2.960938 21.96875 2.953125 L 21.996094 2.941406 C 22.003906 2.933594 22.011719 2.929688 22.019531 2.925781 C 22.027344 2.921875 22.035156 2.914062 22.042969 2.910156 C 22.050781 2.90625 22.058594 2.902344 22.066406 2.894531 C 22.074219 2.890625 22.082031 2.886719 22.089844 2.882812 C 22.097656 2.878906 22.105469 2.875 22.113281 2.871094 C 22.121094 2.863281 22.128906 2.859375 22.136719 2.855469 C 22.144531 2.851562 22.152344 2.847656 22.160156 2.84375 C 22.167969 2.839844 22.175781 2.835938 22.183594 2.832031 C 22.191406 2.828125 22.199219 2.824219 22.207031 2.820312 L 22.230469 2.808594 C 22.238281 2.804688 22.246094 2.800781 22.253906 2.796875 C 22.261719 2.792969 22.273438 2.789062 22.28125 2.785156 C 22.289062 2.78125 22.296875 2.777344 22.304688 2.773438 C 22.3125 2.773438 22.320312 2.769531 22.328125 2.765625 C 22.335938 2.761719 22.34375 2.757812 22.351562 2.753906 C 22.359375 2.75 22.367188 2.746094 22.375 2.746094 L 22.398438 2.734375 L 22.421875 2.726562 C 22.429688 2.722656 22.4375 2.71875 22.445312 2.71875 C 22.453125 2.714844 22.460938 2.710938 22.46875 2.707031 C 22.476562 2.707031 22.484375 2.703125 22.492188 2.699219 C 22.5 2.695312 22.507812 2.695312 22.515625 2.691406 L 22.539062 2.683594 C 22.550781 2.679688 22.558594 2.679688 22.566406 2.675781 C 22.574219 2.675781 22.582031 2.671875 22.589844 2.667969 C 22.597656 2.667969 22.605469 2.664062 22.613281 2.664062 C 22.621094 2.660156 22.628906 2.65625 22.636719 2.65625 C 22.644531 2.652344 22.652344 2.652344 22.660156 2.648438 L 22.683594 2.644531 C 22.691406 2.640625 22.699219 2.640625 22.707031 2.636719 C 22.714844 2.636719 22.722656 2.632812 22.730469 2.632812 C 22.738281 2.628906 22.746094 2.628906 22.753906 2.625 L 22.800781 2.617188 C 22.808594 2.613281 22.816406 2.613281 22.828125 2.609375 C 22.835938 2.609375 22.84375 2.609375 22.851562 2.605469 C 22.859375 2.605469 22.867188 2.605469 22.875 2.601562 L 22.898438 2.597656 C 22.90625 2.597656 22.914062 2.59375 22.921875 2.59375 C 22.929688 2.59375 22.9375 2.59375 22.945312 2.589844 C 22.953125 2.589844 22.960938 2.589844 22.96875 2.585938 C 22.976562 2.585938 22.984375 2.585938 22.992188 2.585938 L 23.015625 2.582031 C 23.023438 2.582031 23.03125 2.582031 23.039062 2.578125 C 23.046875 2.578125 23.054688 2.578125 23.0625 2.578125 L 23.085938 2.574219 L 23.113281 2.574219 C 23.121094 2.574219 23.128906 2.570312 23.136719 2.570312 C 23.144531 2.570312 23.152344 2.570312 23.160156 2.570312 C 23.167969 2.570312 23.175781 2.570312 23.183594 2.570312 L 23.207031 2.566406 C 23.214844 2.566406 23.222656 2.566406 23.230469 2.566406 C 23.238281 2.566406 23.246094 2.566406 23.253906 2.566406 C 23.261719 2.566406 23.269531 2.566406 23.277344 2.566406 Z M 26.890625 2.566406 "/>
<path style=" stroke:none;fill-rule:evenodd;fill:url(#linear1);" d="M 7.246094 11.265625 C 7.230469 11.257812 7.214844 11.25 7.195312 11.242188 L 7.195312 5.066406 C 7.195312 4.894531 7.214844 4.722656 7.246094 4.558594 C 7.253906 4.523438 7.261719 4.488281 7.273438 4.453125 C 7.277344 4.425781 7.285156 4.394531 7.296875 4.367188 C 7.304688 4.339844 7.3125 4.3125 7.320312 4.289062 C 7.328125 4.265625 7.335938 4.242188 7.34375 4.21875 C 7.351562 4.195312 7.359375 4.175781 7.367188 4.152344 C 7.375 4.132812 7.382812 4.113281 7.390625 4.09375 C 7.398438 4.074219 7.40625 4.058594 7.414062 4.039062 C 7.421875 4.023438 7.429688 4.003906 7.4375 3.988281 C 7.445312 3.972656 7.453125 3.953125 7.460938 3.9375 C 7.46875 3.921875 7.476562 3.90625 7.484375 3.890625 C 7.492188 3.878906 7.5 3.863281 7.507812 3.847656 C 7.515625 3.835938 7.523438 3.820312 7.53125 3.804688 C 7.539062 3.792969 7.546875 3.777344 7.554688 3.765625 C 7.5625 3.753906 7.570312 3.738281 7.582031 3.726562 C 7.585938 3.714844 7.597656 3.703125 7.605469 3.691406 C 7.613281 3.679688 7.621094 3.667969 7.628906 3.65625 C 7.636719 3.644531 7.644531 3.632812 7.652344 3.621094 C 7.660156 3.609375 7.667969 3.597656 7.675781 3.585938 C 7.683594 3.574219 7.691406 3.566406 7.699219 3.554688 C 7.707031 3.542969 7.714844 3.535156 7.722656 3.523438 C 7.730469 3.511719 7.738281 3.503906 7.746094 3.492188 C 7.753906 3.484375 7.761719 3.472656 7.769531 3.464844 C 7.777344 3.453125 7.785156 3.445312 7.792969 3.433594 C 7.800781 3.425781 7.808594 3.417969 7.816406 3.40625 C 7.824219 3.398438 7.832031 3.390625 7.839844 3.382812 C 7.847656 3.371094 7.855469 3.363281 7.863281 3.355469 C 7.871094 3.347656 7.878906 3.339844 7.886719 3.328125 C 7.894531 3.320312 7.90625 3.3125 7.914062 3.304688 C 7.921875 3.296875 7.929688 3.289062 7.9375 3.28125 C 7.945312 3.273438 7.953125 3.265625 7.960938 3.257812 C 7.96875 3.25 7.976562 3.242188 7.984375 3.234375 C 7.992188 3.226562 8 3.21875 8.007812 3.214844 C 8.015625 3.207031 8.023438 3.199219 8.03125 3.191406 C 8.039062 3.183594 8.046875 3.175781 8.054688 3.171875 C 8.0625 3.164062 8.070312 3.15625 8.078125 3.148438 C 8.085938 3.144531 8.09375 3.136719 8.101562 3.128906 C 8.109375 3.125 8.117188 3.117188 8.125 3.109375 C 8.132812 3.105469 8.140625 3.097656 8.148438 3.09375 C 8.15625 3.085938 8.164062 3.078125 8.171875 3.074219 C 8.179688 3.066406 8.1875 3.0625 8.195312 3.054688 L 8.222656 3.039062 C 8.230469 3.03125 8.238281 3.027344 8.246094 3.019531 C 8.253906 3.015625 8.261719 3.007812 8.269531 3.003906 C 8.277344 3 8.285156 2.992188 8.292969 2.988281 C 8.300781 2.980469 8.308594 2.976562 8.316406 2.972656 C 8.324219 2.964844 8.332031 2.960938 8.339844 2.957031 C 8.347656 2.949219 8.355469 2.945312 8.363281 2.941406 C 8.371094 2.9375 8.378906 2.929688 8.386719 2.925781 C 8.394531 2.921875 8.402344 2.917969 8.410156 2.910156 C 8.417969 2.90625 8.425781 2.902344 8.433594 2.898438 C 8.441406 2.894531 8.449219 2.890625 8.457031 2.882812 C 8.464844 2.878906 8.472656 2.875 8.480469 2.871094 C 8.488281 2.867188 8.496094 2.863281 8.503906 2.859375 C 8.511719 2.855469 8.519531 2.847656 8.53125 2.84375 C 8.539062 2.839844 8.546875 2.835938 8.554688 2.832031 L 8.578125 2.820312 C 8.585938 2.816406 8.59375 2.8125 8.601562 2.808594 C 8.609375 2.804688 8.617188 2.800781 8.625 2.796875 C 8.632812 2.792969 8.640625 2.789062 8.648438 2.785156 C 8.65625 2.78125 8.664062 2.78125 8.671875 2.777344 C 8.679688 2.773438 8.6875 2.769531 8.695312 2.765625 C 8.703125 2.761719 8.710938 2.757812 8.71875 2.753906 L 8.742188 2.746094 L 8.765625 2.734375 L 8.789062 2.726562 C 8.796875 2.722656 8.804688 2.722656 8.8125 2.71875 C 8.820312 2.714844 8.828125 2.710938 8.839844 2.710938 C 8.847656 2.707031 8.855469 2.703125 8.863281 2.699219 L 8.910156 2.683594 C 8.917969 2.683594 8.925781 2.679688 8.933594 2.675781 C 8.941406 2.675781 8.949219 2.671875 8.957031 2.671875 C 8.964844 2.667969 8.972656 2.664062 8.980469 2.664062 C 8.988281 2.660156 8.996094 2.660156 9.003906 2.65625 L 9.027344 2.648438 C 9.035156 2.648438 9.042969 2.644531 9.050781 2.644531 C 9.058594 2.640625 9.066406 2.640625 9.074219 2.636719 C 9.082031 2.636719 9.089844 2.632812 9.097656 2.632812 C 9.105469 2.628906 9.113281 2.628906 9.121094 2.625 L 9.144531 2.621094 C 9.15625 2.621094 9.164062 2.617188 9.171875 2.617188 C 9.179688 2.613281 9.1875 2.613281 9.195312 2.613281 C 9.203125 2.609375 9.210938 2.609375 9.21875 2.605469 C 9.226562 2.605469 9.234375 2.605469 9.242188 2.601562 L 9.265625 2.597656 C 9.273438 2.597656 9.28125 2.597656 9.289062 2.59375 C 9.296875 2.59375 9.304688 2.59375 9.3125 2.589844 C 9.320312 2.589844 9.328125 2.589844 9.335938 2.589844 L 9.382812 2.582031 C 9.390625 2.582031 9.398438 2.582031 9.40625 2.578125 C 9.414062 2.578125 9.421875 2.578125 9.429688 2.578125 L 9.453125 2.574219 C 9.460938 2.574219 9.472656 2.574219 9.480469 2.574219 C 9.488281 2.574219 9.496094 2.574219 9.503906 2.570312 C 9.511719 2.570312 9.519531 2.570312 9.527344 2.570312 C 9.535156 2.570312 9.542969 2.570312 9.550781 2.570312 L 9.574219 2.570312 C 9.582031 2.566406 9.589844 2.566406 9.597656 2.566406 C 9.605469 2.566406 9.613281 2.566406 9.621094 2.566406 C 9.628906 2.566406 9.636719 2.566406 9.644531 2.566406 L 13.273438 2.566406 L 13.273438 15.066406 C 13.273438 15.175781 13.265625 15.28125 13.253906 15.386719 C 13.246094 15.4375 13.238281 15.488281 13.226562 15.539062 C 13.222656 15.574219 13.214844 15.613281 13.203125 15.652344 C 13.195312 15.683594 13.1875 15.710938 13.179688 15.742188 C 13.171875 15.769531 13.164062 15.796875 13.15625 15.824219 C 13.148438 15.847656 13.140625 15.871094 13.132812 15.894531 C 13.125 15.917969 13.117188 15.941406 13.109375 15.960938 C 13.101562 15.980469 13.09375 16.003906 13.085938 16.023438 C 13.078125 16.039062 13.070312 16.058594 13.0625 16.078125 C 13.054688 16.097656 13.046875 16.113281 13.039062 16.132812 C 13.03125 16.148438 13.023438 16.164062 13.015625 16.179688 C 13.007812 16.195312 13 16.210938 12.992188 16.226562 C 12.984375 16.242188 12.976562 16.257812 12.96875 16.273438 C 12.960938 16.285156 12.953125 16.300781 12.945312 16.316406 C 12.9375 16.328125 12.929688 16.34375 12.917969 16.355469 C 12.910156 16.371094 12.902344 16.382812 12.894531 16.394531 C 12.886719 16.40625 12.878906 16.421875 12.871094 16.433594 C 12.863281 16.445312 12.855469 16.457031 12.847656 16.46875 C 12.839844 16.480469 12.832031 16.492188 12.824219 16.503906 C 12.816406 16.515625 12.808594 16.527344 12.800781 16.539062 C 12.792969 16.546875 12.785156 16.558594 12.777344 16.570312 C 12.769531 16.582031 12.761719 16.589844 12.753906 16.601562 C 12.746094 16.613281 12.738281 16.621094 12.730469 16.632812 C 12.722656 16.640625 12.714844 16.652344 12.707031 16.660156 C 12.699219 16.671875 12.691406 16.679688 12.683594 16.691406 C 12.675781 16.699219 12.667969 16.707031 12.660156 16.71875 C 12.652344 16.726562 12.644531 16.734375 12.636719 16.746094 C 12.628906 16.753906 12.621094 16.761719 12.609375 16.769531 C 12.601562 16.78125 12.59375 16.789062 12.585938 16.796875 C 12.578125 16.804688 12.570312 16.8125 12.5625 16.820312 C 12.554688 16.828125 12.546875 16.835938 12.539062 16.84375 C 12.53125 16.851562 12.523438 16.859375 12.515625 16.867188 C 12.507812 16.875 12.5 16.882812 12.492188 16.890625 C 12.484375 16.898438 12.476562 16.90625 12.46875 16.914062 C 12.460938 16.921875 12.453125 16.929688 12.445312 16.9375 C 12.4375 16.941406 12.429688 16.949219 12.421875 16.957031 C 12.414062 16.964844 12.40625 16.972656 12.398438 16.976562 C 12.390625 16.984375 12.382812 16.992188 12.375 16.996094 C 12.367188 17.003906 12.359375 17.011719 12.351562 17.015625 C 12.34375 17.023438 12.335938 17.03125 12.328125 17.035156 C 12.320312 17.042969 12.3125 17.050781 12.304688 17.054688 C 12.292969 17.0625 12.285156 17.066406 12.277344 17.074219 C 12.269531 17.078125 12.261719 17.085938 12.253906 17.089844 C 12.246094 17.097656 12.238281 17.101562 12.230469 17.109375 C 12.222656 17.113281 12.214844 17.121094 12.207031 17.125 C 12.199219 17.128906 12.191406 17.136719 12.183594 17.140625 C 12.175781 17.148438 12.167969 17.152344 12.160156 17.15625 C 12.152344 17.164062 12.144531 17.167969 12.136719 17.171875 C 12.128906 17.179688 12.121094 17.183594 12.113281 17.1875 C 12.105469 17.195312 12.097656 17.199219 12.089844 17.203125 C 12.082031 17.207031 12.074219 17.214844 12.066406 17.21875 C 12.058594 17.222656 12.050781 17.226562 12.042969 17.230469 C 12.035156 17.238281 12.027344 17.242188 12.019531 17.246094 C 12.011719 17.25 12.003906 17.253906 11.996094 17.257812 C 11.988281 17.261719 11.976562 17.269531 11.96875 17.273438 L 11.945312 17.285156 C 11.9375 17.289062 11.929688 17.292969 11.921875 17.296875 C 11.914062 17.300781 11.90625 17.304688 11.898438 17.308594 C 11.890625 17.3125 11.882812 17.316406 11.875 17.320312 C 11.867188 17.324219 11.859375 17.328125 11.851562 17.332031 C 11.84375 17.335938 11.835938 17.339844 11.828125 17.34375 C 11.820312 17.347656 11.8125 17.351562 11.804688 17.355469 L 11.78125 17.363281 L 11.757812 17.375 C 11.75 17.378906 11.742188 17.382812 11.734375 17.386719 C 11.726562 17.386719 11.71875 17.390625 11.710938 17.394531 C 11.703125 17.398438 11.695312 17.402344 11.6875 17.402344 C 11.679688 17.40625 11.671875 17.410156 11.660156 17.414062 C 11.652344 17.417969 11.644531 17.417969 11.636719 17.421875 L 11.589844 17.4375 C 11.582031 17.441406 11.574219 17.445312 11.566406 17.445312 C 11.558594 17.449219 11.550781 17.453125 11.542969 17.453125 C 11.535156 17.457031 11.527344 17.460938 11.519531 17.460938 L 11.472656 17.476562 C 11.464844 17.476562 11.457031 17.480469 11.449219 17.480469 C 11.441406 17.484375 11.433594 17.488281 11.425781 17.488281 C 11.417969 17.492188 11.410156 17.492188 11.402344 17.496094 C 11.394531 17.496094 11.386719 17.5 11.378906 17.5 L 11.351562 17.503906 L 11.328125 17.511719 C 11.320312 17.511719 11.3125 17.515625 11.304688 17.515625 C 11.296875 17.519531 11.289062 17.519531 11.28125 17.519531 C 11.273438 17.523438 11.265625 17.523438 11.257812 17.527344 L 11.234375 17.53125 C 11.226562 17.53125 11.21875 17.53125 11.210938 17.535156 C 11.203125 17.535156 11.195312 17.535156 11.1875 17.539062 C 11.179688 17.539062 11.171875 17.539062 11.164062 17.542969 L 11.140625 17.542969 C 11.132812 17.546875 11.125 17.546875 11.117188 17.546875 C 11.109375 17.550781 11.101562 17.550781 11.09375 17.550781 C 11.085938 17.550781 11.078125 17.550781 11.070312 17.554688 C 11.0625 17.554688 11.054688 17.554688 11.046875 17.554688 L 11.019531 17.558594 C 11.011719 17.558594 11.003906 17.558594 10.996094 17.558594 C 10.988281 17.5625 10.980469 17.5625 10.972656 17.5625 L 10.925781 17.5625 C 10.917969 17.566406 10.910156 17.566406 10.902344 17.566406 C 10.894531 17.566406 10.886719 17.566406 10.878906 17.566406 C 10.871094 17.566406 10.863281 17.566406 10.855469 17.566406 L 10.832031 17.566406 C 10.824219 17.566406 10.816406 17.566406 10.808594 17.566406 L 7.195312 17.566406 L 7.195312 12.296875 C 7.195312 12.296875 7.214844 12.304688 7.246094 12.3125 L 7.273438 12.316406 L 7.296875 12.324219 L 7.320312 12.328125 L 7.34375 12.335938 L 7.367188 12.339844 L 7.390625 12.347656 L 7.4375 12.355469 L 7.460938 12.363281 L 7.507812 12.371094 L 7.53125 12.378906 L 7.554688 12.382812 L 7.582031 12.386719 L 7.605469 12.394531 L 7.699219 12.410156 L 7.722656 12.417969 L 7.886719 12.445312 L 7.914062 12.449219 L 8.195312 12.496094 L 8.222656 12.5 L 8.269531 12.507812 L 8.292969 12.507812 L 8.386719 12.523438 L 8.410156 12.523438 L 8.480469 12.535156 L 8.503906 12.535156 L 8.53125 12.539062 L 8.554688 12.542969 L 8.578125 12.542969 L 8.625 12.550781 L 8.648438 12.550781 L 8.695312 12.558594 L 8.71875 12.558594 L 8.742188 12.5625 L 8.765625 12.5625 L 8.789062 12.566406 L 8.8125 12.566406 L 8.839844 12.570312 L 8.863281 12.570312 L 8.886719 12.574219 L 8.910156 12.574219 L 8.933594 12.578125 L 8.957031 12.578125 L 8.980469 12.582031 L 9.003906 12.582031 L 9.027344 12.585938 L 9.074219 12.585938 L 9.097656 12.589844 L 9.121094 12.589844 L 9.144531 12.59375 L 9.195312 12.59375 L 9.21875 12.597656 L 9.289062 12.597656 L 9.3125 12.601562 L 9.382812 12.601562 L 9.40625 12.605469 L 9.550781 12.605469 L 9.574219 12.609375 L 9.859375 12.609375 L 9.882812 12.605469 L 10.023438 12.605469 L 10.046875 12.601562 L 10.121094 12.601562 L 10.144531 12.597656 L 10.191406 12.597656 L 10.214844 12.59375 L 10.238281 12.59375 L 10.261719 12.589844 L 10.308594 12.589844 L 10.332031 12.585938 L 10.355469 12.585938 L 10.378906 12.582031 L 10.402344 12.582031 L 10.429688 12.578125 L 10.453125 12.574219 L 10.476562 12.574219 L 10.5 12.570312 L 10.523438 12.570312 L 10.59375 12.558594 L 10.617188 12.558594 L 10.710938 12.542969 C 10.722656 12.542969 10.730469 12.542969 10.738281 12.539062 L 10.761719 12.539062 L 10.808594 12.53125 C 10.816406 12.527344 10.824219 12.527344 10.832031 12.527344 L 10.855469 12.523438 C 10.863281 12.519531 10.871094 12.519531 10.878906 12.519531 C 10.886719 12.515625 10.894531 12.515625 10.902344 12.511719 L 10.972656 12.5 C 10.980469 12.496094 10.988281 12.496094 10.996094 12.496094 L 11.019531 12.488281 L 11.046875 12.484375 C 11.054688 12.484375 11.0625 12.480469 11.070312 12.480469 L 11.09375 12.472656 C 11.101562 12.472656 11.109375 12.46875 11.117188 12.46875 C 11.125 12.464844 11.132812 12.464844 11.140625 12.460938 L 11.164062 12.457031 C 11.171875 12.453125 11.179688 12.453125 11.1875 12.449219 C 11.195312 12.449219 11.203125 12.445312 11.210938 12.445312 L 11.234375 12.4375 C 11.242188 12.4375 11.25 12.433594 11.257812 12.429688 C 11.265625 12.429688 11.273438 12.425781 11.28125 12.425781 L 11.304688 12.417969 C 11.3125 12.414062 11.320312 12.414062 11.328125 12.410156 L 11.351562 12.402344 L 11.378906 12.394531 C 11.386719 12.394531 11.394531 12.390625 11.402344 12.386719 L 11.449219 12.371094 C 11.457031 12.367188 11.464844 12.367188 11.472656 12.363281 C 11.480469 12.359375 11.488281 12.359375 11.496094 12.355469 L 11.519531 12.347656 C 11.527344 12.34375 11.535156 12.339844 11.542969 12.335938 C 11.550781 12.335938 11.558594 12.332031 11.566406 12.328125 C 11.574219 12.324219 11.582031 12.320312 11.589844 12.316406 L 11.613281 12.308594 L 11.636719 12.296875 C 11.644531 12.296875 11.652344 12.292969 11.660156 12.289062 C 11.671875 12.285156 11.679688 12.28125 11.6875 12.277344 L 11.734375 12.253906 C 11.742188 12.25 11.75 12.246094 11.757812 12.242188 C 11.765625 12.238281 11.773438 12.234375 11.78125 12.230469 C 11.789062 12.226562 11.796875 12.222656 11.804688 12.21875 C 11.8125 12.214844 11.820312 12.210938 11.828125 12.207031 C 11.835938 12.203125 11.84375 12.199219 11.851562 12.195312 C 11.859375 12.191406 11.867188 12.1875 11.875 12.179688 C 11.882812 12.175781 11.890625 12.171875 11.898438 12.167969 C 11.90625 12.164062 11.914062 12.15625 11.921875 12.152344 C 11.929688 12.148438 11.9375 12.144531 11.945312 12.140625 C 11.953125 12.132812 11.960938 12.128906 11.96875 12.125 C 11.976562 12.117188 11.988281 12.113281 11.996094 12.109375 C 12.003906 12.101562 12.011719 12.097656 12.019531 12.09375 C 12.027344 12.085938 12.035156 12.082031 12.042969 12.078125 C 12.050781 12.070312 12.058594 12.066406 12.066406 12.058594 C 12.074219 12.054688 12.082031 12.046875 12.089844 12.042969 C 12.097656 12.035156 12.105469 12.03125 12.113281 12.023438 C 12.121094 12.015625 12.128906 12.011719 12.136719 12.003906 C 12.144531 12 12.152344 11.992188 12.160156 11.984375 C 12.167969 11.980469 12.175781 11.972656 12.183594 11.964844 C 12.191406 11.957031 12.199219 11.953125 12.207031 11.945312 C 12.214844 11.9375 12.222656 11.929688 12.230469 11.921875 C 12.238281 11.914062 12.246094 11.90625 12.253906 11.902344 C 12.261719 11.894531 12.269531 11.886719 12.277344 11.878906 C 12.285156 11.867188 12.296875 11.859375 12.304688 11.851562 C 12.3125 11.84375 12.320312 11.835938 12.328125 11.828125 C 12.335938 11.820312 12.34375 11.808594 12.351562 11.800781 C 12.359375 11.792969 12.367188 11.78125 12.375 11.773438 C 12.382812 11.761719 12.390625 11.753906 12.398438 11.742188 C 12.40625 11.734375 12.414062 11.722656 12.421875 11.714844 C 12.429688 11.703125 12.4375 11.691406 12.445312 11.679688 C 12.453125 11.667969 12.460938 11.65625 12.46875 11.648438 C 12.476562 11.632812 12.484375 11.621094 12.492188 11.609375 C 12.5 11.597656 12.507812 11.585938 12.515625 11.570312 C 12.523438 11.558594 12.53125 11.542969 12.539062 11.53125 C 12.546875 11.515625 12.554688 11.5 12.5625 11.488281 C 12.570312 11.46875 12.578125 11.453125 12.585938 11.4375 C 12.597656 11.421875 12.605469 11.402344 12.609375 11.386719 C 12.621094 11.367188 12.628906 11.347656 12.636719 11.328125 C 12.644531 11.304688 12.652344 11.285156 12.660156 11.261719 C 12.667969 11.238281 12.675781 11.214844 12.683594 11.1875 C 12.691406 11.160156 12.699219 11.128906 12.707031 11.097656 C 12.714844 11.0625 12.722656 11.023438 12.730469 10.984375 C 12.738281 10.929688 12.746094 10.871094 12.753906 10.8125 C 12.761719 10.730469 12.765625 10.648438 12.765625 10.5625 L 12.765625 7.664062 L 10.648438 7.664062 L 10.648438 10.5625 C 10.648438 10.609375 10.644531 10.652344 10.640625 10.699219 C 10.636719 10.753906 10.628906 10.808594 10.617188 10.859375 C 10.609375 10.894531 10.601562 10.925781 10.59375 10.957031 C 10.585938 10.980469 10.578125 11.007812 10.570312 11.03125 C 10.5625 11.050781 10.554688 11.074219 10.546875 11.09375 C 10.539062 11.109375 10.53125 11.128906 10.523438 11.144531 C 10.515625 11.160156 10.507812 11.175781 10.5 11.191406 C 10.492188 11.207031 10.484375 11.21875 10.476562 11.234375 C 10.46875 11.246094 10.460938 11.257812 10.453125 11.273438 C 10.445312 11.285156 10.4375 11.296875 10.429688 11.304688 C 10.421875 11.316406 10.414062 11.328125 10.402344 11.339844 C 10.398438 11.347656 10.386719 11.359375 10.378906 11.367188 C 10.371094 11.378906 10.363281 11.386719 10.355469 11.394531 C 10.347656 11.40625 10.339844 11.414062 10.332031 11.421875 C 10.324219 11.429688 10.316406 11.4375 10.308594 11.445312 C 10.300781 11.453125 10.292969 11.460938 10.285156 11.46875 C 10.277344 11.476562 10.269531 11.484375 10.261719 11.492188 C 10.253906 11.5 10.246094 11.503906 10.238281 11.511719 C 10.230469 11.519531 10.222656 11.523438 10.214844 11.53125 C 10.207031 11.535156 10.199219 11.542969 10.191406 11.550781 C 10.183594 11.554688 10.175781 11.558594 10.167969 11.566406 C 10.160156 11.570312 10.152344 11.578125 10.144531 11.582031 C 10.136719 11.585938 10.128906 11.59375 10.121094 11.597656 C 10.113281 11.601562 10.105469 11.605469 10.09375 11.613281 C 10.085938 11.617188 10.078125 11.621094 10.070312 11.625 C 10.0625 11.628906 10.054688 11.632812 10.046875 11.640625 C 10.039062 11.644531 10.03125 11.648438 10.023438 11.652344 C 10.015625 11.65625 10.007812 11.660156 10 11.664062 C 9.992188 11.667969 9.984375 11.671875 9.976562 11.675781 C 9.96875 11.675781 9.960938 11.679688 9.953125 11.683594 C 9.945312 11.6875 9.9375 11.691406 9.929688 11.695312 C 9.921875 11.699219 9.914062 11.699219 9.90625 11.703125 C 9.898438 11.707031 9.890625 11.710938 9.882812 11.710938 C 9.875 11.714844 9.867188 11.71875 9.859375 11.722656 C 9.851562 11.722656 9.84375 11.726562 9.835938 11.730469 C 9.828125 11.730469 9.820312 11.734375 9.8125 11.734375 C 9.804688 11.738281 9.796875 11.742188 9.789062 11.742188 C 9.777344 11.746094 9.769531 11.746094 9.761719 11.75 C 9.753906 11.75 9.746094 11.753906 9.738281 11.753906 C 9.730469 11.757812 9.722656 11.757812 9.714844 11.761719 C 9.707031 11.761719 9.699219 11.765625 9.691406 11.765625 C 9.683594 11.769531 9.675781 11.769531 9.667969 11.769531 C 9.660156 11.773438 9.652344 11.773438 9.644531 11.773438 C 9.636719 11.777344 9.628906 11.777344 9.621094 11.78125 L 9.597656 11.78125 C 9.589844 11.785156 9.582031 11.785156 9.574219 11.785156 C 9.566406 11.789062 9.558594 11.789062 9.550781 11.789062 L 9.527344 11.792969 C 9.519531 11.792969 9.511719 11.792969 9.503906 11.792969 C 9.496094 11.796875 9.488281 11.796875 9.480469 11.796875 C 9.472656 11.796875 9.460938 11.796875 9.453125 11.796875 C 9.445312 11.796875 9.4375 11.800781 9.429688 11.800781 C 9.421875 11.800781 9.414062 11.800781 9.40625 11.800781 C 9.398438 11.800781 9.390625 11.800781 9.382812 11.800781 L 9.359375 11.800781 C 9.351562 11.800781 9.34375 11.800781 9.335938 11.800781 L 9.171875 11.800781 L 9.144531 11.796875 L 9.097656 11.796875 L 9.074219 11.792969 L 9.050781 11.792969 L 9.027344 11.789062 L 9.003906 11.789062 L 8.980469 11.785156 L 8.957031 11.785156 L 8.910156 11.777344 L 8.886719 11.777344 L 8.839844 11.769531 L 8.8125 11.765625 L 8.765625 11.757812 L 8.742188 11.757812 L 8.671875 11.746094 L 8.648438 11.738281 L 8.53125 11.71875 L 8.503906 11.710938 L 8.457031 11.703125 L 8.433594 11.695312 L 8.410156 11.691406 L 8.386719 11.683594 L 8.363281 11.679688 L 8.339844 11.671875 L 8.316406 11.667969 L 8.292969 11.660156 L 8.269531 11.65625 L 8.222656 11.640625 L 8.195312 11.632812 L 8.171875 11.628906 L 7.914062 11.542969 L 7.886719 11.535156 L 7.839844 11.519531 L 7.816406 11.507812 L 7.746094 11.484375 L 7.722656 11.472656 L 7.699219 11.464844 L 7.675781 11.453125 L 7.628906 11.4375 L 7.582031 11.414062 L 7.554688 11.40625 L 7.53125 11.394531 L 7.507812 11.386719 L 7.460938 11.363281 L 7.4375 11.355469 L 7.367188 11.320312 L 7.34375 11.3125 L 7.273438 11.277344 Z M 7.246094 11.265625 "/>
<path style=" stroke:none;fill-rule:evenodd;fill:url(#linear2);" d="M 14.0625 8.296875 C 14.046875 8.3125 14.027344 8.324219 14.011719 8.339844 L 14.011719 5.066406 C 14.011719 4.894531 14.027344 4.722656 14.0625 4.558594 C 14.070312 4.523438 14.078125 4.488281 14.085938 4.453125 C 14.09375 4.425781 14.101562 4.394531 14.109375 4.367188 C 14.117188 4.339844 14.125 4.3125 14.132812 4.289062 C 14.140625 4.265625 14.148438 4.242188 14.15625 4.21875 C 14.164062 4.195312 14.171875 4.175781 14.179688 4.152344 C 14.1875 4.132812 14.195312 4.113281 14.203125 4.09375 C 14.210938 4.074219 14.21875 4.058594 14.226562 4.039062 C 14.234375 4.023438 14.242188 4.003906 14.253906 3.988281 C 14.261719 3.972656 14.269531 3.957031 14.277344 3.9375 C 14.285156 3.921875 14.292969 3.90625 14.300781 3.894531 C 14.308594 3.878906 14.316406 3.863281 14.324219 3.847656 C 14.332031 3.835938 14.339844 3.820312 14.347656 3.804688 C 14.355469 3.792969 14.363281 3.78125 14.371094 3.765625 C 14.378906 3.753906 14.386719 3.738281 14.394531 3.726562 C 14.402344 3.714844 14.410156 3.703125 14.417969 3.691406 C 14.425781 3.679688 14.433594 3.667969 14.441406 3.65625 C 14.449219 3.644531 14.457031 3.632812 14.464844 3.621094 C 14.472656 3.609375 14.480469 3.597656 14.488281 3.585938 C 14.496094 3.574219 14.503906 3.566406 14.511719 3.554688 C 14.519531 3.542969 14.527344 3.535156 14.535156 3.523438 C 14.542969 3.511719 14.554688 3.503906 14.5625 3.492188 C 14.570312 3.484375 14.578125 3.472656 14.585938 3.464844 C 14.59375 3.453125 14.601562 3.445312 14.609375 3.433594 C 14.617188 3.425781 14.625 3.417969 14.632812 3.40625 C 14.640625 3.398438 14.648438 3.390625 14.65625 3.382812 C 14.664062 3.371094 14.671875 3.363281 14.679688 3.355469 C 14.6875 3.347656 14.695312 3.339844 14.703125 3.332031 C 14.710938 3.320312 14.71875 3.3125 14.726562 3.304688 C 14.734375 3.296875 14.742188 3.289062 14.75 3.28125 C 14.757812 3.273438 14.765625 3.265625 14.773438 3.257812 C 14.78125 3.25 14.789062 3.242188 14.796875 3.234375 C 14.804688 3.226562 14.8125 3.21875 14.820312 3.214844 C 14.828125 3.207031 14.835938 3.199219 14.84375 3.191406 C 14.851562 3.183594 14.859375 3.179688 14.871094 3.171875 C 14.878906 3.164062 14.886719 3.15625 14.894531 3.152344 C 14.902344 3.144531 14.910156 3.136719 14.917969 3.128906 C 14.925781 3.125 14.933594 3.117188 14.941406 3.109375 C 14.949219 3.105469 14.957031 3.097656 14.964844 3.09375 C 14.972656 3.085938 14.980469 3.078125 14.988281 3.074219 C 14.996094 3.066406 15.003906 3.0625 15.011719 3.054688 C 15.019531 3.050781 15.027344 3.042969 15.035156 3.039062 C 15.042969 3.03125 15.050781 3.027344 15.058594 3.019531 C 15.066406 3.015625 15.074219 3.007812 15.082031 3.003906 C 15.089844 3 15.097656 2.992188 15.105469 2.988281 C 15.113281 2.980469 15.121094 2.976562 15.128906 2.972656 C 15.136719 2.964844 15.144531 2.960938 15.152344 2.957031 C 15.160156 2.949219 15.167969 2.945312 15.179688 2.941406 C 15.1875 2.9375 15.195312 2.929688 15.203125 2.925781 C 15.210938 2.921875 15.21875 2.917969 15.226562 2.910156 C 15.234375 2.90625 15.242188 2.902344 15.25 2.898438 C 15.257812 2.894531 15.265625 2.890625 15.273438 2.882812 C 15.28125 2.878906 15.289062 2.875 15.296875 2.871094 C 15.304688 2.867188 15.3125 2.863281 15.320312 2.859375 C 15.328125 2.855469 15.335938 2.847656 15.34375 2.84375 L 15.390625 2.820312 C 15.398438 2.816406 15.40625 2.8125 15.414062 2.808594 C 15.421875 2.804688 15.429688 2.800781 15.4375 2.796875 C 15.445312 2.792969 15.453125 2.789062 15.460938 2.785156 C 15.46875 2.785156 15.476562 2.78125 15.484375 2.777344 C 15.496094 2.773438 15.503906 2.769531 15.511719 2.765625 C 15.519531 2.761719 15.527344 2.757812 15.535156 2.753906 L 15.558594 2.746094 C 15.566406 2.742188 15.574219 2.738281 15.582031 2.738281 C 15.589844 2.734375 15.597656 2.730469 15.605469 2.726562 C 15.613281 2.722656 15.621094 2.722656 15.628906 2.71875 C 15.636719 2.714844 15.644531 2.710938 15.652344 2.710938 C 15.660156 2.707031 15.667969 2.703125 15.675781 2.699219 C 15.683594 2.699219 15.691406 2.695312 15.699219 2.691406 L 15.722656 2.683594 C 15.730469 2.683594 15.738281 2.679688 15.746094 2.675781 C 15.753906 2.675781 15.761719 2.671875 15.769531 2.671875 C 15.777344 2.667969 15.785156 2.664062 15.792969 2.664062 C 15.800781 2.660156 15.8125 2.660156 15.820312 2.65625 L 15.84375 2.648438 C 15.851562 2.648438 15.859375 2.644531 15.867188 2.644531 C 15.875 2.640625 15.882812 2.640625 15.890625 2.636719 C 15.898438 2.636719 15.90625 2.632812 15.914062 2.632812 C 15.921875 2.628906 15.929688 2.628906 15.9375 2.625 L 15.960938 2.621094 C 15.96875 2.621094 15.976562 2.617188 15.984375 2.617188 C 15.992188 2.613281 16 2.613281 16.007812 2.613281 C 16.015625 2.609375 16.023438 2.609375 16.03125 2.605469 L 16.078125 2.597656 C 16.085938 2.597656 16.09375 2.597656 16.101562 2.59375 C 16.109375 2.59375 16.121094 2.59375 16.128906 2.589844 C 16.136719 2.589844 16.144531 2.589844 16.152344 2.589844 L 16.199219 2.582031 C 16.207031 2.582031 16.214844 2.582031 16.222656 2.578125 C 16.230469 2.578125 16.238281 2.578125 16.246094 2.578125 L 16.269531 2.574219 C 16.277344 2.574219 16.285156 2.574219 16.292969 2.574219 C 16.300781 2.574219 16.308594 2.574219 16.316406 2.570312 C 16.324219 2.570312 16.332031 2.570312 16.339844 2.570312 C 16.347656 2.570312 16.355469 2.570312 16.363281 2.570312 L 16.386719 2.570312 C 16.394531 2.566406 16.402344 2.566406 16.410156 2.566406 C 16.417969 2.566406 16.425781 2.566406 16.4375 2.566406 C 16.445312 2.566406 16.453125 2.566406 16.460938 2.566406 L 20.085938 2.566406 L 20.085938 15.066406 C 20.085938 15.175781 20.078125 15.28125 20.066406 15.386719 C 20.058594 15.4375 20.050781 15.488281 20.042969 15.539062 C 20.035156 15.574219 20.027344 15.613281 20.019531 15.652344 C 20.011719 15.683594 20.003906 15.710938 19.996094 15.742188 C 19.988281 15.769531 19.980469 15.796875 19.972656 15.824219 C 19.964844 15.847656 19.957031 15.871094 19.949219 15.894531 C 19.941406 15.917969 19.933594 15.941406 19.925781 15.960938 C 19.917969 15.980469 19.910156 16 19.902344 16.023438 C 19.894531 16.039062 19.886719 16.058594 19.875 16.078125 C 19.871094 16.097656 19.859375 16.113281 19.851562 16.132812 C 19.84375 16.148438 19.835938 16.164062 19.828125 16.179688 C 19.820312 16.195312 19.8125 16.210938 19.804688 16.226562 C 19.796875 16.242188 19.789062 16.257812 19.78125 16.273438 C 19.773438 16.285156 19.765625 16.300781 19.757812 16.316406 C 19.75 16.328125 19.742188 16.34375 19.734375 16.355469 C 19.726562 16.371094 19.71875 16.382812 19.710938 16.394531 C 19.703125 16.40625 19.695312 16.421875 19.6875 16.433594 C 19.679688 16.445312 19.671875 16.457031 19.664062 16.46875 C 19.65625 16.480469 19.648438 16.492188 19.640625 16.503906 C 19.632812 16.515625 19.625 16.527344 19.617188 16.539062 C 19.609375 16.546875 19.601562 16.558594 19.59375 16.570312 C 19.585938 16.582031 19.578125 16.589844 19.570312 16.601562 C 19.5625 16.613281 19.550781 16.621094 19.542969 16.632812 C 19.535156 16.640625 19.527344 16.652344 19.519531 16.660156 C 19.511719 16.671875 19.503906 16.679688 19.496094 16.691406 C 19.488281 16.699219 19.480469 16.707031 19.472656 16.71875 C 19.464844 16.726562 19.457031 16.734375 19.449219 16.746094 C 19.441406 16.753906 19.433594 16.761719 19.425781 16.769531 C 19.417969 16.78125 19.410156 16.789062 19.402344 16.796875 C 19.394531 16.804688 19.386719 16.8125 19.378906 16.820312 C 19.371094 16.828125 19.363281 16.835938 19.355469 16.84375 C 19.347656 16.851562 19.339844 16.859375 19.332031 16.867188 C 19.324219 16.875 19.316406 16.882812 19.308594 16.890625 C 19.300781 16.898438 19.292969 16.90625 19.285156 16.914062 C 19.277344 16.921875 19.269531 16.929688 19.261719 16.9375 C 19.253906 16.941406 19.242188 16.949219 19.234375 16.957031 C 19.226562 16.964844 19.21875 16.972656 19.210938 16.976562 C 19.203125 16.984375 19.195312 16.992188 19.1875 16.996094 C 19.179688 17.003906 19.171875 17.011719 19.164062 17.015625 C 19.15625 17.023438 19.148438 17.03125 19.140625 17.035156 C 19.132812 17.042969 19.125 17.046875 19.117188 17.054688 C 19.109375 17.0625 19.101562 17.066406 19.09375 17.074219 C 19.085938 17.078125 19.078125 17.085938 19.070312 17.089844 C 19.0625 17.097656 19.054688 17.101562 19.046875 17.109375 C 19.039062 17.113281 19.03125 17.121094 19.023438 17.125 C 19.015625 17.128906 19.007812 17.136719 19 17.140625 C 18.992188 17.148438 18.984375 17.152344 18.976562 17.15625 C 18.96875 17.164062 18.960938 17.167969 18.953125 17.171875 C 18.945312 17.179688 18.933594 17.183594 18.925781 17.1875 C 18.917969 17.195312 18.910156 17.199219 18.902344 17.203125 C 18.894531 17.207031 18.886719 17.214844 18.878906 17.21875 C 18.871094 17.222656 18.863281 17.226562 18.855469 17.230469 C 18.847656 17.238281 18.839844 17.242188 18.832031 17.246094 L 18.808594 17.257812 L 18.785156 17.273438 L 18.761719 17.285156 C 18.753906 17.289062 18.746094 17.292969 18.738281 17.296875 C 18.730469 17.300781 18.722656 17.304688 18.714844 17.308594 C 18.707031 17.3125 18.699219 17.316406 18.691406 17.320312 C 18.683594 17.324219 18.675781 17.328125 18.667969 17.332031 C 18.660156 17.335938 18.652344 17.339844 18.644531 17.34375 C 18.636719 17.347656 18.628906 17.351562 18.617188 17.355469 L 18.59375 17.363281 L 18.546875 17.386719 C 18.539062 17.386719 18.53125 17.390625 18.523438 17.394531 C 18.515625 17.398438 18.507812 17.402344 18.5 17.402344 C 18.492188 17.40625 18.484375 17.410156 18.476562 17.414062 C 18.46875 17.417969 18.460938 17.417969 18.453125 17.421875 L 18.40625 17.4375 C 18.398438 17.441406 18.390625 17.445312 18.382812 17.445312 C 18.375 17.449219 18.367188 17.453125 18.359375 17.453125 C 18.351562 17.457031 18.34375 17.460938 18.335938 17.460938 L 18.308594 17.46875 L 18.285156 17.476562 C 18.277344 17.476562 18.269531 17.480469 18.261719 17.480469 C 18.253906 17.484375 18.246094 17.488281 18.238281 17.488281 C 18.230469 17.492188 18.222656 17.492188 18.214844 17.496094 C 18.207031 17.496094 18.199219 17.5 18.191406 17.5 L 18.167969 17.503906 L 18.144531 17.511719 C 18.136719 17.511719 18.128906 17.515625 18.121094 17.515625 C 18.113281 17.519531 18.105469 17.519531 18.097656 17.519531 L 18.074219 17.527344 L 18.050781 17.53125 C 18.042969 17.53125 18.035156 17.53125 18.027344 17.535156 C 18.019531 17.535156 18.011719 17.535156 18.003906 17.539062 C 17.992188 17.539062 17.984375 17.539062 17.976562 17.542969 L 17.953125 17.542969 C 17.945312 17.546875 17.9375 17.546875 17.929688 17.546875 C 17.921875 17.550781 17.914062 17.550781 17.90625 17.550781 C 17.898438 17.550781 17.890625 17.550781 17.882812 17.554688 C 17.875 17.554688 17.867188 17.554688 17.859375 17.554688 L 17.835938 17.558594 C 17.828125 17.558594 17.820312 17.558594 17.8125 17.558594 C 17.804688 17.5625 17.796875 17.5625 17.789062 17.5625 L 17.742188 17.5625 C 17.734375 17.566406 17.726562 17.566406 17.71875 17.566406 C 17.710938 17.566406 17.703125 17.566406 17.695312 17.566406 C 17.6875 17.566406 17.675781 17.566406 17.667969 17.566406 L 17.644531 17.566406 C 17.636719 17.566406 17.632812 17.566406 17.625 17.566406 L 14.011719 17.566406 L 14.011719 11.792969 C 14.027344 11.808594 14.046875 11.824219 14.0625 11.835938 C 14.070312 11.84375 14.078125 11.851562 14.085938 11.855469 C 14.09375 11.863281 14.101562 11.871094 14.109375 11.875 C 14.117188 11.882812 14.125 11.886719 14.132812 11.894531 C 14.140625 11.898438 14.148438 11.90625 14.15625 11.910156 C 14.164062 11.917969 14.171875 11.921875 14.179688 11.929688 C 14.1875 11.933594 14.195312 11.941406 14.203125 11.945312 L 14.226562 11.960938 C 14.234375 11.96875 14.246094 11.972656 14.253906 11.980469 L 14.277344 11.996094 C 14.285156 12 14.292969 12.003906 14.300781 12.007812 C 14.308594 12.015625 14.316406 12.019531 14.324219 12.023438 L 14.347656 12.039062 C 14.355469 12.042969 14.363281 12.050781 14.371094 12.054688 C 14.378906 12.058594 14.386719 12.0625 14.394531 12.066406 L 14.417969 12.082031 L 14.441406 12.09375 L 14.464844 12.109375 C 14.472656 12.113281 14.480469 12.117188 14.488281 12.121094 C 14.496094 12.125 14.503906 12.128906 14.511719 12.132812 L 14.535156 12.144531 L 14.5625 12.15625 L 14.585938 12.167969 C 14.59375 12.171875 14.601562 12.175781 14.609375 12.179688 L 14.679688 12.214844 L 14.703125 12.222656 L 14.726562 12.234375 L 14.75 12.242188 L 14.773438 12.253906 L 14.796875 12.261719 L 14.820312 12.273438 L 14.84375 12.28125 C 14.851562 12.285156 14.859375 12.289062 14.871094 12.292969 L 14.894531 12.300781 C 14.902344 12.304688 14.910156 12.304688 14.917969 12.308594 C 14.925781 12.3125 14.933594 12.3125 14.941406 12.316406 L 14.988281 12.332031 C 14.996094 12.335938 15.003906 12.339844 15.011719 12.339844 C 15.019531 12.34375 15.027344 12.347656 15.035156 12.347656 L 15.152344 12.386719 L 15.179688 12.394531 L 15.203125 12.398438 L 15.25 12.414062 L 15.273438 12.417969 L 15.296875 12.425781 L 15.320312 12.429688 L 15.34375 12.4375 L 15.367188 12.441406 L 15.390625 12.449219 L 15.414062 12.453125 L 15.4375 12.460938 L 15.484375 12.46875 L 15.511719 12.472656 L 15.535156 12.480469 L 15.628906 12.496094 L 15.652344 12.503906 L 15.792969 12.527344 L 15.820312 12.53125 L 15.84375 12.535156 L 15.867188 12.535156 L 15.960938 12.550781 L 15.984375 12.550781 L 16.054688 12.5625 L 16.078125 12.5625 L 16.101562 12.566406 L 16.128906 12.570312 L 16.152344 12.570312 L 16.175781 12.574219 L 16.199219 12.574219 L 16.222656 12.578125 L 16.246094 12.578125 L 16.269531 12.582031 L 16.292969 12.582031 L 16.316406 12.585938 L 16.339844 12.585938 L 16.363281 12.589844 L 16.386719 12.589844 L 16.410156 12.59375 L 16.460938 12.59375 L 16.484375 12.597656 L 16.53125 12.597656 L 16.554688 12.601562 L 16.625 12.601562 L 16.648438 12.605469 L 16.792969 12.605469 L 16.816406 12.609375 L 17.148438 12.609375 L 17.171875 12.605469 L 17.289062 12.605469 L 17.3125 12.601562 L 17.410156 12.601562 L 17.433594 12.597656 L 17.480469 12.597656 L 17.503906 12.59375 L 17.550781 12.59375 L 17.574219 12.589844 L 17.621094 12.589844 L 17.644531 12.585938 L 17.667969 12.585938 L 17.695312 12.582031 L 17.71875 12.582031 L 17.742188 12.578125 L 17.765625 12.578125 L 17.789062 12.574219 L 17.8125 12.574219 L 17.835938 12.570312 L 17.859375 12.570312 L 17.90625 12.5625 L 17.929688 12.5625 L 17.976562 12.554688 L 18.003906 12.554688 L 18.074219 12.542969 L 18.097656 12.542969 L 18.191406 12.527344 L 18.214844 12.527344 L 18.308594 12.511719 L 18.335938 12.507812 L 18.40625 12.496094 L 18.429688 12.496094 L 18.570312 12.472656 L 18.59375 12.464844 L 18.617188 12.460938 L 18.644531 12.457031 L 18.808594 12.429688 L 18.832031 12.421875 L 18.925781 12.40625 L 18.953125 12.398438 L 19.023438 12.386719 L 19.046875 12.378906 L 19.09375 12.371094 L 19.117188 12.363281 L 19.164062 12.355469 L 19.1875 12.347656 L 19.234375 12.339844 L 19.261719 12.332031 L 19.285156 12.328125 L 19.308594 12.320312 L 19.355469 12.3125 L 19.378906 12.304688 L 19.402344 12.300781 L 19.402344 11.242188 L 19.261719 11.3125 L 19.234375 11.324219 L 19.210938 11.335938 L 19.1875 11.34375 L 19.117188 11.378906 L 19.09375 11.386719 L 19.046875 11.410156 L 19.023438 11.417969 L 18.976562 11.441406 L 18.953125 11.449219 L 18.925781 11.460938 L 18.878906 11.476562 L 18.855469 11.488281 L 18.832031 11.496094 L 18.808594 11.507812 L 18.714844 11.539062 L 18.691406 11.550781 L 18.644531 11.566406 L 18.617188 11.574219 L 18.523438 11.605469 L 18.5 11.609375 L 18.40625 11.640625 L 18.382812 11.644531 L 18.335938 11.660156 L 18.308594 11.664062 L 18.285156 11.671875 L 18.261719 11.675781 L 18.238281 11.683594 L 18.214844 11.6875 L 18.191406 11.695312 L 18.144531 11.703125 L 18.121094 11.710938 L 18.027344 11.726562 L 18.003906 11.734375 L 17.976562 11.738281 L 17.835938 11.761719 L 17.8125 11.761719 L 17.71875 11.777344 L 17.695312 11.777344 L 17.667969 11.78125 L 17.644531 11.785156 L 17.621094 11.785156 L 17.597656 11.789062 L 17.574219 11.789062 L 17.550781 11.792969 L 17.527344 11.792969 L 17.503906 11.796875 L 17.457031 11.796875 L 17.433594 11.800781 L 17.359375 11.800781 L 17.335938 11.804688 L 17.289062 11.804688 C 17.28125 11.804688 17.273438 11.804688 17.265625 11.804688 L 17.21875 11.804688 L 17.195312 11.800781 L 17.171875 11.800781 C 17.164062 11.800781 17.15625 11.800781 17.148438 11.800781 C 17.140625 11.800781 17.132812 11.800781 17.125 11.800781 L 17.101562 11.796875 L 17.050781 11.796875 L 17.027344 11.792969 C 17.019531 11.792969 17.011719 11.792969 17.003906 11.792969 C 16.996094 11.789062 16.988281 11.789062 16.980469 11.789062 L 16.957031 11.785156 L 16.933594 11.785156 L 16.863281 11.773438 C 16.855469 11.773438 16.847656 11.773438 16.839844 11.769531 C 16.832031 11.769531 16.824219 11.769531 16.816406 11.765625 C 16.808594 11.765625 16.800781 11.765625 16.792969 11.761719 C 16.785156 11.761719 16.777344 11.757812 16.769531 11.757812 C 16.761719 11.757812 16.753906 11.753906 16.742188 11.753906 C 16.734375 11.753906 16.726562 11.75 16.71875 11.75 C 16.710938 11.746094 16.703125 11.746094 16.695312 11.742188 C 16.6875 11.742188 16.679688 11.738281 16.671875 11.738281 L 16.648438 11.734375 C 16.640625 11.730469 16.632812 11.726562 16.625 11.726562 C 16.617188 11.722656 16.609375 11.722656 16.601562 11.71875 C 16.59375 11.71875 16.585938 11.714844 16.578125 11.714844 C 16.570312 11.710938 16.5625 11.707031 16.554688 11.707031 C 16.546875 11.703125 16.539062 11.703125 16.53125 11.699219 C 16.523438 11.695312 16.515625 11.695312 16.507812 11.691406 C 16.5 11.6875 16.492188 11.6875 16.484375 11.683594 C 16.476562 11.679688 16.46875 11.679688 16.460938 11.675781 C 16.453125 11.671875 16.445312 11.667969 16.4375 11.667969 C 16.425781 11.664062 16.417969 11.660156 16.410156 11.65625 C 16.402344 11.65625 16.394531 11.652344 16.386719 11.648438 C 16.378906 11.644531 16.371094 11.640625 16.363281 11.640625 C 16.355469 11.636719 16.347656 11.632812 16.339844 11.628906 C 16.332031 11.625 16.324219 11.621094 16.316406 11.617188 C 16.308594 11.613281 16.300781 11.609375 16.292969 11.605469 C 16.285156 11.601562 16.277344 11.601562 16.269531 11.597656 C 16.261719 11.59375 16.253906 11.589844 16.246094 11.582031 C 16.238281 11.578125 16.230469 11.574219 16.222656 11.570312 C 16.214844 11.566406 16.207031 11.5625 16.199219 11.558594 C 16.191406 11.554688 16.183594 11.550781 16.175781 11.546875 C 16.167969 11.539062 16.160156 11.535156 16.152344 11.53125 C 16.144531 11.527344 16.136719 11.523438 16.128906 11.515625 C 16.117188 11.511719 16.109375 11.507812 16.101562 11.5 C 16.09375 11.496094 16.085938 11.492188 16.078125 11.484375 C 16.070312 11.480469 16.0625 11.476562 16.054688 11.46875 C 16.046875 11.464844 16.039062 11.457031 16.03125 11.453125 C 16.023438 11.445312 16.015625 11.441406 16.007812 11.433594 C 16 11.429688 15.992188 11.421875 15.984375 11.417969 C 15.976562 11.410156 15.96875 11.402344 15.960938 11.398438 C 15.953125 11.390625 15.945312 11.382812 15.9375 11.378906 C 15.929688 11.371094 15.921875 11.363281 15.914062 11.355469 C 15.90625 11.347656 15.898438 11.339844 15.890625 11.335938 C 15.882812 11.328125 15.875 11.320312 15.867188 11.3125 C 15.859375 11.304688 15.851562 11.296875 15.84375 11.289062 C 15.835938 11.277344 15.828125 11.269531 15.820312 11.261719 C 15.808594 11.253906 15.800781 11.242188 15.792969 11.234375 C 15.785156 11.226562 15.777344 11.214844 15.769531 11.207031 C 15.761719 11.195312 15.753906 11.1875 15.746094 11.175781 C 15.738281 11.167969 15.730469 11.15625 15.722656 11.144531 C 15.714844 11.136719 15.707031 11.125 15.699219 11.113281 C 15.691406 11.101562 15.683594 11.089844 15.675781 11.078125 C 15.667969 11.066406 15.660156 11.054688 15.652344 11.039062 C 15.644531 11.027344 15.636719 11.015625 15.628906 11 C 15.621094 10.984375 15.613281 10.972656 15.605469 10.957031 C 15.597656 10.941406 15.589844 10.925781 15.582031 10.910156 C 15.574219 10.894531 15.566406 10.875 15.558594 10.859375 C 15.550781 10.839844 15.542969 10.820312 15.535156 10.800781 C 15.523438 10.78125 15.515625 10.757812 15.511719 10.738281 C 15.5 10.710938 15.492188 10.6875 15.484375 10.664062 C 15.476562 10.632812 15.46875 10.605469 15.460938 10.574219 C 15.453125 10.539062 15.445312 10.5 15.4375 10.460938 C 15.429688 10.402344 15.421875 10.34375 15.414062 10.285156 C 15.410156 10.214844 15.40625 10.140625 15.40625 10.066406 C 15.40625 9.992188 15.410156 9.921875 15.414062 9.851562 C 15.421875 9.789062 15.429688 9.730469 15.4375 9.675781 C 15.445312 9.636719 15.453125 9.597656 15.460938 9.558594 C 15.46875 9.53125 15.476562 9.5 15.484375 9.472656 C 15.492188 9.445312 15.5 9.421875 15.511719 9.398438 C 15.515625 9.375 15.523438 9.355469 15.535156 9.332031 C 15.542969 9.3125 15.550781 9.296875 15.558594 9.277344 C 15.566406 9.257812 15.574219 9.242188 15.582031 9.226562 C 15.589844 9.207031 15.597656 9.191406 15.605469 9.175781 C 15.613281 9.164062 15.621094 9.148438 15.628906 9.132812 C 15.636719 9.121094 15.644531 9.105469 15.652344 9.09375 C 15.660156 9.082031 15.667969 9.070312 15.675781 9.054688 C 15.683594 9.042969 15.691406 9.03125 15.699219 9.019531 C 15.707031 9.007812 15.714844 9 15.722656 8.988281 C 15.730469 8.976562 15.738281 8.96875 15.746094 8.957031 C 15.753906 8.945312 15.761719 8.9375 15.769531 8.925781 C 15.777344 8.917969 15.785156 8.910156 15.792969 8.898438 C 15.800781 8.890625 15.808594 8.882812 15.820312 8.871094 C 15.828125 8.863281 15.835938 8.855469 15.84375 8.847656 C 15.851562 8.839844 15.859375 8.832031 15.867188 8.824219 C 15.875 8.816406 15.882812 8.808594 15.890625 8.800781 C 15.898438 8.792969 15.90625 8.785156 15.914062 8.777344 C 15.921875 8.769531 15.929688 8.765625 15.9375 8.757812 C 15.945312 8.75 15.953125 8.742188 15.960938 8.738281 C 15.96875 8.730469 15.976562 8.722656 15.984375 8.71875 C 15.992188 8.710938 16 8.703125 16.007812 8.699219 C 16.015625 8.691406 16.023438 8.6875 16.03125 8.679688 C 16.039062 8.675781 16.046875 8.667969 16.054688 8.664062 C 16.0625 8.660156 16.070312 8.652344 16.078125 8.648438 C 16.085938 8.640625 16.09375 8.636719 16.101562 8.632812 C 16.109375 8.628906 16.117188 8.621094 16.128906 8.617188 C 16.136719 8.613281 16.144531 8.605469 16.152344 8.601562 C 16.160156 8.597656 16.167969 8.59375 16.175781 8.589844 C 16.183594 8.585938 16.191406 8.578125 16.199219 8.574219 C 16.207031 8.570312 16.214844 8.566406 16.222656 8.5625 C 16.230469 8.558594 16.238281 8.554688 16.246094 8.550781 C 16.253906 8.546875 16.261719 8.542969 16.269531 8.539062 C 16.277344 8.535156 16.285156 8.53125 16.292969 8.527344 C 16.300781 8.523438 16.308594 8.519531 16.316406 8.515625 C 16.324219 8.511719 16.332031 8.507812 16.339844 8.503906 C 16.347656 8.5 16.355469 8.5 16.363281 8.496094 C 16.371094 8.492188 16.378906 8.488281 16.386719 8.484375 C 16.394531 8.480469 16.402344 8.480469 16.410156 8.476562 C 16.417969 8.472656 16.425781 8.46875 16.4375 8.46875 C 16.445312 8.464844 16.453125 8.460938 16.460938 8.457031 C 16.46875 8.457031 16.476562 8.453125 16.484375 8.449219 C 16.492188 8.449219 16.5 8.445312 16.507812 8.441406 C 16.515625 8.441406 16.523438 8.4375 16.53125 8.433594 C 16.539062 8.433594 16.546875 8.429688 16.554688 8.425781 L 16.578125 8.421875 C 16.585938 8.417969 16.59375 8.414062 16.601562 8.414062 C 16.609375 8.410156 16.617188 8.410156 16.625 8.40625 C 16.632812 8.40625 16.640625 8.402344 16.648438 8.402344 L 16.671875 8.394531 C 16.679688 8.394531 16.6875 8.390625 16.695312 8.390625 C 16.703125 8.386719 16.710938 8.386719 16.71875 8.386719 C 16.726562 8.382812 16.734375 8.382812 16.742188 8.378906 C 16.753906 8.378906 16.761719 8.378906 16.769531 8.375 C 16.777344 8.375 16.785156 8.371094 16.792969 8.371094 C 16.800781 8.371094 16.808594 8.367188 16.816406 8.367188 C 16.824219 8.367188 16.832031 8.363281 16.839844 8.363281 L 16.910156 8.351562 L 16.933594 8.351562 L 16.980469 8.34375 C 16.988281 8.34375 16.996094 8.34375 17.003906 8.34375 C 17.011719 8.339844 17.019531 8.339844 17.027344 8.339844 L 17.050781 8.339844 L 17.078125 8.335938 L 17.125 8.335938 C 17.132812 8.332031 17.140625 8.332031 17.148438 8.332031 C 17.15625 8.332031 17.164062 8.332031 17.171875 8.332031 L 17.265625 8.332031 C 17.273438 8.332031 17.28125 8.332031 17.289062 8.332031 L 17.410156 8.332031 L 17.433594 8.335938 L 17.480469 8.335938 L 17.503906 8.339844 L 17.535156 8.339844 L 17.550781 8.34375 L 17.574219 8.34375 L 17.597656 8.347656 L 17.621094 8.347656 L 17.644531 8.351562 L 17.667969 8.351562 L 17.695312 8.355469 L 17.71875 8.359375 L 17.742188 8.359375 L 17.835938 8.375 L 17.859375 8.375 L 17.976562 8.394531 L 18.003906 8.402344 L 18.121094 8.421875 L 18.144531 8.429688 L 18.191406 8.4375 L 18.214844 8.445312 L 18.238281 8.449219 L 18.261719 8.457031 L 18.285156 8.460938 L 18.308594 8.46875 L 18.335938 8.472656 L 18.382812 8.488281 L 18.40625 8.492188 L 18.476562 8.515625 L 18.5 8.519531 L 18.617188 8.558594 L 18.644531 8.566406 L 18.714844 8.589844 L 18.738281 8.601562 L 18.808594 8.625 L 18.832031 8.636719 L 18.878906 8.652344 L 18.902344 8.664062 L 18.925781 8.671875 L 18.953125 8.683594 L 18.976562 8.691406 L 19.023438 8.714844 L 19.046875 8.722656 L 19.09375 8.746094 L 19.117188 8.753906 L 19.234375 8.8125 L 19.261719 8.820312 L 19.332031 8.855469 L 19.355469 8.871094 L 19.402344 8.894531 L 19.402344 7.835938 L 19.378906 7.828125 L 19.355469 7.824219 L 19.332031 7.816406 L 19.308594 7.8125 L 19.285156 7.804688 L 19.261719 7.800781 L 19.234375 7.796875 L 19.210938 7.789062 L 19.1875 7.785156 L 19.164062 7.777344 L 19.09375 7.765625 L 19.070312 7.757812 L 19.023438 7.75 L 19 7.742188 L 18.953125 7.734375 L 18.925781 7.730469 L 18.902344 7.722656 L 18.785156 7.703125 L 18.761719 7.695312 L 18.644531 7.675781 L 18.617188 7.671875 L 18.335938 7.625 L 18.308594 7.621094 L 18.261719 7.613281 L 18.238281 7.613281 L 18.121094 7.59375 L 18.097656 7.59375 L 18.027344 7.582031 L 18.003906 7.582031 L 17.976562 7.578125 L 17.953125 7.574219 L 17.929688 7.574219 L 17.882812 7.566406 L 17.859375 7.566406 L 17.835938 7.5625 L 17.8125 7.5625 L 17.789062 7.558594 L 17.765625 7.558594 L 17.742188 7.554688 L 17.71875 7.554688 L 17.695312 7.550781 L 17.667969 7.550781 L 17.644531 7.546875 L 17.621094 7.546875 L 17.597656 7.542969 L 17.550781 7.542969 L 17.527344 7.539062 L 17.480469 7.539062 L 17.46875 7.535156 L 17.386719 7.535156 L 17.359375 7.53125 L 17.265625 7.53125 L 17.242188 7.527344 L 17.003906 7.527344 L 16.980469 7.523438 L 16.957031 7.527344 L 16.695312 7.527344 L 16.671875 7.53125 L 16.601562 7.53125 L 16.578125 7.535156 L 16.507812 7.535156 L 16.484375 7.539062 L 16.4375 7.539062 L 16.410156 7.542969 L 16.386719 7.542969 L 16.363281 7.546875 L 16.339844 7.546875 L 16.316406 7.550781 L 16.269531 7.550781 L 16.222656 7.558594 L 16.199219 7.558594 L 16.175781 7.5625 L 16.152344 7.5625 L 16.128906 7.566406 L 16.101562 7.566406 L 16.03125 7.578125 L 16.007812 7.578125 L 15.9375 7.589844 L 15.914062 7.589844 L 15.820312 7.605469 L 15.792969 7.609375 L 15.558594 7.648438 L 15.535156 7.65625 L 15.511719 7.660156 L 15.484375 7.664062 L 15.460938 7.671875 L 15.414062 7.679688 L 15.390625 7.6875 L 15.367188 7.691406 L 15.34375 7.699219 L 15.320312 7.703125 L 15.296875 7.710938 L 15.273438 7.714844 L 15.226562 7.730469 L 15.203125 7.734375 L 15.179688 7.742188 L 15.152344 7.75 L 15.128906 7.753906 L 15.035156 7.785156 C 15.027344 7.789062 15.019531 7.789062 15.011719 7.792969 L 14.988281 7.800781 C 14.980469 7.804688 14.972656 7.804688 14.964844 7.808594 L 14.917969 7.824219 C 14.910156 7.828125 14.902344 7.832031 14.894531 7.835938 C 14.886719 7.835938 14.878906 7.839844 14.871094 7.84375 L 14.84375 7.851562 C 14.835938 7.855469 14.828125 7.859375 14.820312 7.863281 L 14.796875 7.871094 L 14.773438 7.882812 L 14.75 7.890625 L 14.726562 7.902344 L 14.703125 7.910156 L 14.632812 7.945312 L 14.609375 7.953125 C 14.601562 7.957031 14.59375 7.960938 14.585938 7.964844 L 14.5625 7.976562 L 14.535156 7.988281 L 14.511719 8 C 14.503906 8.007812 14.496094 8.011719 14.488281 8.015625 C 14.480469 8.019531 14.472656 8.023438 14.464844 8.027344 L 14.441406 8.039062 L 14.417969 8.054688 C 14.410156 8.058594 14.402344 8.0625 14.394531 8.066406 C 14.386719 8.070312 14.378906 8.078125 14.371094 8.082031 C 14.363281 8.085938 14.355469 8.089844 14.347656 8.09375 C 14.339844 8.101562 14.332031 8.105469 14.324219 8.109375 C 14.316406 8.113281 14.308594 8.121094 14.300781 8.125 C 14.292969 8.128906 14.285156 8.136719 14.277344 8.140625 L 14.253906 8.15625 C 14.246094 8.160156 14.234375 8.167969 14.226562 8.171875 L 14.203125 8.1875 C 14.195312 8.195312 14.1875 8.199219 14.179688 8.207031 C 14.171875 8.210938 14.164062 8.21875 14.15625 8.222656 C 14.148438 8.230469 14.140625 8.234375 14.132812 8.242188 C 14.125 8.246094 14.117188 8.253906 14.109375 8.257812 C 14.101562 8.265625 14.09375 8.273438 14.085938 8.277344 C 14.078125 8.285156 14.070312 8.289062 14.0625 8.296875 Z M 14.0625 8.296875 "/>
</g>
</svg>
