<?xml version="1.0" encoding="UTF-8"?>
<svg xmlns="http://www.w3.org/2000/svg" xmlns:xlink="http://www.w3.org/1999/xlink" width="px" height="20px" viewBox="0 0 20 19" version="1.1">
<g id="surface1">
<path style=" stroke:none;fill-rule:nonzero;fill:rgb(0.392157%,43.529412%,81.568627%);fill-opacity:1;" d="M 0 0 L 19.949219 0 L 19.949219 10.25 L 18.960938 11.71875 L 19.949219 13.027344 L 19.949219 18.992188 L 0 18.992188 L 0 9.328125 L 0.617188 8.652344 L 0 8.003906 Z M 0 0 "/>
<path style=" stroke:none;fill-rule:nonzero;fill:rgb(100%,100%,100%);fill-opacity:1;" d="M 3.871094 13.234375 L 3.871094 10.25 L 7.1875 10.25 L 7.546875 10.691406 L 7.914062 10.25 L 19.949219 10.25 L 19.949219 13.027344 C 19.949219 13.027344 19.636719 13.230469 19.269531 13.234375 L 12.605469 13.234375 L 12.203125 12.761719 L 12.203125 13.234375 L 10.890625 13.234375 L 10.890625 12.429688 C 10.890625 12.429688 10.710938 12.542969 10.324219 12.542969 L 9.875 12.542969 L 9.875 13.234375 L 7.882812 13.234375 L 7.527344 12.78125 L 7.167969 13.234375 Z M 3.871094 13.234375 "/>
<path style=" stroke:none;fill-rule:nonzero;fill:rgb(100%,100%,100%);fill-opacity:1;" d="M 0 8.003906 L 0.746094 6.34375 L 2.042969 6.34375 L 2.464844 7.273438 L 2.464844 6.34375 L 4.074219 6.34375 L 4.324219 7.015625 L 4.570312 6.34375 L 11.789062 6.34375 L 11.789062 6.683594 C 11.789062 6.683594 12.167969 6.34375 12.792969 6.34375 L 15.132812 6.351562 L 15.550781 7.269531 L 15.550781 6.34375 L 16.894531 6.34375 L 17.265625 6.871094 L 17.265625 6.34375 L 18.625 6.34375 L 18.625 9.328125 L 17.265625 9.328125 L 16.910156 8.796875 L 16.910156 9.328125 L 14.933594 9.328125 L 14.734375 8.855469 L 14.203125 8.855469 L 14.007812 9.328125 L 12.667969 9.328125 C 12.132812 9.328125 11.789062 8.996094 11.789062 8.996094 L 11.789062 9.328125 L 9.765625 9.328125 L 9.367188 8.855469 L 9.367188 9.328125 L 1.851562 9.328125 L 1.652344 8.855469 L 1.121094 8.855469 L 0.925781 9.328125 L 0 9.328125 Z M 0 8.003906 "/>
<path style=" stroke:none;fill-rule:nonzero;fill:rgb(0.392157%,43.529412%,81.568627%);fill-opacity:1;" d="M 1.011719 6.710938 L 0.00390625 8.945312 L 0.660156 8.945312 L 0.847656 8.496094 L 1.929688 8.496094 L 2.113281 8.945312 L 2.785156 8.945312 L 1.777344 6.710938 Z M 1.386719 7.230469 L 1.714844 8.011719 L 1.054688 8.011719 Z M 1.386719 7.230469 "/>
<path style=" stroke:none;fill-rule:nonzero;fill:rgb(0.392157%,43.529412%,81.568627%);fill-opacity:1;" d="M 2.855469 8.945312 L 2.855469 6.710938 L 3.789062 6.714844 L 4.332031 8.15625 L 4.859375 6.710938 L 5.785156 6.710938 L 5.785156 8.945312 L 5.199219 8.945312 L 5.199219 7.300781 L 4.578125 8.945312 L 4.0625 8.945312 L 3.441406 7.300781 L 3.441406 8.945312 Z M 2.855469 8.945312 "/>
<path style=" stroke:none;fill-rule:nonzero;fill:rgb(0.392157%,43.529412%,81.568627%);fill-opacity:1;" d="M 6.1875 8.945312 L 6.1875 6.710938 L 8.101562 6.710938 L 8.101562 7.210938 L 6.78125 7.210938 L 6.78125 7.59375 L 8.070312 7.59375 L 8.070312 8.0625 L 6.78125 8.0625 L 6.78125 8.460938 L 8.101562 8.460938 L 8.101562 8.945312 Z M 6.1875 8.945312 "/>
<path style=" stroke:none;fill-rule:nonzero;fill:rgb(0.392157%,43.529412%,81.568627%);fill-opacity:1;" d="M 8.441406 6.710938 L 8.441406 8.945312 L 9.027344 8.945312 L 9.027344 8.152344 L 9.273438 8.152344 L 9.976562 8.945312 L 10.691406 8.945312 L 9.921875 8.121094 C 10.238281 8.097656 10.5625 7.839844 10.5625 7.4375 C 10.5625 6.96875 10.175781 6.710938 9.746094 6.710938 Z M 9.027344 7.210938 L 9.695312 7.210938 C 9.855469 7.210938 9.972656 7.332031 9.972656 7.445312 C 9.972656 7.59375 9.824219 7.683594 9.707031 7.683594 L 9.027344 7.683594 Z M 9.027344 7.210938 "/>
<path style=" stroke:none;fill-rule:nonzero;fill:rgb(0.392157%,43.529412%,81.568627%);fill-opacity:1;" d="M 11.402344 8.945312 L 10.804688 8.945312 L 10.804688 6.710938 L 11.402344 6.710938 Z M 11.402344 8.945312 "/>
<path style=" stroke:none;fill-rule:nonzero;fill:rgb(0.392157%,43.529412%,81.568627%);fill-opacity:1;" d="M 12.820312 8.945312 L 12.691406 8.945312 C 12.066406 8.945312 11.6875 8.476562 11.6875 7.835938 C 11.6875 7.183594 12.0625 6.710938 12.851562 6.710938 L 13.5 6.710938 L 13.5 7.242188 L 12.828125 7.242188 C 12.507812 7.242188 12.28125 7.480469 12.28125 7.84375 C 12.28125 8.277344 12.542969 8.457031 12.914062 8.457031 L 13.070312 8.457031 Z M 12.820312 8.945312 "/>
<path style=" stroke:none;fill-rule:nonzero;fill:rgb(0.392157%,43.529412%,81.568627%);fill-opacity:1;" d="M 14.097656 6.710938 L 13.089844 8.945312 L 13.746094 8.945312 L 13.933594 8.496094 L 15.015625 8.496094 L 15.199219 8.945312 L 15.871094 8.945312 L 14.863281 6.710938 Z M 14.472656 7.230469 L 14.800781 8.011719 L 14.140625 8.011719 Z M 14.472656 7.230469 "/>
<path style=" stroke:none;fill-rule:nonzero;fill:rgb(0.392157%,43.529412%,81.568627%);fill-opacity:1;" d="M 15.9375 8.945312 L 15.9375 6.710938 L 16.683594 6.710938 L 17.636719 8.113281 L 17.636719 6.710938 L 18.222656 6.710938 L 18.222656 8.945312 L 17.5 8.945312 L 16.523438 7.503906 L 16.523438 8.945312 Z M 15.9375 8.945312 "/>
<path style=" stroke:none;fill-rule:nonzero;fill:rgb(0.392157%,43.529412%,81.568627%);fill-opacity:1;" d="M 4.273438 12.851562 L 4.273438 10.617188 L 6.1875 10.617188 L 6.1875 11.117188 L 4.867188 11.117188 L 4.867188 11.5 L 6.15625 11.5 L 6.15625 11.96875 L 4.867188 11.96875 L 4.867188 12.367188 L 6.1875 12.367188 L 6.1875 12.851562 Z M 4.273438 12.851562 "/>
<path style=" stroke:none;fill-rule:nonzero;fill:rgb(0.392157%,43.529412%,81.568627%);fill-opacity:1;" d="M 13.648438 12.851562 L 13.648438 10.617188 L 15.5625 10.617188 L 15.5625 11.117188 L 14.242188 11.117188 L 14.242188 11.5 L 15.523438 11.5 L 15.523438 11.96875 L 14.242188 11.96875 L 14.242188 12.367188 L 15.5625 12.367188 L 15.5625 12.851562 Z M 13.648438 12.851562 "/>
<path style=" stroke:none;fill-rule:nonzero;fill:rgb(0.392157%,43.529412%,81.568627%);fill-opacity:1;" d="M 6.261719 12.851562 L 7.191406 11.75 L 6.238281 10.617188 L 6.976562 10.617188 L 7.546875 11.316406 L 8.117188 10.617188 L 8.824219 10.617188 L 7.882812 11.734375 L 8.816406 12.851562 L 8.078125 12.851562 L 7.527344 12.164062 L 6.988281 12.851562 Z M 6.261719 12.851562 "/>
<path style=" stroke:none;fill-rule:nonzero;fill:rgb(0.392157%,43.529412%,81.568627%);fill-opacity:1;" d="M 8.886719 10.621094 L 8.886719 12.851562 L 9.488281 12.851562 L 9.488281 12.148438 L 10.105469 12.148438 C 10.628906 12.148438 11.023438 11.882812 11.023438 11.371094 C 11.023438 10.945312 10.714844 10.621094 10.183594 10.621094 Z M 9.488281 11.125 L 10.140625 11.125 C 10.308594 11.125 10.429688 11.222656 10.429688 11.382812 C 10.429688 11.53125 10.308594 11.636719 10.136719 11.636719 L 9.488281 11.636719 Z M 9.488281 11.125 "/>
<path style=" stroke:none;fill-rule:nonzero;fill:rgb(0.392157%,43.529412%,81.568627%);fill-opacity:1;" d="M 11.277344 10.617188 L 11.277344 12.851562 L 11.867188 12.851562 L 11.867188 12.058594 L 12.113281 12.058594 L 12.816406 12.851562 L 13.53125 12.851562 L 12.761719 12.027344 C 13.078125 12.003906 13.402344 11.746094 13.402344 11.34375 C 13.402344 10.875 13.015625 10.617188 12.582031 10.617188 Z M 11.867188 11.117188 L 12.535156 11.117188 C 12.695312 11.117188 12.8125 11.238281 12.8125 11.351562 C 12.8125 11.5 12.660156 11.589844 12.542969 11.589844 L 11.867188 11.589844 Z M 11.867188 11.117188 "/>
<path style=" stroke:none;fill-rule:nonzero;fill:rgb(0.392157%,43.529412%,81.568627%);fill-opacity:1;" d="M 15.832031 12.851562 L 15.832031 12.367188 L 17.007812 12.367188 C 17.179688 12.367188 17.257812 12.277344 17.257812 12.179688 C 17.257812 12.085938 17.179688 11.992188 17.007812 11.992188 L 16.476562 11.992188 C 16.015625 11.992188 15.757812 11.722656 15.757812 11.320312 C 15.757812 10.964844 15.996094 10.617188 16.679688 10.617188 L 17.820312 10.617188 L 17.574219 11.121094 L 16.585938 11.121094 C 16.398438 11.121094 16.339844 11.214844 16.339844 11.304688 C 16.339844 11.398438 16.410156 11.5 16.554688 11.5 L 17.109375 11.5 C 17.625 11.5 17.847656 11.777344 17.847656 12.140625 C 17.847656 12.53125 17.601562 12.851562 17.082031 12.851562 Z M 15.832031 12.851562 "/>
<path style=" stroke:none;fill-rule:nonzero;fill:rgb(0.392157%,43.529412%,81.568627%);fill-opacity:1;" d="M 17.984375 12.851562 L 17.984375 12.367188 L 19.160156 12.367188 C 19.332031 12.367188 19.40625 12.277344 19.40625 12.179688 C 19.40625 12.085938 19.332031 11.992188 19.160156 11.992188 L 18.628906 11.992188 C 18.167969 11.992188 17.910156 11.722656 17.910156 11.320312 C 17.910156 10.964844 18.144531 10.617188 18.832031 10.617188 L 19.972656 10.617188 L 19.726562 11.121094 L 18.738281 11.121094 C 18.550781 11.121094 18.492188 11.214844 18.492188 11.304688 C 18.492188 11.398438 18.5625 11.5 18.707031 11.5 L 19.261719 11.5 C 19.777344 11.5 20 11.777344 20 12.140625 C 20 12.53125 19.75 12.851562 19.234375 12.851562 Z M 17.984375 12.851562 "/>
</g>
</svg>
