<?xml version="1.0" encoding="UTF-8"?>
<svg xmlns="http://www.w3.org/2000/svg" xmlns:xlink="http://www.w3.org/1999/xlink" width="33px" height="20px" viewBox="0 0 34 20" version="1.1">
<g id="surface1">
<path style=" stroke:none;fill-rule:evenodd;fill:rgb(21.176471%,21.176471%,22.352941%);fill-opacity:1;" d="M 26.132812 17.496094 L 26.132812 17.535156 L 26.167969 17.535156 C 26.175781 17.535156 26.183594 17.53125 26.1875 17.53125 C 26.195312 17.527344 26.195312 17.519531 26.195312 17.515625 C 26.195312 17.507812 26.195312 17.503906 26.1875 17.5 C 26.183594 17.496094 26.175781 17.496094 26.167969 17.496094 Z M 26.167969 17.464844 C 26.1875 17.464844 26.203125 17.472656 26.214844 17.480469 C 26.222656 17.488281 26.230469 17.5 26.230469 17.515625 C 26.230469 17.527344 26.222656 17.539062 26.214844 17.546875 C 26.207031 17.554688 26.195312 17.558594 26.179688 17.558594 L 26.230469 17.617188 L 26.191406 17.617188 L 26.148438 17.558594 L 26.132812 17.558594 L 26.132812 17.617188 L 26.101562 17.617188 L 26.101562 17.464844 Z M 26.160156 17.667969 C 26.175781 17.667969 26.191406 17.664062 26.207031 17.65625 C 26.222656 17.652344 26.234375 17.640625 26.246094 17.632812 C 26.257812 17.621094 26.265625 17.605469 26.273438 17.589844 C 26.28125 17.574219 26.285156 17.558594 26.285156 17.542969 C 26.285156 17.523438 26.28125 17.507812 26.273438 17.492188 C 26.265625 17.476562 26.257812 17.464844 26.246094 17.453125 C 26.234375 17.441406 26.222656 17.433594 26.207031 17.425781 C 26.191406 17.421875 26.175781 17.417969 26.160156 17.417969 C 26.140625 17.417969 26.125 17.421875 26.109375 17.425781 C 26.09375 17.433594 26.082031 17.441406 26.070312 17.453125 C 26.0625 17.464844 26.054688 17.476562 26.046875 17.492188 C 26.042969 17.507812 26.039062 17.523438 26.039062 17.542969 C 26.039062 17.558594 26.042969 17.574219 26.046875 17.589844 C 26.054688 17.605469 26.0625 17.621094 26.070312 17.632812 C 26.082031 17.640625 26.09375 17.652344 26.109375 17.65625 C 26.125 17.664062 26.140625 17.667969 26.160156 17.667969 Z M 26.160156 17.378906 C 26.183594 17.378906 26.203125 17.386719 26.222656 17.394531 C 26.242188 17.402344 26.261719 17.414062 26.273438 17.429688 C 26.289062 17.441406 26.300781 17.460938 26.308594 17.480469 C 26.320312 17.5 26.324219 17.519531 26.324219 17.542969 C 26.324219 17.5625 26.320312 17.585938 26.308594 17.605469 C 26.300781 17.625 26.289062 17.640625 26.273438 17.65625 C 26.261719 17.671875 26.242188 17.683594 26.222656 17.691406 C 26.203125 17.699219 26.183594 17.703125 26.160156 17.703125 C 26.136719 17.703125 26.113281 17.699219 26.09375 17.691406 C 26.074219 17.683594 26.0625 17.671875 26.046875 17.65625 C 26.03125 17.640625 26.019531 17.625 26.011719 17.605469 C 26.003906 17.585938 26 17.5625 26 17.542969 C 26 17.519531 26.003906 17.5 26.011719 17.480469 C 26.019531 17.460938 26.03125 17.441406 26.046875 17.429688 C 26.0625 17.414062 26.074219 17.402344 26.09375 17.394531 C 26.113281 17.386719 26.136719 17.378906 26.160156 17.378906 Z M 11.257812 16.804688 C 11.257812 16.519531 11.445312 16.285156 11.746094 16.285156 C 12.03125 16.285156 12.222656 16.507812 12.222656 16.804688 C 12.222656 17.101562 12.03125 17.324219 11.746094 17.324219 C 11.445312 17.324219 11.257812 17.089844 11.257812 16.804688 Z M 12.550781 16.804688 L 12.550781 15.992188 L 12.203125 15.992188 L 12.203125 16.191406 C 12.09375 16.042969 11.925781 15.953125 11.699219 15.953125 C 11.25 15.953125 10.898438 16.308594 10.898438 16.804688 C 10.898438 17.300781 11.25 17.65625 11.699219 17.65625 C 11.925781 17.65625 12.09375 17.566406 12.203125 17.417969 L 12.203125 17.617188 L 12.550781 17.617188 Z M 24.289062 16.804688 C 24.289062 16.519531 24.46875 16.285156 24.769531 16.285156 C 25.0625 16.285156 25.253906 16.507812 25.253906 16.804688 C 25.253906 17.101562 25.0625 17.324219 24.769531 17.324219 C 24.46875 17.324219 24.289062 17.089844 24.289062 16.804688 Z M 25.582031 16.804688 L 25.582031 15.339844 L 25.234375 15.339844 L 25.234375 16.191406 C 25.121094 16.042969 24.957031 15.953125 24.730469 15.953125 C 24.28125 15.953125 23.929688 16.308594 23.929688 16.804688 C 23.929688 17.300781 24.28125 17.65625 24.730469 17.65625 C 24.957031 17.65625 25.121094 17.566406 25.234375 17.417969 L 25.234375 17.617188 L 25.582031 17.617188 Z M 16.863281 16.269531 C 17.089844 16.269531 17.230469 16.410156 17.265625 16.660156 L 16.4375 16.660156 C 16.472656 16.425781 16.617188 16.269531 16.863281 16.269531 Z M 16.867188 15.953125 C 16.402344 15.953125 16.074219 16.296875 16.074219 16.804688 C 16.074219 17.320312 16.417969 17.65625 16.890625 17.65625 C 17.132812 17.65625 17.355469 17.59375 17.546875 17.429688 L 17.378906 17.167969 C 17.242188 17.277344 17.074219 17.335938 16.914062 17.335938 C 16.691406 17.335938 16.484375 17.230469 16.433594 16.941406 L 17.621094 16.941406 C 17.625 16.894531 17.628906 16.851562 17.628906 16.804688 C 17.625 16.296875 17.316406 15.953125 16.867188 15.953125 Z M 21.066406 16.804688 C 21.066406 16.519531 21.246094 16.285156 21.546875 16.285156 C 21.835938 16.285156 22.03125 16.507812 22.03125 16.804688 C 22.03125 17.101562 21.835938 17.324219 21.546875 17.324219 C 21.246094 17.324219 21.066406 17.089844 21.066406 16.804688 Z M 22.359375 16.804688 L 22.359375 15.992188 L 22.011719 15.992188 L 22.011719 16.191406 C 21.898438 16.042969 21.734375 15.953125 21.503906 15.953125 C 21.058594 15.953125 20.707031 16.308594 20.707031 16.804688 C 20.707031 17.300781 21.058594 17.65625 21.503906 17.65625 C 21.734375 17.65625 21.898438 17.566406 22.011719 17.417969 L 22.011719 17.617188 L 22.359375 17.617188 Z M 19.097656 16.804688 C 19.097656 17.296875 19.4375 17.65625 19.953125 17.65625 C 20.195312 17.65625 20.355469 17.601562 20.527344 17.464844 L 20.363281 17.179688 C 20.230469 17.273438 20.09375 17.324219 19.945312 17.324219 C 19.667969 17.320312 19.460938 17.117188 19.460938 16.804688 C 19.460938 16.492188 19.667969 16.289062 19.945312 16.285156 C 20.09375 16.285156 20.230469 16.335938 20.363281 16.429688 L 20.527344 16.144531 C 20.355469 16.007812 20.195312 15.953125 19.953125 15.953125 C 19.4375 15.953125 19.097656 16.3125 19.097656 16.804688 Z M 23.578125 15.953125 C 23.378906 15.953125 23.25 16.046875 23.15625 16.191406 L 23.15625 15.992188 L 22.8125 15.992188 L 22.8125 17.617188 L 23.160156 17.617188 L 23.160156 16.707031 C 23.160156 16.4375 23.277344 16.289062 23.5 16.289062 C 23.574219 16.289062 23.648438 16.296875 23.722656 16.328125 L 23.824219 15.996094 C 23.746094 15.964844 23.648438 15.953125 23.578125 15.953125 Z M 14.269531 16.121094 C 14.105469 16.007812 13.871094 15.953125 13.617188 15.953125 C 13.210938 15.953125 12.953125 16.148438 12.953125 16.472656 C 12.953125 16.738281 13.144531 16.898438 13.503906 16.949219 L 13.667969 16.972656 C 13.855469 17 13.949219 17.050781 13.949219 17.144531 C 13.949219 17.269531 13.820312 17.339844 13.582031 17.339844 C 13.34375 17.339844 13.167969 17.261719 13.054688 17.171875 L 12.886719 17.445312 C 13.082031 17.589844 13.320312 17.65625 13.582031 17.65625 C 14.042969 17.65625 14.308594 17.4375 14.308594 17.128906 C 14.308594 16.839844 14.101562 16.691406 13.753906 16.640625 L 13.585938 16.617188 C 13.4375 16.597656 13.316406 16.566406 13.316406 16.457031 C 13.316406 16.339844 13.433594 16.269531 13.621094 16.269531 C 13.824219 16.269531 14.023438 16.347656 14.117188 16.40625 Z M 18.753906 15.953125 C 18.550781 15.953125 18.421875 16.046875 18.332031 16.191406 L 18.332031 15.992188 L 17.984375 15.992188 L 17.984375 17.617188 L 18.332031 17.617188 L 18.332031 16.707031 C 18.332031 16.4375 18.445312 16.289062 18.675781 16.289062 C 18.746094 16.289062 18.816406 16.296875 18.890625 16.328125 L 19 15.996094 C 18.921875 15.964844 18.820312 15.953125 18.753906 15.953125 Z M 15.785156 15.992188 L 15.21875 15.992188 L 15.21875 15.5 L 14.867188 15.5 L 14.867188 15.992188 L 14.542969 15.992188 L 14.542969 16.316406 L 14.867188 16.316406 L 14.867188 17.054688 C 14.867188 17.433594 15.011719 17.65625 15.425781 17.65625 C 15.570312 17.65625 15.746094 17.609375 15.855469 17.53125 L 15.757812 17.230469 C 15.652344 17.289062 15.539062 17.320312 15.445312 17.320312 C 15.273438 17.320312 15.21875 17.210938 15.21875 17.050781 L 15.21875 16.316406 L 15.785156 16.316406 Z M 10.59375 17.617188 L 10.59375 16.597656 C 10.59375 16.214844 10.351562 15.957031 9.964844 15.953125 C 9.761719 15.949219 9.550781 16.011719 9.40625 16.242188 C 9.292969 16.0625 9.121094 15.953125 8.875 15.953125 C 8.707031 15.953125 8.539062 16.003906 8.410156 16.191406 L 8.410156 15.992188 L 8.0625 15.992188 L 8.0625 17.617188 L 8.414062 17.617188 L 8.414062 16.714844 C 8.414062 16.433594 8.5625 16.285156 8.800781 16.285156 C 9.035156 16.285156 9.148438 16.4375 9.148438 16.710938 L 9.148438 17.617188 L 9.5 17.617188 L 9.5 16.714844 C 9.5 16.433594 9.660156 16.285156 9.890625 16.285156 C 10.128906 16.285156 10.242188 16.4375 10.242188 16.710938 L 10.242188 17.617188 Z M 10.59375 17.617188 "/>
<path style=" stroke:none;fill-rule:evenodd;fill:rgb(95.686275%,49.019608%,12.54902%);fill-opacity:1;" d="M 14.152344 3.621094 L 19.417969 3.621094 L 19.417969 13.234375 L 14.152344 13.234375 Z M 14.152344 3.621094 "/>
<path style=" stroke:none;fill-rule:evenodd;fill:rgb(87.058824%,12.156863%,19.215686%);fill-opacity:1;" d="M 14.488281 8.425781 C 14.488281 6.476562 15.386719 4.738281 16.785156 3.621094 C 15.765625 2.800781 14.46875 2.3125 13.070312 2.3125 C 9.746094 2.3125 7.054688 5.050781 7.054688 8.425781 C 7.054688 11.804688 9.746094 14.542969 13.070312 14.542969 C 14.46875 14.542969 15.765625 14.054688 16.785156 13.234375 C 15.386719 12.113281 14.488281 10.378906 14.488281 8.425781 Z M 14.488281 8.425781 "/>
<path style=" stroke:none;fill-rule:evenodd;fill:rgb(95.294118%,65.882353%,21.568627%);fill-opacity:1;" d="M 26.332031 12.214844 L 26.332031 11.980469 L 26.269531 11.980469 L 26.199219 12.140625 L 26.128906 11.980469 L 26.066406 11.980469 L 26.066406 12.214844 L 26.109375 12.214844 L 26.109375 12.039062 L 26.175781 12.191406 L 26.222656 12.191406 L 26.289062 12.035156 L 26.289062 12.214844 Z M 25.945312 12.214844 L 25.945312 12.019531 L 26.023438 12.019531 L 26.023438 11.980469 L 25.824219 11.980469 L 25.824219 12.019531 L 25.902344 12.019531 L 25.902344 12.214844 Z M 26.519531 8.425781 C 26.519531 11.804688 23.824219 14.542969 20.503906 14.542969 C 19.097656 14.542969 17.808594 14.054688 16.785156 13.234375 C 18.183594 12.113281 19.085938 10.378906 19.085938 8.425781 C 19.085938 6.476562 18.183594 4.738281 16.785156 3.621094 C 17.808594 2.800781 19.097656 2.3125 20.503906 2.3125 C 23.824219 2.3125 26.519531 5.050781 26.519531 8.425781 Z M 26.519531 8.425781 "/>
</g>
</svg>
