<?xml version="1.0" encoding="UTF-8"?>
<svg xmlns="http://www.w3.org/2000/svg" xmlns:xlink="http://www.w3.org/1999/xlink" width="32px" height="20px" viewBox="0 0 32 20" version="1.1">
<defs>
<linearGradient id="linear0" gradientUnits="userSpaceOnUse" x1="196.4595" y1="301.98909" x2="380.69943" y2="233.55724" gradientTransform="matrix(0.0633663,0,0,0.0636943,-9.188119,-9.235669)">
<stop offset="0" style="stop-color:rgb(0%,35.294118%,72.54902%);stop-opacity:1;"/>
<stop offset="1" style="stop-color:rgb(11.764706%,21.568627%,39.215686%);stop-opacity:1;"/>
</linearGradient>
<linearGradient id="linear1" gradientUnits="userSpaceOnUse" x1="412.61809" y1="255.49454" x2="608.24268" y2="188.75203" gradientTransform="matrix(0.0633663,0,0,0.0636943,-9.188119,-9.235669)">
<stop offset="0" style="stop-color:rgb(98.431373%,66.27451%,0%);stop-opacity:1;"/>
<stop offset="1" style="stop-color:rgb(100%,84.705882%,0%);stop-opacity:1;"/>
</linearGradient>
</defs>
<g id="surface1">
<path style=" stroke:none;fill-rule:nonzero;fill:rgb(11.764706%,21.568627%,39.215686%);fill-opacity:1;" d="M 0.03125 19.875 L 0.03125 15.242188 L 1.457031 15.242188 C 2.488281 15.242188 3.15625 15.632812 3.15625 16.441406 C 3.15625 16.898438 2.945312 17.214844 2.648438 17.398438 C 3.074219 17.597656 3.324219 17.984375 3.324219 18.503906 C 3.324219 19.4375 2.648438 19.875 1.59375 19.875 Z M 0.949219 17.167969 L 1.625 17.167969 C 2.042969 17.167969 2.21875 16.964844 2.21875 16.585938 C 2.21875 16.183594 1.898438 16.050781 1.460938 16.050781 L 0.949219 16.050781 Z M 0.949219 19.070312 L 1.515625 19.070312 C 2.066406 19.070312 2.390625 18.929688 2.390625 18.492188 C 2.390625 18.0625 2.113281 17.882812 1.59375 17.882812 L 0.949219 17.882812 Z M 5.101562 19.957031 C 4.199219 19.957031 3.746094 19.511719 3.746094 18.917969 C 3.746094 18.261719 4.277344 17.875 5.070312 17.871094 C 5.265625 17.875 5.460938 17.890625 5.65625 17.921875 L 5.65625 17.765625 C 5.65625 17.359375 5.425781 17.167969 4.984375 17.167969 C 4.6875 17.164062 4.390625 17.21875 4.113281 17.328125 L 3.949219 16.613281 C 4.230469 16.492188 4.6875 16.414062 5.089844 16.414062 C 6.054688 16.414062 6.539062 16.929688 6.539062 17.824219 L 6.539062 19.664062 C 6.265625 19.804688 5.761719 19.957031 5.101562 19.957031 Z M 5.65625 19.207031 L 5.65625 18.5 C 5.5 18.464844 5.34375 18.445312 5.1875 18.445312 C 4.882812 18.445312 4.648438 18.566406 4.648438 18.875 C 4.648438 19.15625 4.84375 19.300781 5.195312 19.300781 C 5.351562 19.304688 5.511719 19.273438 5.65625 19.207031 Z M 7.175781 19.875 L 7.175781 16.703125 C 7.652344 16.515625 8.15625 16.414062 8.664062 16.414062 C 9.628906 16.414062 10.179688 16.890625 10.179688 17.769531 L 10.179688 19.875 L 9.273438 19.875 L 9.273438 17.835938 C 9.273438 17.378906 9.0625 17.167969 8.660156 17.167969 C 8.460938 17.164062 8.261719 17.207031 8.078125 17.289062 L 8.078125 19.875 Z M 13.355469 16.613281 L 13.1875 17.332031 C 12.949219 17.230469 12.699219 17.175781 12.441406 17.167969 C 11.90625 17.167969 11.617188 17.546875 11.617188 18.167969 C 11.617188 18.851562 11.921875 19.199219 12.488281 19.199219 C 12.738281 19.195312 12.988281 19.136719 13.21875 19.027344 L 13.363281 19.761719 C 13.066406 19.898438 12.742188 19.960938 12.414062 19.957031 C 11.320312 19.957031 10.6875 19.273438 10.6875 18.195312 C 10.6875 17.121094 11.316406 16.414062 12.363281 16.414062 C 12.703125 16.410156 13.042969 16.480469 13.355469 16.613281 Z M 15.320312 19.957031 C 14.304688 19.957031 13.671875 19.246094 13.671875 18.179688 C 13.671875 17.121094 14.304688 16.414062 15.320312 16.414062 C 16.339844 16.414062 16.960938 17.121094 16.960938 18.179688 C 16.960938 19.246094 16.339844 19.957031 15.320312 19.957031 Z M 15.320312 19.199219 C 15.789062 19.199219 16.03125 18.808594 16.03125 18.179688 C 16.03125 17.558594 15.789062 17.167969 15.320312 17.167969 C 14.859375 17.167969 14.601562 17.558594 14.601562 18.179688 C 14.601562 18.808594 14.859375 19.199219 15.320312 19.199219 Z M 17.488281 19.875 L 17.488281 16.703125 C 17.960938 16.515625 18.464844 16.414062 18.976562 16.414062 C 19.9375 16.414062 20.488281 16.890625 20.488281 17.769531 L 20.488281 19.875 L 19.582031 19.875 L 19.582031 17.835938 C 19.582031 17.378906 19.371094 17.167969 18.96875 17.167969 C 18.769531 17.164062 18.570312 17.207031 18.386719 17.289062 L 18.386719 19.875 Z M 22.539062 19.957031 C 21.753906 19.957031 21.355469 19.523438 21.355469 18.652344 L 21.355469 17.222656 L 20.90625 17.222656 L 20.90625 16.492188 L 21.355469 16.492188 L 21.355469 15.757812 L 22.261719 15.710938 L 22.261719 16.492188 L 22.992188 16.492188 L 22.992188 17.222656 L 22.261719 17.222656 L 22.261719 18.636719 C 22.261719 19.023438 22.421875 19.199219 22.71875 19.199219 C 22.835938 19.199219 22.953125 19.1875 23.066406 19.160156 L 23.113281 19.894531 C 22.925781 19.9375 22.730469 19.957031 22.539062 19.957031 Z M 24.832031 19.957031 C 23.929688 19.957031 23.476562 19.511719 23.476562 18.917969 C 23.476562 18.261719 24.011719 17.875 24.800781 17.871094 C 24.996094 17.875 25.191406 17.890625 25.386719 17.921875 L 25.386719 17.765625 C 25.386719 17.359375 25.15625 17.167969 24.714844 17.167969 C 24.417969 17.164062 24.121094 17.21875 23.847656 17.328125 L 23.679688 16.613281 C 23.964844 16.492188 24.417969 16.414062 24.820312 16.414062 C 25.789062 16.414062 26.269531 16.929688 26.269531 17.824219 L 26.269531 19.664062 C 26 19.804688 25.492188 19.957031 24.832031 19.957031 Z M 25.386719 19.207031 L 25.386719 18.5 C 25.234375 18.464844 25.078125 18.445312 24.917969 18.445312 C 24.617188 18.445312 24.378906 18.566406 24.378906 18.875 C 24.378906 19.15625 24.578125 19.300781 24.925781 19.300781 C 25.085938 19.304688 25.242188 19.273438 25.386719 19.207031 Z M 29.378906 16.613281 L 29.207031 17.332031 C 28.972656 17.230469 28.71875 17.175781 28.464844 17.167969 C 27.929688 17.167969 27.640625 17.546875 27.640625 18.167969 C 27.640625 18.851562 27.945312 19.199219 28.511719 19.199219 C 28.761719 19.195312 29.011719 19.136719 29.242188 19.027344 L 29.386719 19.761719 C 29.085938 19.898438 28.765625 19.960938 28.4375 19.957031 C 27.34375 19.957031 26.710938 19.273438 26.710938 18.195312 C 26.710938 17.121094 27.335938 16.414062 28.382812 16.414062 C 28.726562 16.410156 29.0625 16.480469 29.378906 16.613281 Z M 31.378906 19.957031 C 30.59375 19.957031 30.191406 19.523438 30.191406 18.652344 L 30.191406 17.222656 L 29.746094 17.222656 L 29.746094 16.492188 L 30.191406 16.492188 L 30.191406 15.757812 L 31.101562 15.710938 L 31.101562 16.492188 L 31.832031 16.492188 L 31.832031 17.222656 L 31.101562 17.222656 L 31.101562 18.636719 C 31.101562 19.023438 31.257812 19.199219 31.554688 19.199219 C 31.671875 19.199219 31.789062 19.1875 31.90625 19.160156 L 31.949219 19.894531 C 31.761719 19.9375 31.570312 19.957031 31.378906 19.957031 Z M 31.378906 19.957031 "/>
<path style=" stroke:none;fill-rule:nonzero;fill:url(#linear0);" d="M 6.371094 12.925781 C 11.183594 12.925781 13.585938 9.703125 15.992188 6.480469 L 0.03125 6.480469 L 0.03125 12.925781 Z M 6.371094 12.925781 "/>
<path style=" stroke:none;fill-rule:nonzero;fill:url(#linear1);" d="M 25.609375 0.03125 C 20.800781 0.03125 18.394531 3.253906 15.992188 6.480469 L 31.949219 6.480469 L 31.949219 0.03125 Z M 25.609375 0.03125 "/>
</g>
</svg>
