<?xml version="1.0" encoding="UTF-8"?>
<svg xmlns="http://www.w3.org/2000/svg" xmlns:xlink="http://www.w3.org/1999/xlink" width="px" height="20px" viewBox="0 0 31 20" version="1.1">
<g id="surface1">
<path style=" stroke:none;fill-rule:nonzero;fill:rgb(100%,100%,100%);fill-opacity:1;" d="M 28.21875 0.417969 L 28.535156 0.417969 C 28.621094 0.417969 28.707031 0.417969 28.796875 0.421875 C 28.953125 0.425781 29.136719 0.433594 29.316406 0.464844 C 29.480469 0.496094 29.621094 0.542969 29.753906 0.613281 C 30.027344 0.75 30.25 0.976562 30.390625 1.25 C 30.457031 1.386719 30.503906 1.527344 30.53125 1.695312 C 30.566406 1.871094 30.574219 2.058594 30.578125 2.21875 C 30.578125 2.304688 30.582031 2.390625 30.582031 2.480469 C 30.582031 2.585938 30.582031 2.691406 30.582031 2.796875 L 30.582031 17.203125 C 30.582031 17.308594 30.582031 17.414062 30.582031 17.519531 C 30.582031 17.609375 30.578125 17.695312 30.578125 17.78125 C 30.574219 17.941406 30.566406 18.128906 30.53125 18.308594 C 30.507812 18.460938 30.457031 18.609375 30.390625 18.75 C 30.25 19.023438 30.027344 19.25 29.753906 19.390625 C 29.617188 19.460938 29.46875 19.507812 29.316406 19.535156 C 29.144531 19.5625 28.96875 19.578125 28.796875 19.578125 C 28.710938 19.582031 28.621094 19.582031 28.535156 19.582031 C 28.429688 19.582031 28.324219 19.582031 28.21875 19.582031 L 2.777344 19.582031 C 2.671875 19.582031 2.570312 19.582031 2.464844 19.582031 C 2.378906 19.582031 2.289062 19.582031 2.207031 19.578125 C 2.03125 19.578125 1.855469 19.5625 1.683594 19.535156 C 1.53125 19.507812 1.382812 19.460938 1.246094 19.386719 C 1.109375 19.320312 0.984375 19.226562 0.878906 19.121094 C 0.769531 19.011719 0.679688 18.886719 0.609375 18.75 C 0.542969 18.609375 0.492188 18.460938 0.46875 18.304688 C 0.4375 18.132812 0.425781 17.957031 0.421875 17.78125 C 0.421875 17.695312 0.417969 17.609375 0.417969 17.519531 L 0.417969 2.480469 C 0.417969 2.394531 0.421875 2.304688 0.421875 2.21875 C 0.425781 2.058594 0.433594 1.875 0.46875 1.691406 C 0.492188 1.539062 0.542969 1.390625 0.609375 1.25 C 0.75 0.976562 0.972656 0.75 1.246094 0.613281 C 1.382812 0.542969 1.53125 0.492188 1.683594 0.464844 C 1.855469 0.4375 2.03125 0.421875 2.207031 0.421875 C 2.292969 0.417969 2.378906 0.417969 2.464844 0.417969 L 28.21875 0.417969 "/>
<path style=" stroke:none;fill-rule:nonzero;fill:rgb(0%,0%,0%);fill-opacity:1;" d="M 28.21875 0.417969 L 28.535156 0.417969 C 28.621094 0.417969 28.707031 0.417969 28.796875 0.421875 C 28.953125 0.425781 29.136719 0.433594 29.316406 0.464844 C 29.480469 0.496094 29.621094 0.542969 29.753906 0.613281 C 30.027344 0.75 30.25 0.976562 30.390625 1.25 C 30.457031 1.386719 30.503906 1.527344 30.53125 1.695312 C 30.566406 1.871094 30.574219 2.058594 30.578125 2.21875 C 30.578125 2.304688 30.582031 2.390625 30.582031 2.480469 C 30.582031 2.585938 30.582031 2.691406 30.582031 2.796875 L 30.582031 17.203125 C 30.582031 17.308594 30.582031 17.414062 30.582031 17.519531 C 30.582031 17.609375 30.578125 17.695312 30.578125 17.78125 C 30.574219 17.941406 30.566406 18.128906 30.53125 18.308594 C 30.507812 18.460938 30.457031 18.609375 30.390625 18.75 C 30.25 19.023438 30.027344 19.25 29.753906 19.390625 C 29.617188 19.460938 29.46875 19.507812 29.316406 19.535156 C 29.144531 19.5625 28.96875 19.578125 28.796875 19.578125 C 28.710938 19.582031 28.621094 19.582031 28.535156 19.582031 C 28.429688 19.582031 28.324219 19.582031 28.21875 19.582031 L 2.777344 19.582031 C 2.671875 19.582031 2.570312 19.582031 2.464844 19.582031 C 2.378906 19.582031 2.289062 19.582031 2.207031 19.578125 C 2.03125 19.578125 1.855469 19.5625 1.683594 19.535156 C 1.53125 19.507812 1.382812 19.460938 1.246094 19.386719 C 1.109375 19.320312 0.984375 19.226562 0.878906 19.121094 C 0.769531 19.011719 0.679688 18.886719 0.609375 18.75 C 0.542969 18.609375 0.492188 18.460938 0.46875 18.304688 C 0.4375 18.132812 0.425781 17.957031 0.421875 17.78125 C 0.421875 17.695312 0.417969 17.609375 0.417969 17.519531 L 0.417969 2.480469 C 0.417969 2.394531 0.421875 2.304688 0.421875 2.21875 C 0.425781 2.058594 0.433594 1.875 0.46875 1.691406 C 0.492188 1.539062 0.542969 1.390625 0.609375 1.25 C 0.75 0.976562 0.972656 0.75 1.246094 0.613281 C 1.382812 0.542969 1.53125 0.492188 1.683594 0.464844 C 1.855469 0.4375 2.03125 0.421875 2.207031 0.421875 C 2.292969 0.417969 2.378906 0.417969 2.464844 0.417969 L 28.21875 0.417969 M 28.21875 0 L 2.460938 0 C 2.371094 0 2.285156 0.00390625 2.195312 0.00390625 C 2 0.0078125 1.804688 0.0234375 1.613281 0.0546875 C 1.417969 0.0898438 1.230469 0.152344 1.058594 0.242188 C 0.707031 0.421875 0.421875 0.707031 0.242188 1.0625 C 0.15625 1.238281 0.09375 1.425781 0.0585938 1.621094 C 0.0273438 1.816406 0.0117188 2.011719 0.0078125 2.207031 C 0.0078125 2.296875 0.00390625 2.386719 0.00390625 2.476562 L 0.00390625 17.523438 C 0.00390625 17.613281 0.0078125 17.703125 0.0078125 17.792969 C 0.015625 17.988281 0.0273438 18.1875 0.0625 18.378906 C 0.09375 18.578125 0.152344 18.757812 0.242188 18.9375 C 0.421875 19.292969 0.707031 19.578125 1.058594 19.757812 C 1.234375 19.851562 1.417969 19.910156 1.613281 19.945312 C 1.804688 19.976562 2 19.988281 2.195312 19.996094 C 2.285156 19.996094 2.371094 20 2.460938 20 C 2.566406 20 2.675781 20 2.78125 20 L 28.21875 20 C 28.328125 20 28.433594 20 28.539062 20 C 28.628906 20 28.71875 19.996094 28.804688 19.996094 C 29 19.988281 29.195312 19.976562 29.390625 19.945312 C 29.582031 19.910156 29.769531 19.847656 29.941406 19.757812 C 30.292969 19.582031 30.578125 19.292969 30.757812 18.9375 C 30.847656 18.757812 30.90625 18.578125 30.941406 18.378906 C 30.972656 18.1875 30.984375 17.988281 30.992188 17.792969 C 30.992188 17.703125 30.996094 17.613281 30.996094 17.523438 C 30.996094 17.414062 30.996094 17.308594 30.996094 17.203125 L 30.996094 2.796875 C 30.996094 2.691406 30.996094 2.585938 30.996094 2.476562 C 30.996094 2.386719 30.992188 2.296875 30.992188 2.207031 C 30.988281 2.011719 30.972656 1.8125 30.941406 1.621094 C 30.90625 1.425781 30.84375 1.238281 30.757812 1.0625 C 30.578125 0.707031 30.292969 0.421875 29.941406 0.238281 C 29.769531 0.152344 29.582031 0.0898438 29.390625 0.0546875 C 29.195312 0.0234375 29 0.0078125 28.804688 0.00390625 C 28.714844 0 28.628906 0 28.539062 0 Z M 28.21875 0 "/>
<path style=" stroke:none;fill-rule:nonzero;fill:rgb(0%,0%,0%);fill-opacity:1;" d="M 9.246094 6 C 9.53125 5.652344 9.722656 5.164062 9.671875 4.679688 C 9.257812 4.699219 8.757812 4.960938 8.464844 5.308594 C 8.199219 5.617188 7.964844 6.113281 8.03125 6.585938 C 8.488281 6.621094 8.957031 6.351562 9.246094 6 Z M 10.433594 9.074219 C 10.421875 8.027344 11.28125 7.523438 11.320312 7.496094 C 10.835938 6.789062 10.085938 6.691406 9.820312 6.679688 C 9.179688 6.617188 8.570312 7.058594 8.25 7.058594 C 7.925781 7.058594 7.425781 6.691406 6.894531 6.699219 C 6.199219 6.710938 5.558594 7.109375 5.199219 7.738281 C 4.480469 9.003906 5.015625 10.878906 5.722656 11.902344 C 6.066406 12.40625 6.476562 12.96875 7.015625 12.949219 C 7.535156 12.929688 7.730469 12.609375 8.359375 12.609375 C 8.988281 12.609375 9.164062 12.949219 9.710938 12.9375 C 10.269531 12.925781 10.625 12.425781 10.96875 11.921875 C 11.359375 11.339844 11.523438 10.773438 11.53125 10.746094 C 11.523438 10.738281 10.445312 10.324219 10.433594 9.074219 Z M 17.085938 6 C 16.875 5.796875 16.609375 5.640625 16.285156 5.53125 C 15.96875 5.425781 15.585938 5.371094 15.148438 5.371094 C 14.871094 5.371094 14.589844 5.382812 14.3125 5.414062 C 14.082031 5.441406 13.851562 5.472656 13.621094 5.511719 L 13.554688 5.523438 L 13.554688 12.886719 L 14.21875 12.886719 L 14.21875 9.785156 C 14.445312 9.824219 14.703125 9.84375 14.984375 9.84375 C 15.363281 9.84375 15.714844 9.792969 16.035156 9.699219 C 16.34375 9.609375 16.628906 9.460938 16.878906 9.257812 C 17.117188 9.054688 17.308594 8.804688 17.441406 8.519531 C 17.578125 8.226562 17.648438 7.882812 17.648438 7.5 C 17.648438 7.179688 17.597656 6.890625 17.5 6.644531 C 17.40625 6.40625 17.265625 6.183594 17.085938 6 Z M 16.472656 8.8125 C 16.128906 9.101562 15.644531 9.246094 15.03125 9.246094 C 14.863281 9.246094 14.703125 9.238281 14.554688 9.226562 C 14.441406 9.214844 14.332031 9.195312 14.21875 9.167969 L 14.21875 6.039062 C 14.308594 6.023438 14.417969 6.007812 14.546875 5.992188 C 14.707031 5.976562 14.902344 5.96875 15.128906 5.96875 C 15.386719 5.964844 15.640625 6 15.890625 6.066406 C 16.101562 6.125 16.300781 6.222656 16.476562 6.355469 C 16.636719 6.480469 16.761719 6.644531 16.847656 6.839844 C 16.9375 7.039062 16.980469 7.273438 16.980469 7.542969 C 16.980469 8.097656 16.808594 8.527344 16.472656 8.8125 Z M 21.632812 12.195312 C 21.625 11.988281 21.621094 11.777344 21.621094 11.570312 L 21.621094 9.523438 C 21.621094 9.28125 21.597656 9.035156 21.550781 8.789062 C 21.503906 8.542969 21.410156 8.308594 21.273438 8.101562 C 21.136719 7.898438 20.949219 7.730469 20.710938 7.601562 C 20.472656 7.472656 20.164062 7.40625 19.792969 7.40625 C 19.523438 7.40625 19.257812 7.441406 19.007812 7.511719 C 18.746094 7.589844 18.496094 7.707031 18.273438 7.863281 L 18.21875 7.902344 L 18.441406 8.433594 L 18.523438 8.378906 C 18.703125 8.257812 18.898438 8.164062 19.101562 8.101562 C 19.308594 8.035156 19.523438 8.003906 19.742188 8.003906 C 20.019531 8.003906 20.242188 8.054688 20.398438 8.152344 C 20.558594 8.253906 20.679688 8.378906 20.757812 8.527344 C 20.839844 8.675781 20.894531 8.839844 20.917969 9.003906 C 20.941406 9.179688 20.953125 9.335938 20.953125 9.46875 L 20.953125 9.527344 C 19.964844 9.523438 19.195312 9.6875 18.683594 10.019531 C 18.144531 10.371094 17.871094 10.867188 17.871094 11.5 C 17.871094 11.679688 17.902344 11.863281 17.96875 12.042969 C 18.03125 12.226562 18.128906 12.390625 18.257812 12.53125 C 18.386719 12.671875 18.554688 12.789062 18.753906 12.875 C 18.949219 12.960938 19.183594 13.003906 19.445312 13.003906 C 19.816406 13.011719 20.179688 12.910156 20.492188 12.714844 C 20.628906 12.628906 20.75 12.535156 20.855469 12.429688 C 20.898438 12.382812 20.941406 12.335938 20.984375 12.289062 L 21.007812 12.289062 L 21.070312 12.886719 L 21.710938 12.886719 L 21.695312 12.789062 C 21.660156 12.59375 21.636719 12.394531 21.632812 12.195312 Z M 20.953125 11.148438 C 20.953125 11.21875 20.9375 11.316406 20.90625 11.433594 C 20.863281 11.5625 20.800781 11.683594 20.726562 11.796875 C 20.558594 12.042969 20.3125 12.230469 20.027344 12.324219 C 19.855469 12.382812 19.675781 12.410156 19.492188 12.410156 C 19.375 12.410156 19.253906 12.386719 19.140625 12.347656 C 19.03125 12.308594 18.933594 12.25 18.847656 12.167969 C 18.757812 12.085938 18.6875 11.980469 18.640625 11.867188 C 18.585938 11.746094 18.558594 11.59375 18.558594 11.417969 C 18.558594 11.128906 18.636719 10.894531 18.789062 10.726562 C 18.949219 10.542969 19.152344 10.402344 19.382812 10.320312 C 19.640625 10.222656 19.910156 10.160156 20.183594 10.132812 C 20.441406 10.109375 20.699219 10.097656 20.953125 10.101562 Z M 26.15625 7.527344 L 24.910156 10.933594 C 24.835938 11.140625 24.761719 11.347656 24.695312 11.550781 C 24.664062 11.652344 24.632812 11.746094 24.601562 11.835938 L 24.578125 11.835938 C 24.546875 11.738281 24.515625 11.636719 24.484375 11.539062 C 24.417969 11.339844 24.351562 11.144531 24.277344 10.957031 L 22.949219 7.527344 L 22.238281 7.527344 L 24.140625 12.457031 C 24.191406 12.578125 24.199219 12.632812 24.199219 12.652344 C 24.199219 12.660156 24.195312 12.699219 24.140625 12.851562 C 24.035156 13.117188 23.898438 13.371094 23.734375 13.605469 C 23.582031 13.816406 23.445312 13.984375 23.320312 14.113281 C 23.175781 14.257812 23.027344 14.375 22.875 14.46875 C 22.71875 14.558594 22.578125 14.632812 22.453125 14.691406 L 22.378906 14.722656 L 22.613281 15.289062 L 22.6875 15.261719 C 22.746094 15.238281 22.859375 15.1875 23.03125 15.105469 C 23.203125 15.015625 23.398438 14.878906 23.601562 14.695312 C 23.785156 14.535156 23.945312 14.351562 24.082031 14.148438 C 24.222656 13.945312 24.363281 13.707031 24.5 13.441406 C 24.636719 13.179688 24.773438 12.878906 24.90625 12.546875 C 25.039062 12.21875 25.183594 11.847656 25.332031 11.449219 L 26.867188 7.527344 Z M 26.15625 7.527344 "/>
</g>
</svg>
