<?xml version="1.0" encoding="UTF-8"?>
<svg xmlns="http://www.w3.org/2000/svg" xmlns:xlink="http://www.w3.org/1999/xlink" width="45px" height="20px" viewBox="0 0 45 20" version="1.1">
<g id="surface1">
<path style=" stroke:none;fill-rule:nonzero;fill:rgb(7.058824%,7.058824%,8.627451%);fill-opacity:1;" d="M 0.0546875 20 C 0.0546875 16.378906 -0.0664062 12.824219 0.0820312 9.28125 C 0.292969 4.296875 4.53125 0.167969 9.496094 0.0507812 C 13.597656 -0.0429688 17.703125 0.0234375 21.816406 0.0195312 C 26.203125 0.0195312 30.597656 0.00390625 34.980469 0.0195312 C 39.816406 0.0429688 43.714844 3.222656 44.769531 7.957031 C 46 13.488281 42.085938 19.144531 36.511719 19.867188 C 35.996094 19.941406 35.472656 19.984375 34.949219 19.988281 C 23.464844 19.996094 11.980469 19.996094 0.492188 19.988281 Z M 32.800781 13.832031 C 33.242188 14.035156 33.558594 14.320312 33.800781 14.269531 C 34.296875 14.15625 34.039062 13.71875 34 13.390625 C 33.894531 12.5625 33.722656 11.730469 33.71875 10.902344 C 33.710938 9.035156 33.792969 7.164062 33.824219 5.296875 C 33.824219 4.996094 33.992188 4.570312 33.476562 4.527344 C 33.011719 4.492188 32.738281 4.757812 32.699219 5.230469 C 32.667969 5.578125 32.660156 5.933594 32.65625 6.289062 C 32.65625 7.242188 32.65625 8.195312 32.65625 9.1875 C 31.050781 8.769531 29.757812 9.230469 29.191406 10.3125 C 28.582031 11.484375 28.820312 13.121094 29.714844 13.914062 C 30.578125 14.6875 31.699219 14.609375 32.800781 13.832031 Z M 26.800781 13.707031 C 26.875 13.847656 26.910156 14.003906 27 14.054688 C 27.183594 14.164062 27.4375 14.320312 27.585938 14.261719 C 27.777344 14.144531 27.898438 13.945312 27.910156 13.722656 C 27.835938 12.386719 27.707031 11.054688 27.621094 9.722656 C 27.597656 9.300781 27.425781 9.210938 27.042969 9.253906 C 26.765625 9.289062 26.472656 9.214844 26.1875 9.1875 C 25.695312 9.136719 25.191406 9.003906 24.710938 9.054688 C 23.296875 9.171875 22.207031 10.347656 22.179688 11.777344 C 22.132812 13.082031 22.96875 14.144531 24.277344 14.402344 C 25.210938 14.585938 26.019531 14.207031 26.800781 13.707031 Z M 37.460938 14.578125 C 39.117188 14.59375 40.394531 13.417969 40.398438 11.867188 C 40.398438 10.261719 39.300781 9.042969 37.828125 9.015625 C 36.109375 8.988281 34.902344 10.234375 34.894531 12.039062 C 34.890625 13.417969 36.050781 14.5625 37.460938 14.578125 Z M 18.917969 14.578125 C 19.734375 14.519531 20.71875 14.320312 21.242188 13.285156 C 21.335938 13.097656 21.195312 12.789062 21.160156 12.539062 C 20.921875 12.601562 20.570312 12.582031 20.464844 12.734375 C 19.949219 13.503906 19.234375 13.660156 18.402344 13.546875 C 17.613281 13.441406 17.125 13.007812 16.960938 12.3125 C 16.773438 11.582031 17.070312 10.816406 17.691406 10.40625 C 18.519531 9.84375 19.378906 9.9375 20.242188 10.699219 C 20.484375 10.914062 20.765625 11.15625 20.996094 10.789062 C 21.105469 10.609375 21.050781 10.1875 20.90625 10.007812 C 20.097656 8.992188 18.667969 8.753906 17.464844 9.386719 C 16.265625 10.015625 15.664062 11.238281 15.964844 12.511719 C 16.289062 13.855469 17.25 14.582031 18.917969 14.574219 Z M 10.8125 14.4375 C 11.429688 14.460938 11.613281 14.277344 11.585938 13.785156 C 11.550781 13.105469 11.429688 12.421875 11.445312 11.742188 C 11.496094 9.542969 11.601562 7.347656 11.660156 5.148438 C 11.660156 4.953125 11.492188 4.578125 11.410156 4.582031 C 11.125 4.582031 10.851562 4.675781 10.621094 4.847656 C 10.472656 4.980469 10.425781 5.289062 10.414062 5.523438 C 10.320312 7.78125 10.230469 10.046875 10.175781 12.304688 C 10.175781 12.835938 10.253906 13.359375 10.398438 13.867188 C 10.464844 14.121094 10.71875 14.3125 10.8125 14.433594 Z M 8.542969 5.253906 L 8.804688 5.132812 C 8.609375 4.929688 8.414062 4.5625 8.214844 4.566406 C 7.976562 4.566406 7.714844 4.859375 7.519531 5.074219 C 7.417969 5.1875 7.40625 5.40625 7.398438 5.578125 C 7.308594 7.773438 7.203125 9.964844 7.160156 12.160156 C 7.148438 12.742188 7.292969 13.335938 7.433594 13.910156 C 7.53125 14.328125 7.890625 14.5625 8.28125 14.394531 C 8.453125 14.320312 8.578125 13.925781 8.570312 13.675781 C 8.546875 12.734375 8.410156 11.789062 8.414062 10.851562 C 8.421875 8.984375 8.496094 7.117188 8.542969 5.253906 Z M 4.363281 11.785156 L 4.453125 11.785156 C 4.453125 12.46875 4.453125 13.148438 4.453125 13.832031 C 4.453125 14.1875 4.546875 14.4375 4.957031 14.441406 C 5.367188 14.445312 5.578125 14.285156 5.585938 13.863281 C 5.597656 13.359375 5.640625 12.851562 5.640625 12.347656 C 5.640625 11.488281 5.628906 10.625 5.589844 9.773438 C 5.570312 9.363281 5.378906 9.023438 4.902344 9.0625 C 4.429688 9.105469 4.332031 9.4375 4.355469 9.871094 C 4.382812 10.507812 4.363281 11.148438 4.363281 11.785156 Z M 13.105469 12.011719 L 13.152344 12.011719 C 13.152344 12.605469 13.144531 13.203125 13.152344 13.789062 C 13.160156 14.273438 13.492188 14.425781 13.898438 14.429688 C 14.324219 14.429688 14.339844 14.109375 14.34375 13.777344 C 14.363281 12.484375 14.382812 11.191406 14.429688 9.898438 C 14.449219 9.476562 14.40625 9.121094 13.929688 9.070312 C 13.449219 9.019531 13.292969 9.378906 13.257812 9.78125 C 13.195312 10.527344 13.15625 11.269531 13.105469 12.011719 Z M 4.8125 5.976562 C 4.3125 5.976562 3.839844 6.476562 3.832031 7.023438 C 3.824219 7.535156 4.261719 7.949219 4.824219 7.949219 C 5.089844 7.953125 5.34375 7.84375 5.527344 7.648438 C 5.710938 7.457031 5.808594 7.195312 5.792969 6.925781 C 5.765625 6.398438 5.335938 5.984375 4.8125 5.976562 Z M 14.96875 7.011719 C 14.953125 6.460938 14.476562 5.964844 13.976562 5.972656 C 13.710938 5.980469 13.457031 6.089844 13.277344 6.285156 C 13.09375 6.484375 12.996094 6.746094 13.007812 7.011719 C 13.019531 7.546875 13.460938 7.96875 13.988281 7.957031 C 14.558594 7.9375 14.980469 7.527344 14.96875 7.011719 Z M 14.96875 7.011719 "/>
<path style=" stroke:none;fill-rule:nonzero;fill:rgb(96.078431%,96.078431%,96.078431%);fill-opacity:1;" d="M 32.800781 13.832031 C 31.699219 14.609375 30.574219 14.683594 29.710938 13.910156 C 28.816406 13.117188 28.582031 11.480469 29.1875 10.3125 C 29.75 9.226562 31.046875 8.765625 32.648438 9.183594 C 32.648438 8.191406 32.648438 7.238281 32.648438 6.285156 C 32.648438 5.933594 32.664062 5.578125 32.695312 5.226562 C 32.734375 4.753906 33.007812 4.488281 33.472656 4.527344 C 33.984375 4.566406 33.824219 4.996094 33.820312 5.292969 C 33.789062 7.164062 33.707031 9.03125 33.710938 10.898438 C 33.710938 11.730469 33.890625 12.558594 33.992188 13.386719 C 34.035156 13.71875 34.292969 14.15625 33.796875 14.265625 C 33.5625 14.320312 33.242188 14.035156 32.800781 13.832031 Z M 32.710938 11.667969 C 32.710938 10.519531 32.347656 9.992188 31.523438 9.96875 C 30.484375 9.945312 29.820312 10.675781 29.800781 11.855469 C 29.792969 12.734375 30.367188 13.382812 31.164062 13.386719 C 32.121094 13.390625 32.707031 12.746094 32.710938 11.667969 Z M 32.710938 11.667969 "/>
<path style=" stroke:none;fill-rule:nonzero;fill:rgb(96.078431%,96.078431%,96.078431%);fill-opacity:1;" d="M 26.800781 13.707031 C 26.015625 14.207031 25.210938 14.585938 24.273438 14.398438 C 22.964844 14.140625 22.132812 13.074219 22.179688 11.769531 C 22.203125 10.34375 23.296875 9.167969 24.707031 9.050781 C 25.191406 9.003906 25.691406 9.136719 26.183594 9.183594 C 26.46875 9.214844 26.761719 9.285156 27.039062 9.25 C 27.425781 9.207031 27.59375 9.296875 27.621094 9.71875 C 27.703125 11.054688 27.835938 12.386719 27.910156 13.71875 C 27.894531 13.941406 27.773438 14.140625 27.585938 14.257812 C 27.433594 14.316406 27.179688 14.160156 27 14.054688 C 26.910156 14.003906 26.875 13.847656 26.800781 13.707031 Z M 26.671875 11.671875 C 26.644531 10.386719 26.210938 9.921875 25.070312 9.953125 C 23.960938 9.988281 23.152344 10.796875 23.152344 11.867188 C 23.152344 12.78125 23.972656 13.542969 24.917969 13.503906 C 26.019531 13.46875 26.699219 12.757812 26.671875 11.671875 Z M 26.671875 11.671875 "/>
<path style=" stroke:none;fill-rule:nonzero;fill:rgb(95.686275%,95.686275%,95.686275%);fill-opacity:1;" d="M 37.460938 14.578125 C 36.046875 14.5625 34.890625 13.417969 34.894531 12.039062 C 34.902344 10.234375 36.109375 8.996094 37.828125 9.015625 C 39.300781 9.042969 40.402344 10.261719 40.398438 11.867188 C 40.394531 13.417969 39.117188 14.59375 37.460938 14.578125 Z M 39.390625 11.835938 C 39.382812 10.710938 38.753906 9.984375 37.785156 9.984375 C 36.597656 9.984375 35.839844 10.703125 35.832031 11.820312 C 35.824219 12.300781 36.007812 12.761719 36.34375 13.101562 C 36.679688 13.441406 37.140625 13.625 37.613281 13.617188 C 38.671875 13.59375 39.394531 12.871094 39.390625 11.835938 Z M 39.390625 11.835938 "/>
<path style=" stroke:none;fill-rule:nonzero;fill:rgb(96.078431%,96.078431%,96.078431%);fill-opacity:1;" d="M 18.917969 14.574219 C 17.25 14.574219 16.289062 13.855469 15.96875 12.511719 C 15.667969 11.238281 16.25 10.027344 17.46875 9.382812 C 18.691406 8.742188 20.101562 8.988281 20.910156 10.007812 C 21.054688 10.1875 21.109375 10.609375 21 10.789062 C 20.773438 11.15625 20.488281 10.914062 20.246094 10.699219 C 19.382812 9.9375 18.523438 9.84375 17.695312 10.402344 C 17.074219 10.816406 16.777344 11.582031 16.964844 12.308594 C 17.125 13.007812 17.617188 13.441406 18.40625 13.546875 C 19.238281 13.65625 19.953125 13.503906 20.46875 12.734375 C 20.574219 12.582031 20.925781 12.601562 21.164062 12.539062 C 21.199219 12.789062 21.339844 13.097656 21.246094 13.28125 C 20.71875 14.320312 19.734375 14.519531 18.917969 14.574219 Z M 18.917969 14.574219 "/>
<path style=" stroke:none;fill-rule:nonzero;fill:rgb(59.215686%,44.313725%,65.490196%);fill-opacity:1;" d="M 10.8125 14.433594 C 10.71875 14.3125 10.464844 14.121094 10.398438 13.875 C 10.25 13.363281 10.175781 12.835938 10.175781 12.304688 C 10.226562 10.039062 10.320312 7.777344 10.414062 5.515625 C 10.425781 5.28125 10.472656 4.96875 10.621094 4.835938 C 10.851562 4.667969 11.125 4.574219 11.410156 4.574219 C 11.492188 4.574219 11.671875 4.941406 11.660156 5.140625 C 11.601562 7.339844 11.496094 9.535156 11.445312 11.734375 C 11.429688 12.414062 11.550781 13.09375 11.585938 13.777344 C 11.613281 14.277344 11.429688 14.460938 10.8125 14.433594 Z M 10.8125 14.433594 "/>
<path style=" stroke:none;fill-rule:nonzero;fill:rgb(87.058824%,30.980392%,56.078431%);fill-opacity:1;" d="M 8.542969 5.253906 C 8.496094 7.117188 8.421875 8.984375 8.414062 10.847656 C 8.414062 11.789062 8.542969 12.734375 8.566406 13.675781 C 8.566406 13.925781 8.449219 14.320312 8.273438 14.394531 C 7.882812 14.5625 7.527344 14.328125 7.429688 13.910156 C 7.296875 13.335938 7.144531 12.742188 7.15625 12.160156 C 7.199219 9.964844 7.304688 7.773438 7.394531 5.578125 C 7.402344 5.40625 7.414062 5.1875 7.515625 5.074219 C 7.710938 4.859375 7.972656 4.570312 8.207031 4.566406 C 8.402344 4.566406 8.601562 4.929688 8.800781 5.132812 Z M 8.542969 5.253906 "/>
<path style=" stroke:none;fill-rule:nonzero;fill:rgb(65.490196%,75.294118%,25.490196%);fill-opacity:1;" d="M 4.363281 11.785156 C 4.363281 11.148438 4.382812 10.507812 4.355469 9.871094 C 4.335938 9.4375 4.433594 9.105469 4.902344 9.0625 C 5.371094 9.023438 5.570312 9.363281 5.589844 9.773438 C 5.628906 10.628906 5.636719 11.492188 5.640625 12.347656 C 5.640625 12.851562 5.597656 13.359375 5.585938 13.863281 C 5.574219 14.285156 5.347656 14.445312 4.957031 14.441406 C 4.566406 14.4375 4.449219 14.1875 4.453125 13.832031 C 4.453125 13.148438 4.453125 12.46875 4.453125 11.785156 Z M 4.363281 11.785156 "/>
<path style=" stroke:none;fill-rule:nonzero;fill:rgb(92.54902%,63.137255%,0.392157%);fill-opacity:1;" d="M 13.105469 12.011719 C 13.15625 11.269531 13.195312 10.527344 13.261719 9.785156 C 13.296875 9.386719 13.449219 9.019531 13.929688 9.074219 C 14.414062 9.125 14.457031 9.480469 14.433594 9.902344 C 14.382812 11.195312 14.367188 12.488281 14.347656 13.78125 C 14.347656 14.109375 14.328125 14.429688 13.898438 14.429688 C 13.496094 14.429688 13.164062 14.277344 13.15625 13.792969 C 13.144531 13.199219 13.15625 12.601562 13.15625 12.015625 Z M 13.105469 12.011719 "/>
<path style=" stroke:none;fill-rule:nonzero;fill:rgb(66.27451%,76.470588%,25.490196%);fill-opacity:1;" d="M 4.8125 5.976562 C 5.339844 5.984375 5.769531 6.402344 5.792969 6.929688 C 5.808594 7.199219 5.710938 7.460938 5.527344 7.652344 C 5.34375 7.847656 5.089844 7.957031 4.824219 7.953125 C 4.261719 7.941406 3.824219 7.535156 3.832031 7.027344 C 3.839844 6.476562 4.3125 5.972656 4.8125 5.976562 Z M 4.8125 5.976562 "/>
<path style=" stroke:none;fill-rule:nonzero;fill:rgb(8.235294%,8.235294%,9.803922%);fill-opacity:1;" d="M 32.710938 11.667969 C 32.710938 12.746094 32.125 13.386719 31.164062 13.386719 C 30.367188 13.386719 29.792969 12.734375 29.800781 11.855469 C 29.8125 10.675781 30.484375 9.945312 31.523438 9.972656 C 32.347656 9.992188 32.71875 10.519531 32.710938 11.667969 Z M 32.710938 11.667969 "/>
<path style=" stroke:none;fill-rule:nonzero;fill:rgb(8.235294%,8.235294%,9.803922%);fill-opacity:1;" d="M 26.671875 11.671875 C 26.699219 12.757812 26.019531 13.46875 24.921875 13.511719 C 23.976562 13.550781 23.15625 12.789062 23.152344 11.871094 C 23.152344 10.804688 23.964844 9.996094 25.074219 9.960938 C 26.210938 9.925781 26.648438 10.386719 26.671875 11.671875 Z M 26.671875 11.671875 "/>
<path style=" stroke:none;fill-rule:nonzero;fill:rgb(8.235294%,8.235294%,9.803922%);fill-opacity:1;" d="M 39.390625 11.835938 C 39.390625 12.871094 38.675781 13.59375 37.613281 13.617188 C 37.140625 13.628906 36.679688 13.441406 36.34375 13.101562 C 36.007812 12.765625 35.824219 12.300781 35.832031 11.824219 C 35.832031 10.703125 36.597656 9.988281 37.785156 9.984375 C 38.753906 9.984375 39.382812 10.71875 39.390625 11.835938 Z M 39.390625 11.835938 "/>
</g>
</svg>
