<?xml version="1.0" encoding="UTF-8"?>
<svg xmlns="http://www.w3.org/2000/svg" viewBox="0 0 50 32" height="20px">
  <defs>
    <style>
      .cls-1 {
        fill: #faa71c;
      }

      .cls-2 {
        fill: #fff;
      }

      .cls-3 {
        fill: #ef5ca0;
      }

      .cls-4 {
        fill: #a6cf59;
      }

      .cls-5 {
        fill: #0d0e12;
      }

      .cls-6 {
        fill: #9575b4;
      }
    </style>
  </defs>
  <g id="BG">
    <rect class="cls-2" y="0" width="50" height="32" rx="4" ry="4"/>
  </g>
  <g id="LOGOS">
    <g>
      <path class="cls-5" d="m28.19,16.15c-.28-.08-.59-.1-.9-.08-1.05.08-1.74.95-1.59,1.97.08.72.92,1.33,1.69,1.23,1.02-.13,1.56-.67,1.56-1.59,0-.31-.03-.54-.08-.79-.1-.38-.31-.64-.69-.74Z"/>
      <path class="cls-5" d="m33.49,16.05c-.26-.03-.51-.03-.77.05-.38.13-.64.36-.82.72-.15.31-.18.64-.18,1,0,.67.44,1.23,1.05,1.33.72.08,1.38-.33,1.56-1,.05-.18.05-.36.05-.54,0-.33-.03-.64-.13-.92-.13-.36-.38-.59-.77-.64Z"/>
      <path class="cls-5" d="m39.56,16.1c-1.15-.44-2.33.33-2.33,1.59,0,.9.67,1.59,1.54,1.59,1.05,0,1.72-.64,1.72-1.66-.03-.05-.03-.15-.03-.23-.08-.56-.31-1.05-.9-1.28Z"/>
      <path class="cls-5" d="m45.89,14.57c-.31-2.12-1.26-3.94-2.79-5.42-1.84-1.74-4.02-2.66-6.56-2.66H13.25c-.38,0-.77.05-1.13.08-2.54.41-4.59,1.59-6.15,3.61-1.31,1.69-1.97,3.61-1.97,5.73v9.36c0,.28-.05.26.26.26h32.23c1.59,0,3.13-.38,4.53-1.13,3.38-1.89,5.48-5.63,4.87-9.83Z"/>
      <path class="cls-3" d="m12.05,20.07c-.38.05-.61-.13-.72-.49-.18-.59-.2-1.2-.26-1.82-.05-.54-.05-1.05-.05-1.59,0-1.46.05-2.89.31-4.32.03-.13.05-.26.1-.38.13-.33.41-.46.77-.31.18.08.23.26.23.41,0,.31-.08.64-.1.92-.23,1.94-.23,3.86-.03,5.81.05.44.08.9.13,1.31.03.31-.1.43-.38.46Z"/>
      <path class="cls-4" d="m9.61,16.05c0,1.23,0,2.46-.05,3.68,0,.05-.03.13-.05.18-.1.15-.46.2-.69.15-.18-.05-.26-.18-.26-.44v-1.79c-.03-.56-.05-1.36-.05-2.15,0-.26.13-.41.38-.49.28-.05.54.03.64.23.08.2.1.38.08.61Z"/>
      <path class="cls-4" d="m8.92,14.18c-.54-.03-.9-.38-.9-.84.03-.51.44-.97.9-.97.51,0,.9.41.9.9-.03.54-.38.92-.9.92Z"/>
      <path class="cls-6" d="m14.82,16.46c.03.9.08,1.79.18,2.66,0,.18.05.36.05.54,0,.2-.13.33-.33.38-.46.08-.67-.05-.77-.54-.13-.59-.18-1.18-.2-1.77-.05-.56-.05-1.13-.03-1.94,0-.97.03-2.2.2-3.43.05-.28.05-.54.15-.79.1-.41.41-.54.79-.44.18.05.28.18.26.38-.05.59-.15,1.15-.18,1.74-.13,1.07-.18,2.15-.13,3.2Z"/>
      <path class="cls-1" d="m17.53,19.56c.05.33-.08.54-.38.54-.38.03-.69-.2-.69-.54-.03-1.13,0-2.23.05-3.35.03-.2.05-.46.13-.67.15-.41.64-.51.9-.18.08.05.08.15.08.26-.05.64-.08,1.23-.13,1.84-.03.72.03,1.41.05,2.1Z"/>
      <path class="cls-1" d="m17.2,14.18c-.49,0-.87-.41-.87-.92-.03-.49.41-.9.9-.9.44,0,.87.46.87.97s-.33.84-.9.84Z"/>
      <path class="cls-2" d="m23.91,18.84c-.26.56-.69.92-1.26,1.13-.41.15-.79.18-1.02.18-1.38,0-2.31-.64-2.59-1.71-.33-1.15.15-2.3,1.23-2.89,1.05-.64,2.28-.49,3.15.38.08.08.18.18.23.28.2.31.13.59-.21.72-.13.05-.23,0-.33-.08-.15-.13-.31-.28-.44-.41-.59-.49-1.49-.46-2.15.05-.59.46-.77,1.25-.46,1.97.23.51.64.74,1.18.82.28.05.54.05.79,0,.44-.05.79-.28,1.02-.64.03-.05.05-.13.1-.18.18-.26.33-.31.56-.18.23.1.31.31.18.56Z"/>
      <path class="cls-2" d="m29.55,20.04c-.15,0-.23-.08-.31-.18-.08-.15-.13-.31-.2-.43-.41.33-.9.59-1.46.67-1.87.31-3.25-1.33-2.66-3.12.38-1.18,1.36-1.84,2.72-1.79.38.03.77.1,1.1.28.13.08.28.1.41,0,.05-.05.13-.05.2-.05.33-.05.44.05.44.38v1.15c-.03.84.1,1.69.28,2.51.08.33-.13.59-.51.59Z"/>
      <path class="cls-2" d="m35.34,19.97c-.31.1-.41.05-.54-.23-.05-.13-.08-.26-.13-.38-.13.1-.28.2-.41.31-1.41,1-3.23.18-3.38-1.56-.05-.46-.03-.92.13-1.38.31-.95,1-1.41,1.95-1.56.59-.08.77-.05,1.33.18.05-.05.03-.08.03-.13-.05-1.13.03-2.25.08-3.38.03-.51.23-.72.69-.72.23-.03.33.05.33.31,0,.23-.03.49-.05.72-.18,1.66-.18,3.3-.08,4.94.05.82.18,1.61.33,2.38.03.31-.03.44-.28.51Z"/>
      <path class="cls-2" d="m38.77,20.14c-1.36.08-2.43-1.2-2.41-2.25.03-1.66,1.05-2.79,2.64-2.79,1.41,0,2.38,1.1,2.38,2.66.03,1.13-1.05,2.48-2.61,2.38Z"/>
      <path class="cls-5" d="m28.13,16.17c-.28-.08-.59-.1-.9-.08-1.05.08-1.74.95-1.59,1.97.08.72.92,1.33,1.69,1.23,1.02-.13,1.56-.67,1.56-1.59,0-.31-.03-.54-.08-.79-.1-.38-.31-.64-.69-.74Z"/>
      <path class="cls-5" d="m33.44,16.07c-.26-.03-.51-.03-.77.05-.38.13-.64.36-.82.72-.15.31-.18.64-.18,1,0,.67.44,1.23,1.05,1.33.72.08,1.38-.33,1.56-1,.05-.18.05-.36.05-.54,0-.33-.03-.64-.13-.92-.13-.36-.38-.59-.77-.64Z"/>
      <path class="cls-5" d="m39.51,16.12c-1.15-.43-2.33.33-2.33,1.59,0,.9.67,1.59,1.54,1.59,1.05,0,1.72-.64,1.72-1.66-.03-.05-.03-.15-.03-.23-.08-.56-.31-1.05-.9-1.28Z"/>
    </g>
  </g>
</svg>