<?xml version="1.0" encoding="UTF-8"?>
<svg xmlns="http://www.w3.org/2000/svg" xmlns:xlink="http://www.w3.org/1999/xlink" width="68px" height="20px" viewBox="0 0 50 20" version="1.1">
<g id="surface1">
<path style=" stroke:none;fill-rule:nonzero;fill:rgb(37.254902%,38.823529%,40.784314%);fill-opacity:1;" d="M 23.648438 9.769531 L 23.648438 15.632812 L 21.804688 15.632812 L 21.804688 1.15625 L 26.699219 1.15625 C 27.878906 1.128906 29.019531 1.582031 29.867188 2.410156 C 30.722656 3.1875 31.207031 4.300781 31.191406 5.464844 C 31.214844 6.632812 30.730469 7.757812 29.867188 8.535156 C 29.011719 9.359375 27.953125 9.769531 26.699219 9.769531 Z M 23.648438 2.9375 L 23.648438 7.992188 L 26.742188 7.992188 C 27.429688 8.011719 28.09375 7.742188 28.570312 7.242188 C 29.042969 6.777344 29.308594 6.140625 29.308594 5.472656 C 29.308594 4.808594 29.042969 4.167969 28.570312 3.703125 C 28.097656 3.195312 27.433594 2.917969 26.742188 2.9375 Z M 23.648438 2.9375 "/>
<path style=" stroke:none;fill-rule:nonzero;fill:rgb(37.254902%,38.823529%,40.784314%);fill-opacity:1;" d="M 35.441406 5.402344 C 36.804688 5.402344 37.882812 5.769531 38.671875 6.507812 C 39.460938 7.242188 39.855469 8.25 39.851562 9.527344 L 39.851562 15.632812 L 38.089844 15.632812 L 38.089844 14.257812 L 38.007812 14.257812 C 37.242188 15.390625 36.226562 15.957031 34.960938 15.957031 C 33.878906 15.957031 32.972656 15.632812 32.242188 14.988281 C 31.535156 14.386719 31.132812 13.492188 31.148438 12.558594 C 31.148438 11.535156 31.535156 10.71875 32.300781 10.113281 C 33.070312 9.507812 34.097656 9.207031 35.378906 9.203125 C 36.476562 9.203125 37.378906 9.40625 38.085938 9.8125 L 38.085938 9.386719 C 38.089844 8.75 37.8125 8.144531 37.324219 7.738281 C 36.835938 7.296875 36.203125 7.054688 35.542969 7.0625 C 34.515625 7.0625 33.699219 7.5 33.097656 8.375 L 31.472656 7.34375 C 32.367188 6.050781 33.6875 5.402344 35.441406 5.402344 Z M 33.054688 12.601562 C 33.050781 13.082031 33.28125 13.53125 33.667969 13.8125 C 34.074219 14.136719 34.582031 14.308594 35.101562 14.300781 C 35.878906 14.296875 36.625 13.984375 37.175781 13.429688 C 37.785156 12.851562 38.089844 12.171875 38.089844 11.390625 C 37.515625 10.925781 36.714844 10.695312 35.683594 10.695312 C 34.9375 10.695312 34.3125 10.878906 33.808594 11.242188 C 33.304688 11.613281 33.054688 12.0625 33.054688 12.601562 Z M 33.054688 12.601562 "/>
<path style=" stroke:none;fill-rule:nonzero;fill:rgb(37.254902%,38.823529%,40.784314%);fill-opacity:1;" d="M 49.984375 5.726562 L 43.824219 20 L 41.917969 20 L 44.203125 15.007812 L 40.152344 5.726562 L 42.160156 5.726562 L 45.085938 12.84375 L 45.125 12.84375 L 47.972656 5.726562 Z M 49.984375 5.726562 "/>
<path style=" stroke:none;fill-rule:nonzero;fill:rgb(25.882353%,52.156863%,95.686275%);fill-opacity:1;" d="M 16.195312 8.507812 C 16.195312 7.941406 16.148438 7.375 16.050781 6.816406 L 8.269531 6.816406 L 8.269531 10.019531 L 12.726562 10.019531 C 12.542969 11.054688 11.949219 11.964844 11.078125 12.546875 L 11.078125 14.625 L 13.738281 14.625 C 15.296875 13.179688 16.195312 11.039062 16.195312 8.507812 Z M 16.195312 8.507812 "/>
<path style=" stroke:none;fill-rule:nonzero;fill:rgb(20.392157%,65.882353%,32.54902%);fill-opacity:1;" d="M 8.269531 16.636719 C 10.496094 16.636719 12.371094 15.898438 13.738281 14.628906 L 11.078125 12.546875 C 10.339844 13.054688 9.386719 13.34375 8.269531 13.34375 C 6.117188 13.34375 4.292969 11.878906 3.640625 9.910156 L 0.898438 9.910156 L 0.898438 12.050781 C 2.300781 14.863281 5.152344 16.632812 8.269531 16.636719 Z M 8.269531 16.636719 "/>
<path style=" stroke:none;fill-rule:nonzero;fill:rgb(98.431373%,73.72549%,1.568627%);fill-opacity:1;" d="M 3.640625 9.910156 C 3.292969 8.875 3.292969 7.757812 3.640625 6.726562 L 3.640625 4.582031 L 0.898438 4.582031 C -0.273438 6.933594 -0.273438 9.703125 0.898438 12.050781 Z M 3.640625 9.910156 "/>
<path style=" stroke:none;fill-rule:nonzero;fill:rgb(91.764706%,26.27451%,20.784314%);fill-opacity:1;" d="M 8.269531 3.292969 C 9.449219 3.273438 10.585938 3.722656 11.4375 4.539062 L 13.792969 2.164062 C 12.296875 0.753906 10.320312 -0.0234375 8.269531 0 C 5.152344 0 2.300781 1.773438 0.898438 4.582031 L 3.640625 6.726562 C 4.292969 4.753906 6.117188 3.292969 8.269531 3.292969 Z M 8.269531 3.292969 "/>
</g>
</svg>
