<?xml version="1.0" encoding="UTF-8"?>
<svg xmlns="http://www.w3.org/2000/svg" xmlns:xlink="http://www.w3.org/1999/xlink" width="68px" height="20px" viewBox="0 0 35 20" version="1.1">
<g id="surface1">
<path style=" stroke:none;fill-rule:evenodd;fill:rgb(100%,70.196078%,78.039216%);fill-opacity:1;" d="M 3.371094 0.0117188 L 31.632812 0.0117188 C 33.488281 0.0117188 34.992188 1.558594 34.992188 3.464844 L 34.992188 16.527344 C 34.992188 18.433594 33.488281 19.980469 31.632812 19.980469 L 3.371094 19.980469 C 1.515625 19.980469 0.0117188 18.433594 0.0117188 16.527344 L 0.0117188 3.464844 C 0.0117188 1.558594 1.515625 0.0117188 3.371094 0.0117188 Z M 3.371094 0.0117188 "/>
<path style=" stroke:none;fill-rule:evenodd;fill:rgb(3.921569%,4.313725%,3.529412%);fill-opacity:1;" d="M 31.71875 11.730469 C 31.261719 11.730469 30.890625 12.117188 30.890625 12.589844 C 30.890625 13.066406 31.261719 13.449219 31.71875 13.449219 C 32.175781 13.449219 32.546875 13.066406 32.546875 12.589844 C 32.546875 12.117188 32.175781 11.730469 31.71875 11.730469 Z M 28.992188 11.066406 C 28.992188 10.417969 28.457031 9.890625 27.796875 9.890625 C 27.132812 9.890625 26.597656 10.417969 26.597656 11.066406 C 26.597656 11.71875 27.132812 12.246094 27.796875 12.246094 C 28.457031 12.246094 28.992188 11.71875 28.992188 11.066406 Z M 28.996094 8.78125 L 30.316406 8.78125 L 30.316406 13.355469 L 28.996094 13.355469 L 28.996094 13.0625 C 28.621094 13.324219 28.171875 13.480469 27.6875 13.480469 C 26.402344 13.480469 25.359375 12.398438 25.359375 11.066406 C 25.359375 9.734375 26.402344 8.65625 27.6875 8.65625 C 28.171875 8.65625 28.621094 8.8125 28.996094 9.074219 Z M 18.429688 9.378906 L 18.429688 8.78125 L 17.078125 8.78125 L 17.078125 13.355469 L 18.433594 13.355469 L 18.433594 11.21875 C 18.433594 10.5 19.183594 10.113281 19.707031 10.113281 C 19.714844 10.113281 19.71875 10.113281 19.722656 10.113281 L 19.722656 8.78125 C 19.1875 8.78125 18.695312 9.019531 18.429688 9.378906 Z M 15.0625 11.066406 C 15.0625 10.417969 14.527344 9.890625 13.867188 9.890625 C 13.203125 9.890625 12.667969 10.417969 12.667969 11.066406 C 12.667969 11.71875 13.203125 12.246094 13.867188 12.246094 C 14.527344 12.246094 15.0625 11.71875 15.0625 11.066406 Z M 15.066406 8.78125 L 16.386719 8.78125 L 16.386719 13.355469 L 15.066406 13.355469 L 15.066406 13.0625 C 14.695312 13.324219 14.242188 13.480469 13.757812 13.480469 C 12.472656 13.480469 11.429688 12.398438 11.429688 11.066406 C 11.429688 9.734375 12.472656 8.65625 13.757812 8.65625 C 14.242188 8.65625 14.695312 8.8125 15.066406 9.074219 Z M 23.015625 8.660156 C 22.484375 8.660156 21.988281 8.828125 21.652344 9.296875 L 21.652344 8.78125 L 20.339844 8.78125 L 20.339844 13.355469 L 21.667969 13.355469 L 21.667969 10.953125 C 21.667969 10.257812 22.121094 9.914062 22.660156 9.914062 C 23.242188 9.914062 23.574219 10.273438 23.574219 10.941406 L 23.574219 13.355469 L 24.894531 13.355469 L 24.894531 10.445312 C 24.894531 9.382812 24.078125 8.660156 23.015625 8.660156 Z M 9.507812 13.355469 L 10.890625 13.355469 L 10.890625 6.746094 L 9.507812 6.746094 Z M 3.4375 13.355469 L 4.898438 13.355469 L 4.898438 6.742188 L 3.4375 6.742188 Z M 8.554688 6.742188 C 8.554688 8.175781 8.015625 9.507812 7.058594 10.496094 L 9.082031 13.355469 L 7.273438 13.355469 L 5.074219 10.25 L 5.640625 9.808594 C 6.582031 9.078125 7.121094 7.960938 7.121094 6.742188 Z M 8.554688 6.742188 "/>
</g>
</svg>
