<?xml version="1.0" encoding="UTF-8"?>
<svg xmlns="http://www.w3.org/2000/svg" xmlns:xlink="http://www.w3.org/1999/xlink" width="68px" height="20px" viewBox="0 0 67 20" version="1.1">
<g id="surface1">
<path style=" stroke:none;fill-rule:evenodd;fill:rgb(1.960784%,75.294118%,78.039216%);fill-opacity:1;" d="M 32.875 7.125 C 32.308594 7.125 31.847656 7.589844 31.847656 8.140625 L 31.847656 15.816406 C 31.847656 16.390625 32.308594 16.855469 32.875 16.855469 C 33.445312 16.855469 33.902344 16.390625 33.902344 15.816406 L 33.902344 8.140625 C 33.902344 7.589844 33.445312 7.125 32.875 7.125 Z M 32.875 3.300781 C 32.242188 3.300781 31.71875 3.832031 31.71875 4.472656 C 31.71875 5.113281 32.242188 5.667969 32.875 5.667969 C 33.507812 5.667969 34.035156 5.136719 34.035156 4.472656 C 34.035156 3.832031 33.507812 3.300781 32.875 3.300781 Z M 42.886719 8.140625 C 42.886719 7.5 42.382812 7.257812 41.921875 7.257812 L 36.832031 7.257812 C 36.328125 7.257812 35.933594 7.65625 35.933594 8.140625 C 35.933594 8.652344 36.328125 9.050781 36.832031 9.050781 L 40.175781 9.050781 L 35.847656 15.152344 C 35.714844 15.328125 35.652344 15.570312 35.652344 15.769531 C 35.652344 16.414062 36.152344 16.765625 36.589844 16.765625 L 41.988281 16.765625 C 42.492188 16.765625 42.886719 16.367188 42.886719 15.859375 C 42.886719 15.351562 42.492188 14.953125 41.988281 14.953125 L 38.359375 14.953125 L 42.601562 8.984375 C 42.820312 8.671875 42.886719 8.40625 42.886719 8.140625 Z M 27.890625 12.964844 C 27.890625 14.222656 27.347656 14.996094 26.101562 14.996094 C 24.855469 14.996094 24.328125 14.222656 24.328125 12.964844 L 24.328125 9.050781 L 26.1875 9.050781 C 27.695312 9.050781 27.890625 9.890625 27.890625 10.816406 Z M 29.945312 10.773438 C 29.945312 8.628906 28.832031 7.234375 26.230469 7.234375 L 24.351562 7.234375 L 24.351562 4.339844 C 24.351562 3.765625 23.894531 3.300781 23.347656 3.300781 C 22.777344 3.300781 22.320312 3.765625 22.320312 4.339844 L 22.320312 12.964844 C 22.320312 15.109375 23.457031 16.855469 26.144531 16.855469 C 28.808594 16.855469 29.96875 15.085938 29.96875 12.964844 L 29.96875 10.773438 Z M 50.90625 7.125 C 50.335938 7.125 49.878906 7.589844 49.878906 8.164062 L 49.878906 12.964844 C 49.878906 14.222656 49.332031 14.996094 48.085938 14.996094 C 46.839844 14.996094 46.316406 14.222656 46.316406 12.964844 L 46.316406 8.164062 C 46.316406 7.589844 45.855469 7.125 45.3125 7.125 C 44.742188 7.125 44.285156 7.589844 44.285156 8.164062 L 44.285156 12.964844 C 44.285156 15.109375 45.421875 16.855469 48.109375 16.855469 C 50.773438 16.855469 51.933594 15.085938 51.933594 12.964844 L 51.933594 8.164062 C 51.910156 7.589844 51.453125 7.125 50.90625 7.125 Z M 66.488281 11.039062 C 66.488281 8.894531 65.503906 7.148438 62.839844 7.148438 C 61.636719 7.148438 60.785156 7.5 60.195312 8.097656 C 59.605469 7.523438 58.75 7.148438 57.550781 7.148438 C 54.882812 7.148438 53.898438 8.917969 53.898438 11.039062 L 53.898438 15.835938 C 53.898438 16.414062 54.359375 16.875 54.90625 16.875 C 55.472656 16.875 55.933594 16.414062 55.933594 15.835938 L 55.933594 11.039062 C 55.933594 9.777344 56.324219 9.003906 57.550781 9.003906 C 58.796875 9.003906 59.167969 9.777344 59.167969 11.039062 L 59.167969 15.835938 C 59.167969 16.414062 59.625 16.875 60.171875 16.875 C 60.742188 16.875 61.199219 16.414062 61.199219 15.835938 L 61.199219 11.039062 C 61.199219 9.777344 61.59375 9.003906 62.816406 9.003906 C 64.0625 9.003906 64.433594 9.777344 64.433594 11.039062 L 64.433594 15.835938 C 64.433594 16.414062 64.894531 16.875 65.4375 16.875 C 66.007812 16.875 66.464844 16.414062 66.464844 15.835938 Z M 3.632812 7.148438 C 4.355469 7.679688 5.359375 7.523438 5.882812 6.792969 L 7.765625 4.164062 C 8.289062 3.433594 8.136719 2.414062 7.414062 1.886719 C 6.691406 1.355469 5.6875 1.507812 5.164062 2.238281 L 3.261719 4.871094 C 2.757812 5.601562 2.910156 6.617188 3.632812 7.148438 Z M 12.242188 3.433594 C 11.523438 2.902344 10.515625 3.058594 9.992188 3.785156 L 2.429688 14.3125 C 1.90625 15.042969 2.058594 16.058594 2.78125 16.589844 C 3.503906 17.121094 4.507812 16.964844 5.03125 16.234375 L 12.59375 5.710938 C 13.140625 4.980469 12.964844 3.964844 12.242188 3.433594 Z M 2.910156 2.59375 C 3.4375 1.863281 3.285156 0.84375 2.5625 0.316406 C 1.839844 -0.214844 0.835938 -0.0625 0.3125 0.667969 C -0.214844 1.398438 -0.0585938 2.414062 0.660156 2.945312 C 1.382812 3.476562 2.386719 3.320312 2.910156 2.59375 Z M 14.386719 17.054688 C 13.664062 16.523438 12.660156 16.679688 12.136719 17.40625 C 11.609375 18.136719 11.761719 19.15625 12.484375 19.683594 C 13.207031 20.214844 14.210938 20.0625 14.734375 19.332031 C 15.261719 18.601562 15.105469 17.585938 14.386719 17.054688 Z M 11.433594 12.875 C 10.714844 12.34375 9.707031 12.5 9.183594 13.226562 L 7.28125 15.859375 C 6.757812 16.589844 6.910156 17.605469 7.632812 18.136719 C 8.355469 18.667969 9.359375 18.511719 9.882812 17.785156 L 11.785156 15.152344 C 12.308594 14.421875 12.15625 13.40625 11.433594 12.875 Z M 11.433594 12.875 "/>
</g>
</svg>
