<?xml version="1.0" encoding="UTF-8"?>
<svg xmlns="http://www.w3.org/2000/svg" xmlns:xlink="http://www.w3.org/1999/xlink" width="32px" height="20px" viewBox="0 0 31 20" version="1.1">
<g id="surface1">
<path style=" stroke:none;fill-rule:nonzero;fill:rgb(99.607843%,99.607843%,99.607843%);fill-opacity:1;" d="M 31 20 L 0 20 L 0 0 L 31 0 Z M 2.976562 9.6875 L 2.984375 9.757812 C 11.277344 9.046875 19.613281 9.035156 27.90625 9.71875 C 27.863281 9.671875 27.804688 9.636719 27.738281 9.621094 C 26.972656 9.425781 26.210938 9.21875 25.445312 9.050781 C 23.703125 8.675781 21.941406 8.410156 20.167969 8.253906 C 18.636719 8.117188 17.101562 8.035156 15.5625 8.050781 C 14.382812 8.0625 13.199219 8.089844 12.019531 8.171875 C 10.839844 8.25 9.65625 8.375 8.480469 8.527344 C 7.148438 8.699219 5.828125 8.949219 4.527344 9.277344 C 4.007812 9.40625 3.492188 9.550781 2.976562 9.6875 Z M 19.746094 7.535156 C 19.03125 6.105469 17.339844 4.765625 15.082031 4.941406 C 13.289062 5.082031 11.824219 6.277344 11.238281 7.546875 C 14.070312 7.34375 16.914062 7.339844 19.746094 7.53125 Z M 8.308594 15.222656 C 8.304688 15.171875 8.292969 15.125 8.277344 15.082031 C 7.925781 14.371094 7.574219 13.664062 7.226562 12.953125 C 6.890625 12.273438 6.5625 11.589844 6.226562 10.90625 C 6.195312 10.816406 6.109375 10.757812 6.015625 10.765625 C 5.726562 10.773438 5.433594 10.777344 5.144531 10.765625 C 4.996094 10.757812 4.925781 10.816406 4.863281 10.949219 C 4.414062 11.867188 3.957031 12.78125 3.503906 13.703125 C 3.359375 13.996094 3.21875 14.285156 3.070312 14.570312 C 2.976562 14.75 2.878906 14.929688 2.789062 15.109375 C 2.773438 15.136719 2.761719 15.1875 2.773438 15.195312 C 2.804688 15.214844 2.839844 15.226562 2.878906 15.226562 C 3.152344 15.226562 3.425781 15.210938 3.699219 15.226562 C 3.828125 15.238281 3.871094 15.195312 3.914062 15.089844 C 4.054688 14.789062 4.203125 14.492188 4.34375 14.1875 C 4.375 14.101562 4.457031 14.050781 4.546875 14.0625 C 5.195312 14.066406 5.847656 14.066406 6.5 14.0625 C 6.589844 14.046875 6.679688 14.101562 6.710938 14.191406 C 6.851562 14.5 7 14.796875 7.140625 15.101562 C 7.167969 15.183594 7.246094 15.234375 7.328125 15.226562 C 7.652344 15.21875 7.96875 15.222656 8.308594 15.222656 Z M 24.925781 13.738281 C 25.003906 13.730469 25.066406 13.722656 25.132812 13.722656 C 25.878906 13.722656 26.628906 13.722656 27.378906 13.722656 C 27.554688 13.722656 27.726562 13.734375 27.902344 13.742188 C 27.988281 13.746094 28.027344 13.707031 28.023438 13.621094 C 28.023438 13.460938 28.03125 13.304688 28.023438 13.144531 C 27.984375 12.589844 27.71875 12.148438 27.226562 11.941406 C 26.519531 11.636719 25.722656 11.628906 25.011719 11.914062 C 24.460938 12.128906 24.066406 12.503906 23.925781 13.113281 C 23.808594 13.625 23.878906 14.121094 24.1875 14.535156 C 24.492188 14.949219 24.953125 15.148438 25.445312 15.238281 C 25.882812 15.332031 26.335938 15.34375 26.78125 15.273438 C 27.132812 15.207031 27.476562 15.117188 27.824219 15.027344 C 27.871094 15.011719 27.910156 14.96875 27.925781 14.917969 C 27.933594 14.671875 27.929688 14.425781 27.929688 14.160156 C 27.835938 14.152344 27.738281 14.160156 27.644531 14.175781 C 27.5 14.222656 27.367188 14.296875 27.226562 14.355469 C 26.734375 14.546875 26.199219 14.585938 25.683594 14.46875 C 25.28125 14.386719 24.992188 14.113281 24.925781 13.738281 Z M 18.289062 11.714844 C 18.089844 11.734375 17.890625 11.75 17.691406 11.773438 C 17.332031 11.816406 16.996094 11.972656 16.726562 12.21875 C 16.363281 12.546875 16.140625 12.964844 16.183594 13.488281 C 16.203125 13.6875 16.175781 13.898438 16.238281 14.082031 C 16.449219 14.714844 16.925781 15.078125 17.535156 15.238281 C 17.953125 15.339844 18.382812 15.355469 18.804688 15.277344 C 19.25 15.21875 19.65625 15.007812 19.964844 14.679688 C 20.296875 14.316406 20.390625 13.882812 20.371094 13.398438 C 20.347656 12.914062 20.167969 12.511719 19.792969 12.203125 C 19.351562 11.835938 18.835938 11.726562 18.285156 11.714844 Z M 11.367188 15.234375 C 11.679688 15.234375 11.984375 15.234375 12.289062 15.230469 C 12.3125 15.230469 12.363281 15.152344 12.363281 15.109375 C 12.367188 14.050781 12.363281 12.992188 12.367188 11.933594 C 12.367188 11.835938 12.339844 11.804688 12.242188 11.804688 C 11.992188 11.8125 11.738281 11.8125 11.484375 11.804688 C 11.375 11.800781 11.359375 11.851562 11.359375 11.949219 C 11.367188 12.660156 11.367188 13.371094 11.367188 14.082031 C 11.367188 14.136719 11.339844 14.191406 11.296875 14.226562 C 10.878906 14.429688 10.445312 14.570312 9.972656 14.476562 C 9.691406 14.425781 9.566406 14.308594 9.558594 14.015625 C 9.539062 13.324219 9.539062 12.636719 9.53125 11.945312 C 9.535156 11.898438 9.542969 11.851562 9.550781 11.804688 C 9.246094 11.804688 8.964844 11.8125 8.679688 11.804688 C 8.566406 11.804688 8.53125 11.839844 8.53125 11.957031 C 8.535156 12.664062 8.535156 13.371094 8.53125 14.078125 C 8.527344 14.292969 8.589844 14.503906 8.707031 14.683594 C 8.777344 14.804688 8.871094 14.910156 8.980469 14.996094 C 9.488281 15.375 10.066406 15.367188 10.648438 15.25 C 10.890625 15.199219 11.121094 15.089844 11.371094 15.007812 Z M 22.03125 12.175781 C 22.03125 12.089844 22.027344 12.035156 22.03125 11.980469 C 22.046875 11.847656 22 11.800781 21.867188 11.808594 C 21.636719 11.816406 21.402344 11.816406 21.171875 11.808594 C 21.058594 11.804688 21.019531 11.839844 21.019531 11.960938 C 21.023438 13 21.023438 14.039062 21.019531 15.078125 C 21.019531 15.1875 21.054688 15.226562 21.160156 15.222656 C 21.394531 15.21875 21.625 15.214844 21.859375 15.222656 C 21.992188 15.230469 22.039062 15.1875 22.035156 15.046875 C 22.027344 14.386719 22.03125 13.726562 22.035156 13.070312 C 22.035156 13.003906 22.0625 12.945312 22.109375 12.90625 C 22.417969 12.738281 22.742188 12.617188 23.097656 12.625 C 23.332031 12.632812 23.566406 12.664062 23.804688 12.679688 C 23.875 12.683594 23.957031 12.695312 23.957031 12.578125 L 23.957031 11.882812 C 23.277344 11.722656 22.652344 11.828125 22.03125 12.175781 Z M 13.339844 11.808594 L 13.339844 15.222656 C 13.625 15.222656 13.898438 15.210938 14.171875 15.226562 C 14.296875 15.230469 14.324219 15.199219 14.320312 15.082031 C 14.316406 14.449219 14.320312 13.816406 14.316406 13.183594 C 14.316406 13.042969 14.324219 12.953125 14.484375 12.871094 C 14.875 12.667969 15.3125 12.585938 15.746094 12.644531 C 15.90625 12.667969 16.070312 12.675781 16.234375 12.6875 L 16.234375 11.875 C 15.585938 11.722656 14.902344 11.828125 14.324219 12.167969 C 14.324219 12.066406 14.308594 11.996094 14.328125 11.9375 C 14.359375 11.847656 14.320312 11.8125 14.25 11.8125 C 13.949219 11.804688 13.648438 11.808594 13.339844 11.808594 Z M 13.339844 11.808594 "/>
<path style=" stroke:none;fill-rule:nonzero;fill:rgb(88.627451%,1.176471%,10.980392%);fill-opacity:1;" d="M 2.976562 9.6875 C 3.492188 9.550781 4.007812 9.40625 4.527344 9.277344 C 5.828125 8.949219 7.148438 8.699219 8.476562 8.523438 C 9.65625 8.375 10.832031 8.25 12.019531 8.171875 C 13.203125 8.089844 14.378906 8.058594 15.5625 8.050781 C 17.097656 8.035156 18.632812 8.117188 20.167969 8.253906 C 21.941406 8.410156 23.703125 8.675781 25.441406 9.050781 C 26.210938 9.21875 26.972656 9.429688 27.734375 9.621094 C 27.796875 9.636719 27.855469 9.667969 27.902344 9.71875 C 19.605469 9.035156 11.273438 9.046875 2.980469 9.753906 Z M 2.976562 9.6875 "/>
<path style=" stroke:none;fill-rule:nonzero;fill:rgb(99.215686%,81.960784%,22.745098%);fill-opacity:1;" d="M 19.746094 7.53125 C 16.910156 7.335938 14.066406 7.339844 11.234375 7.542969 C 11.824219 6.277344 13.289062 5.078125 15.078125 4.941406 C 17.339844 4.765625 19.035156 6.105469 19.746094 7.53125 Z M 19.746094 7.53125 "/>
<path style=" stroke:none;fill-rule:nonzero;fill:rgb(3.137255%,32.941176%,60.784314%);fill-opacity:1;" d="M 8.308594 15.222656 C 7.96875 15.222656 7.652344 15.21875 7.332031 15.222656 C 7.25 15.230469 7.171875 15.179688 7.148438 15.101562 C 7.007812 14.796875 6.855469 14.496094 6.71875 14.191406 C 6.6875 14.101562 6.597656 14.046875 6.503906 14.058594 C 5.851562 14.0625 5.203125 14.0625 4.550781 14.058594 C 4.460938 14.046875 4.378906 14.101562 4.347656 14.183594 C 4.207031 14.488281 4.058594 14.785156 3.921875 15.089844 C 3.875 15.191406 3.832031 15.234375 3.703125 15.226562 C 3.433594 15.207031 3.15625 15.226562 2.882812 15.226562 C 2.847656 15.222656 2.808594 15.210938 2.777344 15.191406 C 2.769531 15.183594 2.777344 15.132812 2.792969 15.105469 C 2.886719 14.925781 2.984375 14.75 3.074219 14.566406 C 3.222656 14.28125 3.363281 13.992188 3.507812 13.703125 C 3.964844 12.78125 4.421875 11.867188 4.867188 10.945312 C 4.929688 10.816406 5 10.753906 5.152344 10.761719 C 5.4375 10.777344 5.730469 10.773438 6.019531 10.761719 C 6.113281 10.757812 6.199219 10.8125 6.230469 10.90625 C 6.566406 11.585938 6.894531 12.269531 7.230469 12.953125 C 7.578125 13.660156 7.933594 14.367188 8.28125 15.078125 C 8.296875 15.125 8.304688 15.171875 8.308594 15.222656 Z M 5.535156 11.75 C 5.277344 12.277344 5.03125 12.777344 4.785156 13.28125 L 6.269531 13.28125 C 6.023438 12.765625 5.785156 12.273438 5.535156 11.75 Z M 5.535156 11.75 "/>
<path style=" stroke:none;fill-rule:nonzero;fill:rgb(3.921569%,33.333333%,61.176471%);fill-opacity:1;" d="M 24.925781 13.738281 C 24.992188 14.117188 25.28125 14.386719 25.679688 14.46875 C 26.195312 14.585938 26.730469 14.542969 27.222656 14.351562 C 27.363281 14.296875 27.5 14.222656 27.644531 14.175781 C 27.738281 14.15625 27.832031 14.152344 27.925781 14.160156 C 27.925781 14.425781 27.929688 14.671875 27.921875 14.917969 C 27.90625 14.96875 27.871094 15.007812 27.820312 15.027344 C 27.476562 15.113281 27.128906 15.207031 26.777344 15.269531 C 26.332031 15.339844 25.882812 15.328125 25.441406 15.234375 C 24.953125 15.144531 24.488281 14.945312 24.183594 14.535156 C 23.878906 14.121094 23.804688 13.625 23.921875 13.109375 C 24.0625 12.503906 24.457031 12.125 25.007812 11.914062 C 25.722656 11.625 26.515625 11.632812 27.222656 11.9375 C 27.71875 12.144531 27.980469 12.585938 28.019531 13.144531 C 28.03125 13.300781 28.019531 13.460938 28.019531 13.617188 C 28.019531 13.703125 27.988281 13.746094 27.902344 13.742188 C 27.726562 13.730469 27.550781 13.722656 27.375 13.722656 C 26.628906 13.722656 25.878906 13.722656 25.128906 13.722656 C 25.066406 13.722656 25 13.734375 24.925781 13.738281 Z M 26.996094 13.003906 C 26.972656 12.804688 26.839844 12.636719 26.65625 12.566406 C 26.203125 12.402344 25.75 12.40625 25.3125 12.628906 C 25.152344 12.695312 25.027344 12.832031 24.96875 13.003906 Z M 26.996094 13.003906 "/>
<path style=" stroke:none;fill-rule:nonzero;fill:rgb(3.529412%,32.941176%,61.176471%);fill-opacity:1;" d="M 18.285156 11.714844 C 18.835938 11.726562 19.351562 11.835938 19.792969 12.199219 C 20.164062 12.507812 20.34375 12.90625 20.367188 13.394531 C 20.390625 13.882812 20.292969 14.316406 19.960938 14.675781 C 19.652344 15.003906 19.246094 15.214844 18.804688 15.273438 C 18.382812 15.351562 17.949219 15.335938 17.53125 15.238281 C 16.921875 15.074219 16.445312 14.714844 16.234375 14.078125 C 16.171875 13.898438 16.199219 13.683594 16.179688 13.484375 C 16.136719 12.960938 16.359375 12.542969 16.722656 12.214844 C 16.992188 11.96875 17.328125 11.816406 17.6875 11.773438 C 17.886719 11.75 18.085938 11.734375 18.285156 11.714844 Z M 19.34375 13.59375 C 19.335938 13.140625 19.253906 12.792969 18.886719 12.609375 C 18.503906 12.417969 18.109375 12.429688 17.722656 12.585938 C 17.371094 12.722656 17.238281 13.019531 17.210938 13.378906 C 17.175781 13.847656 17.296875 14.257812 17.691406 14.429688 C 17.832031 14.492188 17.980469 14.527344 18.132812 14.542969 C 18.828125 14.605469 19.34375 14.296875 19.34375 13.59375 Z M 19.34375 13.59375 "/>
<path style=" stroke:none;fill-rule:nonzero;fill:rgb(3.137255%,32.941176%,61.176471%);fill-opacity:1;" d="M 11.367188 15.234375 L 11.367188 15.003906 C 11.121094 15.089844 10.890625 15.199219 10.648438 15.25 C 10.066406 15.367188 9.488281 15.375 8.976562 14.996094 C 8.871094 14.910156 8.777344 14.804688 8.707031 14.683594 C 8.589844 14.503906 8.527344 14.292969 8.53125 14.074219 C 8.535156 13.371094 8.535156 12.664062 8.53125 11.957031 C 8.53125 11.839844 8.566406 11.800781 8.679688 11.804688 C 8.964844 11.8125 9.246094 11.804688 9.546875 11.804688 C 9.539062 11.851562 9.535156 11.898438 9.53125 11.945312 C 9.539062 12.632812 9.539062 13.324219 9.558594 14.015625 C 9.566406 14.304688 9.691406 14.421875 9.972656 14.476562 C 10.445312 14.566406 10.878906 14.425781 11.296875 14.222656 C 11.339844 14.1875 11.363281 14.136719 11.367188 14.082031 C 11.367188 13.371094 11.363281 12.660156 11.359375 11.949219 C 11.359375 11.851562 11.371094 11.800781 11.484375 11.804688 C 11.738281 11.8125 11.988281 11.808594 12.242188 11.804688 C 12.339844 11.804688 12.367188 11.835938 12.367188 11.929688 C 12.367188 12.992188 12.367188 14.050781 12.363281 15.109375 C 12.363281 15.152344 12.3125 15.226562 12.285156 15.226562 C 11.984375 15.238281 11.683594 15.234375 11.367188 15.234375 Z M 11.367188 15.234375 "/>
<path style=" stroke:none;fill-rule:nonzero;fill:rgb(3.529412%,32.941176%,61.176471%);fill-opacity:1;" d="M 22.03125 12.175781 C 22.652344 11.828125 23.277344 11.722656 23.957031 11.886719 L 23.957031 12.582031 C 23.957031 12.695312 23.875 12.683594 23.804688 12.679688 C 23.566406 12.664062 23.332031 12.632812 23.097656 12.628906 C 22.742188 12.621094 22.417969 12.738281 22.109375 12.90625 C 22.0625 12.949219 22.035156 13.007812 22.035156 13.070312 C 22.03125 13.730469 22.027344 14.390625 22.035156 15.046875 C 22.035156 15.191406 21.992188 15.230469 21.859375 15.226562 C 21.625 15.214844 21.394531 15.21875 21.160156 15.226562 C 21.054688 15.226562 21.019531 15.191406 21.019531 15.078125 C 21.023438 14.039062 21.023438 13 21.019531 11.960938 C 21.019531 11.84375 21.058594 11.804688 21.171875 11.808594 C 21.402344 11.816406 21.636719 11.816406 21.867188 11.808594 C 22 11.804688 22.046875 11.851562 22.03125 11.980469 C 22.027344 12.035156 22.03125 12.089844 22.03125 12.175781 Z M 22.03125 12.175781 "/>
<path style=" stroke:none;fill-rule:nonzero;fill:rgb(2.745098%,32.54902%,60.784314%);fill-opacity:1;" d="M 13.339844 11.808594 C 13.648438 11.808594 13.949219 11.808594 14.253906 11.808594 C 14.324219 11.808594 14.363281 11.847656 14.332031 11.933594 C 14.3125 11.992188 14.328125 12.066406 14.328125 12.164062 C 14.90625 11.824219 15.585938 11.71875 16.238281 11.871094 L 16.238281 12.683594 C 16.070312 12.671875 15.910156 12.664062 15.75 12.640625 C 15.316406 12.582031 14.875 12.664062 14.484375 12.867188 C 14.324219 12.949219 14.316406 13.039062 14.316406 13.179688 C 14.320312 13.8125 14.316406 14.445312 14.320312 15.078125 C 14.320312 15.195312 14.292969 15.230469 14.171875 15.222656 C 13.898438 15.210938 13.625 15.21875 13.339844 15.21875 Z M 13.339844 11.808594 "/>
<path style=" stroke:none;fill-rule:nonzero;fill:rgb(97.647059%,98.431373%,98.823529%);fill-opacity:1;" d="M 5.535156 11.75 C 5.78125 12.273438 6.023438 12.765625 6.269531 13.28125 L 4.785156 13.28125 C 5.03125 12.777344 5.277344 12.277344 5.535156 11.75 Z M 5.535156 11.75 "/>
<path style=" stroke:none;fill-rule:nonzero;fill:rgb(98.823529%,99.215686%,99.215686%);fill-opacity:1;" d="M 26.996094 13.003906 L 24.96875 13.003906 C 25.027344 12.832031 25.152344 12.695312 25.3125 12.628906 C 25.746094 12.40625 26.203125 12.402344 26.65625 12.566406 C 26.839844 12.636719 26.972656 12.804688 26.996094 13.003906 Z M 26.996094 13.003906 "/>
<path style=" stroke:none;fill-rule:nonzero;fill:rgb(98.823529%,98.823529%,99.215686%);fill-opacity:1;" d="M 19.34375 13.59375 C 19.34375 14.296875 18.828125 14.605469 18.132812 14.542969 C 17.980469 14.53125 17.832031 14.492188 17.691406 14.433594 C 17.300781 14.261719 17.175781 13.851562 17.210938 13.382812 C 17.238281 13.019531 17.371094 12.726562 17.722656 12.585938 C 18.109375 12.433594 18.503906 12.421875 18.886719 12.609375 C 19.253906 12.792969 19.335938 13.140625 19.34375 13.59375 Z M 19.34375 13.59375 "/>
</g>
</svg>
