<?xml version="1.0" encoding="UTF-8"?>
<svg xmlns="http://www.w3.org/2000/svg" xmlns:xlink="http://www.w3.org/1999/xlink" width="68px" height="20px" viewBox="0 0 95 20" version="1.1">
<g id="surface1">
<path style=" stroke:none;fill-rule:nonzero;fill:rgb(50.588235%,73.72549%,0%);fill-opacity:1;" d="M 40.910156 0 C 36.703125 -0.0390625 33.257812 3.367188 33.21875 7.605469 C 33.21875 7.660156 33.21875 7.71875 33.21875 7.777344 C 33.144531 12.050781 36.523438 15.582031 40.769531 15.65625 C 45.011719 15.734375 48.515625 12.328125 48.59375 8.054688 C 48.59375 7.96875 48.59375 7.871094 48.59375 7.785156 C 48.640625 3.539062 45.277344 0.0585938 41.070312 0 C 41.015625 0 40.957031 0 40.910156 0 Z M 40.910156 12.894531 C 38.148438 12.882812 35.914062 10.617188 35.925781 7.832031 C 35.925781 7.8125 35.925781 7.796875 35.925781 7.777344 C 35.726562 5.011719 37.785156 2.601562 40.539062 2.402344 C 43.285156 2.199219 45.675781 4.277344 45.875 7.050781 C 45.894531 7.289062 45.894531 7.535156 45.875 7.777344 C 45.914062 10.558594 43.703125 12.855469 40.9375 12.894531 C 40.917969 12.894531 40.910156 12.894531 40.910156 12.894531 Z M 40.910156 12.894531 "/>
<path style=" stroke:none;fill-rule:nonzero;fill:rgb(50.588235%,73.72549%,0%);fill-opacity:1;" d="M 92.050781 0 L 87.648438 10.867188 L 83.25 0 L 80.183594 0 L 86.195312 14.453125 L 83.945312 20 L 86.847656 20 L 87.648438 18.03125 L 89.097656 14.453125 L 94.976562 0 Z M 92.050781 0 "/>
<path style=" stroke:none;fill-rule:nonzero;fill:rgb(50.588235%,73.72549%,0%);fill-opacity:1;" d="M 57.082031 0 C 53.613281 0 51.859375 1.933594 51.117188 3.078125 C 50.492188 4.101562 50.226562 5.195312 50.195312 6.734375 L 50.195312 15.535156 L 52.988281 15.535156 L 52.988281 6.925781 C 52.988281 4.027344 54.363281 2.554688 57.082031 2.554688 C 59.796875 2.554688 61.164062 4.027344 61.164062 6.925781 L 61.164062 15.535156 L 63.945312 15.535156 L 63.945312 6.734375 C 63.925781 5.195312 63.652344 4.101562 63.035156 3.078125 C 62.304688 1.933594 60.539062 0 57.082031 0 Z M 57.082031 0 "/>
<path style=" stroke:none;fill-rule:nonzero;fill:rgb(50.588235%,73.72549%,0%);fill-opacity:1;" d="M 73.035156 0.0195312 C 68.828125 0.0195312 65.542969 3.414062 65.542969 7.757812 C 65.542969 9.785156 66.320312 11.734375 67.707031 13.199219 C 69.074219 14.671875 70.980469 15.515625 72.984375 15.515625 C 75.253906 15.515625 78.445312 14.414062 79.957031 11.296875 C 79.972656 11.265625 79.984375 11.230469 79.992188 11.199219 L 76.9375 11.199219 L 76.917969 11.21875 C 76.101562 12.203125 74.550781 12.875 73.089844 12.875 C 71.21875 12.875 68.980469 11.628906 68.371094 8.828125 L 80.421875 8.828125 C 80.449219 8.542969 80.476562 7.957031 80.476562 7.566406 C 80.46875 3.425781 77.144531 0.0585938 73.035156 0.0195312 Z M 68.457031 6.371094 C 68.988281 3.84375 71.449219 2.21875 73.964844 2.753906 C 75.769531 3.136719 77.171875 4.554688 77.554688 6.371094 Z M 68.457031 6.371094 "/>
<path style=" stroke:none;fill-rule:nonzero;fill:rgb(50.588235%,73.72549%,0%);fill-opacity:1;" d="M 24.253906 0 C 20.058594 -0.046875 16.621094 3.347656 16.582031 7.574219 C 16.582031 7.632812 16.582031 7.699219 16.582031 7.757812 C 16.582031 12.023438 20.019531 15.476562 24.246094 15.476562 C 28.472656 15.476562 31.910156 12.011719 31.910156 7.757812 C 31.964844 3.53125 28.613281 0.0585938 24.417969 0 C 24.367188 0 24.3125 0 24.253906 0 "/>
<path style=" stroke:none;fill-rule:nonzero;fill:rgb(100%,100%,100%);fill-opacity:1;" d="M 22.355469 8.761719 L 19.964844 8.761719 L 19.964844 4.390625 L 21.347656 4.390625 L 21.347656 7.585938 L 22.355469 7.585938 L 22.355469 5.910156 L 23.734375 5.910156 L 23.734375 7.585938 L 24.464844 7.585938 L 24.464844 8.761719 L 23.734375 8.761719 L 23.734375 10.425781 L 22.355469 10.425781 Z M 22.355469 8.761719 "/>
<path style=" stroke:none;fill-rule:nonzero;fill:rgb(100%,100%,100%);fill-opacity:1;" d="M 29.097656 10.425781 L 27.589844 10.425781 L 26.90625 9.21875 L 26.230469 10.425781 L 24.710938 10.425781 L 26.136719 8.332031 L 24.738281 6.265625 L 26.257812 6.265625 L 26.90625 7.441406 L 27.558594 6.265625 L 29.078125 6.265625 L 27.683594 8.332031 Z M 29.097656 10.425781 "/>
<path style=" stroke:none;fill-rule:nonzero;fill:rgb(50.588235%,73.72549%,0%);fill-opacity:1;" d="M 7.695312 0 C 3.507812 -0.046875 0.0703125 3.347656 0.0234375 7.574219 C 0.0234375 7.632812 0.0234375 7.699219 0.0234375 7.757812 C -0.0351562 11.984375 3.316406 15.457031 7.515625 15.515625 C 7.570312 15.515625 7.636719 15.515625 7.695312 15.515625 C 11.890625 15.550781 15.320312 12.15625 15.359375 7.929688 C 15.359375 7.871094 15.359375 7.8125 15.359375 7.757812 C 15.414062 3.53125 12.0625 0.0585938 7.867188 0 C 7.808594 0 7.753906 0 7.695312 0 "/>
<path style=" stroke:none;fill-rule:nonzero;fill:rgb(100%,100%,100%);fill-opacity:1;" d="M 4.582031 8.398438 C 4.582031 9.058594 4.949219 9.429688 5.484375 9.429688 C 5.902344 9.449219 6.261719 9.125 6.28125 8.703125 C 6.28125 8.683594 6.28125 8.664062 6.28125 8.636719 C 6.28125 8.140625 6.042969 7.804688 5.398438 7.804688 L 4.855469 7.804688 L 4.855469 6.722656 L 5.398438 6.722656 C 6.015625 6.722656 6.195312 6.425781 6.195312 5.988281 C 6.222656 5.644531 5.976562 5.347656 5.632812 5.316406 C 5.597656 5.316406 5.550781 5.316406 5.511719 5.316406 C 4.921875 5.316406 4.75 5.671875 4.75 6.199219 L 3.347656 6.199219 C 3.347656 5.175781 3.980469 4.265625 5.464844 4.265625 C 6.566406 4.265625 7.550781 4.832031 7.550781 5.957031 C 7.570312 6.550781 7.21875 7.085938 6.667969 7.296875 C 7.277344 7.519531 7.675781 8.109375 7.648438 8.75 C 7.648438 9.898438 6.632812 10.558594 5.492188 10.558594 C 4.011719 10.558594 3.195312 9.679688 3.195312 8.40625 Z M 4.582031 8.398438 "/>
<path style=" stroke:none;fill-rule:nonzero;fill:rgb(100%,100%,100%);fill-opacity:1;" d="M 12.460938 10.425781 L 10.941406 10.425781 L 10.269531 9.21875 L 9.59375 10.425781 L 8.074219 10.425781 L 9.5 8.332031 L 8.101562 6.265625 L 9.613281 6.265625 L 10.269531 7.441406 L 10.914062 6.265625 L 12.433594 6.265625 L 11.046875 8.332031 Z M 12.460938 10.425781 "/>
</g>
</svg>
