<svg version="1.1" xmlns="http://www.w3.org/2000/svg" width="52" height="26.073" viewBox="0 0 52 26.073"><path d="M0 1.758c1.494 0.253 2.721 1.798 3.805 2.811 0.449 0.419 0.912 0.822 1.382 1.217 0.602 0.57 0.802 1.028 0.839 1.849l0.003 0.546 0.003 0.302 0.003 0.989 0.003 0.69 0.003 1.446q0.002 0.923 0.009 1.847 0.003 0.712 0.003 1.425l0.003 0.681q0.003 0.478 0.002 0.954l0.002 0.548c-0.064 0.614 -0.207 0.994 -0.493 1.54 -0.465 0.309 -0.751 0.341 -1.298 0.375 -0.849 -0.223 -1.511 -1.36 -2.043 -2.013l-0.257 -0.313a40.733 40.733 0 0 1 -0.505 -0.63c-0.28 -0.35 -0.28 -0.35 -0.595 -0.633 -0.886 -0.893 -0.994 -1.66 -1.003 -2.86 0.003 -0.395 0.012 -0.791 0.022 -1.186l0.005 -0.831q0.008 -1.088 0.029 -2.174c0.012 -0.742 0.017 -1.483 0.023 -2.224Q-0.037 3.935 0 1.758" fill="#00ADB7"/><path d="M8.88 0.247c0.74 0.72 1.173 1.335 1.265 2.389l0.003 0.467 0.004 0.533 -0.001 0.57 0.003 0.591q0.002 0.617 0 1.235 -0.001 0.79 0.005 1.578 0.003 0.61 0.003 1.219 0 0.432 0.004 0.863l-0.003 0.533v0.467c-0.084 0.673 -0.348 1.154 -0.796 1.656 -0.599 0.346 -1.207 0.432 -1.895 0.395 -0.384 -0.384 -0.328 -0.659 -0.333 -1.182l0.001 -0.37 -0.01 -0.778q-0.005 -0.612 -0.007 -1.225c0.038 -2.476 0.038 -2.476 -1.125 -4.585 -0.702 -0.64 -1.452 -1.225 -2.189 -1.822a55.467 55.467 0 0 1 -0.677 -0.558l-0.28 -0.231c-0.251 -0.276 -0.319 -0.452 -0.361 -0.822l0.146 -0.439c1.675 -0.65 4.567 -1.264 6.241 -0.484" fill="#ED3430"/><path d="m48.495 5.73 0.303 0.011q0.479 0.016 0.959 0.036l0.65 0.023q0.796 0.029 1.593 0.06v1.172l-1.025 0.146 0.146 0.293c0.106 1.046 0.066 1.796 -0.586 2.636 -0.957 0.743 -1.744 0.767 -2.922 0.823l-0.447 0.055 -0.146 0.293 0.568 0.075 0.751 0.107 0.373 0.049c0.954 0.14 1.819 0.392 2.548 1.05 0.337 0.714 0.384 1.372 0.146 2.115 -0.309 0.717 -0.787 1.1 -1.483 1.453 -1.237 0.391 -2.927 0.298 -4.09 -0.272 -0.46 -0.303 -0.654 -0.55 -0.863 -1.062 -0.157 -1.005 0.011 -1.663 0.586 -2.49l-0.586 -0.439c0.048 -0.783 0.512 -1.213 1.025 -1.758l-0.293 -0.413c-0.407 -0.718 -0.407 -1.421 -0.293 -2.225 0.197 -0.633 0.541 -1.036 1.108 -1.373 0.725 -0.342 1.182 -0.396 1.979 -0.367m-1.331 1.74c-0.354 0.531 -0.323 0.734 -0.223 1.337 0.064 0.296 0.064 0.296 0.296 0.568 0.567 0.227 1.085 0.259 1.685 0.146 0.513 -0.356 0.699 -0.556 0.815 -1.172 -0.106 -0.562 -0.236 -0.794 -0.668 -1.172 -0.738 -0.251 -1.289 -0.214 -1.904 0.293m-0.495 5.658c-0.267 0.462 -0.267 0.462 -0.238 0.888 0.154 0.357 0.279 0.542 0.586 0.778 0.743 0.248 1.624 0.332 2.356 0.014 0.284 -0.192 0.284 -0.192 0.573 -0.6 0.062 -0.463 0.062 -0.463 -0.146 -0.879 -0.796 -0.593 -2.369 -1.038 -3.131 -0.201" fill="#00ADB7"/><path d="M42.332 2.784h1.758v10.253h-1.611l-0.146 -0.732 -0.209 0.155 -0.276 0.202 -0.273 0.2c-0.735 0.48 -1.624 0.409 -2.465 0.321 -0.963 -0.288 -1.598 -0.773 -2.174 -1.588 -0.573 -1.069 -0.678 -2.316 -0.356 -3.485 0.404 -0.965 0.916 -1.717 1.889 -2.16 0.907 -0.322 1.835 -0.439 2.756 -0.11 0.695 0.339 0.695 0.339 0.961 0.605zm-3.936 5.301c-0.317 0.792 -0.416 1.54 -0.146 2.362 0.273 0.631 0.69 0.967 1.3 1.272 0.616 0.063 1.155 0.068 1.73 -0.174 0.532 -0.441 1.017 -0.933 1.088 -1.641 0.023 -0.888 0.011 -1.457 -0.621 -2.14 -0.562 -0.485 -0.999 -0.685 -1.754 -0.642 -0.666 0.127 -1.153 0.446 -1.596 0.963" fill="#00B0B9"/><path d="M18.016 2.929c5.098 0 5.098 0 6.152 0.879 0.763 0.826 0.95 1.566 0.924 2.668 -0.081 0.736 -0.331 1.282 -0.857 1.804 -1 0.787 -2.138 0.845 -3.363 0.819l-1.245 -0.018v3.955h-1.611zm1.611 1.465v3.222l1.346 0.037 0.42 0.016c0.607 0.008 0.933 -0.001 1.46 -0.328 0.338 -0.363 0.484 -0.554 0.582 -1.043 -0.04 -0.713 -0.117 -1.159 -0.66 -1.65 -0.659 -0.328 -1.162 -0.321 -1.884 -0.291z" fill="#00ADB7"/><path d="M34.422 6.299c0.713 0.629 1.167 1.24 1.318 2.197v1.318h-5.419c0.324 1.153 0.324 1.153 1.209 1.804 0.549 0.138 1.043 0.147 1.575 -0.046l0.339 -0.448c0.393 -0.431 0.393 -0.431 0.796 -0.489a13.867 13.867 0 0 1 1.209 0.058c-0.02 0.804 -0.355 1.23 -0.888 1.791 -0.835 0.762 -1.661 0.77 -2.752 0.739 -1.061 -0.094 -1.721 -0.444 -2.443 -1.23 -0.697 -0.892 -0.862 -1.932 -0.764 -3.031 0.185 -1.22 0.638 -1.998 1.598 -2.773 1.218 -0.832 3.033 -0.692 4.225 0.108m-3.662 1.318c-0.341 0.438 -0.439 0.618 -0.439 1.172h3.808c-0.276 -0.886 -0.276 -0.886 -0.879 -1.465 -0.952 -0.476 -1.644 -0.263 -2.49 0.293" fill="#00ADB7"/><path d="M32.958 18.602v1.465h-1.025l-0.146 0.586h3.515v5.419h-1.611v-3.955h-1.904v3.955h-1.611v-3.955h-0.586v-1.465h0.586l-0.028 -0.467c0.029 -0.597 0.096 -0.831 0.467 -1.29 0.706 -0.585 1.49 -0.577 2.343 -0.293" fill="#00ADB6"/><path d="M22.294 19.207c0.401 0.201 0.401 0.201 0.996 0.568l-0.732 1.318c-0.586 -0.146 -0.586 -0.146 -0.915 -0.302 -0.545 -0.186 -1 -0.157 -1.575 -0.138l-0.146 0.732 0.306 0.075c2.278 0.588 2.278 0.588 2.999 1.343 0.272 0.627 0.331 1.13 0.211 1.804 -0.389 0.75 -0.81 1.198 -1.611 1.465 -1.225 0.096 -2.315 0.1 -3.37 -0.586 -0.375 -0.329 -0.375 -0.329 -0.586 -0.586l0.879 -1.025c0.732 0.293 0.732 0.293 1.053 0.458 0.621 0.193 1.232 0.151 1.876 0.128 0.023 -0.355 0.023 -0.355 -0.146 -0.732a8.667 8.667 0 0 0 -1.209 -0.439c-0.86 -0.249 -1.422 -0.456 -2.014 -1.172 -0.256 -0.51 -0.211 -1.053 -0.146 -1.611 0.192 -0.572 0.459 -0.947 0.981 -1.269 0.982 -0.397 2.153 -0.381 3.149 -0.031" fill="#00ADB7"/><path d="M40.282 20.8c0.433 0.336 0.559 0.504 0.732 1.025q0.017 0.486 0.015 0.972l-0.002 0.576 -0.003 0.602 -0.003 0.608q-0.003 0.745 -0.007 1.489h-1.611l-0.146 -3.808h-1.172c-0.256 0.256 -0.18 0.614 -0.192 0.962l-0.019 0.499 -0.017 0.526 -0.019 0.527q-0.023 0.647 -0.045 1.294h-1.758V20.653h1.758l0.146 0.293 0.43 -0.238c0.678 -0.291 1.241 -0.176 1.914 0.091" fill="#00ACB6"/><path d="M50.883 20.965c0.543 0.389 0.933 0.796 1.117 1.446 0.104 0.862 0.132 1.62 -0.238 2.417 -0.621 0.653 -1.147 1.202 -2.09 1.28 -1.023 0.023 -1.691 0.021 -2.506 -0.621 -0.606 -0.639 -0.888 -1.219 -0.933 -2.096 0.022 -0.826 0.294 -1.466 0.84 -2.083 1.071 -0.982 2.575 -1.04 3.811 -0.341m-2.838 1.593c-0.227 0.454 -0.189 0.817 -0.146 1.318 0.298 0.549 0.485 0.699 1.081 0.897 0.553 -0.019 0.844 -0.108 1.247 -0.497 0.266 -0.413 0.283 -0.773 0.249 -1.255 -0.158 -0.58 -0.452 -0.749 -0.965 -1.049 -0.672 -0.147 -0.984 0.132 -1.465 0.586" fill="#00ADB7"/><path d="M27.703 19.582c0.343 0.148 0.5 0.208 0.868 0.123 0.316 -0.132 0.316 -0.132 0.725 -0.371q0.011 0.357 0.018 0.714l0.01 0.402c-0.028 0.349 -0.028 0.349 -0.321 0.642l0.082 0.531c0.103 0.694 -0.017 1.21 -0.375 1.813 -0.531 0.601 -1.149 0.982 -1.952 1.057 -0.778 0.028 -1.349 -0.01 -2.003 -0.471 -0.681 -0.663 -0.98 -1.137 -1.071 -2.087 0.071 -0.857 0.374 -1.47 0.989 -2.07 0.977 -0.62 1.957 -0.767 3.03 -0.284m-2.023 1.3c-0.408 0.43 -0.485 0.646 -0.485 1.236 0.235 0.517 0.402 0.707 0.879 1.025 0.493 -0.026 0.878 -0.053 1.3 -0.32 0.229 -0.368 0.263 -0.718 0.311 -1.144l-1.318 0.146 -0.439 -0.879 0.732 -0.146c-0.44 -0.196 -0.553 -0.166 -0.979 0.082" fill="#00ACB6"/><path d="M25.927 2.784h1.611v10.253h-1.611z" fill="#00ACB7"/><path d="M46.287 21.239c0 0.586 0 0.586 -0.367 0.989l-0.366 0.329 -0.229 -0.138a3.293 3.293 0 0 0 -1.382 -0.302c-0.455 0.271 -0.455 0.271 -0.732 0.732 -0.117 0.654 -0.076 0.915 0.302 1.465 0.416 0.343 0.416 0.343 0.952 0.284 0.531 -0.127 0.531 -0.127 1.089 -0.43l0.879 1.025c-1.079 0.914 -1.778 0.996 -3.222 0.879 -0.724 -0.33 -1.144 -0.837 -1.611 -1.465 -0.274 -0.821 -0.254 -1.715 0.01 -2.536 0.496 -0.687 1.021 -1.15 1.804 -1.483 1.134 -0.176 1.924 0.023 2.875 0.65" fill="#00ACB6"/><path d="M24.023 25.195h4.98v0.878h-4.98z" fill="#004A43"/><path d="M29.296 19.335V20.8a123.067 123.067 0 0 1 -1.053 0.586l-0.299 0.17c-0.971 0.53 -0.971 0.53 -1.577 0.417 -0.267 -0.349 -0.439 -0.58 -0.439 -1.025l0.407 -0.166c0.747 -0.309 2.272 -1.444 2.962 -1.444" fill="#ED3430"/><path d="M11.572 18.749h0.439l0.146 0.879 0.146 -0.146c0.495 0.018 0.495 0.018 1.025 0.146 0.38 0.416 0.444 0.628 0.421 1.19 -0.135 0.445 -0.2 0.589 -0.568 0.861 -0.543 0.059 -1.064 0.02 -1.611 0zm0.732 1.172c-0.339 0.406 -0.339 0.406 -0.247 0.824 0.068 0.338 0.068 0.338 0.247 0.495q0.367 0.01 0.732 0c0.189 -0.332 0.189 -0.332 0.293 -0.732 -0.145 -0.352 -0.145 -0.352 -0.439 -0.586z" fill="#004A43"/><path d="M13.769 19.482h0.586L14.794 20.8h0.293l0.055 -0.329a3.467 3.467 0 0 1 0.385 -0.989h0.439c-0.597 2.209 -0.597 2.209 -1.172 2.784q-0.439 0.01 -0.879 0v-0.439h0.732l-0.155 -0.364 -0.202 -0.478 -0.2 -0.474a6.067 6.067 0 0 1 -0.321 -1.028" fill="#004943"/><path d="M35.008 18.749c0.293 0.439 0.293 0.439 0.257 0.971l-0.11 0.494c-0.41 0.205 -0.718 0.183 -1.172 0.146 -0.284 -0.156 -0.284 -0.156 -0.439 -0.439 0.01 -0.522 0.01 -0.522 0.146 -1.025 0.432 -0.371 0.796 -0.325 1.318 -0.146" fill="#00ADB7"/></svg>
