<?xml version="1.0" encoding="utf-8"?>
<svg version="1.1" id="Calque_1" xmlns="http://www.w3.org/2000/svg" xmlns:xlink="http://www.w3.org/1999/xlink" x="0px" y="0px"
	 width="60px" height="15px" viewBox="0 0 710 172" style="enable-background:new 0 0 710 172;" xml:space="preserve">
<style type="text/css">
	.st0{fill:#004B44;}
	.st1{fill:#1AAEB7;}
	.st2{fill:#EB3738;}
</style>
<rect x="134.1" y="144.5" class="st0" width="97.1" height="12.7"/>
<g>
	<path class="st1" d="M75.3,74.7c-23.8-6.1-29.7-9.1-29.7-18.1v-0.4c0-6.7,6.1-12,17.7-12s23.6,5.1,35.8,13.6L114.9,35
		c-14-11.2-31.1-17.5-51.2-17.5C35.5,17.5,15.5,34,15.5,59v0.4c0,27.4,17.9,35,45.7,42.1c23,5.9,27.8,9.8,27.8,17.5v0.4
		c0,8.1-7.5,13-19.9,13c-15.7,0-28.7-6.5-41.1-16.7l-17.9,21.5c16.5,14.8,37.6,22.1,58.5,22.1c29.7,0,50.6-15.4,50.6-42.7v-0.5
		C119,92.1,103.2,82,75.3,74.7z"/>
	<path class="st1" d="M641.1,49.7c-32.9,0-57.3,24.6-57.3,54.9v0.4c0,30.3,24.2,54.5,56.9,54.5c32.9,0,57.3-24.6,57.3-54.9v-0.4
		C698,74,673.8,49.7,641.1,49.7z M668.5,105.1c0,15.6-10.2,28.7-27.4,28.7c-16.5,0-27.8-13.6-27.8-29.1v-0.4
		c0-15.6,10.2-28.7,27.4-28.7c16.5,0,27.8,13.6,27.8,29.1V105.1z"/>
	<path class="st1" d="M287.9,52.9v-8.4c0-7.9,3.9-11.4,10.8-11.4c5.1,0,9.3,1,13.6,2.6V10.9c-5.5-1.8-11.8-3-21.3-3
		c-10.6,0-18.7,2.8-24.2,8.3s-8.5,14-8.5,25.6v10.9H246v24.6h12.4v79.9h29.9V77.3h41.5v79.9h29.9V77.3V52.9L287.9,52.9L287.9,52.9z"
		/>
	<path class="st1" d="M438.9,49.7c-15.2,0-24,8.1-30.9,16.9v-15h-29.9v105.5H408V98.2c0-14.2,7.3-21.5,18.7-21.5
		c11.4,0,18.1,7.3,18.1,21.5v58.9h29.9V88.8C474.7,64.7,461.5,49.7,438.9,49.7z"/>
	<path class="st1" d="M542.1,133.8c-16.3,0-26.8-13-26.8-29.1v-0.4c0-15.6,10.6-28.7,25.6-28.7c10.6,0,17.3,4.5,24,11.6l18.3-19.7
		c-9.8-11-22.2-17.7-42.1-17.7c-32.3,0-55.3,24.8-55.3,54.9v0.4c0,30.1,23.2,54.5,54.9,54.5c21.1,0,32.9-8.1,43.1-19.3l-17.5-17.7
		C559,129.5,552.1,133.8,542.1,133.8z"/>
	<path class="st1" d="M343,43.7c9,0,16.2-7.3,16.2-16.2c0-9-7.3-16.2-16.2-16.2c-9,0-16.2,7.3-16.2,16.2S334,43.7,343,43.7z"/>
	<g>
		<path class="st1" d="M181.2,24.9c-30.2,0-52.7,22.6-52.7,50.5v0.4c0,27.9,22.3,50.2,52.3,50.2c30.2,0,52.7-22.6,52.7-50.5v-0.4
			c0-5.1-0.8-10.1-2.2-14.7l-25,13.4c0,0.5,0.1,1.1,0.1,1.6v0.4c0,14.3-9.4,26.4-25.2,26.4c-15.2,0-25.5-12.5-25.5-26.8V75
			c0-14.3,9.4-26.4,25.2-26.4c3.6,0,7,0.7,10,2l25.3-13.3C207.1,29.5,195,24.9,181.2,24.9z"/>
	</g>
</g>
<path class="st2" d="M227.3,31.4l-11.1,5.8l-25.3,13.3l-5.3,2.8c-8.4,4-10.7,5.1-13.4,4.7l5.5,12.5c2.9,5.6,7.6,7,12.3,4.7
	l47.5-25.4V26.1L227.3,31.4z"/>
</svg>
