<svg width="32" height="24" viewBox="0 0 32 24" fill="none" xmlns="http://www.w3.org/2000/svg">
<rect width="32" height="24" fill="white"/>
<rect y="14.1213" width="16" height="10" rx="1" transform="rotate(-45 0 14.1213)" fill="black" fill-opacity="0.1"/>
<rect x="0.807617" y="14.1213" width="16" height="10" rx="1" transform="rotate(-45 0.807617 14.1213)" fill="#E1871C"/>
<rect x="3.63599" y="14.1213" width="4" height="3" rx="1" transform="rotate(-45 3.63599 14.1213)" fill="#DCB83B"/>
<rect x="6" y="14.1213" width="16" height="10" rx="1" transform="rotate(-45 6 14.1213)" fill="black" fill-opacity="0.1"/>
<rect x="7" y="14.1213" width="16" height="10" rx="1" transform="rotate(-45 7 14.1213)" fill="#E11C7B"/>
<rect x="9.82837" y="14.1213" width="4" height="3" rx="1" transform="rotate(-45 9.82837 14.1213)" fill="#DCB83B"/>
<rect x="12" y="14.1213" width="16" height="10" rx="1" transform="rotate(-45 12 14.1213)" fill="black" fill-opacity="0.1"/>
<rect x="13.1924" y="14.1213" width="16" height="10" rx="1" transform="rotate(-45 13.1924 14.1213)" fill="#1CA6E1"/>
<rect x="16.0208" y="14.1213" width="4" height="3" rx="1" transform="rotate(-45 16.0208 14.1213)" fill="#DCB83B"/>
</svg>
