<?xml version="1.0" encoding="UTF-8"?>
<svg xmlns="http://www.w3.org/2000/svg" xmlns:xlink="http://www.w3.org/1999/xlink" width="68px" height="20px" viewBox="0 0 16 20" version="1.1">
<g id="surface1">
<path style=" stroke:none;fill-rule:evenodd;fill:rgb(23.921569%,45.098039%,72.54902%);fill-opacity:1;" d="M 7.917969 16.113281 L 14.46875 16.113281 C 15.964844 16.113281 15.980469 14.433594 15.828125 13.601562 C 15.746094 13.042969 14.847656 13.054688 14.75 13.601562 L 14.75 14.25 C 14.75 14.546875 14.523438 14.789062 14.242188 14.789062 L 1.679688 14.789062 C 1.398438 14.789062 1.171875 14.546875 1.171875 14.25 L 1.171875 13.601562 C 1.074219 13.054688 0.175781 13.042969 0.09375 13.601562 C -0.0585938 14.433594 -0.0429688 16.113281 1.449219 16.113281 Z M 3.285156 0.00390625 L 13.390625 0.00390625 C 14.097656 0.00390625 14.679688 0.65625 14.679688 1.449219 L 14.679688 2.140625 C 14.679688 3.117188 13.433594 3.109375 13.433594 2.144531 L 13.433594 1.769531 C 13.433594 1.527344 13.246094 1.332031 13.015625 1.332031 L 2.894531 1.332031 C 2.664062 1.332031 2.476562 1.527344 2.476562 1.769531 L 2.476562 2.140625 C 2.476562 3.109375 1.289062 3.101562 1.289062 2.160156 L 1.289062 1.449219 C 1.289062 0.65625 1.871094 0.00390625 2.578125 0.00390625 Z M 3.285156 0.00390625 "/>
<path style=" stroke:none;fill-rule:evenodd;fill:rgb(11.372549%,11.372549%,10.588235%);fill-opacity:1;" d="M 14.425781 7.941406 C 15.132812 8.273438 15.59375 9.011719 15.605469 9.832031 C 15.605469 10.996094 14.648438 11.949219 13.472656 11.949219 L 10.183594 11.949219 C 9.886719 11.957031 9.636719 11.710938 9.625 11.398438 L 9.625 4.773438 C 9.625 4.453125 9.871094 4.191406 10.171875 4.191406 L 12.914062 4.191406 C 13.753906 4.191406 14.511719 4.71875 14.84375 5.539062 C 15.171875 6.355469 15.007812 7.300781 14.425781 7.941406 M 11.96875 7.402344 L 13.011719 7.402344 L 13.011719 7.390625 C 13.496094 7.308594 13.855469 6.871094 13.855469 6.351562 C 13.855469 5.773438 13.410156 5.300781 12.863281 5.300781 L 10.761719 5.300781 L 10.761719 10.796875 L 13.425781 10.796875 C 13.800781 10.808594 14.152344 10.605469 14.34375 10.261719 C 14.535156 9.921875 14.535156 9.5 14.34375 9.15625 C 14.152344 8.816406 13.800781 8.613281 13.425781 8.625 L 11.96875 8.625 C 11.652344 8.625 11.394531 8.351562 11.394531 8.015625 C 11.394531 7.679688 11.652344 7.40625 11.96875 7.40625 "/>
<path style=" stroke:none;fill-rule:nonzero;fill:rgb(11.372549%,11.372549%,10.588235%);fill-opacity:1;" d="M 3.703125 18.148438 C 3.703125 18.042969 3.78125 17.960938 3.878906 17.960938 C 3.976562 17.960938 4.054688 18.042969 4.054688 18.148438 L 4.054688 19.15625 C 4.054688 19.617188 3.703125 19.992188 3.265625 19.992188 C 2.828125 19.992188 2.476562 19.617188 2.472656 19.15625 L 2.472656 18.148438 C 2.46875 18.078125 2.5 18.011719 2.558594 17.976562 C 2.613281 17.9375 2.6875 17.9375 2.742188 17.976562 C 2.800781 18.011719 2.832031 18.078125 2.828125 18.148438 L 2.828125 19.15625 C 2.828125 19.414062 3.023438 19.621094 3.265625 19.621094 C 3.507812 19.621094 3.707031 19.414062 3.707031 19.15625 Z M 3.703125 18.148438 "/>
<path style=" stroke:none;fill-rule:nonzero;fill:rgb(11.372549%,11.372549%,10.588235%);fill-opacity:1;" d="M 5.375 19.621094 C 5.472656 19.621094 5.550781 19.703125 5.550781 19.808594 C 5.550781 19.910156 5.472656 19.996094 5.375 19.996094 L 4.882812 19.996094 C 4.519531 19.996094 4.222656 19.679688 4.222656 19.292969 L 4.222656 18.148438 C 4.222656 18.042969 4.300781 17.960938 4.398438 17.960938 C 4.496094 17.960938 4.574219 18.042969 4.574219 18.148438 L 4.574219 19.292969 C 4.574219 19.472656 4.710938 19.621094 4.886719 19.621094 Z M 5.375 19.621094 "/>
<path style=" stroke:none;fill-rule:nonzero;fill:rgb(11.372549%,11.372549%,10.588235%);fill-opacity:1;" d="M 9.101562 11.285156 C 9.136719 11.539062 9.035156 11.792969 8.84375 11.945312 C 8.648438 12.101562 8.390625 12.128906 8.171875 12.023438 C 7.953125 11.914062 7.804688 11.691406 7.789062 11.433594 L 7.246094 6.167969 L 5.332031 11.316406 L 5.332031 11.378906 C 5.289062 11.457031 5.234375 11.527344 5.167969 11.582031 L 5.15625 11.589844 C 5.121094 11.621094 5.082031 11.652344 5.042969 11.675781 L 5.027344 11.679688 L 5.019531 11.6875 L 4.953125 11.6875 C 4.890625 11.710938 4.824219 11.722656 4.757812 11.726562 L 4.710938 11.726562 C 4.636719 11.722656 4.5625 11.707031 4.496094 11.679688 L 4.441406 11.679688 L 4.429688 11.671875 L 4.417969 11.667969 L 4.414062 11.667969 C 4.375 11.644531 4.339844 11.621094 4.308594 11.59375 L 4.289062 11.570312 L 4.269531 11.554688 L 4.230469 11.542969 L 4.210938 11.519531 C 4.183594 11.488281 4.160156 11.449219 4.140625 11.410156 L 4.140625 11.40625 L 4.136719 11.394531 L 4.128906 11.382812 L 4.128906 11.328125 L 2.179688 6.167969 L 1.640625 11.433594 C 1.601562 11.816406 1.277344 12.09375 0.914062 12.054688 C 0.550781 12.015625 0.289062 11.671875 0.328125 11.285156 L 0.964844 5.078125 C 0.980469 4.933594 1.023438 4.792969 1.089844 4.660156 C 1.253906 4.332031 1.558594 4.109375 1.910156 4.058594 L 1.945312 4.058594 C 2 4.054688 2.054688 4.054688 2.113281 4.058594 C 2.179688 4.0625 2.246094 4.070312 2.3125 4.089844 C 2.660156 4.171875 2.949219 4.4375 3.078125 4.789062 L 4.714844 9.160156 L 6.347656 4.773438 C 6.503906 4.351562 6.882812 4.0625 7.3125 4.046875 C 7.371094 4.039062 7.425781 4.039062 7.480469 4.046875 L 7.515625 4.046875 C 7.867188 4.09375 8.171875 4.320312 8.335938 4.648438 C 8.371094 4.710938 8.394531 4.78125 8.417969 4.851562 C 8.4375 4.921875 8.453125 4.996094 8.460938 5.070312 Z M 9.101562 11.285156 "/>
<path style=" stroke:none;fill-rule:nonzero;fill:rgb(11.372549%,11.372549%,10.588235%);fill-opacity:1;" d="M 2.40625 19.785156 C 2.417969 19.855469 2.390625 19.925781 2.339844 19.96875 C 2.289062 20.011719 2.21875 20.019531 2.160156 19.992188 C 2.097656 19.960938 2.058594 19.898438 2.054688 19.832031 L 1.90625 18.488281 L 1.367188 19.804688 C 1.328125 19.898438 1.222656 19.945312 1.132812 19.902344 C 1.09375 19.882812 1.058594 19.847656 1.042969 19.804688 L 0.503906 18.488281 L 0.351562 19.832031 C 0.347656 19.898438 0.308594 19.960938 0.246094 19.992188 C 0.1875 20.019531 0.117188 20.011719 0.0664062 19.96875 C 0.015625 19.925781 -0.0117188 19.855469 0 19.785156 L 0.179688 18.226562 C 0.191406 18.125 0.25 18.039062 0.332031 17.996094 C 0.34375 17.988281 0.355469 17.984375 0.367188 17.976562 L 0.382812 17.976562 C 0.398438 17.972656 0.414062 17.96875 0.433594 17.964844 C 0.523438 17.953125 0.613281 17.984375 0.679688 18.046875 C 0.691406 18.0625 0.703125 18.074219 0.714844 18.089844 C 0.722656 18.101562 0.730469 18.113281 0.734375 18.125 C 0.738281 18.132812 0.742188 18.140625 0.746094 18.148438 L 1.203125 19.269531 L 1.660156 18.136719 C 1.699219 18.046875 1.777344 17.980469 1.867188 17.960938 C 1.886719 17.957031 1.902344 17.957031 1.921875 17.953125 L 1.972656 17.953125 C 2.066406 17.964844 2.148438 18.019531 2.195312 18.101562 C 2.203125 18.117188 2.210938 18.136719 2.21875 18.15625 C 2.222656 18.167969 2.226562 18.179688 2.226562 18.191406 C 2.226562 18.199219 2.226562 18.207031 2.226562 18.214844 Z M 2.40625 19.785156 "/>
<path style=" stroke:none;fill-rule:nonzero;fill:rgb(11.372549%,11.372549%,10.588235%);fill-opacity:1;" d="M 6.144531 19.808594 C 6.144531 19.910156 6.0625 19.996094 5.964844 19.996094 C 5.867188 19.996094 5.789062 19.910156 5.789062 19.808594 L 5.789062 18.335938 L 5.289062 18.335938 C 5.191406 18.335938 5.109375 18.25 5.109375 18.148438 C 5.109375 18.042969 5.191406 17.960938 5.289062 17.960938 L 6.644531 17.960938 C 6.742188 17.960938 6.820312 18.042969 6.820312 18.148438 C 6.820312 18.25 6.742188 18.335938 6.644531 18.335938 L 6.144531 18.335938 Z M 6.144531 19.808594 "/>
<path style=" stroke:none;fill-rule:nonzero;fill:rgb(11.372549%,11.372549%,10.588235%);fill-opacity:1;" d="M 7.246094 19.808594 C 7.246094 19.910156 7.164062 19.996094 7.066406 19.996094 C 6.96875 19.996094 6.890625 19.910156 6.890625 19.808594 L 6.890625 18.148438 C 6.890625 18.042969 6.96875 17.960938 7.066406 17.960938 C 7.164062 17.960938 7.246094 18.042969 7.246094 18.148438 Z M 7.246094 19.808594 "/>
<path style=" stroke:none;fill-rule:nonzero;fill:rgb(11.372549%,11.372549%,10.588235%);fill-opacity:1;" d="M 10.863281 19.785156 C 10.867188 19.886719 10.800781 19.972656 10.707031 19.984375 C 10.613281 19.996094 10.527344 19.929688 10.511719 19.832031 L 10.449219 19.304688 L 9.84375 19.304688 C 9.777344 19.308594 9.710938 19.277344 9.679688 19.214844 C 9.644531 19.15625 9.644531 19.082031 9.679688 19.019531 C 9.710938 18.960938 9.777344 18.925781 9.84375 18.933594 L 10.410156 18.933594 L 10.394531 18.792969 C 10.394531 18.792969 10.394531 18.785156 10.394531 18.78125 C 10.386719 18.75 10.382812 18.71875 10.375 18.6875 C 10.363281 18.652344 10.351562 18.621094 10.335938 18.589844 C 10.273438 18.4375 10.132812 18.339844 9.980469 18.335938 C 9.949219 18.335938 9.917969 18.339844 9.890625 18.347656 C 9.863281 18.355469 9.835938 18.363281 9.8125 18.378906 C 9.667969 18.464844 9.578125 18.621094 9.566406 18.792969 L 9.457031 19.832031 C 9.445312 19.933594 9.359375 20.007812 9.261719 19.996094 C 9.164062 19.984375 9.097656 19.894531 9.105469 19.792969 L 9.214844 18.753906 C 9.242188 18.457031 9.402344 18.191406 9.652344 18.046875 C 9.703125 18.019531 9.753906 18 9.808594 17.984375 C 9.863281 17.972656 9.921875 17.964844 9.980469 17.964844 C 10.269531 17.964844 10.53125 18.144531 10.652344 18.421875 C 10.675781 18.472656 10.695312 18.527344 10.710938 18.582031 C 10.722656 18.632812 10.734375 18.683594 10.742188 18.734375 C 10.742188 18.738281 10.742188 18.746094 10.742188 18.75 Z M 10.863281 19.785156 "/>
<path style=" stroke:none;fill-rule:nonzero;fill:rgb(11.372549%,11.372549%,10.588235%);fill-opacity:1;" d="M 11.402344 19.808594 C 11.40625 19.878906 11.375 19.945312 11.316406 19.980469 C 11.261719 20.019531 11.1875 20.019531 11.132812 19.980469 C 11.074219 19.945312 11.042969 19.878906 11.046875 19.808594 L 11.046875 18.269531 C 11.046875 18.257812 11.046875 18.246094 11.046875 18.238281 C 11.050781 18.214844 11.054688 18.195312 11.0625 18.175781 L 11.078125 18.144531 C 11.105469 18.085938 11.15625 18.042969 11.214844 18.023438 L 11.238281 18.015625 L 11.304688 18.015625 C 11.378906 18.019531 11.445312 18.054688 11.492188 18.117188 L 12.425781 19.382812 L 12.425781 18.148438 C 12.425781 18.042969 12.503906 17.960938 12.601562 17.960938 C 12.699219 17.960938 12.777344 18.042969 12.777344 18.148438 L 12.777344 19.6875 C 12.777344 19.765625 12.746094 19.839844 12.6875 19.890625 C 12.675781 19.898438 12.664062 19.90625 12.648438 19.914062 C 12.644531 19.917969 12.636719 19.921875 12.628906 19.925781 L 12.613281 19.933594 C 12.550781 19.957031 12.484375 19.953125 12.425781 19.921875 L 12.402344 19.910156 C 12.390625 19.902344 12.378906 19.890625 12.367188 19.882812 C 12.359375 19.875 12.351562 19.867188 12.34375 19.855469 L 12.339844 19.851562 L 11.402344 18.578125 Z M 11.402344 19.808594 "/>
<path style=" stroke:none;fill-rule:nonzero;fill:rgb(11.372549%,11.372549%,10.588235%);fill-opacity:1;" d="M 14.15625 19.621094 C 14.253906 19.621094 14.332031 19.703125 14.332031 19.808594 C 14.332031 19.910156 14.253906 19.996094 14.15625 19.996094 L 13.636719 19.996094 C 13.253906 19.996094 12.941406 19.664062 12.941406 19.257812 L 12.941406 18.699219 C 12.941406 18.292969 13.253906 17.964844 13.636719 17.960938 L 14.15625 17.960938 C 14.253906 17.960938 14.332031 18.046875 14.332031 18.148438 C 14.332031 18.253906 14.253906 18.335938 14.15625 18.335938 L 13.636719 18.335938 C 13.546875 18.335938 13.457031 18.375 13.394531 18.445312 C 13.328125 18.511719 13.289062 18.605469 13.289062 18.703125 L 13.289062 19.265625 C 13.292969 19.464844 13.445312 19.625 13.632812 19.628906 L 14.152344 19.628906 Z M 14.15625 19.621094 "/>
<path style=" stroke:none;fill-rule:nonzero;fill:rgb(11.372549%,11.372549%,10.588235%);fill-opacity:1;" d="M 15.179688 18.332031 C 15.054688 18.332031 14.933594 18.382812 14.84375 18.472656 C 14.757812 18.558594 14.710938 18.679688 14.707031 18.804688 L 14.707031 19.152344 C 14.707031 19.277344 14.757812 19.394531 14.84375 19.480469 C 14.933594 19.570312 15.054688 19.621094 15.175781 19.621094 C 15.300781 19.621094 15.421875 19.570312 15.511719 19.480469 C 15.597656 19.394531 15.644531 19.277344 15.648438 19.152344 L 15.648438 18.804688 C 15.644531 18.679688 15.597656 18.558594 15.511719 18.472656 C 15.421875 18.382812 15.300781 18.332031 15.175781 18.332031 M 15.175781 17.960938 C 15.390625 17.960938 15.597656 18.046875 15.753906 18.203125 C 15.910156 18.359375 16 18.574219 16 18.800781 L 16 19.152344 C 16 19.375 15.910156 19.59375 15.753906 19.75 C 15.597656 19.90625 15.390625 19.992188 15.175781 19.992188 C 14.960938 19.992188 14.753906 19.90625 14.597656 19.75 C 14.445312 19.59375 14.355469 19.375 14.355469 19.152344 L 14.355469 18.800781 C 14.355469 18.578125 14.445312 18.359375 14.597656 18.203125 C 14.753906 18.046875 14.960938 17.960938 15.175781 17.960938 Z M 15.175781 17.960938 "/>
<path style=" stroke:none;fill-rule:nonzero;fill:rgb(11.372549%,11.372549%,10.588235%);fill-opacity:1;" d="M 7.746094 18.335938 L 7.746094 19.621094 L 8.425781 19.621094 C 8.484375 19.621094 8.542969 19.597656 8.582031 19.550781 C 8.625 19.507812 8.648438 19.449219 8.648438 19.386719 C 8.648438 19.328125 8.625 19.269531 8.589844 19.226562 L 8.582031 19.222656 C 8.542969 19.175781 8.484375 19.152344 8.425781 19.152344 L 8.191406 19.152344 C 8.09375 19.152344 8.015625 19.066406 8.015625 18.964844 C 8.015625 18.859375 8.09375 18.777344 8.191406 18.777344 L 8.269531 18.777344 C 8.320312 18.773438 8.367188 18.75 8.402344 18.710938 C 8.445312 18.671875 8.464844 18.613281 8.464844 18.554688 C 8.464844 18.433594 8.375 18.335938 8.257812 18.335938 Z M 7.390625 18.964844 L 7.390625 18.15625 C 7.390625 18.128906 7.394531 18.105469 7.40625 18.082031 C 7.414062 18.058594 7.429688 18.035156 7.445312 18.015625 C 7.476562 17.984375 7.519531 17.964844 7.5625 17.964844 L 8.253906 17.964844 C 8.5625 17.964844 8.816406 18.230469 8.816406 18.558594 C 8.816406 18.671875 8.785156 18.78125 8.730469 18.875 C 8.765625 18.898438 8.800781 18.925781 8.832031 18.957031 L 8.84375 18.972656 C 8.945312 19.082031 9 19.234375 9 19.386719 C 9 19.722656 8.746094 19.992188 8.429688 19.996094 L 7.566406 19.996094 C 7.46875 19.996094 7.390625 19.910156 7.390625 19.808594 Z M 7.390625 18.964844 "/>
</g>
</svg>
