<?xml version="1.0" encoding="UTF-8"?>
<svg xmlns="http://www.w3.org/2000/svg" xmlns:xlink="http://www.w3.org/1999/xlink" width="61px" height="20px" viewBox="0 0 62 20" version="1.1">
<g id="surface1">
<path style=" stroke:none;fill-rule:nonzero;fill:rgb(54.509804%,74.117647%,2.352941%);fill-opacity:1;" d="M 7.667969 12.890625 C 4.9375 12.890625 2.710938 10.644531 2.710938 7.78125 C 2.710938 4.914062 4.9375 2.660156 7.667969 2.660156 C 10.386719 2.660156 12.625 4.914062 12.625 7.78125 C 12.625 10.644531 10.386719 12.890625 7.667969 12.890625 M 7.667969 0.00390625 C 3.367188 0.00390625 0 3.417969 0 7.78125 C 0 12.136719 3.367188 15.554688 7.667969 15.554688 C 11.960938 15.554688 15.332031 12.136719 15.332031 7.78125 C 15.332031 3.417969 11.960938 0.00390625 7.667969 0.00390625 "/>
<path style=" stroke:none;fill-rule:nonzero;fill:rgb(54.509804%,74.117647%,2.352941%);fill-opacity:1;" d="M 47.128906 7.574219 C 47.105469 3.410156 43.777344 0.0195312 39.699219 0.0195312 C 35.511719 0.0195312 32.226562 3.421875 32.226562 7.761719 C 32.226562 9.796875 33 11.730469 34.386719 13.210938 C 35.800781 14.703125 37.667969 15.527344 39.652344 15.527344 C 41.917969 15.527344 45.09375 14.429688 46.601562 11.3125 L 46.640625 11.210938 L 43.601562 11.210938 L 43.582031 11.234375 C 42.765625 12.21875 41.230469 12.882812 39.761719 12.882812 C 37.898438 12.882812 35.664062 11.644531 35.054688 8.84375 L 47.070312 8.84375 C 47.097656 8.554688 47.128906 7.972656 47.128906 7.574219 M 35.140625 6.371094 C 35.511719 4.492188 37.289062 2.660156 39.679688 2.660156 C 42.070312 2.660156 43.84375 4.492188 44.207031 6.371094 Z M 35.140625 6.371094 "/>
<path style=" stroke:none;fill-rule:nonzero;fill:rgb(54.509804%,74.117647%,2.352941%);fill-opacity:1;" d="M 23.800781 2.574219 C 21.089844 2.574219 19.710938 4.039062 19.710938 6.941406 L 19.710938 15.535156 L 16.933594 15.535156 L 16.933594 6.738281 C 16.960938 5.199219 17.230469 4.105469 17.855469 3.082031 C 18.589844 1.933594 20.335938 0 23.800781 0 C 27.25 0 29.003906 1.933594 29.738281 3.082031 C 30.355469 4.105469 30.632812 5.199219 30.652344 6.738281 L 30.652344 15.535156 L 27.875 15.535156 L 27.875 6.941406 C 27.875 4.039062 26.503906 2.574219 23.800781 2.574219 "/>
<path style=" stroke:none;fill-rule:nonzero;fill:rgb(54.509804%,74.117647%,2.352941%);fill-opacity:1;" d="M 61.585938 0.00390625 L 55.726562 14.449219 L 54.277344 18.023438 L 53.476562 20 L 50.585938 20 L 52.828125 14.453125 L 46.839844 0.00390625 L 49.894531 0.00390625 L 54.277344 10.867188 L 58.671875 0.00390625 Z M 61.585938 0.00390625 "/>
</g>
</svg>
