<?xml version="1.0" encoding="UTF-8"?>
<svg xmlns="http://www.w3.org/2000/svg" xmlns:xlink="http://www.w3.org/1999/xlink" width="73px" height="20px" viewBox="0 0 73 20" version="1.1">
<g id="surface1">
<path style=" stroke:none;fill-rule:nonzero;fill:rgb(49.411765%,52.941176%,54.509804%);fill-opacity:1;" d="M 10.355469 15.601562 C 10.1875 15.523438 10.1875 15.363281 10.171875 15.210938 C 10.113281 15.152344 10.0625 15.101562 10.03125 15.042969 C 10.449219 14.652344 10.960938 14.871094 11.417969 14.855469 C 12.367188 14.820312 13.300781 14.839844 14.242188 14.855469 C 14.914062 14.871094 15.335938 14.601562 15.503906 13.933594 C 15.046875 13.476562 14.503906 13.351562 13.863281 13.367188 C 12.132812 13.402344 10.417969 13.382812 8.683594 13.367188 C 8.390625 13.367188 7.996094 13.554688 7.859375 13.054688 C 7.566406 12.648438 6.640625 12.445312 7.421875 11.714844 C 7.609375 11.53125 7.785156 11.351562 7.96875 11.167969 C 7.988281 11.105469 8.027344 11.054688 8.046875 11.023438 C 8.15625 10.632812 8.464844 10.835938 8.667969 10.835938 C 10.550781 10.820312 12.410156 10.820312 14.285156 10.820312 C 15.03125 10.820312 15.484375 10.507812 15.527344 9.703125 C 14.890625 9.28125 14.15625 9.339844 13.425781 9.339844 C 11.914062 9.339844 10.398438 9.339844 8.886719 9.339844 C 8.589844 9.339844 8.265625 9.449219 8.027344 9.152344 C 8.027344 9.078125 8.027344 9.027344 8.046875 8.949219 C 7.808594 8.492188 7.3125 8.289062 6.96875 7.941406 C 7.09375 7.359375 7.296875 6.875 8.046875 6.953125 C 10.289062 6.953125 12.550781 6.933594 14.796875 6.933594 C 14.394531 6.621094 13.921875 6.792969 13.484375 6.792969 C 12.222656 6.773438 10.988281 6.773438 9.726562 6.699219 C 9.363281 6.699219 8.996094 6.699219 8.632812 6.699219 C 8.960938 6.679688 9.289062 6.679688 9.617188 6.679688 C 9.230469 6.664062 8.871094 6.621094 8.484375 6.570312 C 10.761719 6.570312 13.066406 6.570312 15.34375 6.570312 C 15.527344 5.726562 15.25 5.320312 14.394531 5.300781 C 13.039062 5.285156 11.695312 5.300781 10.339844 5.285156 C 10.324219 5.285156 10.265625 5.269531 10.265625 5.25 C 10.246094 5.191406 10.265625 5.140625 10.265625 5.109375 C 10.121094 4.667969 10.464844 4.449219 10.703125 4.210938 C 11.324219 3.601562 11.945312 3.015625 12.585938 2.410156 C 11.894531 1.730469 11.179688 1.070312 10.527344 0.335938 C 10.164062 -0.0703125 9.960938 0.00390625 9.632812 0.351562 C 8.683594 1.34375 7.71875 2.316406 6.734375 3.269531 C 4.503906 5.472656 2.261719 7.679688 0.0429688 9.878906 C 0.0429688 9.941406 0.0429688 10.007812 0.0429688 10.066406 C 0.226562 10.234375 0.402344 10.378906 0.570312 10.566406 C 3.503906 13.519531 6.464844 16.464844 9.363281 19.433594 C 9.96875 20.058594 10.316406 20 10.84375 19.417969 C 11.390625 18.808594 11.921875 18.164062 12.609375 17.722656 C 11.746094 17.089844 11.011719 16.378906 10.355469 15.601562 Z M 10.355469 15.601562 "/>
<path style=" stroke:none;fill-rule:nonzero;fill:rgb(49.411765%,53.333333%,54.901961%);fill-opacity:1;" d="M 71.949219 8.1875 C 71.074219 7.746094 69.796875 7.78125 69.097656 8.375 C 68.425781 8.941406 68.132812 10.285156 68.496094 11.257812 C 68.820312 12.121094 69.570312 12.511719 70.789062 12.511719 C 71.722656 12.511719 72.394531 12.070312 72.941406 11.371094 C 72.941406 11.242188 72.941406 11.132812 72.941406 11.003906 C 72.285156 11.039062 71.589844 10.75 71.042969 11.460938 C 70.824219 11.757812 70.292969 11.683594 70 11.292969 C 69.890625 11.148438 69.8125 10.980469 69.875 10.777344 C 69.933594 10.539062 70.152344 10.574219 70.308594 10.574219 C 71.183594 10.574219 72.058594 10.609375 72.957031 10.609375 C 72.957031 10.242188 72.957031 9.871094 72.957031 9.507812 C 72.628906 9.085938 72.519531 8.476562 71.949219 8.1875 Z M 70.585938 9.710938 C 70.335938 9.617188 69.875 9.878906 69.933594 9.363281 C 69.964844 9 70.261719 8.796875 70.648438 8.796875 C 71.035156 8.796875 71.335938 8.964844 71.335938 9.347656 C 71.320312 9.898438 70.839844 9.601562 70.585938 9.710938 Z M 70.585938 9.710938 "/>
<path style=" stroke:none;fill-rule:nonzero;fill:rgb(97.647059%,98.039216%,98.039216%);fill-opacity:1;" d="M 72.957031 10.996094 C 72.957031 10.871094 72.957031 10.761719 72.957031 10.632812 C 72.789062 10.761719 72.613281 10.800781 72.410156 10.820312 C 72.589844 10.84375 72.773438 10.902344 72.957031 10.996094 Z M 72.957031 10.996094 "/>
<path style=" stroke:none;fill-rule:nonzero;fill:rgb(97.647059%,98.039216%,98.039216%);fill-opacity:1;" d="M 71.371094 10.828125 C 71.058594 10.902344 70.695312 10.792969 70.34375 11.046875 C 70.65625 11.300781 70.890625 11.140625 71.125 11.015625 C 71.359375 10.902344 71.597656 10.828125 71.839844 10.792969 C 71.699219 10.792969 71.539062 10.792969 71.371094 10.828125 Z M 71.371094 10.828125 "/>
<path style=" stroke:none;fill-rule:nonzero;fill:rgb(97.647059%,98.039216%,98.039216%);fill-opacity:1;" d="M 71.839844 10.792969 C 72.023438 10.792969 72.226562 10.8125 72.402344 10.8125 C 72.226562 10.777344 72.042969 10.777344 71.839844 10.792969 Z M 71.839844 10.792969 "/>
<path style=" stroke:none;fill-rule:nonzero;fill:rgb(93.333333%,47.45098%,19.607843%);fill-opacity:1;" d="M 15.285156 0.199219 C 14.957031 -0.148438 14.847656 0.0117188 14.628906 0.257812 C 13.9375 0.996094 13.222656 1.6875 12.507812 2.410156 C 12.324219 3.210938 11.484375 3.457031 11.070312 4.058594 C 10.871094 4.371094 10.382812 4.5 10.558594 5.015625 C 11.695312 5.109375 12.820312 5.03125 13.929688 5.046875 C 13.988281 5.046875 14.039062 5.046875 14.117188 5.046875 C 14.300781 5.046875 14.476562 5.03125 14.644531 5.03125 C 15.394531 4.996094 15.484375 5.75 16 5.988281 C 15.890625 6.503906 15.703125 6.925781 15.082031 6.925781 C 14.972656 6.925781 14.863281 6.945312 14.753906 6.945312 L 14.753906 6.960938 C 14.503906 7.238281 14.148438 7.238281 13.820312 7.238281 C 12.011719 7.238281 10.207031 7.300781 8.398438 7.207031 C 8.164062 7.128906 7.925781 7.113281 7.742188 7.171875 C 7.574219 7.316406 7.414062 7.484375 7.246094 7.628906 C 7.230469 7.6875 7.214844 7.757812 7.1875 7.832031 C 7.464844 8.253906 7.9375 8.492188 8.214844 8.933594 C 8.230469 8.949219 8.246094 8.964844 8.273438 8.964844 C 8.304688 8.964844 8.332031 8.964844 8.363281 8.964844 C 8.675781 8.671875 9.054688 8.824219 9.40625 8.824219 C 10.996094 8.804688 12.601562 8.804688 14.191406 8.824219 C 14.503906 8.824219 14.863281 8.679688 15.109375 9.042969 C 15.109375 9.101562 15.089844 9.136719 15.089844 9.1875 C 15.214844 9.3125 15.34375 9.441406 15.476562 9.59375 C 15.664062 9.738281 16.097656 9.871094 15.820312 10.160156 C 15.496094 10.546875 15.214844 11.054688 14.542969 11.039062 C 14.453125 11.054688 14.34375 11.054688 14.234375 11.054688 C 12.484375 11.089844 10.726562 11.074219 8.976562 11.074219 C 8.761719 11.074219 8.558594 11.054688 8.339844 11.089844 C 8.28125 11.105469 8.246094 11.148438 8.195312 11.167969 C 10.441406 11.167969 12.6875 11.167969 14.914062 11.167969 C 14.914062 11.242188 14.914062 11.292969 14.914062 11.371094 C 13.257812 11.371094 11.59375 11.371094 9.9375 11.371094 C 9.222656 11.371094 8.5 11.335938 7.816406 11.554688 C 7.726562 11.664062 7.632812 11.757812 7.539062 11.867188 C 7.214844 12.496094 7.683594 12.699219 8.035156 12.96875 C 8.144531 12.859375 8.3125 12.84375 8.472656 12.84375 C 10.5 12.84375 12.527344 12.84375 14.550781 12.84375 C 14.789062 12.84375 15.046875 12.824219 15.117188 13.15625 C 15.394531 13.390625 15.695312 13.578125 15.832031 13.941406 C 15.957031 14.550781 15.484375 14.746094 15.140625 15.058594 C 15.140625 15.117188 15.125 15.152344 15.125 15.203125 C 14.847656 15.566406 14.46875 15.390625 14.125 15.40625 C 12.9375 15.480469 11.734375 15.261719 10.566406 15.550781 C 10.585938 15.566406 10.601562 15.582031 10.625 15.609375 C 11.230469 16.363281 12.121094 16.835938 12.578125 17.722656 C 13.234375 18.367188 13.886719 18.992188 14.511719 19.671875 C 14.871094 20.078125 15.074219 20.128906 15.496094 19.703125 C 18.503906 16.640625 21.53125 13.585938 24.582031 10.558594 C 25.035156 10.101562 24.945312 9.878906 24.550781 9.472656 C 21.4375 6.386719 18.351562 3.320312 15.285156 0.199219 Z M 15.285156 0.199219 "/>
<path style=" stroke:none;fill-rule:nonzero;fill:rgb(93.333333%,47.45098%,19.607843%);fill-opacity:1;" d="M 10.214844 5.097656 C 11.527344 5.082031 12.820312 5.097656 14.140625 5.039062 C 14.082031 5.039062 14.03125 5.039062 13.957031 5.039062 C 12.820312 5.007812 11.710938 5.097656 10.585938 5.007812 C 10.398438 4.488281 10.894531 4.363281 11.097656 4.050781 C 11.5 3.421875 12.359375 3.203125 12.535156 2.398438 C 11.914062 3.007812 11.273438 3.59375 10.652344 4.203125 C 10.398438 4.4375 10.070312 4.660156 10.214844 5.097656 Z M 10.214844 5.097656 "/>
<path style=" stroke:none;fill-rule:nonzero;fill:rgb(93.333333%,47.45098%,19.607843%);fill-opacity:1;" d="M 14.753906 6.933594 C 12.507812 6.933594 10.246094 6.953125 8.003906 6.953125 C 7.925781 7.027344 7.859375 7.097656 7.785156 7.15625 C 7.96875 7.121094 8.203125 7.136719 8.441406 7.1875 C 10.246094 7.28125 12.054688 7.222656 13.863281 7.222656 C 14.191406 7.222656 14.535156 7.222656 14.796875 6.945312 L 14.796875 6.925781 C 14.769531 6.933594 14.753906 6.933594 14.753906 6.933594 Z M 14.753906 6.933594 "/>
<path style=" stroke:none;fill-rule:nonzero;fill:rgb(93.333333%,47.45098%,19.607843%);fill-opacity:1;" d="M 7.40625 11.707031 C 6.609375 12.460938 7.550781 12.664062 7.828125 13.070312 C 7.886719 13.054688 7.9375 13.035156 7.996094 13.035156 C 8.011719 13.019531 8.027344 13.003906 8.054688 12.976562 C 7.707031 12.699219 7.230469 12.476562 7.558594 11.878906 C 7.648438 11.765625 7.742188 11.675781 7.835938 11.5625 C 7.691406 11.582031 7.550781 11.640625 7.40625 11.707031 Z M 7.40625 11.707031 "/>
<path style=" stroke:none;fill-rule:nonzero;fill:rgb(93.333333%,47.45098%,19.607843%);fill-opacity:1;" d="M 10.59375 15.601562 C 10.574219 15.582031 10.558594 15.566406 10.535156 15.542969 C 10.476562 15.558594 10.40625 15.574219 10.347656 15.601562 C 11.003906 16.371094 11.734375 17.089844 12.535156 17.734375 C 12.089844 16.835938 11.199219 16.355469 10.59375 15.601562 Z M 10.59375 15.601562 "/>
<path style=" stroke:none;fill-rule:nonzero;fill:rgb(93.333333%,47.45098%,19.607843%);fill-opacity:1;" d="M 11.105469 11.015625 C 10.078125 11.015625 9.046875 11.015625 8.019531 10.996094 C 8.003906 11.054688 7.960938 11.089844 7.945312 11.140625 C 8.035156 11.140625 8.113281 11.140625 8.195312 11.140625 C 8.230469 11.105469 8.289062 11.082031 8.339844 11.066406 C 8.542969 11.046875 8.761719 11.046875 8.976562 11.046875 C 10.726562 11.046875 12.484375 11.082031 14.234375 11.03125 C 14.34375 11.03125 14.453125 11.015625 14.542969 11.015625 C 14.542969 11.015625 14.542969 11.015625 14.527344 11.015625 C 13.410156 10.996094 12.257812 11.015625 11.105469 11.015625 Z M 11.105469 11.015625 "/>
<path style=" stroke:none;fill-rule:nonzero;fill:rgb(93.333333%,47.45098%,19.607843%);fill-opacity:1;" d="M 6.925781 7.949219 C 7.273438 8.296875 7.769531 8.5 8.003906 8.957031 C 8.09375 8.957031 8.1875 8.957031 8.28125 8.957031 C 8.265625 8.941406 8.246094 8.941406 8.222656 8.925781 C 7.945312 8.5 7.472656 8.265625 7.195312 7.824219 C 7.214844 7.746094 7.230469 7.679688 7.253906 7.621094 C 7.171875 7.722656 7.054688 7.839844 6.925781 7.949219 Z M 6.925781 7.949219 "/>
<path style=" stroke:none;fill-rule:nonzero;fill:rgb(49.411765%,53.333333%,54.901961%);fill-opacity:1;" d="M 57.707031 7.890625 C 56.226562 7.875 55.152344 8.773438 55.117188 10.117188 C 55.058594 11.605469 55.957031 12.488281 57.582031 12.503906 C 59.222656 12.539062 60.171875 11.714844 60.1875 10.277344 C 60.203125 8.789062 59.289062 7.910156 57.707031 7.890625 Z M 58.304688 11.125 C 58.160156 11.453125 57.882812 11.65625 57.503906 11.546875 C 57.085938 11.421875 56.882812 11.105469 56.882812 10.648438 C 56.882812 10.507812 56.882812 10.335938 56.882812 10.023438 C 56.882812 9.898438 56.851562 9.585938 57.027344 9.304688 C 57.136719 9.160156 57.261719 9.007812 57.414062 8.941406 C 57.722656 8.773438 58.035156 8.863281 58.210938 9.128906 C 58.648438 9.761719 58.597656 10.464844 58.304688 11.125 Z M 58.304688 11.125 "/>
<path style=" stroke:none;fill-rule:nonzero;fill:rgb(49.411765%,53.333333%,54.901961%);fill-opacity:1;" d="M 36.429688 9.636719 C 36.351562 8.273438 35.335938 7.613281 34.074219 8.113281 C 33.746094 8.238281 33.578125 8.441406 33.109375 8.128906 C 32.34375 7.628906 31.738281 8.128906 31.738281 9.085938 C 31.738281 9.449219 31.738281 9.820312 31.738281 10.183594 C 31.738281 10.769531 31.738281 11.34375 31.738281 11.929688 C 31.738281 12.664062 32.285156 12.386719 32.671875 12.445312 C 33.058594 12.476562 33.402344 12.476562 33.386719 11.910156 C 33.351562 11.34375 33.386719 10.75 33.386719 10.167969 C 33.386719 9.617188 33.445312 9.027344 34.132812 9.050781 C 34.789062 9.050781 34.804688 9.636719 34.804688 10.132812 C 34.804688 10.71875 34.824219 11.292969 34.804688 11.878906 C 34.773438 12.664062 35.335938 12.410156 35.757812 12.460938 C 36.191406 12.519531 36.519531 12.445312 36.488281 11.851562 C 36.410156 11.105469 36.46875 10.371094 36.429688 9.636719 Z M 36.429688 9.636719 "/>
<path style=" stroke:none;fill-rule:nonzero;fill:rgb(49.411765%,53.333333%,54.901961%);fill-opacity:1;" d="M 43.238281 10.625 C 43.84375 10.589844 44.457031 10.566406 45.0625 10.589844 C 45.644531 10.609375 45.792969 10.335938 45.71875 9.804688 C 45.535156 8.519531 44.582031 7.78125 43.179688 7.890625 C 41.757812 8 41.078125 8.898438 41.152344 10.574219 C 41.210938 11.859375 41.976562 12.503906 43.433594 12.488281 C 44.289062 12.488281 45.054688 12.285156 45.535156 11.480469 C 45.625 11.335938 45.828125 11.003906 45.457031 11.003906 C 44.988281 11.003906 44.414062 10.710938 44.039062 11.285156 C 43.835938 11.582031 43.542969 11.632812 43.238281 11.582031 C 42.851562 11.523438 42.617188 11.269531 42.617188 10.902344 C 42.617188 10.464844 43.019531 10.648438 43.238281 10.625 Z M 43.398438 8.789062 C 43.785156 8.789062 44.070312 9.007812 44.085938 9.371094 C 44.105469 9.890625 43.652344 9.59375 43.398438 9.703125 C 43.164062 9.59375 42.707031 9.90625 42.707031 9.390625 C 42.726562 9.050781 43.019531 8.789062 43.398438 8.789062 Z M 43.398438 8.789062 "/>
<path style=" stroke:none;fill-rule:nonzero;fill:rgb(49.411765%,53.333333%,54.901961%);fill-opacity:1;" d="M 53.511719 9.855469 C 53.308594 9.796875 53.109375 9.726562 52.90625 9.652344 C 52.738281 9.617188 52.5625 9.558594 52.394531 9.523438 C 52.140625 9.492188 51.921875 9.414062 51.882812 9.117188 C 51.863281 8.949219 51.992188 8.839844 52.132812 8.804688 C 52.410156 8.730469 52.664062 8.746094 52.824219 9.042969 C 52.914062 9.1875 53.023438 9.339844 53.117188 9.484375 C 53.242188 9.484375 53.371094 9.484375 53.480469 9.464844 C 53.773438 9.390625 54.226562 9.6875 54.320312 9.210938 C 54.394531 8.847656 54.117188 8.519531 53.847656 8.273438 C 53.226562 7.757812 51.898438 7.757812 51.074219 8.238281 C 50.601562 8.519531 50.386719 8.914062 50.417969 9.449219 C 50.453125 9.964844 50.78125 10.277344 51.257812 10.421875 C 51.664062 10.546875 52.058594 10.675781 52.476562 10.785156 C 52.695312 10.84375 52.898438 10.914062 52.898438 11.191406 C 52.898438 11.359375 52.824219 11.488281 52.664062 11.539062 C 52.445312 11.613281 52.242188 11.613281 52.058594 11.445312 C 51.964844 11.371094 51.933594 11.226562 51.839844 11.148438 C 51.402344 10.800781 50.90625 11.023438 50.453125 11.039062 C 50.285156 11.039062 50.199219 11.207031 50.234375 11.371094 C 50.324219 11.828125 50.578125 12.140625 51 12.324219 C 51.871094 12.714844 52.765625 12.714844 53.648438 12.324219 C 54.191406 12.089844 54.488281 11.605469 54.472656 11.003906 C 54.453125 10.40625 54.125 10.007812 53.511719 9.855469 Z M 53.511719 9.855469 "/>
<path style=" stroke:none;fill-rule:nonzero;fill:rgb(49.411765%,53.333333%,54.901961%);fill-opacity:1;" d="M 66.132812 9.304688 C 65.988281 9.777344 65.835938 10.277344 65.679688 10.75 C 65.617188 10.75 65.570312 10.734375 65.492188 10.734375 C 65.324219 10.183594 65.089844 9.636719 65.039062 9.066406 C 64.929688 8.019531 64.257812 8.019531 63.492188 8.078125 C 63.089844 8.113281 63.019531 8.265625 63.148438 8.59375 C 63.601562 9.753906 64.0625 10.929688 64.515625 12.082031 C 64.734375 12.648438 65.230469 12.410156 65.628906 12.425781 C 65.957031 12.445312 66.375 12.570312 66.5625 12.082031 C 67.03125 10.777344 67.527344 9.472656 68.023438 8.152344 C 66.535156 7.984375 66.535156 7.984375 66.132812 9.304688 Z M 66.132812 9.304688 "/>
<path style=" stroke:none;fill-rule:nonzero;fill:rgb(49.803922%,53.333333%,54.901961%);fill-opacity:1;" d="M 40.320312 8.113281 C 39.261719 8.238281 39.445312 7.503906 39.480469 6.699219 C 38.917969 7.15625 38.21875 7.011719 37.96875 7.621094 C 37.839844 7.917969 37.78125 8.09375 37.453125 8.078125 C 37.050781 8.0625 37.050781 8.355469 37.050781 8.628906 C 37.050781 8.925781 37.066406 9.195312 37.472656 9.179688 C 37.910156 9.160156 37.96875 9.414062 37.941406 9.761719 C 37.925781 10.074219 37.957031 10.371094 37.941406 10.683594 C 37.816406 12.578125 38.613281 12.503906 39.96875 12.503906 C 40.277344 12.503906 40.496094 12.410156 40.480469 12.046875 C 40.464844 11.75 40.574219 11.460938 40.078125 11.386719 C 39.050781 11.242188 39.566406 10.394531 39.457031 9.863281 C 39.347656 9.332031 39.671875 9.167969 40.144531 9.21875 C 40.457031 9.253906 40.597656 9.128906 40.546875 8.796875 C 40.496094 8.535156 40.734375 8.0625 40.320312 8.113281 Z M 40.320312 8.113281 "/>
<path style=" stroke:none;fill-rule:nonzero;fill:rgb(50.196078%,53.72549%,55.294118%);fill-opacity:1;" d="M 62.464844 5.648438 C 61.886719 5.980469 60.96875 5.777344 60.917969 6.589844 C 60.808594 8.390625 60.886719 10.183594 60.902344 11.988281 C 60.902344 12.742188 61.523438 12.375 61.871094 12.425781 C 62.214844 12.488281 62.492188 12.445312 62.492188 11.910156 C 62.449219 9.871094 62.464844 7.816406 62.464844 5.648438 Z M 62.464844 5.648438 "/>
<path style=" stroke:none;fill-rule:nonzero;fill:rgb(49.411765%,53.333333%,54.901961%);fill-opacity:1;" d="M 49.585938 8.113281 C 49.351562 7.941406 49.054688 8.035156 48.820312 8.203125 C 48.621094 8.332031 48.460938 8.5 48.214844 8.703125 C 48.015625 8.121094 47.761719 8.027344 47.046875 8.078125 C 46.5 8.113281 46.625 8.46875 46.625 8.773438 C 46.625 9.804688 46.625 10.84375 46.625 11.878906 C 46.625 12.082031 46.550781 12.300781 46.828125 12.410156 C 47.542969 12.742188 48.234375 12.316406 48.214844 11.53125 C 48.214844 11.21875 48.199219 10.921875 48.214844 10.609375 C 48.25 9.964844 48.511719 9.492188 49.242188 9.464844 C 49.476562 9.464844 49.769531 9.449219 49.769531 9.117188 C 49.746094 8.773438 49.949219 8.347656 49.585938 8.113281 Z M 49.585938 8.113281 "/>
<path style=" stroke:none;fill-rule:nonzero;fill:rgb(49.803922%,53.333333%,54.901961%);fill-opacity:1;" d="M 30.628906 8.535156 C 30.628906 8.171875 30.460938 8.09375 30.132812 8.0625 C 29.054688 7.96875 28.980469 8.027344 28.980469 9.066406 C 28.980469 9.433594 28.980469 9.804688 28.980469 10.167969 C 28.980469 10.75 28.996094 11.328125 28.980469 11.910156 C 28.960938 12.589844 29.449219 12.425781 29.804688 12.425781 C 30.148438 12.425781 30.644531 12.628906 30.644531 11.929688 C 30.609375 10.8125 30.609375 9.675781 30.628906 8.535156 Z M 30.628906 8.535156 "/>
<path style=" stroke:none;fill-rule:nonzero;fill:rgb(50.588235%,54.509804%,56.078431%);fill-opacity:1;" d="M 29.8125 5.300781 C 29.230469 5.320312 28.84375 5.667969 28.84375 6.292969 C 28.84375 6.917969 29.300781 7.171875 29.8125 7.230469 C 30.433594 7.171875 30.777344 6.824219 30.761719 6.277344 C 30.753906 5.707031 30.425781 5.285156 29.8125 5.300781 Z M 29.8125 5.300781 "/>
<path style=" stroke:none;fill-rule:nonzero;fill:rgb(94.901961%,94.901961%,94.901961%);fill-opacity:1;" d="M 52.90625 9.675781 C 52.984375 9.617188 53.050781 9.566406 53.109375 9.507812 C 52.816406 9.472656 52.671875 9.179688 52.328125 9.117188 C 52.453125 9.414062 52.832031 9.398438 52.90625 9.675781 Z M 52.90625 9.675781 "/>
<path style=" stroke:none;fill-rule:nonzero;fill:rgb(94.901961%,94.901961%,94.901961%);fill-opacity:1;" d="M 52.125 8.8125 C 51.980469 8.847656 51.847656 8.957031 51.871094 9.128906 C 51.90625 9.421875 52.148438 9.492188 52.386719 9.535156 C 52.570312 9.566406 52.730469 9.625 52.898438 9.660156 C 52.824219 9.382812 52.445312 9.421875 52.320312 9.109375 C 52.664062 9.167969 52.832031 9.457031 53.101562 9.5 C 53.007812 9.355469 52.898438 9.203125 52.804688 9.058594 C 52.65625 8.753906 52.394531 8.738281 52.125 8.8125 Z M 52.125 8.8125 "/>
<path style=" stroke:none;fill-rule:nonzero;fill:rgb(46.27451%,53.333333%,56.862745%);fill-opacity:1;" d="M 11.527344 10.902344 C 12.507812 10.871094 13.519531 10.921875 14.519531 10.886719 C 15.234375 10.871094 15.613281 10.414062 15.5625 9.675781 C 15.542969 9.660156 15.527344 9.644531 15.484375 9.617188 C 15.484375 9.636719 15.484375 9.652344 15.484375 9.675781 C 15.453125 10.464844 15.015625 10.792969 14.242188 10.792969 C 12.359375 10.792969 10.5 10.777344 8.625 10.8125 C 8.421875 10.8125 8.113281 10.609375 8.003906 10.996094 C 9.1875 10.777344 10.355469 10.9375 11.527344 10.902344 Z M 11.527344 10.902344 "/>
<path style=" stroke:none;fill-rule:nonzero;fill:rgb(46.27451%,53.333333%,56.862745%);fill-opacity:1;" d="M 15.5625 9.675781 C 15.621094 10.507812 15.324219 10.929688 14.578125 11.039062 C 15.234375 11.054688 15.527344 10.539062 15.855469 10.160156 C 16.132812 9.847656 15.6875 9.738281 15.511719 9.59375 L 15.511719 9.609375 C 15.503906 9.617188 15.519531 9.636719 15.5625 9.675781 Z M 15.5625 9.675781 "/>
<path style=" stroke:none;fill-rule:nonzero;fill:rgb(46.27451%,53.333333%,56.862745%);fill-opacity:1;" d="M 15.5625 9.675781 C 15.542969 9.644531 15.503906 9.617188 15.484375 9.601562 C 15.484375 9.617188 15.484375 9.636719 15.484375 9.660156 C 15.503906 9.675781 15.542969 9.695312 15.5625 9.71875 C 15.621094 10.4375 15.234375 10.914062 14.519531 10.929688 C 13.519531 10.945312 12.527344 10.914062 11.527344 10.945312 C 10.355469 10.980469 9.1875 10.820312 8.019531 11.039062 C 9.046875 11.039062 10.078125 11.054688 11.105469 11.054688 C 12.257812 11.054688 13.402344 11.023438 14.550781 11.054688 C 14.550781 11.054688 14.550781 11.054688 14.570312 11.054688 C 15.324219 10.921875 15.613281 10.480469 15.5625 9.675781 Z M 15.5625 9.675781 "/>
<path style=" stroke:none;fill-rule:nonzero;fill:rgb(43.137255%,53.72549%,59.607843%);fill-opacity:1;" d="M 15.082031 13.351562 C 15.007812 13.273438 14.914062 13.222656 14.847656 13.148438 C 14.738281 13.148438 14.628906 13.148438 14.519531 13.148438 C 14.722656 13.199219 14.921875 13.257812 15.082031 13.351562 Z M 15.082031 13.351562 "/>
<path style=" stroke:none;fill-rule:nonzero;fill:rgb(43.137255%,53.72549%,59.607843%);fill-opacity:1;" d="M 15.5625 13.933594 C 15.578125 13.933594 15.59375 13.933594 15.621094 13.933594 C 15.585938 13.875 15.542969 13.839844 15.511719 13.789062 C 15.527344 13.824219 15.542969 13.847656 15.570312 13.882812 C 15.5625 13.898438 15.5625 13.917969 15.5625 13.933594 Z M 15.5625 13.933594 "/>
<path style=" stroke:none;fill-rule:nonzero;fill:rgb(43.137255%,53.72549%,59.607843%);fill-opacity:1;" d="M 15.5625 13.875 C 15.542969 13.839844 15.527344 13.816406 15.503906 13.78125 C 15.375 13.613281 15.226562 13.46875 15.066406 13.339844 C 14.898438 13.25 14.703125 13.171875 14.503906 13.15625 C 12.476562 13.171875 10.433594 13.171875 8.390625 13.1875 C 8.296875 13.1875 8.1875 13.15625 8.09375 13.097656 C 8.003906 13.097656 7.894531 13.078125 7.800781 13.035156 C 7.925781 13.535156 8.332031 13.351562 8.625 13.351562 C 10.355469 13.367188 12.074219 13.382812 13.804688 13.351562 C 14.441406 13.332031 14.988281 13.460938 15.445312 13.917969 C 15.460938 13.917969 15.503906 13.917969 15.519531 13.917969 C 15.5625 13.917969 15.5625 13.898438 15.5625 13.875 Z M 15.5625 13.875 "/>
<path style=" stroke:none;fill-rule:nonzero;fill:rgb(43.137255%,53.72549%,59.607843%);fill-opacity:1;" d="M 14.957031 13.164062 C 14.921875 13.164062 14.878906 13.164062 14.828125 13.164062 C 14.921875 13.222656 15 13.289062 15.066406 13.367188 C 15.234375 13.460938 15.375 13.605469 15.503906 13.808594 C 15.535156 13.839844 15.578125 13.898438 15.613281 13.949219 C 15.6875 13.949219 15.753906 13.949219 15.8125 13.949219 C 15.6875 13.605469 15.375 13.402344 15.097656 13.164062 L 15.023438 13.179688 Z M 14.957031 13.164062 "/>
<path style=" stroke:none;fill-rule:nonzero;fill:rgb(43.137255%,53.72549%,59.607843%);fill-opacity:1;" d="M 15.519531 13.789062 C 15.394531 13.585938 15.242188 13.441406 15.082031 13.351562 C 15.25 13.492188 15.394531 13.621094 15.519531 13.789062 Z M 15.519531 13.789062 "/>
<path style=" stroke:none;fill-rule:nonzero;fill:rgb(43.137255%,53.72549%,59.607843%);fill-opacity:1;" d="M 7.988281 13.054688 L 7.988281 13.019531 C 7.925781 13.019531 7.878906 13.035156 7.816406 13.054688 C 7.910156 13.085938 8.003906 13.113281 8.113281 13.113281 C 8.078125 13.085938 8.046875 13.070312 7.988281 13.054688 Z M 7.988281 13.054688 "/>
<path style=" stroke:none;fill-rule:nonzero;fill:rgb(44.705882%,53.72549%,58.431373%);fill-opacity:1;" d="M 15.671875 6.277344 C 15.6875 6.183594 15.671875 6.074219 15.636719 5.945312 C 15.601562 5.871094 15.5625 5.820312 15.527344 5.757812 C 15.601562 5.996094 15.527344 6.257812 15.308594 6.5625 C 15.308594 6.5625 15.308594 6.5625 15.324219 6.5625 C 15.433594 6.480469 15.5625 6.386719 15.671875 6.277344 Z M 15.671875 6.277344 "/>
<path style=" stroke:none;fill-rule:nonzero;fill:rgb(44.705882%,53.72549%,58.431373%);fill-opacity:1;" d="M 15.519531 5.757812 C 15.191406 5.320312 14.753906 5.175781 14.148438 5.175781 C 12.835938 5.191406 11.527344 5.320312 10.207031 5.097656 C 10.207031 5.160156 10.207031 5.210938 10.207031 5.242188 C 10.207031 5.261719 10.265625 5.277344 10.28125 5.277344 C 11.636719 5.277344 12.980469 5.261719 14.332031 5.292969 C 15.191406 5.3125 15.484375 5.71875 15.285156 6.5625 C 15.519531 6.257812 15.59375 5.996094 15.519531 5.757812 Z M 15.519531 5.757812 "/>
<path style=" stroke:none;fill-rule:nonzero;fill:rgb(44.705882%,53.72549%,58.431373%);fill-opacity:1;" d="M 15.519531 5.757812 C 15.554688 5.820312 15.59375 5.871094 15.628906 5.945312 C 15.664062 6.074219 15.664062 6.183594 15.664062 6.277344 C 15.773438 6.183594 15.898438 6.074219 16.007812 5.980469 C 15.511719 5.742188 15.402344 4.988281 14.652344 5.023438 C 14.46875 5.023438 14.292969 5.039062 14.125 5.039062 C 14.433594 5.039062 14.730469 5.074219 15.015625 5.226562 C 15.285156 5.394531 15.46875 5.582031 15.519531 5.757812 Z M 15.519531 5.757812 "/>
<path style=" stroke:none;fill-rule:nonzero;fill:rgb(44.705882%,53.72549%,58.431373%);fill-opacity:1;" d="M 14.15625 5.191406 C 14.761719 5.191406 15.214844 5.320312 15.527344 5.777344 C 15.46875 5.574219 15.292969 5.414062 15.015625 5.242188 C 14.738281 5.074219 14.433594 5.058594 14.125 5.058594 C 12.8125 5.089844 11.515625 5.089844 10.199219 5.117188 C 11.527344 5.320312 12.835938 5.210938 14.15625 5.191406 Z M 14.15625 5.191406 "/>
<path style=" stroke:none;fill-rule:nonzero;fill:rgb(43.137255%,53.72549%,59.607843%);fill-opacity:1;" d="M 14.972656 9.230469 C 14.957031 9.210938 14.914062 9.167969 14.878906 9.152344 C 14.847656 9.152344 14.789062 9.152344 14.753906 9.152344 C 14.828125 9.195312 14.90625 9.210938 14.972656 9.230469 Z M 14.972656 9.230469 "/>
<path style=" stroke:none;fill-rule:nonzero;fill:rgb(43.137255%,53.72549%,59.607843%);fill-opacity:1;" d="M 15.433594 9.617188 C 15.265625 9.507812 15.109375 9.414062 14.980469 9.253906 C 14.980469 9.253906 14.980469 9.253906 14.964844 9.253906 C 14.890625 9.21875 14.820312 9.195312 14.746094 9.179688 C 12.5 9.179688 10.257812 9.179688 7.996094 9.160156 C 8.230469 9.441406 8.558594 9.347656 8.851562 9.347656 C 10.367188 9.347656 11.878906 9.347656 13.390625 9.347656 C 14.105469 9.347656 14.828125 9.289062 15.496094 9.710938 C 15.433594 9.675781 15.410156 9.636719 15.433594 9.617188 Z M 15.433594 9.617188 "/>
<path style=" stroke:none;fill-rule:nonzero;fill:rgb(43.137255%,53.72549%,59.607843%);fill-opacity:1;" d="M 14.972656 9.230469 C 15.15625 9.304688 15.316406 9.414062 15.46875 9.558594 C 15.46875 9.558594 15.46875 9.558594 15.484375 9.558594 C 15.359375 9.433594 15.234375 9.304688 15.097656 9.152344 C 15.023438 9.152344 14.957031 9.152344 14.878906 9.152344 C 14.921875 9.195312 14.9375 9.210938 14.972656 9.230469 Z M 14.972656 9.230469 "/>
<path style=" stroke:none;fill-rule:nonzero;fill:rgb(43.137255%,53.72549%,59.607843%);fill-opacity:1;" d="M 15.433594 9.601562 C 15.453125 9.585938 15.453125 9.566406 15.46875 9.566406 C 15.324219 9.421875 15.15625 9.3125 14.972656 9.238281 C 14.972656 9.238281 14.972656 9.238281 14.988281 9.238281 C 15.097656 9.414062 15.265625 9.507812 15.433594 9.601562 Z M 15.433594 9.601562 "/>
<path style=" stroke:none;fill-rule:nonzero;fill:rgb(43.137255%,53.72549%,59.607843%);fill-opacity:1;" d="M 15.484375 9.636719 C 15.46875 9.617188 15.453125 9.617188 15.453125 9.601562 C 15.433594 9.636719 15.453125 9.660156 15.511719 9.695312 C 15.484375 9.675781 15.484375 9.652344 15.484375 9.636719 Z M 15.484375 9.636719 "/>
<path style=" stroke:none;fill-rule:nonzero;fill:rgb(43.137255%,53.72549%,59.607843%);fill-opacity:1;" d="M 15.484375 9.585938 L 15.484375 9.566406 C 15.46875 9.558594 15.46875 9.558594 15.484375 9.585938 C 15.46875 9.585938 15.46875 9.585938 15.484375 9.585938 Z M 15.484375 9.585938 "/>
<path style=" stroke:none;fill-rule:nonzero;fill:rgb(43.137255%,53.72549%,59.607843%);fill-opacity:1;" d="M 15.433594 9.601562 C 15.453125 9.617188 15.46875 9.617188 15.46875 9.636719 C 15.46875 9.617188 15.46875 9.601562 15.46875 9.574219 L 15.453125 9.558594 C 15.453125 9.585938 15.453125 9.585938 15.433594 9.601562 Z M 15.433594 9.601562 "/>
<path style=" stroke:none;fill-rule:nonzero;fill:rgb(93.72549%,47.058824%,18.823529%);fill-opacity:1;" d="M 8.515625 11.285156 C 8.390625 11.285156 8.238281 11.285156 8.113281 11.226562 C 8.054688 11.285156 8.003906 11.335938 7.945312 11.394531 C 8.136719 11.34375 8.3125 11.308594 8.515625 11.285156 Z M 8.515625 11.285156 "/>
<path style=" stroke:none;fill-rule:nonzero;fill:rgb(93.72549%,47.058824%,18.823529%);fill-opacity:1;" d="M 14.6875 11.269531 C 12.785156 11.269531 10.894531 11.269531 9.011719 11.25 C 8.976562 11.25 8.9375 11.25 8.886719 11.25 C 8.960938 11.25 9.027344 11.25 9.105469 11.25 C 10.960938 11.285156 12.820312 11.269531 14.6875 11.269531 Z M 14.6875 11.269531 "/>
<path style=" stroke:none;fill-rule:nonzero;fill:rgb(93.72549%,47.058824%,18.823529%);fill-opacity:1;" d="M 8.113281 11.234375 C 8.054688 11.21875 8.003906 11.199219 7.945312 11.15625 C 7.757812 11.34375 7.582031 11.523438 7.398438 11.707031 C 7.582031 11.5625 7.757812 11.472656 7.945312 11.410156 C 8.003906 11.34375 8.0625 11.285156 8.113281 11.234375 Z M 8.113281 11.234375 "/>
<path style=" stroke:none;fill-rule:nonzero;fill:rgb(93.72549%,47.058824%,18.823529%);fill-opacity:1;" d="M 8.113281 11.234375 C 8.238281 11.269531 8.363281 11.292969 8.515625 11.292969 C 8.640625 11.277344 8.769531 11.277344 8.902344 11.277344 C 8.9375 11.277344 8.996094 11.277344 9.027344 11.277344 C 10.929688 11.292969 12.820312 11.277344 14.703125 11.292969 C 12.847656 11.292969 10.980469 11.308594 9.121094 11.292969 C 9.046875 11.292969 8.976562 11.292969 8.902344 11.292969 C 8.777344 11.292969 8.652344 11.308594 8.515625 11.308594 C 8.332031 11.328125 8.128906 11.371094 7.96875 11.4375 C 7.9375 11.472656 7.894531 11.53125 7.84375 11.5625 C 8.53125 11.34375 9.246094 11.378906 9.960938 11.378906 C 11.617188 11.394531 13.28125 11.378906 14.9375 11.378906 C 14.9375 11.300781 14.9375 11.25 14.9375 11.175781 C 12.695312 11.175781 10.449219 11.175781 8.222656 11.175781 C 8.203125 11.191406 8.164062 11.207031 8.144531 11.234375 C 8.136719 11.21875 8.113281 11.234375 8.113281 11.234375 Z M 8.113281 11.234375 "/>
<path style=" stroke:none;fill-rule:nonzero;fill:rgb(93.72549%,47.058824%,18.823529%);fill-opacity:1;" d="M 8.515625 11.285156 C 8.640625 11.285156 8.769531 11.269531 8.902344 11.269531 C 8.75 11.269531 8.625 11.269531 8.515625 11.285156 Z M 8.515625 11.285156 "/>
<path style=" stroke:none;fill-rule:nonzero;fill:rgb(93.72549%,47.058824%,18.823529%);fill-opacity:1;" d="M 8.113281 11.234375 L 8.128906 11.21875 C 8.144531 11.199219 8.1875 11.183594 8.203125 11.15625 C 8.113281 11.15625 8.035156 11.15625 7.953125 11.15625 C 8.003906 11.199219 8.0625 11.21875 8.113281 11.234375 Z M 8.113281 11.234375 "/>
<path style=" stroke:none;fill-rule:nonzero;fill:rgb(93.72549%,47.058824%,18.823529%);fill-opacity:1;" d="M 7.40625 11.707031 C 7.550781 11.632812 7.699219 11.582031 7.84375 11.539062 C 7.878906 11.503906 7.917969 11.445312 7.96875 11.410156 C 7.769531 11.472656 7.582031 11.5625 7.40625 11.707031 Z M 7.40625 11.707031 "/>
<path style=" stroke:none;fill-rule:nonzero;fill:rgb(43.529412%,53.72549%,59.215686%);fill-opacity:1;" d="M 15.34375 14.652344 C 15.527344 14.484375 15.671875 14.304688 15.652344 14.007812 C 15.621094 14.007812 15.59375 13.992188 15.5625 13.976562 C 15.519531 14.261719 15.453125 14.484375 15.34375 14.652344 Z M 15.34375 14.652344 "/>
<path style=" stroke:none;fill-rule:nonzero;fill:rgb(43.529412%,53.72549%,59.215686%);fill-opacity:1;" d="M 14.878906 15.050781 C 14.898438 15.035156 14.914062 15.035156 14.9375 15.015625 C 14.957031 14.984375 15 14.957031 15.015625 14.921875 C 14.921875 14.984375 14.796875 15.015625 14.671875 15.035156 C 14.738281 15.050781 14.8125 15.050781 14.878906 15.050781 Z M 14.878906 15.050781 "/>
<path style=" stroke:none;fill-rule:nonzero;fill:rgb(43.529412%,53.72549%,59.215686%);fill-opacity:1;" d="M 15.015625 14.921875 C 15.109375 14.832031 15.234375 14.738281 15.324219 14.644531 C 15.433594 14.476562 15.511719 14.253906 15.542969 13.96875 C 15.527344 13.949219 15.511719 13.949219 15.46875 13.90625 C 15.300781 14.566406 14.890625 14.847656 14.207031 14.832031 C 13.257812 14.8125 12.324219 14.796875 11.382812 14.832031 C 10.929688 14.847656 10.417969 14.628906 9.996094 15.015625 C 11.542969 15.015625 13.097656 15.015625 14.644531 15.015625 C 14.8125 15.015625 14.921875 14.984375 15.015625 14.921875 Z M 15.015625 14.921875 "/>
<path style=" stroke:none;fill-rule:nonzero;fill:rgb(43.529412%,53.72549%,59.215686%);fill-opacity:1;" d="M 15.34375 14.652344 C 15.265625 14.761719 15.15625 14.855469 15.03125 14.933594 C 15 14.964844 14.972656 14.992188 14.957031 15.023438 C 14.9375 15.042969 14.921875 15.042969 14.898438 15.058594 C 14.972656 15.058594 15.066406 15.058594 15.132812 15.058594 C 15.476562 14.761719 15.957031 14.542969 15.820312 13.941406 C 15.761719 14 15.695312 14.035156 15.636719 14.019531 C 15.671875 14.296875 15.519531 14.484375 15.34375 14.652344 Z M 15.34375 14.652344 "/>
<path style=" stroke:none;fill-rule:nonzero;fill:rgb(43.529412%,53.72549%,59.215686%);fill-opacity:1;" d="M 15.34375 14.652344 C 15.234375 14.746094 15.125 14.839844 15.03125 14.933594 C 15.15625 14.871094 15.25 14.78125 15.34375 14.652344 Z M 15.34375 14.652344 "/>
<path style=" stroke:none;fill-rule:nonzero;fill:rgb(43.529412%,53.72549%,59.215686%);fill-opacity:1;" d="M 15.5625 13.984375 C 15.59375 14 15.621094 14.019531 15.652344 14.019531 C 15.652344 14 15.652344 13.984375 15.652344 13.957031 C 15.652344 13.933594 15.636719 13.941406 15.636719 13.941406 C 15.621094 13.941406 15.601562 13.941406 15.578125 13.941406 C 15.5625 13.949219 15.5625 13.96875 15.5625 13.984375 Z M 15.5625 13.984375 "/>
<path style=" stroke:none;fill-rule:nonzero;fill:rgb(43.529412%,53.72549%,59.215686%);fill-opacity:1;" d="M 15.5625 13.933594 C 15.542969 13.933594 15.503906 13.933594 15.484375 13.933594 C 15.503906 13.949219 15.519531 13.96875 15.5625 13.992188 C 15.5625 13.96875 15.5625 13.949219 15.5625 13.933594 Z M 15.5625 13.933594 "/>
<path style=" stroke:none;fill-rule:nonzero;fill:rgb(43.529412%,53.72549%,59.215686%);fill-opacity:1;" d="M 15.628906 13.949219 C 15.628906 13.96875 15.628906 13.984375 15.628906 14.007812 C 15.6875 14.007812 15.753906 13.992188 15.8125 13.933594 C 15.738281 13.933594 15.671875 13.933594 15.613281 13.933594 C 15.628906 13.933594 15.628906 13.949219 15.628906 13.949219 Z M 15.628906 13.949219 "/>
<path style=" stroke:none;fill-rule:nonzero;fill:rgb(45.882353%,53.333333%,57.254902%);fill-opacity:1;" d="M 14.132812 6.699219 C 14.148438 6.699219 14.164062 6.699219 14.191406 6.699219 C 13.898438 6.699219 13.609375 6.699219 13.316406 6.699219 C 13.570312 6.679688 13.847656 6.679688 14.132812 6.699219 Z M 14.132812 6.699219 "/>
<path style=" stroke:none;fill-rule:nonzero;fill:rgb(45.882353%,53.333333%,57.254902%);fill-opacity:1;" d="M 14.613281 6.699219 C 14.6875 6.730469 14.738281 6.792969 14.78125 6.917969 C 14.871094 6.84375 14.964844 6.824219 15.074219 6.808594 C 15.109375 6.792969 15.167969 6.773438 15.199219 6.773438 C 15.234375 6.714844 15.277344 6.664062 15.308594 6.605469 C 15.308594 6.605469 15.308594 6.605469 15.308594 6.589844 C 15.277344 6.621094 15.25 6.679688 15.214844 6.714844 C 15.015625 6.699219 14.8125 6.699219 14.613281 6.699219 Z M 14.613281 6.699219 "/>
<path style=" stroke:none;fill-rule:nonzero;fill:rgb(45.882353%,53.333333%,57.254902%);fill-opacity:1;" d="M 14.191406 6.679688 C 14.332031 6.679688 14.484375 6.679688 14.628906 6.679688 C 14.484375 6.640625 14.316406 6.679688 14.191406 6.679688 Z M 14.191406 6.679688 "/>
<path style=" stroke:none;fill-rule:nonzero;fill:rgb(45.882353%,53.333333%,57.254902%);fill-opacity:1;" d="M 12.535156 6.679688 C 12.785156 6.679688 13.046875 6.679688 13.300781 6.679688 C 13.59375 6.679688 13.878906 6.679688 14.175781 6.679688 C 14.316406 6.679688 14.484375 6.621094 14.613281 6.679688 C 14.8125 6.679688 15 6.679688 15.191406 6.679688 C 15.226562 6.648438 15.265625 6.589844 15.285156 6.554688 C 13.003906 6.554688 10.703125 6.554688 8.421875 6.554688 C 8.808594 6.589844 9.171875 6.628906 9.558594 6.664062 C 9.921875 6.664062 10.273438 6.664062 10.632812 6.664062 C 11.257812 6.679688 11.894531 6.679688 12.535156 6.679688 Z M 12.535156 6.679688 "/>
<path style=" stroke:none;fill-rule:nonzero;fill:rgb(45.882353%,53.333333%,57.254902%);fill-opacity:1;" d="M 14.769531 6.917969 C 14.738281 6.792969 14.679688 6.730469 14.601562 6.699219 C 14.460938 6.699219 14.308594 6.699219 14.164062 6.699219 C 14.148438 6.699219 14.132812 6.699219 14.105469 6.699219 C 13.828125 6.699219 13.558594 6.699219 13.28125 6.699219 C 13.03125 6.699219 12.769531 6.699219 12.519531 6.699219 C 12.082031 6.699219 11.644531 6.699219 11.222656 6.699219 C 11.019531 6.699219 10.820312 6.699219 10.617188 6.699219 C 10.308594 6.699219 9.980469 6.699219 9.667969 6.699219 C 10.929688 6.773438 12.164062 6.773438 13.425781 6.792969 C 13.863281 6.792969 14.34375 6.621094 14.738281 6.933594 C 14.753906 6.917969 14.769531 6.917969 14.769531 6.917969 Z M 14.769531 6.917969 "/>
<path style=" stroke:none;fill-rule:nonzero;fill:rgb(45.882353%,53.333333%,57.254902%);fill-opacity:1;" d="M 15.066406 6.808594 C 14.957031 6.824219 14.847656 6.84375 14.769531 6.917969 L 14.769531 6.933594 C 14.878906 6.933594 14.988281 6.917969 15.097656 6.917969 C 15.132812 6.859375 15.175781 6.808594 15.191406 6.75 C 15.15625 6.773438 15.125 6.792969 15.066406 6.808594 Z M 15.066406 6.808594 "/>
<path style=" stroke:none;fill-rule:nonzero;fill:rgb(45.882353%,53.333333%,57.254902%);fill-opacity:1;" d="M 14.753906 6.933594 C 14.769531 6.933594 14.769531 6.933594 14.789062 6.933594 L 14.789062 6.917969 C 14.769531 6.917969 14.753906 6.917969 14.753906 6.933594 Z M 14.753906 6.933594 "/>
<path style=" stroke:none;fill-rule:nonzero;fill:rgb(59.215686%,51.764706%,47.058824%);fill-opacity:1;" d="M 8.019531 8.957031 C 8.019531 9.035156 8.019531 9.085938 8.003906 9.160156 C 8.078125 9.128906 8.144531 9.101562 8.222656 9.085938 C 8.15625 9.066406 8.078125 9.007812 8.019531 8.957031 Z M 8.019531 8.957031 "/>
<path style=" stroke:none;fill-rule:nonzero;fill:rgb(59.215686%,51.764706%,47.058824%);fill-opacity:1;" d="M 9.980469 8.976562 C 10.273438 8.976562 10.585938 8.976562 10.871094 8.976562 C 10.03125 8.976562 9.214844 8.957031 8.375 8.957031 C 8.339844 8.957031 8.3125 8.957031 8.28125 8.957031 C 8.3125 8.992188 8.375 9.015625 8.40625 9.035156 C 8.9375 8.925781 9.464844 8.976562 9.980469 8.976562 Z M 9.980469 8.976562 "/>
<path style=" stroke:none;fill-rule:nonzero;fill:rgb(59.215686%,51.764706%,47.058824%);fill-opacity:1;" d="M 15.097656 9.179688 C 15.097656 9.117188 15.117188 9.085938 15.117188 9.035156 C 15.023438 9.035156 14.914062 9.035156 14.820312 9.035156 C 14.921875 9.050781 15.015625 9.085938 15.097656 9.179688 Z M 15.097656 9.179688 "/>
<path style=" stroke:none;fill-rule:nonzero;fill:rgb(59.215686%,51.764706%,47.058824%);fill-opacity:1;" d="M 8.222656 9.085938 C 8.296875 9.066406 8.363281 9.050781 8.441406 9.027344 C 8.382812 9.007812 8.347656 8.964844 8.3125 8.949219 C 8.222656 8.949219 8.128906 8.949219 8.035156 8.949219 C 8.078125 9.007812 8.15625 9.066406 8.222656 9.085938 Z M 8.222656 9.085938 "/>
<path style=" stroke:none;fill-rule:nonzero;fill:rgb(59.215686%,51.764706%,47.058824%);fill-opacity:1;" d="M 14.007812 9.085938 C 14.257812 9.085938 14.519531 9.101562 14.753906 9.179688 C 14.789062 9.179688 14.847656 9.179688 14.878906 9.179688 C 14.820312 9.144531 14.789062 9.117188 14.738281 9.101562 C 12.878906 9.042969 11.011719 9.027344 9.171875 9.085938 C 10.777344 9.117188 12.382812 9.066406 14.007812 9.085938 Z M 14.007812 9.085938 "/>
<path style=" stroke:none;fill-rule:nonzero;fill:rgb(59.215686%,51.764706%,47.058824%);fill-opacity:1;" d="M 14.007812 9.085938 C 12.398438 9.066406 10.777344 9.117188 9.171875 9.085938 C 8.9375 9.085938 8.699219 9.101562 8.457031 9.101562 C 8.363281 9.117188 8.289062 9.101562 8.222656 9.085938 C 8.144531 9.101562 8.078125 9.117188 8.003906 9.160156 C 10.246094 9.160156 12.492188 9.160156 14.753906 9.179688 C 14.519531 9.101562 14.265625 9.085938 14.007812 9.085938 Z M 14.007812 9.085938 "/>
<path style=" stroke:none;fill-rule:nonzero;fill:rgb(59.215686%,51.764706%,47.058824%);fill-opacity:1;" d="M 10.871094 8.976562 C 10.574219 8.976562 10.265625 8.976562 9.980469 8.976562 C 9.464844 8.976562 8.9375 8.914062 8.433594 9.035156 C 8.449219 9.035156 8.464844 9.050781 8.492188 9.050781 C 8.710938 9.066406 8.945312 9.066406 9.164062 9.066406 C 11.019531 9.007812 12.871094 9.035156 14.730469 9.085938 C 14.789062 9.101562 14.839844 9.144531 14.871094 9.160156 C 14.949219 9.160156 15.015625 9.160156 15.089844 9.160156 C 15 9.085938 14.90625 9.035156 14.8125 9.015625 C 13.519531 8.992188 12.183594 8.992188 10.871094 8.976562 Z M 10.871094 8.976562 "/>
<path style=" stroke:none;fill-rule:nonzero;fill:rgb(59.215686%,51.764706%,47.058824%);fill-opacity:1;" d="M 8.464844 9.101562 C 8.699219 9.085938 8.9375 9.085938 9.179688 9.085938 C 8.960938 9.085938 8.726562 9.066406 8.507812 9.066406 C 8.492188 9.066406 8.472656 9.050781 8.449219 9.050781 C 8.375 9.066406 8.304688 9.085938 8.230469 9.109375 C 8.296875 9.101562 8.375 9.101562 8.464844 9.101562 Z M 8.464844 9.101562 "/>
<path style=" stroke:none;fill-rule:nonzero;fill:rgb(97.647059%,46.666667%,15.686275%);fill-opacity:1;" d="M 10.417969 15.21875 C 10.398438 15.238281 10.398438 15.253906 10.398438 15.277344 C 10.417969 15.355469 10.433594 15.40625 10.476562 15.464844 C 10.566406 15.371094 10.660156 15.320312 10.769531 15.261719 C 10.632812 15.253906 10.527344 15.238281 10.417969 15.21875 Z M 10.417969 15.21875 "/>
<path style=" stroke:none;fill-rule:nonzero;fill:rgb(97.647059%,46.666667%,15.686275%);fill-opacity:1;" d="M 10.398438 15.269531 C 10.398438 15.253906 10.417969 15.238281 10.417969 15.210938 C 10.339844 15.210938 10.246094 15.210938 10.179688 15.210938 C 10.199219 15.355469 10.199219 15.507812 10.367188 15.601562 C 10.398438 15.542969 10.441406 15.492188 10.476562 15.457031 C 10.433594 15.40625 10.398438 15.347656 10.398438 15.269531 Z M 10.398438 15.269531 "/>
<path style=" stroke:none;fill-rule:nonzero;fill:rgb(97.647059%,46.666667%,15.686275%);fill-opacity:1;" d="M 12.367188 15.203125 C 12.089844 15.203125 11.835938 15.203125 11.566406 15.203125 C 11.289062 15.21875 11.039062 15.261719 10.769531 15.261719 C 10.660156 15.296875 10.566406 15.371094 10.476562 15.464844 C 10.492188 15.5 10.535156 15.542969 10.550781 15.558594 C 11.71875 15.261719 12.921875 15.480469 14.105469 15.414062 C 14.453125 15.398438 14.839844 15.558594 15.109375 15.210938 C 14.890625 15.210938 14.6875 15.210938 14.46875 15.210938 C 13.769531 15.296875 13.054688 15.238281 12.367188 15.203125 Z M 12.367188 15.203125 "/>
<path style=" stroke:none;fill-rule:nonzero;fill:rgb(97.647059%,46.666667%,15.686275%);fill-opacity:1;" d="M 10.355469 15.601562 C 10.417969 15.582031 10.484375 15.566406 10.542969 15.542969 C 10.527344 15.507812 10.484375 15.480469 10.464844 15.449219 C 10.433594 15.492188 10.398438 15.53125 10.355469 15.601562 Z M 10.355469 15.601562 "/>
<path style=" stroke:none;fill-rule:nonzero;fill:rgb(97.647059%,46.666667%,15.686275%);fill-opacity:1;" d="M 10.417969 15.21875 C 10.527344 15.238281 10.632812 15.253906 10.742188 15.253906 C 10.777344 15.238281 10.835938 15.21875 10.871094 15.21875 C 10.726562 15.21875 10.574219 15.21875 10.417969 15.21875 Z M 10.417969 15.21875 "/>
<path style=" stroke:none;fill-rule:nonzero;fill:rgb(97.647059%,46.666667%,15.686275%);fill-opacity:1;" d="M 14.484375 15.203125 C 13.769531 15.203125 13.082031 15.203125 12.367188 15.21875 C 13.054688 15.238281 13.769531 15.296875 14.484375 15.203125 Z M 14.484375 15.203125 "/>
<path style=" stroke:none;fill-rule:nonzero;fill:rgb(97.647059%,46.666667%,15.686275%);fill-opacity:1;" d="M 10.761719 15.253906 C 11.039062 15.253906 11.308594 15.21875 11.558594 15.195312 C 11.339844 15.195312 11.105469 15.195312 10.886719 15.195312 C 10.835938 15.21875 10.792969 15.238281 10.761719 15.253906 Z M 10.761719 15.253906 "/>
<path style=" stroke:none;fill-rule:nonzero;fill:rgb(72.54902%,49.803922%,36.078431%);fill-opacity:1;" d="M 10.011719 15.050781 C 10.070312 15.109375 10.121094 15.160156 10.15625 15.21875 C 10.230469 15.21875 10.28125 15.203125 10.355469 15.203125 C 10.246094 15.160156 10.121094 15.125 10.011719 15.050781 Z M 10.011719 15.050781 "/>
<path style=" stroke:none;fill-rule:nonzero;fill:rgb(72.54902%,49.803922%,36.078431%);fill-opacity:1;" d="M 15.125 15.1875 C 15.125 15.125 15.125 15.09375 15.140625 15.042969 C 14.972656 15.101562 14.8125 15.136719 14.644531 15.167969 C 14.796875 15.1875 14.957031 15.1875 15.125 15.1875 Z M 15.125 15.1875 "/>
<path style=" stroke:none;fill-rule:nonzero;fill:rgb(72.54902%,49.803922%,36.078431%);fill-opacity:1;" d="M 14.226562 15.09375 C 13.023438 15.125 11.820312 15.09375 10.609375 15.109375 C 10.535156 15.125 10.464844 15.144531 10.425781 15.203125 C 11.644531 15.09375 12.855469 15.109375 14.074219 15.144531 C 14.273438 15.144531 14.492188 15.125 14.695312 15.125 C 14.769531 15.109375 14.820312 15.09375 14.878906 15.050781 C 14.804688 15.050781 14.738281 15.050781 14.660156 15.050781 C 14.535156 15.074219 14.394531 15.09375 14.226562 15.09375 Z M 14.226562 15.09375 "/>
<path style=" stroke:none;fill-rule:nonzero;fill:rgb(72.54902%,49.803922%,36.078431%);fill-opacity:1;" d="M 10.433594 15.203125 C 10.464844 15.144531 10.542969 15.125 10.617188 15.109375 C 11.820312 15.09375 13.023438 15.125 14.234375 15.09375 C 14.402344 15.09375 14.542969 15.074219 14.671875 15.058594 C 13.125 15.058594 11.566406 15.058594 10.019531 15.058594 C 10.128906 15.136719 10.257812 15.167969 10.367188 15.203125 C 10.375 15.203125 10.417969 15.203125 10.433594 15.203125 Z M 10.433594 15.203125 "/>
<path style=" stroke:none;fill-rule:nonzero;fill:rgb(72.54902%,49.803922%,36.078431%);fill-opacity:1;" d="M 14.878906 15.050781 C 14.820312 15.085938 14.753906 15.109375 14.695312 15.125 C 14.492188 15.144531 14.273438 15.144531 14.074219 15.144531 C 14.257812 15.144531 14.433594 15.160156 14.636719 15.160156 C 14.804688 15.125 14.964844 15.085938 15.132812 15.035156 C 15.046875 15.050781 14.972656 15.050781 14.878906 15.050781 Z M 14.878906 15.050781 "/>
<path style=" stroke:none;fill-rule:nonzero;fill:rgb(72.54902%,49.803922%,36.078431%);fill-opacity:1;" d="M 10.417969 15.21875 C 10.398438 15.21875 10.382812 15.203125 10.355469 15.203125 C 10.28125 15.203125 10.230469 15.21875 10.15625 15.21875 C 10.246094 15.21875 10.339844 15.21875 10.417969 15.21875 Z M 10.417969 15.21875 "/>
<path style=" stroke:none;fill-rule:nonzero;fill:rgb(72.54902%,49.803922%,36.078431%);fill-opacity:1;" d="M 14.484375 15.203125 C 14.703125 15.203125 14.90625 15.203125 15.125 15.203125 C 14.957031 15.203125 14.8125 15.1875 14.652344 15.1875 C 14.578125 15.1875 14.535156 15.1875 14.484375 15.203125 Z M 14.484375 15.203125 "/>
<path style=" stroke:none;fill-rule:nonzero;fill:rgb(72.54902%,49.803922%,36.078431%);fill-opacity:1;" d="M 10.433594 15.203125 C 10.433594 15.203125 10.433594 15.21875 10.417969 15.21875 C 10.558594 15.21875 10.726562 15.21875 10.871094 15.21875 C 11.089844 15.160156 11.324219 15.160156 11.542969 15.160156 C 12.382812 15.144531 13.222656 15.160156 14.054688 15.144531 C 12.863281 15.09375 11.636719 15.09375 10.433594 15.203125 Z M 10.433594 15.203125 "/>
<path style=" stroke:none;fill-rule:nonzero;fill:rgb(72.54902%,49.803922%,36.078431%);fill-opacity:1;" d="M 10.355469 15.203125 C 10.375 15.203125 10.390625 15.21875 10.417969 15.21875 C 10.417969 15.21875 10.417969 15.203125 10.433594 15.203125 C 10.417969 15.203125 10.375 15.203125 10.355469 15.203125 Z M 10.355469 15.203125 "/>
<path style=" stroke:none;fill-rule:nonzero;fill:rgb(72.54902%,49.803922%,36.078431%);fill-opacity:1;" d="M 11.558594 15.144531 C 11.324219 15.144531 11.105469 15.144531 10.886719 15.203125 C 11.105469 15.203125 11.339844 15.203125 11.558594 15.203125 C 11.578125 15.203125 11.59375 15.203125 11.617188 15.203125 C 11.871094 15.1875 12.113281 15.203125 12.367188 15.203125 C 13.082031 15.203125 13.769531 15.203125 14.484375 15.1875 C 14.542969 15.1875 14.59375 15.167969 14.652344 15.167969 C 14.46875 15.167969 14.292969 15.152344 14.089844 15.152344 C 13.242188 15.160156 12.398438 15.125 11.558594 15.144531 Z M 11.558594 15.144531 "/>
<path style=" stroke:none;fill-rule:nonzero;fill:rgb(48.235294%,53.333333%,55.686275%);fill-opacity:1;" d="M 8.003906 6.953125 C 7.273438 6.875 7.054688 7.359375 6.925781 7.941406 C 7.238281 7.542969 7.441406 7.046875 8.003906 6.953125 Z M 8.003906 6.953125 "/>
<path style=" stroke:none;fill-rule:nonzero;fill:rgb(48.235294%,53.333333%,55.686275%);fill-opacity:1;" d="M 7.296875 7.613281 C 7.464844 7.46875 7.625 7.300781 7.792969 7.15625 C 7.566406 7.214844 7.40625 7.339844 7.296875 7.613281 Z M 7.296875 7.613281 "/>
<path style=" stroke:none;fill-rule:nonzero;fill:rgb(48.235294%,53.333333%,55.686275%);fill-opacity:1;" d="M 6.925781 7.949219 C 7.054688 7.839844 7.164062 7.730469 7.289062 7.621094 C 7.398438 7.339844 7.566406 7.214844 7.785156 7.164062 C 7.859375 7.085938 7.925781 7.019531 8.003906 6.960938 C 7.441406 7.046875 7.238281 7.542969 6.925781 7.949219 Z M 6.925781 7.949219 "/>
<path style=" stroke:none;fill-rule:nonzero;fill:rgb(98.431373%,46.666667%,14.901961%);fill-opacity:1;" d="M 8.171875 13.011719 C 10.140625 13.011719 12.113281 12.996094 14.066406 13.011719 C 14.234375 13.011719 14.375 13.011719 14.535156 13.011719 C 14.550781 13.011719 14.570312 13.011719 14.59375 13.011719 C 14.671875 13.011719 14.722656 13.011719 14.796875 13.011719 C 14.90625 13.027344 15.015625 13.070312 15.109375 13.121094 C 15.046875 12.792969 14.796875 12.808594 14.542969 12.808594 C 12.519531 12.808594 10.492188 12.808594 8.464844 12.808594 C 8.296875 12.808594 8.15625 12.824219 8.027344 12.933594 C 8.046875 12.953125 8.085938 12.96875 8.105469 12.996094 C 8.136719 13.011719 8.15625 13.011719 8.171875 13.011719 Z M 8.171875 13.011719 "/>
<path style=" stroke:none;fill-rule:nonzero;fill:rgb(98.431373%,46.666667%,14.901961%);fill-opacity:1;" d="M 8.136719 13.011719 C 8.121094 12.996094 8.078125 12.976562 8.0625 12.953125 C 8.046875 12.96875 8.027344 12.984375 8.003906 13.011719 C 8.046875 13.011719 8.078125 13.011719 8.136719 13.011719 Z M 8.136719 13.011719 "/>
<path style=" stroke:none;fill-rule:nonzero;fill:rgb(98.431373%,46.666667%,14.901961%);fill-opacity:1;" d="M 14.066406 13.035156 C 12.097656 13.019531 10.121094 13.035156 8.171875 13.035156 C 8.15625 13.035156 8.136719 13.035156 8.136719 13.035156 C 8.15625 13.054688 8.171875 13.054688 8.171875 13.070312 C 10.140625 13.035156 12.089844 13.035156 14.066406 13.035156 Z M 14.066406 13.035156 "/>
<path style=" stroke:none;fill-rule:nonzero;fill:rgb(98.431373%,46.666667%,14.901961%);fill-opacity:1;" d="M 14.59375 13.035156 C 14.722656 13.054688 14.828125 13.128906 14.957031 13.164062 L 15.03125 13.164062 L 15.109375 13.148438 C 15.015625 13.085938 14.90625 13.054688 14.796875 13.035156 C 14.738281 13.035156 14.660156 13.035156 14.59375 13.035156 Z M 14.59375 13.035156 "/>
<path style=" stroke:none;fill-rule:nonzero;fill:rgb(98.431373%,46.666667%,14.901961%);fill-opacity:1;" d="M 8.171875 13.054688 C 8.15625 13.035156 8.136719 13.035156 8.136719 13.019531 C 8.105469 13.019531 8.046875 13.019531 8.011719 13.019531 L 8.011719 13.054688 C 8.0625 13.054688 8.113281 13.054688 8.171875 13.054688 Z M 8.171875 13.054688 "/>
<path style=" stroke:none;fill-rule:nonzero;fill:rgb(98.823529%,46.666667%,14.901961%);fill-opacity:1;" d="M 15.125 9.007812 C 14.890625 8.644531 14.519531 8.789062 14.207031 8.789062 C 12.617188 8.773438 11.011719 8.773438 9.425781 8.789062 C 9.078125 8.789062 8.691406 8.660156 8.382812 8.933594 C 10.632812 8.882812 12.878906 8.753906 15.125 9.007812 Z M 15.125 9.007812 "/>
<path style=" stroke:none;fill-rule:nonzero;fill:rgb(98.823529%,46.666667%,14.901961%);fill-opacity:1;" d="M 10.871094 8.976562 C 11.964844 8.976562 13.054688 8.976562 14.132812 8.976562 C 14.351562 8.976562 14.585938 8.941406 14.804688 9.007812 C 14.898438 9.007812 15.007812 9.007812 15.097656 9.007812 C 12.855469 8.753906 10.609375 8.882812 8.363281 8.933594 C 9.214844 8.957031 10.046875 8.976562 10.871094 8.976562 Z M 10.871094 8.976562 "/>
<path style=" stroke:none;fill-rule:nonzero;fill:rgb(98.823529%,46.666667%,14.901961%);fill-opacity:1;" d="M 14.15625 8.976562 C 13.066406 8.976562 11.972656 8.976562 10.894531 8.976562 C 12.207031 8.992188 13.519531 8.992188 14.839844 9.007812 C 14.613281 8.957031 14.375 8.976562 14.15625 8.976562 Z M 14.15625 8.976562 "/>
<path style=" stroke:none;fill-rule:nonzero;fill:rgb(95.686275%,47.058824%,17.647059%);fill-opacity:1;" d="M 15.300781 6.589844 C 15.316406 6.648438 15.316406 6.679688 15.316406 6.699219 C 15.375 6.664062 15.425781 6.640625 15.460938 6.605469 C 15.445312 6.621094 15.402344 6.621094 15.386719 6.640625 C 15.375 6.605469 15.34375 6.605469 15.300781 6.589844 Z M 15.300781 6.589844 "/>
<path style=" stroke:none;fill-rule:nonzero;fill:rgb(95.686275%,47.058824%,17.647059%);fill-opacity:1;" d="M 15.484375 6.605469 C 15.453125 6.640625 15.394531 6.679688 15.34375 6.699219 C 15.359375 6.824219 15.234375 6.882812 15.109375 6.917969 C 15.730469 6.917969 15.929688 6.496094 16.023438 5.980469 C 15.90625 6.257812 15.738281 6.480469 15.484375 6.605469 Z M 15.484375 6.605469 "/>
<path style=" stroke:none;fill-rule:nonzero;fill:rgb(95.686275%,47.058824%,17.647059%);fill-opacity:1;" d="M 15.410156 6.621094 C 15.425781 6.605469 15.46875 6.605469 15.484375 6.589844 C 15.578125 6.511719 15.652344 6.402344 15.671875 6.277344 C 15.542969 6.367188 15.433594 6.480469 15.308594 6.570312 C 15.34375 6.605469 15.375 6.605469 15.410156 6.621094 Z M 15.410156 6.621094 "/>
<path style=" stroke:none;fill-rule:nonzero;fill:rgb(95.686275%,47.058824%,17.647059%);fill-opacity:1;" d="M 15.484375 6.605469 C 15.738281 6.480469 15.90625 6.257812 16.015625 5.996094 C 15.90625 6.089844 15.78125 6.199219 15.671875 6.292969 C 15.652344 6.417969 15.578125 6.511719 15.484375 6.605469 Z M 15.484375 6.605469 "/>
<path style=" stroke:none;fill-rule:nonzero;fill:rgb(95.686275%,47.058824%,17.647059%);fill-opacity:1;" d="M 15.191406 6.75 C 15.25 6.730469 15.285156 6.714844 15.316406 6.691406 C 15.316406 6.65625 15.300781 6.613281 15.285156 6.578125 C 15.265625 6.640625 15.234375 6.699219 15.191406 6.75 Z M 15.191406 6.75 "/>
<path style=" stroke:none;fill-rule:nonzero;fill:rgb(95.686275%,47.058824%,17.647059%);fill-opacity:1;" d="M 15.34375 6.699219 C 15.308594 6.714844 15.25 6.730469 15.214844 6.757812 C 15.183594 6.816406 15.140625 6.867188 15.125 6.925781 C 15.234375 6.882812 15.34375 6.824219 15.34375 6.699219 Z M 15.34375 6.699219 "/>
<path style=" stroke:none;fill-rule:nonzero;fill:rgb(67.45098%,50.588235%,40.392157%);fill-opacity:1;" d="M 9.078125 13.105469 C 9.019531 13.105469 8.953125 13.105469 8.894531 13.105469 C 10.609375 13.199219 12.324219 13.085938 14.039062 13.121094 C 14.207031 13.121094 14.367188 13.136719 14.511719 13.15625 C 14.621094 13.15625 14.730469 13.15625 14.839844 13.15625 C 14.839844 13.15625 14.839844 13.15625 14.820312 13.15625 C 12.914062 13.035156 10.996094 13.148438 9.078125 13.105469 Z M 9.078125 13.105469 "/>
<path style=" stroke:none;fill-rule:nonzero;fill:rgb(67.45098%,50.588235%,40.392157%);fill-opacity:1;" d="M 8.878906 13.105469 C 8.691406 13.105469 8.515625 13.121094 8.332031 13.105469 C 8.253906 13.105469 8.203125 13.105469 8.128906 13.105469 L 8.113281 13.105469 C 8.203125 13.136719 8.3125 13.199219 8.40625 13.199219 C 10.449219 13.199219 12.476562 13.179688 14.519531 13.164062 C 14.375 13.148438 14.207031 13.128906 14.046875 13.128906 C 12.332031 13.085938 10.59375 13.179688 8.878906 13.105469 Z M 8.878906 13.105469 "/>
<path style=" stroke:none;fill-rule:nonzero;fill:rgb(67.45098%,50.588235%,40.392157%);fill-opacity:1;" d="M 8.332031 13.105469 C 8.222656 13.105469 8.113281 13.085938 7.988281 13.046875 C 8.019531 13.0625 8.078125 13.078125 8.113281 13.105469 L 8.128906 13.105469 C 8.203125 13.105469 8.265625 13.105469 8.332031 13.105469 Z M 8.332031 13.105469 "/>
<path style=" stroke:none;fill-rule:nonzero;fill:rgb(67.45098%,50.588235%,40.392157%);fill-opacity:1;" d="M 14.535156 13.011719 C 14.367188 13.011719 14.226562 13.011719 14.066406 13.011719 C 14.25 13.011719 14.410156 13.011719 14.59375 13.011719 C 14.578125 13.035156 14.550781 13.011719 14.535156 13.011719 Z M 14.535156 13.011719 "/>
<path style=" stroke:none;fill-rule:nonzero;fill:rgb(67.45098%,50.588235%,40.392157%);fill-opacity:1;" d="M 9.078125 13.105469 C 10.996094 13.136719 12.914062 13.046875 14.828125 13.164062 C 14.828125 13.164062 14.828125 13.164062 14.8125 13.164062 C 12.820312 13.054688 10.835938 13.105469 8.84375 13.128906 C 8.859375 13.128906 8.859375 13.128906 8.878906 13.128906 C 8.953125 13.105469 9.011719 13.105469 9.078125 13.105469 Z M 9.078125 13.105469 "/>
<path style=" stroke:none;fill-rule:nonzero;fill:rgb(67.45098%,50.588235%,40.392157%);fill-opacity:1;" d="M 8.878906 13.105469 C 8.859375 13.105469 8.859375 13.105469 8.84375 13.105469 C 8.660156 13.105469 8.5 13.105469 8.3125 13.105469 C 8.515625 13.121094 8.699219 13.105469 8.878906 13.105469 Z M 8.878906 13.105469 "/>
<path style=" stroke:none;fill-rule:nonzero;fill:rgb(67.45098%,50.588235%,40.392157%);fill-opacity:1;" d="M 8.171875 13.054688 C 8.40625 13.070312 8.625 13.085938 8.859375 13.085938 C 10.851562 13.070312 12.835938 13.027344 14.828125 13.121094 C 14.828125 13.121094 14.828125 13.121094 14.847656 13.121094 C 14.878906 13.121094 14.9375 13.121094 14.972656 13.121094 C 14.847656 13.085938 14.738281 13.011719 14.613281 12.996094 C 14.425781 12.996094 14.265625 12.996094 14.082031 12.996094 C 12.089844 13.035156 10.140625 13.035156 8.171875 13.054688 Z M 8.171875 13.054688 "/>
<path style=" stroke:none;fill-rule:nonzero;fill:rgb(67.45098%,50.588235%,40.392157%);fill-opacity:1;" d="M 8.859375 13.105469 C 8.625 13.085938 8.40625 13.085938 8.171875 13.070312 C 8.113281 13.070312 8.0625 13.070312 7.988281 13.070312 C 8.09375 13.105469 8.203125 13.105469 8.332031 13.128906 C 8.515625 13.105469 8.683594 13.105469 8.859375 13.105469 Z M 8.859375 13.105469 "/>
</g>
</svg>
