<?xml version="1.0" encoding="UTF-8"?>
<svg xmlns="http://www.w3.org/2000/svg" xmlns:xlink="http://www.w3.org/1999/xlink" width="63px" height="20px" viewBox="0 0 62 20" version="1.1">
<g id="surface1">
<path style=" stroke:none;fill-rule:nonzero;fill:rgb(13.72549%,31.372549%,66.27451%);fill-opacity:1;" d="M 4.730469 17.824219 L 5.269531 17.765625 C 5.300781 17.953125 5.367188 18.085938 5.46875 18.171875 C 5.566406 18.257812 5.699219 18.300781 5.867188 18.300781 C 6.046875 18.300781 6.183594 18.261719 6.273438 18.1875 C 6.363281 18.109375 6.410156 18.019531 6.410156 17.917969 C 6.410156 17.851562 6.390625 17.796875 6.351562 17.75 C 6.3125 17.703125 6.246094 17.664062 6.152344 17.628906 C 6.085938 17.609375 5.941406 17.566406 5.710938 17.507812 C 5.410156 17.4375 5.203125 17.34375 5.085938 17.238281 C 4.914062 17.085938 4.832031 16.898438 4.832031 16.679688 C 4.832031 16.539062 4.871094 16.40625 4.949219 16.285156 C 5.03125 16.164062 5.144531 16.070312 5.292969 16.007812 C 5.441406 15.941406 5.625 15.910156 5.835938 15.910156 C 6.179688 15.910156 6.4375 15.988281 6.613281 16.140625 C 6.789062 16.292969 6.878906 16.496094 6.886719 16.75 L 6.332031 16.773438 C 6.308594 16.632812 6.257812 16.527344 6.179688 16.464844 C 6.101562 16.402344 5.984375 16.371094 5.828125 16.371094 C 5.667969 16.371094 5.539062 16.40625 5.449219 16.472656 C 5.390625 16.515625 5.359375 16.574219 5.359375 16.644531 C 5.359375 16.710938 5.386719 16.765625 5.445312 16.8125 C 5.515625 16.871094 5.683594 16.933594 5.953125 16.996094 C 6.222656 17.0625 6.421875 17.125 6.550781 17.195312 C 6.679688 17.265625 6.78125 17.359375 6.855469 17.476562 C 6.929688 17.597656 6.964844 17.746094 6.964844 17.921875 C 6.964844 18.078125 6.921875 18.226562 6.832031 18.367188 C 6.746094 18.507812 6.621094 18.609375 6.460938 18.675781 C 6.300781 18.746094 6.101562 18.777344 5.863281 18.777344 C 5.515625 18.777344 5.25 18.699219 5.0625 18.535156 C 4.875 18.371094 4.765625 18.136719 4.730469 17.824219 "/>
<path style=" stroke:none;fill-rule:nonzero;fill:rgb(13.72549%,31.372549%,66.27451%);fill-opacity:1;" d="M 7.542969 18.730469 L 7.542969 16.722656 L 8.074219 16.722656 L 8.074219 18.730469 Z M 7.542969 16.449219 L 7.542969 15.960938 L 8.074219 15.960938 L 8.074219 16.449219 L 7.542969 16.449219 "/>
<path style=" stroke:none;fill-rule:nonzero;fill:rgb(13.72549%,31.372549%,66.27451%);fill-opacity:1;" d="M 10.542969 18.730469 L 10.011719 18.730469 L 10.011719 17.703125 C 10.011719 17.484375 10 17.347656 9.980469 17.28125 C 9.957031 17.21875 9.921875 17.167969 9.871094 17.132812 C 9.820312 17.097656 9.757812 17.082031 9.6875 17.082031 C 9.597656 17.082031 9.515625 17.105469 9.441406 17.15625 C 9.371094 17.207031 9.320312 17.273438 9.292969 17.355469 C 9.269531 17.441406 9.253906 17.59375 9.253906 17.820312 L 9.253906 18.730469 L 8.722656 18.730469 L 8.722656 16.722656 L 9.214844 16.722656 L 9.214844 17.019531 C 9.390625 16.789062 9.609375 16.675781 9.871094 16.675781 C 9.988281 16.675781 10.09375 16.695312 10.191406 16.738281 C 10.285156 16.78125 10.359375 16.832031 10.410156 16.898438 C 10.457031 16.964844 10.492188 17.039062 10.511719 17.121094 C 10.53125 17.207031 10.542969 17.324219 10.542969 17.480469 L 10.542969 18.730469 "/>
<path style=" stroke:none;fill-rule:nonzero;fill:rgb(13.72549%,31.372549%,66.27451%);fill-opacity:1;" d="M 11.613281 17.683594 C 11.613281 17.898438 11.652344 18.054688 11.734375 18.152344 C 11.816406 18.253906 11.917969 18.300781 12.035156 18.300781 C 12.164062 18.300781 12.269531 18.25 12.359375 18.148438 C 12.445312 18.046875 12.492188 17.898438 12.492188 17.695312 C 12.492188 17.488281 12.449219 17.335938 12.363281 17.234375 C 12.28125 17.132812 12.171875 17.082031 12.042969 17.082031 C 11.917969 17.082031 11.816406 17.132812 11.734375 17.230469 C 11.652344 17.328125 11.613281 17.480469 11.613281 17.683594 Z M 11.136719 18.863281 L 11.738281 18.925781 C 11.746094 19.003906 11.769531 19.054688 11.808594 19.082031 C 11.859375 19.121094 11.9375 19.140625 12.042969 19.140625 C 12.183594 19.140625 12.285156 19.121094 12.355469 19.078125 C 12.402344 19.050781 12.4375 19.007812 12.460938 18.945312 C 12.476562 18.902344 12.484375 18.820312 12.484375 18.703125 L 12.488281 18.410156 C 12.332031 18.621094 12.132812 18.730469 11.894531 18.730469 C 11.625 18.730469 11.414062 18.617188 11.257812 18.386719 C 11.132812 18.207031 11.074219 17.984375 11.074219 17.714844 C 11.074219 17.378906 11.152344 17.121094 11.3125 16.941406 C 11.476562 16.761719 11.675781 16.675781 11.914062 16.675781 C 12.160156 16.675781 12.363281 16.785156 12.523438 17 L 12.523438 16.722656 L 13.015625 16.722656 L 13.015625 18.527344 C 13.015625 18.765625 12.996094 18.941406 12.957031 19.058594 C 12.917969 19.175781 12.863281 19.269531 12.792969 19.335938 C 12.722656 19.402344 12.628906 19.453125 12.511719 19.492188 C 12.394531 19.53125 12.246094 19.546875 12.066406 19.546875 C 11.730469 19.546875 11.488281 19.492188 11.347656 19.375 C 11.207031 19.257812 11.136719 19.105469 11.136719 18.925781 C 11.136719 18.910156 11.136719 18.886719 11.136719 18.863281 "/>
<path style=" stroke:none;fill-rule:nonzero;fill:rgb(13.72549%,31.372549%,66.27451%);fill-opacity:1;" d="M 13.648438 18.730469 L 14.179688 18.730469 L 14.179688 15.960938 L 13.648438 15.960938 Z M 13.648438 18.730469 "/>
<path style=" stroke:none;fill-rule:nonzero;fill:rgb(13.72549%,31.372549%,66.27451%);fill-opacity:1;" d="M 16.019531 17.558594 C 16.015625 17.402344 15.976562 17.285156 15.902344 17.203125 C 15.828125 17.121094 15.734375 17.082031 15.625 17.082031 C 15.511719 17.082031 15.414062 17.125 15.339844 17.210938 C 15.265625 17.296875 15.226562 17.414062 15.230469 17.558594 Z M 15.992188 18.097656 L 16.515625 18.183594 C 16.449219 18.378906 16.34375 18.527344 16.195312 18.625 C 16.050781 18.726562 15.867188 18.777344 15.648438 18.777344 C 15.300781 18.777344 15.042969 18.664062 14.875 18.4375 C 14.742188 18.253906 14.675781 18.019531 14.675781 17.742188 C 14.675781 17.40625 14.765625 17.144531 14.9375 16.957031 C 15.109375 16.769531 15.328125 16.675781 15.59375 16.675781 C 15.890625 16.675781 16.125 16.773438 16.296875 16.972656 C 16.46875 17.167969 16.550781 17.472656 16.542969 17.882812 L 15.21875 17.882812 C 15.222656 18.039062 15.265625 18.164062 15.347656 18.25 C 15.429688 18.339844 15.53125 18.382812 15.652344 18.382812 C 15.738281 18.382812 15.808594 18.359375 15.863281 18.316406 C 15.921875 18.269531 15.964844 18.199219 15.992188 18.097656 "/>
<path style=" stroke:none;fill-rule:nonzero;fill:rgb(13.72549%,31.372549%,66.27451%);fill-opacity:1;" d="M 18.277344 18.730469 L 18.277344 15.960938 L 20.3125 15.960938 L 20.3125 16.425781 L 18.832031 16.425781 L 18.832031 17.042969 L 20.207031 17.042969 L 20.207031 17.507812 L 18.832031 17.507812 L 18.832031 18.261719 L 20.367188 18.261719 L 20.367188 18.730469 L 18.277344 18.730469 "/>
<path style=" stroke:none;fill-rule:nonzero;fill:rgb(13.72549%,31.372549%,66.27451%);fill-opacity:1;" d="M 22.257812 18.730469 L 22.257812 18.429688 C 22.183594 18.535156 22.089844 18.621094 21.972656 18.683594 C 21.851562 18.746094 21.726562 18.777344 21.597656 18.777344 C 21.460938 18.777344 21.339844 18.75 21.234375 18.691406 C 21.128906 18.632812 21.050781 18.546875 21.003906 18.441406 C 20.957031 18.332031 20.933594 18.183594 20.933594 17.996094 L 20.933594 16.722656 L 21.460938 16.722656 L 21.460938 17.648438 C 21.460938 17.929688 21.472656 18.101562 21.492188 18.164062 C 21.511719 18.230469 21.546875 18.28125 21.597656 18.316406 C 21.648438 18.355469 21.714844 18.371094 21.792969 18.371094 C 21.882812 18.371094 21.964844 18.347656 22.035156 18.296875 C 22.105469 18.246094 22.15625 18.1875 22.179688 18.113281 C 22.207031 18.039062 22.21875 17.859375 22.21875 17.570312 L 22.21875 16.722656 L 22.75 16.722656 L 22.75 18.730469 L 22.257812 18.730469 "/>
<path style=" stroke:none;fill-rule:nonzero;fill:rgb(13.72549%,31.372549%,66.27451%);fill-opacity:1;" d="M 23.910156 18.730469 L 23.382812 18.730469 L 23.382812 16.722656 L 23.875 16.722656 L 23.875 17.007812 C 23.957031 16.875 24.03125 16.785156 24.101562 16.742188 C 24.167969 16.695312 24.242188 16.675781 24.328125 16.675781 C 24.449219 16.675781 24.5625 16.707031 24.675781 16.773438 L 24.515625 17.238281 C 24.425781 17.179688 24.34375 17.152344 24.265625 17.152344 C 24.191406 17.152344 24.128906 17.171875 24.078125 17.214844 C 24.027344 17.253906 23.984375 17.328125 23.957031 17.4375 C 23.925781 17.542969 23.910156 17.765625 23.910156 18.109375 L 23.910156 18.730469 "/>
<path style=" stroke:none;fill-rule:nonzero;fill:rgb(13.72549%,31.372549%,66.27451%);fill-opacity:1;" d="M 25.429688 17.726562 C 25.429688 17.925781 25.476562 18.078125 25.570312 18.183594 C 25.664062 18.292969 25.78125 18.34375 25.917969 18.34375 C 26.058594 18.34375 26.171875 18.292969 26.265625 18.183594 C 26.359375 18.078125 26.40625 17.925781 26.40625 17.722656 C 26.40625 17.527344 26.359375 17.375 26.265625 17.265625 C 26.171875 17.160156 26.058594 17.109375 25.917969 17.109375 C 25.78125 17.109375 25.664062 17.160156 25.570312 17.265625 C 25.476562 17.375 25.429688 17.527344 25.429688 17.726562 Z M 24.890625 17.699219 C 24.890625 17.519531 24.933594 17.351562 25.019531 17.183594 C 25.105469 17.019531 25.226562 16.894531 25.386719 16.804688 C 25.542969 16.71875 25.71875 16.675781 25.914062 16.675781 C 26.21875 16.675781 26.464844 16.773438 26.65625 16.972656 C 26.851562 17.167969 26.945312 17.417969 26.945312 17.722656 C 26.945312 18.027344 26.847656 18.277344 26.652344 18.480469 C 26.457031 18.679688 26.214844 18.78125 25.917969 18.78125 C 25.738281 18.78125 25.5625 18.738281 25.398438 18.65625 C 25.230469 18.570312 25.105469 18.449219 25.019531 18.289062 C 24.933594 18.125 24.890625 17.929688 24.890625 17.699219 "/>
<path style=" stroke:none;fill-rule:nonzero;fill:rgb(13.72549%,31.372549%,66.27451%);fill-opacity:1;" d="M 29.226562 16.425781 L 29.226562 17.21875 L 29.527344 17.21875 C 29.746094 17.21875 29.894531 17.203125 29.964844 17.175781 C 30.039062 17.144531 30.097656 17.101562 30.140625 17.039062 C 30.179688 16.976562 30.203125 16.902344 30.203125 16.820312 C 30.203125 16.71875 30.171875 16.636719 30.113281 16.570312 C 30.054688 16.503906 29.980469 16.460938 29.890625 16.445312 C 29.824219 16.433594 29.691406 16.425781 29.492188 16.425781 Z M 28.671875 18.730469 L 28.671875 15.960938 L 29.5625 15.960938 C 29.898438 15.960938 30.121094 15.972656 30.222656 16 C 30.378906 16.042969 30.511719 16.132812 30.617188 16.273438 C 30.722656 16.410156 30.777344 16.589844 30.777344 16.8125 C 30.777344 16.980469 30.746094 17.125 30.683594 17.242188 C 30.621094 17.355469 30.546875 17.449219 30.449219 17.515625 C 30.355469 17.582031 30.261719 17.625 30.164062 17.644531 C 30.03125 17.671875 29.839844 17.6875 29.589844 17.6875 L 29.226562 17.6875 L 29.226562 18.730469 L 28.671875 18.730469 "/>
<path style=" stroke:none;fill-rule:nonzero;fill:rgb(13.72549%,31.372549%,66.27451%);fill-opacity:1;" d="M 32.4375 17.769531 C 32.371094 17.792969 32.265625 17.816406 32.117188 17.847656 C 31.972656 17.882812 31.875 17.914062 31.832031 17.941406 C 31.765625 17.992188 31.730469 18.054688 31.730469 18.128906 C 31.730469 18.203125 31.757812 18.269531 31.8125 18.324219 C 31.867188 18.378906 31.9375 18.40625 32.023438 18.40625 C 32.117188 18.40625 32.207031 18.375 32.292969 18.308594 C 32.355469 18.261719 32.398438 18.203125 32.417969 18.132812 C 32.433594 18.085938 32.4375 18 32.4375 17.875 Z M 31.730469 17.335938 L 31.253906 17.246094 C 31.308594 17.050781 31.402344 16.90625 31.53125 16.816406 C 31.664062 16.722656 31.859375 16.675781 32.117188 16.675781 C 32.351562 16.675781 32.527344 16.703125 32.644531 16.757812 C 32.757812 16.816406 32.839844 16.886719 32.886719 16.972656 C 32.933594 17.058594 32.957031 17.21875 32.957031 17.449219 L 32.949219 18.066406 C 32.949219 18.246094 32.957031 18.375 32.976562 18.460938 C 32.992188 18.542969 33.023438 18.632812 33.070312 18.730469 L 32.546875 18.730469 C 32.53125 18.695312 32.515625 18.644531 32.496094 18.574219 C 32.484375 18.542969 32.480469 18.523438 32.476562 18.511719 C 32.386719 18.601562 32.289062 18.667969 32.1875 18.710938 C 32.085938 18.757812 31.976562 18.777344 31.859375 18.777344 C 31.65625 18.777344 31.492188 18.722656 31.375 18.609375 C 31.257812 18.5 31.199219 18.355469 31.199219 18.183594 C 31.199219 18.070312 31.226562 17.96875 31.28125 17.878906 C 31.332031 17.792969 31.410156 17.722656 31.503906 17.675781 C 31.601562 17.628906 31.742188 17.585938 31.925781 17.550781 C 32.171875 17.503906 32.34375 17.460938 32.4375 17.421875 L 32.4375 17.367188 C 32.4375 17.265625 32.414062 17.191406 32.363281 17.144531 C 32.3125 17.101562 32.21875 17.082031 32.078125 17.082031 C 31.984375 17.082031 31.910156 17.097656 31.855469 17.136719 C 31.804688 17.175781 31.761719 17.242188 31.730469 17.335938 "/>
<path style=" stroke:none;fill-rule:nonzero;fill:rgb(13.72549%,31.372549%,66.27451%);fill-opacity:1;" d="M 33.335938 16.722656 L 33.898438 16.722656 L 34.375 18.148438 L 34.84375 16.722656 L 35.390625 16.722656 L 34.6875 18.65625 L 34.558594 19.007812 C 34.511719 19.125 34.46875 19.214844 34.425781 19.277344 C 34.386719 19.339844 34.335938 19.386719 34.28125 19.425781 C 34.226562 19.464844 34.160156 19.496094 34.082031 19.515625 C 34 19.539062 33.910156 19.550781 33.8125 19.550781 C 33.710938 19.550781 33.609375 19.539062 33.511719 19.515625 L 33.464844 19.101562 C 33.546875 19.117188 33.621094 19.125 33.6875 19.125 C 33.8125 19.125 33.902344 19.089844 33.960938 19.015625 C 34.019531 18.941406 34.066406 18.847656 34.097656 18.734375 L 33.335938 16.722656 "/>
<path style=" stroke:none;fill-rule:nonzero;fill:rgb(13.72549%,31.372549%,66.27451%);fill-opacity:1;" d="M 35.800781 16.722656 L 36.285156 16.722656 L 36.285156 17 C 36.460938 16.78125 36.667969 16.675781 36.910156 16.675781 C 37.039062 16.675781 37.148438 16.699219 37.242188 16.753906 C 37.335938 16.808594 37.414062 16.886719 37.472656 16.996094 C 37.5625 16.886719 37.65625 16.808594 37.757812 16.753906 C 37.859375 16.703125 37.96875 16.675781 38.082031 16.675781 C 38.230469 16.675781 38.355469 16.703125 38.457031 16.765625 C 38.558594 16.824219 38.632812 16.914062 38.683594 17.027344 C 38.71875 17.113281 38.738281 17.253906 38.738281 17.445312 L 38.738281 18.730469 L 38.207031 18.730469 L 38.207031 17.582031 C 38.207031 17.382812 38.191406 17.253906 38.152344 17.195312 C 38.105469 17.121094 38.03125 17.082031 37.929688 17.082031 C 37.855469 17.082031 37.785156 17.105469 37.71875 17.148438 C 37.65625 17.195312 37.609375 17.261719 37.578125 17.347656 C 37.550781 17.4375 37.535156 17.574219 37.535156 17.765625 L 37.535156 18.730469 L 37.007812 18.730469 L 37.007812 17.628906 C 37.007812 17.433594 36.996094 17.304688 36.976562 17.25 C 36.960938 17.191406 36.929688 17.152344 36.890625 17.121094 C 36.851562 17.09375 36.796875 17.082031 36.730469 17.082031 C 36.648438 17.082031 36.574219 17.101562 36.511719 17.148438 C 36.445312 17.191406 36.398438 17.257812 36.371094 17.339844 C 36.34375 17.421875 36.328125 17.558594 36.328125 17.753906 L 36.328125 18.730469 L 35.800781 18.730469 L 35.800781 16.722656 "/>
<path style=" stroke:none;fill-rule:nonzero;fill:rgb(13.72549%,31.372549%,66.27451%);fill-opacity:1;" d="M 40.558594 17.558594 C 40.554688 17.402344 40.515625 17.285156 40.441406 17.203125 C 40.367188 17.121094 40.273438 17.082031 40.164062 17.082031 C 40.050781 17.082031 39.953125 17.125 39.878906 17.210938 C 39.800781 17.296875 39.765625 17.414062 39.765625 17.558594 Z M 40.53125 18.097656 L 41.054688 18.183594 C 40.988281 18.378906 40.882812 18.527344 40.734375 18.625 C 40.589844 18.726562 40.40625 18.777344 40.1875 18.777344 C 39.839844 18.777344 39.582031 18.664062 39.414062 18.4375 C 39.28125 18.253906 39.214844 18.019531 39.214844 17.742188 C 39.214844 17.40625 39.304688 17.144531 39.476562 16.957031 C 39.648438 16.769531 39.867188 16.675781 40.132812 16.675781 C 40.429688 16.675781 40.664062 16.773438 40.835938 16.972656 C 41.007812 17.167969 41.089844 17.472656 41.082031 17.882812 L 39.757812 17.882812 C 39.761719 18.039062 39.804688 18.164062 39.886719 18.25 C 39.96875 18.339844 40.070312 18.382812 40.191406 18.382812 C 40.277344 18.382812 40.347656 18.359375 40.402344 18.316406 C 40.460938 18.269531 40.503906 18.199219 40.53125 18.097656 "/>
<path style=" stroke:none;fill-rule:nonzero;fill:rgb(13.72549%,31.372549%,66.27451%);fill-opacity:1;" d="M 43.4375 18.730469 L 42.910156 18.730469 L 42.910156 17.703125 C 42.910156 17.484375 42.898438 17.347656 42.875 17.28125 C 42.851562 17.21875 42.816406 17.167969 42.765625 17.132812 C 42.714844 17.097656 42.652344 17.082031 42.582031 17.082031 C 42.492188 17.082031 42.410156 17.105469 42.339844 17.15625 C 42.265625 17.207031 42.214844 17.273438 42.191406 17.355469 C 42.164062 17.441406 42.148438 17.59375 42.148438 17.820312 L 42.148438 18.730469 L 41.621094 18.730469 L 41.621094 16.722656 L 42.109375 16.722656 L 42.109375 17.019531 C 42.285156 16.789062 42.503906 16.675781 42.765625 16.675781 C 42.882812 16.675781 42.988281 16.695312 43.085938 16.738281 C 43.183594 16.78125 43.253906 16.832031 43.304688 16.898438 C 43.355469 16.964844 43.390625 17.039062 43.40625 17.121094 C 43.425781 17.207031 43.4375 17.324219 43.4375 17.480469 L 43.4375 18.730469 "/>
<path style=" stroke:none;fill-rule:nonzero;fill:rgb(13.72549%,31.372549%,66.27451%);fill-opacity:1;" d="M 45 16.722656 L 45 17.148438 L 44.640625 17.148438 L 44.640625 17.957031 C 44.640625 18.121094 44.644531 18.21875 44.652344 18.246094 C 44.65625 18.273438 44.671875 18.296875 44.699219 18.3125 C 44.722656 18.332031 44.75 18.339844 44.785156 18.339844 C 44.832031 18.339844 44.902344 18.324219 44.992188 18.289062 L 45.039062 18.699219 C 44.917969 18.753906 44.777344 18.78125 44.625 18.78125 C 44.53125 18.78125 44.445312 18.761719 44.367188 18.730469 C 44.292969 18.699219 44.238281 18.65625 44.203125 18.605469 C 44.167969 18.554688 44.140625 18.484375 44.128906 18.398438 C 44.117188 18.335938 44.109375 18.210938 44.109375 18.023438 L 44.109375 17.148438 L 43.871094 17.148438 L 43.871094 16.726562 L 44.109375 16.726562 L 44.109375 16.324219 L 44.640625 16.011719 L 44.640625 16.726562 L 45 16.726562 "/>
<path style=" stroke:none;fill-rule:nonzero;fill:rgb(13.72549%,31.372549%,66.27451%);fill-opacity:1;" d="M 45.296875 18.164062 L 45.828125 18.082031 C 45.851562 18.183594 45.894531 18.261719 45.964844 18.316406 C 46.03125 18.367188 46.128906 18.394531 46.253906 18.394531 C 46.386719 18.394531 46.492188 18.367188 46.558594 18.320312 C 46.605469 18.28125 46.628906 18.234375 46.628906 18.175781 C 46.628906 18.136719 46.617188 18.101562 46.589844 18.074219 C 46.566406 18.050781 46.503906 18.027344 46.414062 18.003906 C 45.984375 17.910156 45.714844 17.820312 45.601562 17.742188 C 45.441406 17.636719 45.363281 17.484375 45.363281 17.292969 C 45.363281 17.117188 45.433594 16.96875 45.570312 16.851562 C 45.707031 16.734375 45.917969 16.675781 46.207031 16.675781 C 46.480469 16.675781 46.683594 16.71875 46.816406 16.808594 C 46.949219 16.894531 47.042969 17.027344 47.09375 17.203125 L 46.597656 17.296875 C 46.574219 17.21875 46.535156 17.15625 46.472656 17.117188 C 46.414062 17.074219 46.328125 17.054688 46.214844 17.054688 C 46.074219 17.054688 45.972656 17.074219 45.914062 17.113281 C 45.875 17.140625 45.851562 17.175781 45.851562 17.21875 C 45.851562 17.257812 45.871094 17.292969 45.90625 17.316406 C 45.953125 17.355469 46.117188 17.402344 46.402344 17.46875 C 46.683594 17.535156 46.878906 17.613281 46.992188 17.707031 C 47.101562 17.800781 47.15625 17.933594 47.15625 18.101562 C 47.15625 18.285156 47.082031 18.445312 46.929688 18.578125 C 46.773438 18.710938 46.550781 18.777344 46.25 18.777344 C 45.980469 18.777344 45.765625 18.722656 45.605469 18.613281 C 45.449219 18.503906 45.347656 18.355469 45.296875 18.164062 "/>
<path style=" stroke:none;fill-rule:nonzero;fill:rgb(13.72549%,31.372549%,66.27451%);fill-opacity:1;" d="M 50.378906 17.636719 L 49.996094 16.609375 L 49.625 17.636719 Z M 51.398438 18.730469 L 50.800781 18.730469 L 50.5625 18.101562 L 49.453125 18.101562 L 49.226562 18.730469 L 48.636719 18.730469 L 49.703125 15.960938 L 50.289062 15.960938 L 51.398438 18.730469 "/>
<path style=" stroke:none;fill-rule:nonzero;fill:rgb(13.72549%,31.372549%,66.27451%);fill-opacity:1;" d="M 52.308594 18.730469 L 51.78125 18.730469 L 51.78125 16.722656 L 52.269531 16.722656 L 52.269531 17.007812 C 52.355469 16.875 52.429688 16.785156 52.496094 16.742188 C 52.5625 16.695312 52.640625 16.675781 52.726562 16.675781 C 52.847656 16.675781 52.960938 16.707031 53.074219 16.773438 L 52.914062 17.238281 C 52.824219 17.179688 52.742188 17.152344 52.664062 17.152344 C 52.589844 17.152344 52.527344 17.171875 52.476562 17.214844 C 52.421875 17.253906 52.382812 17.328125 52.355469 17.4375 C 52.324219 17.542969 52.308594 17.765625 52.308594 18.109375 L 52.308594 18.730469 "/>
<path style=" stroke:none;fill-rule:nonzero;fill:rgb(13.72549%,31.372549%,66.27451%);fill-opacity:1;" d="M 54.601562 17.558594 C 54.597656 17.402344 54.558594 17.285156 54.484375 17.203125 C 54.40625 17.121094 54.316406 17.082031 54.207031 17.082031 C 54.089844 17.082031 53.996094 17.125 53.921875 17.210938 C 53.84375 17.296875 53.808594 17.414062 53.808594 17.558594 Z M 54.574219 18.097656 L 55.097656 18.183594 C 55.03125 18.378906 54.921875 18.527344 54.777344 18.625 C 54.632812 18.726562 54.449219 18.777344 54.226562 18.777344 C 53.878906 18.777344 53.625 18.664062 53.457031 18.4375 C 53.324219 18.253906 53.257812 18.019531 53.257812 17.742188 C 53.257812 17.40625 53.34375 17.144531 53.519531 16.957031 C 53.691406 16.769531 53.910156 16.675781 54.175781 16.675781 C 54.472656 16.675781 54.707031 16.773438 54.878906 16.972656 C 55.050781 17.167969 55.132812 17.472656 55.125 17.882812 L 53.800781 17.882812 C 53.804688 18.039062 53.847656 18.164062 53.929688 18.25 C 54.011719 18.339844 54.113281 18.382812 54.234375 18.382812 C 54.316406 18.382812 54.386719 18.359375 54.445312 18.316406 C 54.5 18.269531 54.542969 18.199219 54.574219 18.097656 "/>
<path style=" stroke:none;fill-rule:nonzero;fill:rgb(13.72549%,31.372549%,66.27451%);fill-opacity:1;" d="M 56.765625 17.769531 C 56.699219 17.792969 56.589844 17.816406 56.445312 17.847656 C 56.300781 17.882812 56.203125 17.914062 56.160156 17.941406 C 56.089844 17.992188 56.058594 18.054688 56.058594 18.128906 C 56.058594 18.203125 56.085938 18.269531 56.140625 18.324219 C 56.195312 18.378906 56.261719 18.40625 56.347656 18.40625 C 56.445312 18.40625 56.535156 18.375 56.621094 18.308594 C 56.683594 18.261719 56.726562 18.203125 56.746094 18.132812 C 56.757812 18.085938 56.765625 18 56.765625 17.875 Z M 56.058594 17.335938 L 55.582031 17.246094 C 55.636719 17.050781 55.726562 16.90625 55.859375 16.816406 C 55.992188 16.722656 56.1875 16.675781 56.445312 16.675781 C 56.679688 16.675781 56.855469 16.703125 56.96875 16.757812 C 57.085938 16.816406 57.167969 16.886719 57.214844 16.972656 C 57.261719 17.058594 57.285156 17.21875 57.285156 17.449219 L 57.277344 18.066406 C 57.277344 18.246094 57.285156 18.375 57.304688 18.460938 C 57.320312 18.542969 57.351562 18.632812 57.398438 18.730469 L 56.875 18.730469 C 56.859375 18.695312 56.84375 18.644531 56.824219 18.574219 C 56.8125 18.542969 56.808594 18.523438 56.804688 18.511719 C 56.714844 18.601562 56.617188 18.667969 56.515625 18.710938 C 56.414062 18.757812 56.304688 18.777344 56.1875 18.777344 C 55.984375 18.777344 55.820312 18.722656 55.703125 18.609375 C 55.585938 18.5 55.527344 18.355469 55.527344 18.183594 C 55.527344 18.070312 55.554688 17.96875 55.605469 17.878906 C 55.660156 17.792969 55.734375 17.722656 55.832031 17.675781 C 55.929688 17.628906 56.070312 17.585938 56.253906 17.550781 C 56.5 17.503906 56.671875 17.460938 56.765625 17.421875 L 56.765625 17.367188 C 56.765625 17.265625 56.742188 17.191406 56.691406 17.144531 C 56.640625 17.101562 56.546875 17.082031 56.40625 17.082031 C 56.3125 17.082031 56.238281 17.097656 56.183594 17.136719 C 56.132812 17.175781 56.089844 17.242188 56.058594 17.335938 "/>
<path style=" stroke:none;fill-rule:nonzero;fill:rgb(13.72549%,31.372549%,66.27451%);fill-opacity:1;" d="M 16.417969 5.078125 L 12.8125 5.078125 C 12.8125 4.480469 12.742188 4.082031 12.605469 3.878906 C 12.390625 3.578125 11.796875 3.425781 10.828125 3.425781 C 9.890625 3.425781 9.265625 3.515625 8.960938 3.6875 C 8.65625 3.863281 8.503906 4.242188 8.503906 4.824219 C 8.503906 5.351562 8.640625 5.699219 8.910156 5.863281 C 9.105469 5.984375 9.359375 6.054688 9.679688 6.074219 L 10.40625 6.125 C 11.960938 6.230469 12.933594 6.300781 13.324219 6.34375 C 14.554688 6.46875 15.449219 6.800781 16.003906 7.332031 C 16.4375 7.75 16.699219 8.296875 16.78125 8.96875 C 16.828125 9.371094 16.855469 9.828125 16.855469 10.332031 C 16.855469 11.5 16.742188 12.355469 16.523438 12.894531 C 16.121094 13.890625 15.21875 14.515625 13.816406 14.78125 C 13.230469 14.890625 12.332031 14.949219 11.121094 14.949219 C 9.101562 14.949219 7.695312 14.828125 6.902344 14.582031 C 5.929688 14.285156 5.285156 13.683594 4.972656 12.773438 C 4.800781 12.265625 4.714844 11.425781 4.714844 10.246094 L 8.320312 10.246094 C 8.320312 10.378906 8.320312 10.476562 8.320312 10.546875 C 8.320312 11.175781 8.5 11.582031 8.859375 11.761719 C 9.105469 11.886719 9.40625 11.953125 9.757812 11.960938 L 11.085938 11.960938 C 11.761719 11.960938 12.191406 11.925781 12.378906 11.855469 C 12.707031 11.722656 12.925781 11.511719 13.03125 11.21875 C 13.085938 11.039062 13.113281 10.804688 13.113281 10.523438 C 13.113281 9.882812 12.882812 9.496094 12.417969 9.355469 C 12.246094 9.300781 11.441406 9.222656 10.007812 9.125 C 8.855469 9.042969 8.054688 8.964844 7.609375 8.886719 C 6.429688 8.664062 5.640625 8.207031 5.25 7.515625 C 4.90625 6.925781 4.730469 6.03125 4.730469 4.839844 C 4.730469 3.929688 4.824219 3.203125 5.011719 2.652344 C 5.199219 2.105469 5.5 1.6875 5.914062 1.40625 C 6.519531 0.96875 7.296875 0.710938 8.242188 0.632812 C 9.03125 0.566406 9.90625 0.53125 10.867188 0.53125 C 12.378906 0.53125 13.457031 0.617188 14.097656 0.792969 C 15.667969 1.214844 16.449219 2.402344 16.449219 4.355469 C 16.449219 4.519531 16.441406 4.757812 16.417969 5.078125 "/>
<path style=" stroke:none;fill-rule:nonzero;fill:rgb(13.72549%,31.372549%,66.27451%);fill-opacity:1;" d="M 36.136719 7.84375 L 38.550781 7.84375 C 39.316406 7.816406 39.78125 7.757812 39.949219 7.664062 C 40.179688 7.539062 40.332031 7.285156 40.410156 6.902344 C 40.460938 6.648438 40.484375 6.273438 40.484375 5.773438 C 40.484375 5.160156 40.433594 4.707031 40.335938 4.410156 C 40.199219 3.992188 39.863281 3.738281 39.335938 3.648438 C 39.230469 3.632812 38.980469 3.625 38.585938 3.625 L 36.136719 3.625 Z M 32.261719 14.949219 L 32.261719 0.453125 L 39.480469 0.453125 C 40.46875 0.453125 41.222656 0.535156 41.742188 0.699219 C 42.929688 1.074219 43.726562 1.839844 44.132812 3 C 44.34375 3.605469 44.449219 4.523438 44.449219 5.746094 C 44.449219 7.214844 44.332031 8.273438 44.101562 8.914062 C 43.640625 10.1875 42.6875 10.921875 41.246094 11.109375 C 41.078125 11.136719 40.359375 11.164062 39.089844 11.183594 L 38.445312 11.207031 L 36.136719 11.207031 L 36.136719 14.949219 L 32.261719 14.949219 "/>
<path style=" stroke:none;fill-rule:nonzero;fill:rgb(13.72549%,31.372549%,66.27451%);fill-opacity:1;" d="M 51.949219 9.621094 L 50.136719 3.335938 L 48.375 9.621094 Z M 52.71875 12.441406 L 47.539062 12.441406 L 46.84375 14.949219 L 42.835938 14.949219 L 47.160156 0.453125 L 53.003906 0.453125 L 57.382812 14.949219 L 53.457031 14.949219 L 52.71875 12.441406 "/>
<path style=" stroke:none;fill-rule:nonzero;fill:rgb(98.431373%,73.72549%,3.529412%);fill-opacity:1;" d="M 26.917969 2.492188 C 28.515625 2.492188 29.941406 3.234375 30.878906 4.394531 L 31.710938 2.59375 C 30.40625 1.347656 28.628906 0.582031 26.667969 0.582031 C 23.617188 0.582031 21.003906 2.4375 19.933594 5.066406 L 18.304688 5.066406 L 17.34375 7.144531 L 19.441406 7.144531 C 19.425781 7.335938 19.414062 7.527344 19.414062 7.726562 C 19.414062 7.964844 19.425781 8.199219 19.449219 8.429688 L 18.398438 8.429688 L 17.433594 10.507812 L 19.984375 10.507812 C 21.085938 13.066406 23.664062 14.867188 26.667969 14.867188 C 28.183594 14.867188 29.589844 14.410156 30.75 13.628906 L 30.75 11.085938 C 29.816406 12.160156 28.445312 12.835938 26.917969 12.835938 C 25.132812 12.835938 23.5625 11.910156 22.644531 10.507812 L 27.984375 10.507812 L 28.945312 8.429688 L 21.859375 8.429688 C 21.824219 8.179688 21.804688 7.925781 21.804688 7.664062 C 21.804688 7.488281 21.8125 7.316406 21.832031 7.144531 L 29.542969 7.144531 L 30.503906 5.066406 L 22.496094 5.066406 C 23.382812 3.527344 25.03125 2.492188 26.917969 2.492188 "/>
<path style=" stroke:none;fill-rule:nonzero;fill:rgb(13.72549%,31.372549%,66.27451%);fill-opacity:1;" d="M 22.496094 5.128906 L 30.5 5.128906 L 30.445312 5.039062 L 29.484375 7.117188 L 29.542969 7.082031 L 21.773438 7.082031 L 21.769531 7.136719 C 21.753906 7.3125 21.742188 7.488281 21.742188 7.664062 C 21.742188 7.921875 21.761719 8.183594 21.800781 8.4375 L 21.808594 8.492188 L 28.945312 8.492188 L 28.890625 8.402344 L 27.929688 10.480469 L 27.984375 10.441406 L 22.53125 10.441406 L 22.59375 10.539062 C 23.558594 12.015625 25.171875 12.898438 26.917969 12.898438 C 28.398438 12.898438 29.8125 12.253906 30.796875 11.125 L 30.6875 11.082031 L 30.6875 13.628906 L 30.714844 13.578125 C 29.519531 14.378906 28.121094 14.804688 26.667969 14.804688 C 23.773438 14.804688 21.171875 13.105469 20.039062 10.480469 L 20.023438 10.445312 L 17.433594 10.445312 L 17.492188 10.53125 L 18.453125 8.457031 L 18.394531 8.492188 L 19.515625 8.492188 L 19.511719 8.421875 C 19.488281 8.1875 19.472656 7.953125 19.472656 7.722656 C 19.472656 7.546875 19.484375 7.359375 19.5 7.148438 L 19.503906 7.078125 L 17.34375 7.078125 L 17.398438 7.167969 L 18.359375 5.09375 L 18.304688 5.128906 L 19.976562 5.128906 L 19.988281 5.089844 C 20.519531 3.792969 21.417969 2.6875 22.59375 1.890625 C 23.792969 1.078125 25.203125 0.644531 26.667969 0.644531 C 28.542969 0.644531 30.320312 1.351562 31.671875 2.636719 L 31.65625 2.566406 L 30.820312 4.367188 L 30.925781 4.355469 C 29.9375 3.132812 28.476562 2.429688 26.917969 2.429688 C 25.082031 2.429688 23.367188 3.429688 22.445312 5.035156 L 22.390625 5.128906 Z M 26.917969 2.554688 C 28.4375 2.554688 29.863281 3.242188 30.828125 4.433594 L 30.890625 4.511719 L 30.933594 4.421875 L 31.769531 2.617188 L 31.785156 2.578125 L 31.753906 2.546875 C 30.382812 1.242188 28.574219 0.519531 26.667969 0.519531 C 25.179688 0.519531 23.746094 0.960938 22.523438 1.789062 C 21.332031 2.597656 20.414062 3.722656 19.878906 5.042969 L 19.933594 5.003906 L 18.265625 5.003906 L 18.25 5.039062 L 17.289062 7.117188 L 17.246094 7.203125 L 19.441406 7.203125 L 19.378906 7.136719 C 19.359375 7.351562 19.351562 7.542969 19.351562 7.722656 C 19.351562 7.957031 19.363281 8.195312 19.386719 8.4375 L 19.449219 8.367188 L 18.359375 8.367188 L 18.339844 8.402344 L 17.378906 10.480469 L 17.339844 10.566406 L 19.984375 10.566406 L 19.929688 10.53125 C 21.078125 13.199219 23.726562 14.925781 26.671875 14.925781 C 28.148438 14.925781 29.570312 14.496094 30.785156 13.679688 L 30.8125 13.660156 L 30.8125 10.917969 L 30.707031 11.042969 C 29.746094 12.144531 28.367188 12.773438 26.917969 12.773438 C 25.214844 12.773438 23.636719 11.914062 22.699219 10.472656 L 22.648438 10.566406 L 28.023438 10.566406 L 28.042969 10.53125 L 29.003906 8.457031 L 29.042969 8.367188 L 21.863281 8.367188 L 21.925781 8.421875 C 21.886719 8.167969 21.867188 7.914062 21.867188 7.664062 C 21.867188 7.492188 21.878906 7.320312 21.894531 7.148438 L 21.832031 7.203125 L 29.582031 7.203125 L 29.597656 7.167969 L 30.5625 5.09375 L 30.601562 5.003906 L 22.5 5.003906 L 22.550781 5.097656 C 23.453125 3.53125 25.125 2.554688 26.917969 2.554688 "/>
</g>
</svg>
