<?xml version="1.0" encoding="UTF-8"?>
<svg xmlns="http://www.w3.org/2000/svg" xmlns:xlink="http://www.w3.org/1999/xlink" width="34px" height="20px" viewBox="0 0 34 20" version="1.1">
<g id="surface1">
<path style=" stroke:none;fill-rule:nonzero;fill:rgb(100%,100%,100%);fill-opacity:1;" d="M 21.964844 1.117188 L 18.324219 0.808594 L 6.09375 0.621094 L 6.09375 19.644531 L 19.148438 19.644531 L 23.496094 18.449219 L 26.457031 15.855469 L 27.90625 11.773438 L 27.90625 7.054688 L 25.742188 3.265625 Z M 21.964844 1.117188 "/>
<path style=" stroke:none;fill-rule:nonzero;fill:rgb(3.921569%,4.313725%,3.529412%);fill-opacity:1;" d="M 6.480469 0.941406 L 6.480469 19.058594 L 17.367188 19.058594 C 23.941406 19.058594 27.519531 15.960938 27.519531 9.976562 C 27.519531 3.824219 23.640625 0.941406 17.367188 0.941406 Z M 17.367188 0 C 27.011719 0 28.449219 6.25 28.449219 9.976562 C 28.449219 16.441406 24.515625 20 17.367188 20 C 17.367188 20 5.78125 20 5.550781 20 C 5.550781 19.761719 5.550781 0.234375 5.550781 0 C 5.78125 0 17.367188 0 17.367188 0 Z M 17.367188 0 "/>
<path style=" stroke:none;fill-rule:nonzero;fill:rgb(83.529412%,0.392157%,44.705882%);fill-opacity:1;" d="M 13.199219 7.167969 C 13.199219 7.734375 13.199219 8.644531 13.199219 9.210938 C 13.507812 9.210938 13.820312 9.210938 13.820312 9.210938 C 14.25 9.210938 14.648438 9.085938 14.648438 8.171875 C 14.648438 7.28125 14.207031 7.167969 13.820312 7.167969 C 13.820312 7.167969 13.507812 7.167969 13.199219 7.167969 Z M 23.554688 6.148438 L 24.558594 6.148438 C 24.558594 6.148438 24.558594 8.464844 24.558594 9.210938 C 24.78125 9.210938 25.394531 9.210938 26.046875 9.210938 C 25.640625 3.65625 21.316406 2.457031 17.390625 2.457031 L 13.203125 2.457031 L 13.203125 6.152344 L 13.820312 6.152344 C 14.949219 6.152344 15.652344 6.925781 15.652344 8.171875 C 15.652344 9.457031 14.96875 10.226562 13.820312 10.226562 L 13.203125 10.226562 L 13.203125 17.621094 L 17.386719 17.621094 C 23.773438 17.621094 25.996094 14.621094 26.074219 10.226562 L 23.550781 10.226562 L 23.550781 6.148438 Z M 20.753906 8.425781 L 21.480469 8.425781 L 21.148438 7.273438 L 21.089844 7.273438 Z M 19.191406 10.226562 L 20.40625 6.148438 L 21.835938 6.148438 L 23.050781 10.226562 L 22.003906 10.226562 L 21.777344 9.4375 L 20.464844 9.4375 L 20.234375 10.226562 Z M 18.707031 9.210938 L 18.707031 10.226562 L 16.222656 10.226562 L 16.222656 6.152344 L 18.628906 6.152344 L 18.628906 7.164062 C 18.628906 7.164062 17.769531 7.164062 17.226562 7.164062 C 17.226562 7.304688 17.226562 7.464844 17.226562 7.636719 L 18.550781 7.636719 L 18.550781 8.652344 L 17.226562 8.652344 C 17.226562 8.855469 17.226562 9.046875 17.226562 9.210938 C 17.785156 9.210938 18.707031 9.210938 18.707031 9.210938 Z M 18.707031 9.210938 "/>
<path style=" stroke:none;fill-rule:nonzero;fill:rgb(0%,0%,0%);fill-opacity:1;" d="M 11.882812 8.1875 C 11.882812 9.398438 10.914062 10.378906 9.71875 10.378906 C 8.523438 10.378906 7.550781 9.398438 7.550781 8.1875 C 7.550781 6.976562 8.523438 5.996094 9.71875 5.996094 C 10.914062 5.996094 11.882812 6.976562 11.882812 8.1875 Z M 7.980469 17.617188 L 11.46875 17.617188 L 11.46875 11.34375 L 7.980469 11.34375 Z M 7.980469 17.617188 "/>
</g>
</svg>
