<?xml version="1.0" encoding="UTF-8"?>
<svg xmlns="http://www.w3.org/2000/svg" xmlns:xlink="http://www.w3.org/1999/xlink" width="34px" height="20px" viewBox="0 0 34 20" version="1.1">
<g id="surface1">
<path style=" stroke:none;fill-rule:evenodd;fill:rgb(14.509804%,23.137255%,50.196078%);fill-opacity:1;" d="M 13.683594 8.125 L 12.132812 8.125 C 12.027344 8.125 11.9375 8.199219 11.921875 8.304688 L 11.296875 12.265625 C 11.285156 12.34375 11.34375 12.414062 11.421875 12.414062 L 12.164062 12.414062 C 12.269531 12.414062 12.359375 12.335938 12.375 12.230469 L 12.542969 11.164062 C 12.558594 11.058594 12.648438 10.984375 12.753906 10.984375 L 13.246094 10.984375 C 14.265625 10.984375 14.851562 10.492188 15.007812 9.515625 C 15.074219 9.089844 15.011719 8.753906 14.808594 8.519531 C 14.589844 8.261719 14.199219 8.125 13.683594 8.125 Z M 13.859375 9.570312 C 13.777344 10.125 13.351562 10.125 12.941406 10.125 L 12.707031 10.125 L 12.871094 9.089844 C 12.882812 9.027344 12.933594 8.980469 13 8.980469 L 13.105469 8.980469 C 13.386719 8.980469 13.648438 8.980469 13.785156 9.140625 C 13.867188 9.234375 13.890625 9.375 13.859375 9.570312 Z M 13.859375 9.570312 "/>
<path style=" stroke:none;fill-rule:evenodd;fill:rgb(14.509804%,23.137255%,50.196078%);fill-opacity:1;" d="M 18.308594 9.550781 L 17.566406 9.550781 C 17.503906 9.550781 17.449219 9.597656 17.4375 9.660156 L 17.40625 9.867188 L 17.355469 9.792969 C 17.195312 9.5625 16.835938 9.484375 16.480469 9.484375 C 15.660156 9.484375 14.960938 10.101562 14.824219 10.96875 C 14.753906 11.402344 14.855469 11.816406 15.101562 12.105469 C 15.328125 12.371094 15.648438 12.480469 16.035156 12.480469 C 16.695312 12.480469 17.058594 12.058594 17.058594 12.058594 L 17.027344 12.265625 C 17.015625 12.34375 17.074219 12.414062 17.152344 12.414062 L 17.820312 12.414062 C 17.925781 12.414062 18.015625 12.335938 18.035156 12.230469 L 18.433594 9.699219 C 18.445312 9.625 18.386719 9.550781 18.308594 9.550781 Z M 17.273438 10.992188 C 17.203125 11.414062 16.867188 11.699219 16.4375 11.699219 C 16.222656 11.699219 16.050781 11.628906 15.941406 11.5 C 15.832031 11.367188 15.789062 11.183594 15.824219 10.980469 C 15.890625 10.558594 16.234375 10.265625 16.65625 10.265625 C 16.863281 10.265625 17.035156 10.335938 17.148438 10.46875 C 17.261719 10.601562 17.304688 10.789062 17.273438 10.992188 Z M 17.273438 10.992188 "/>
<path style=" stroke:none;fill-rule:evenodd;fill:rgb(14.509804%,23.137255%,50.196078%);fill-opacity:1;" d="M 22.253906 9.550781 L 21.507812 9.550781 C 21.4375 9.550781 21.371094 9.585938 21.332031 9.648438 L 20.304688 11.15625 L 19.867188 9.707031 C 19.839844 9.613281 19.757812 9.550781 19.660156 9.550781 L 18.929688 9.550781 C 18.839844 9.550781 18.78125 9.640625 18.808594 9.722656 L 19.628906 12.125 L 18.855469 13.210938 C 18.796875 13.296875 18.859375 13.414062 18.960938 13.414062 L 19.707031 13.414062 C 19.777344 13.414062 19.84375 13.378906 19.882812 13.320312 L 22.359375 9.753906 C 22.417969 9.667969 22.359375 9.550781 22.253906 9.550781 Z M 22.253906 9.550781 "/>
<path style=" stroke:none;fill-rule:evenodd;fill:rgb(9.019608%,60.784314%,84.313725%);fill-opacity:1;" d="M 24.71875 8.125 L 23.171875 8.125 C 23.066406 8.125 22.976562 8.199219 22.957031 8.304688 L 22.332031 12.265625 C 22.320312 12.34375 22.382812 12.414062 22.460938 12.414062 L 23.253906 12.414062 C 23.328125 12.414062 23.390625 12.359375 23.402344 12.285156 L 23.582031 11.164062 C 23.597656 11.058594 23.6875 10.984375 23.792969 10.984375 L 24.28125 10.984375 C 25.300781 10.984375 25.890625 10.492188 26.042969 9.515625 C 26.113281 9.089844 26.046875 8.753906 25.847656 8.519531 C 25.625 8.261719 25.238281 8.125 24.71875 8.125 Z M 24.898438 9.570312 C 24.8125 10.125 24.386719 10.125 23.976562 10.125 L 23.746094 10.125 L 23.910156 9.089844 C 23.917969 9.027344 23.972656 8.980469 24.035156 8.980469 L 24.144531 8.980469 C 24.421875 8.980469 24.6875 8.980469 24.824219 9.140625 C 24.902344 9.234375 24.929688 9.375 24.898438 9.570312 Z M 24.898438 9.570312 "/>
<path style=" stroke:none;fill-rule:evenodd;fill:rgb(9.019608%,60.784314%,84.313725%);fill-opacity:1;" d="M 29.34375 9.550781 L 28.601562 9.550781 C 28.539062 9.550781 28.484375 9.597656 28.476562 9.660156 L 28.441406 9.867188 L 28.390625 9.792969 C 28.230469 9.5625 27.875 9.484375 27.515625 9.484375 C 26.699219 9.484375 26 10.101562 25.863281 10.96875 C 25.792969 11.402344 25.890625 11.816406 26.136719 12.105469 C 26.363281 12.371094 26.6875 12.480469 27.070312 12.480469 C 27.730469 12.480469 28.097656 12.058594 28.097656 12.058594 L 28.0625 12.265625 C 28.050781 12.34375 28.113281 12.414062 28.191406 12.414062 L 28.859375 12.414062 C 28.964844 12.414062 29.054688 12.335938 29.070312 12.230469 L 29.472656 9.699219 C 29.484375 9.625 29.421875 9.550781 29.34375 9.550781 Z M 28.3125 10.992188 C 28.238281 11.414062 27.902344 11.699219 27.476562 11.699219 C 27.261719 11.699219 27.085938 11.628906 26.976562 11.5 C 26.867188 11.367188 26.828125 11.183594 26.859375 10.980469 C 26.929688 10.558594 27.269531 10.265625 27.691406 10.265625 C 27.902344 10.265625 28.074219 10.335938 28.1875 10.46875 C 28.300781 10.601562 28.34375 10.789062 28.3125 10.992188 Z M 28.3125 10.992188 "/>
<path style=" stroke:none;fill-rule:evenodd;fill:rgb(9.019608%,60.784314%,84.313725%);fill-opacity:1;" d="M 30.21875 8.234375 L 29.582031 12.265625 C 29.570312 12.34375 29.628906 12.414062 29.710938 12.414062 L 30.347656 12.414062 C 30.453125 12.414062 30.542969 12.335938 30.558594 12.230469 L 31.1875 8.273438 C 31.199219 8.195312 31.136719 8.125 31.058594 8.125 L 30.34375 8.125 C 30.28125 8.125 30.226562 8.171875 30.21875 8.234375 Z M 30.21875 8.234375 "/>
<path style=" stroke:none;fill-rule:evenodd;fill:rgb(14.509804%,23.137255%,50.196078%);fill-opacity:1;" d="M 4.871094 13.183594 L 4.988281 12.433594 L 4.726562 12.425781 L 3.464844 12.425781 L 4.339844 6.890625 C 4.34375 6.875 4.351562 6.859375 4.367188 6.847656 C 4.378906 6.835938 4.394531 6.832031 4.410156 6.832031 L 6.535156 6.832031 C 7.238281 6.832031 7.726562 6.976562 7.980469 7.265625 C 8.097656 7.402344 8.171875 7.542969 8.210938 7.699219 C 8.25 7.863281 8.25 8.058594 8.210938 8.296875 L 8.210938 8.464844 L 8.328125 8.535156 C 8.429688 8.585938 8.507812 8.648438 8.570312 8.71875 C 8.671875 8.832031 8.738281 8.980469 8.765625 9.15625 C 8.792969 9.335938 8.785156 9.546875 8.738281 9.789062 C 8.683594 10.066406 8.59375 10.308594 8.476562 10.507812 C 8.367188 10.691406 8.226562 10.84375 8.0625 10.960938 C 7.90625 11.070312 7.71875 11.15625 7.507812 11.210938 C 7.300781 11.261719 7.070312 11.289062 6.8125 11.289062 L 6.648438 11.289062 C 6.527344 11.289062 6.414062 11.332031 6.324219 11.410156 C 6.234375 11.488281 6.175781 11.59375 6.15625 11.707031 L 6.144531 11.777344 L 5.933594 13.097656 L 5.925781 13.148438 C 5.921875 13.164062 5.917969 13.171875 5.910156 13.175781 C 5.90625 13.179688 5.898438 13.183594 5.890625 13.183594 Z M 4.871094 13.183594 "/>
<path style=" stroke:none;fill-rule:evenodd;fill:rgb(9.019608%,60.784314%,84.313725%);fill-opacity:1;" d="M 8.441406 8.332031 C 8.433594 8.371094 8.425781 8.414062 8.417969 8.457031 C 8.140625 9.890625 7.183594 10.386719 5.957031 10.386719 L 5.335938 10.386719 C 5.1875 10.386719 5.0625 10.492188 5.039062 10.640625 L 4.71875 12.660156 L 4.628906 13.230469 C 4.613281 13.328125 4.6875 13.414062 4.785156 13.414062 L 5.890625 13.414062 C 6.019531 13.414062 6.132812 13.320312 6.152344 13.191406 L 6.164062 13.132812 L 6.371094 11.816406 L 6.382812 11.746094 C 6.40625 11.617188 6.515625 11.519531 6.648438 11.519531 L 6.8125 11.519531 C 7.882812 11.519531 8.71875 11.089844 8.964844 9.832031 C 9.066406 9.308594 9.015625 8.871094 8.742188 8.5625 C 8.660156 8.472656 8.558594 8.394531 8.441406 8.332031 Z M 8.441406 8.332031 "/>
<path style=" stroke:none;fill-rule:evenodd;fill:rgb(13.333333%,17.647059%,39.607843%);fill-opacity:1;" d="M 8.148438 8.214844 C 8.105469 8.203125 8.0625 8.191406 8.015625 8.179688 C 7.96875 8.171875 7.925781 8.164062 7.875 8.15625 C 7.707031 8.128906 7.523438 8.113281 7.328125 8.113281 L 5.664062 8.113281 C 5.621094 8.113281 5.582031 8.125 5.550781 8.140625 C 5.472656 8.175781 5.414062 8.25 5.402344 8.339844 L 5.046875 10.574219 L 5.039062 10.640625 C 5.0625 10.492188 5.1875 10.386719 5.335938 10.386719 L 5.957031 10.386719 C 7.183594 10.386719 8.140625 9.890625 8.417969 8.457031 C 8.425781 8.414062 8.433594 8.371094 8.441406 8.332031 C 8.371094 8.292969 8.292969 8.261719 8.210938 8.234375 C 8.191406 8.226562 8.167969 8.222656 8.148438 8.214844 Z M 8.148438 8.214844 "/>
<path style=" stroke:none;fill-rule:evenodd;fill:rgb(14.509804%,23.137255%,50.196078%);fill-opacity:1;" d="M 5.402344 8.339844 C 5.414062 8.25 5.472656 8.175781 5.550781 8.140625 C 5.582031 8.125 5.621094 8.113281 5.664062 8.113281 L 7.328125 8.113281 C 7.523438 8.113281 7.707031 8.128906 7.875 8.15625 C 7.925781 8.164062 7.96875 8.171875 8.015625 8.179688 C 8.0625 8.191406 8.105469 8.203125 8.148438 8.214844 C 8.167969 8.222656 8.191406 8.226562 8.210938 8.234375 C 8.292969 8.261719 8.371094 8.292969 8.441406 8.332031 C 8.523438 7.800781 8.441406 7.441406 8.152344 7.113281 C 7.835938 6.753906 7.265625 6.601562 6.535156 6.601562 L 4.414062 6.601562 C 4.261719 6.601562 4.136719 6.707031 4.113281 6.855469 L 3.226562 12.449219 C 3.210938 12.558594 3.296875 12.660156 3.410156 12.660156 L 4.71875 12.660156 L 5.046875 10.574219 Z M 5.402344 8.339844 "/>
</g>
</svg>
