<?xml version="1.0" encoding="UTF-8"?>
<svg xmlns="http://www.w3.org/2000/svg" xmlns:xlink="http://www.w3.org/1999/xlink" width="57px" height="20px" viewBox="0 0 57 20" version="1.1">
<g id="surface1">
<path style=" stroke:none;fill-rule:nonzero;fill:rgb(0%,63.137255%,91.372549%);fill-opacity:1;" d="M 3.238281 0 C 1.453125 0 0.0078125 1.433594 0.0078125 3.203125 L 0.0078125 16.796875 C 0.0078125 18.566406 1.453125 20 3.238281 20 L 16.957031 20 C 18.742188 20 20.1875 18.566406 20.1875 16.796875 L 20.1875 16.65625 C 20.128906 16.632812 14.945312 14.488281 12.308594 13.234375 C 10.53125 15.402344 8.238281 16.71875 5.855469 16.71875 C 1.828125 16.71875 0.460938 13.226562 2.367188 10.925781 C 2.785156 10.425781 3.492188 9.945312 4.589844 9.679688 C 6.304688 9.261719 9.039062 9.9375 11.597656 10.777344 C 12.058594 9.9375 12.449219 9.007812 12.734375 8.023438 L 4.84375 8.023438 L 4.84375 7.230469 L 8.914062 7.230469 L 8.914062 5.8125 L 3.984375 5.8125 L 3.984375 5.019531 L 8.914062 5.019531 L 8.914062 2.992188 C 8.914062 2.992188 8.914062 2.652344 9.261719 2.652344 L 11.25 2.652344 L 11.25 5.019531 L 16.125 5.019531 L 16.125 5.8125 L 11.25 5.8125 L 11.25 7.230469 L 15.230469 7.230469 C 14.847656 8.777344 14.269531 10.199219 13.546875 11.449219 C 14.753906 11.878906 15.835938 12.289062 16.644531 12.558594 C 19.335938 13.453125 20.09375 13.5625 20.191406 13.570312 L 20.191406 3.203125 C 20.191406 1.433594 18.742188 0 16.957031 0 Z M 5.453125 10.835938 C 5.28125 10.839844 5.105469 10.847656 4.929688 10.863281 C 4.425781 10.914062 3.480469 11.136719 2.960938 11.589844 C 1.410156 12.929688 2.339844 15.378906 5.480469 15.378906 C 7.304688 15.378906 9.128906 14.222656 10.5625 12.371094 C 8.714844 11.480469 7.125 10.816406 5.453125 10.835938 Z M 5.453125 10.835938 "/>
<path style=" stroke:none;fill-rule:nonzero;fill:rgb(24.705882%,23.137255%,22.745098%);fill-opacity:1;" d="M 55.292969 13.902344 L 54.390625 15.847656 L 53.476562 13.902344 L 52.585938 13.902344 L 53.976562 16.589844 L 53.976562 18.464844 L 54.796875 18.464844 L 54.796875 16.589844 L 54.800781 16.582031 L 56.1875 13.902344 Z M 48.695312 15.078125 L 49.332031 16.972656 L 48.039062 16.972656 Z M 49.527344 17.546875 L 49.832031 18.464844 L 50.691406 18.464844 L 49 13.902344 L 48.34375 13.902344 L 46.660156 18.464844 L 47.519531 18.464844 L 47.839844 17.546875 Z M 43.117188 16.085938 L 42.207031 16.085938 L 42.207031 14.523438 L 43.117188 14.523438 C 43.578125 14.523438 43.851562 14.921875 43.851562 15.308594 C 43.851562 15.683594 43.59375 16.085938 43.117188 16.085938 M 43.164062 13.902344 L 41.378906 13.902344 L 41.378906 18.464844 L 42.207031 18.464844 L 42.207031 16.710938 L 43.164062 16.710938 C 44.054688 16.710938 44.675781 16.132812 44.675781 15.308594 C 44.675781 14.480469 44.054688 13.902344 43.164062 13.902344 M 37.203125 18.464844 L 38.03125 18.464844 L 38.03125 13.902344 L 37.203125 13.902344 Z M 31.394531 13.902344 L 31.394531 18.46875 L 34.175781 18.46875 L 34.175781 17.84375 L 32.222656 17.84375 L 32.222656 13.902344 Z M 26.691406 15.078125 L 27.324219 16.972656 L 26.03125 16.972656 Z M 27.519531 17.546875 L 27.828125 18.464844 L 28.683594 18.464844 L 26.996094 13.902344 L 26.339844 13.902344 L 24.652344 18.464844 L 25.511719 18.464844 L 25.832031 17.546875 Z M 33.335938 4.984375 L 29.792969 4.984375 L 29.792969 3.722656 L 33.902344 3.722656 L 33.902344 2.933594 L 29.792969 2.933594 L 29.792969 1.335938 L 27.960938 1.335938 C 27.761719 1.335938 27.597656 1.503906 27.597656 1.710938 L 27.597656 2.933594 L 23.519531 2.933594 L 23.519531 3.722656 L 27.597656 3.722656 L 27.597656 4.984375 L 24.15625 4.984375 L 24.15625 5.769531 L 31.011719 5.769531 C 31.011719 5.769531 30.632812 7.242188 28.75 8.828125 C 27.066406 7.558594 26.503906 6.550781 26.503906 6.550781 L 24.664062 6.550781 C 25.40625 7.832031 26.464844 8.859375 27.605469 9.671875 C 26.558594 10.347656 25.199219 11 23.445312 11.519531 L 23.445312 12.460938 C 23.445312 12.460938 26.152344 11.953125 28.769531 10.421875 C 31.390625 11.941406 34.019531 12.460938 34.019531 12.460938 L 34.019531 11.570312 C 32.335938 10.960938 31.003906 10.292969 29.953125 9.644531 C 31.472656 8.527344 32.800781 7.011719 33.335938 4.984375 M 44.84375 1.492188 L 43 1.492188 L 43 3.410156 L 38.453125 3.410156 L 38.453125 4.179688 L 43 4.179688 L 43 11.066406 C 42.984375 11.222656 42.859375 11.34375 42.703125 11.351562 L 41.765625 11.351562 L 41.765625 12.152344 L 44.15625 12.152344 C 44.53125 12.136719 44.835938 11.824219 44.84375 11.4375 L 44.84375 4.179688 L 45.59375 4.179688 L 45.59375 3.410156 L 44.84375 3.410156 Z M 40.953125 5.480469 C 40.886719 5.34375 40.75 5.246094 40.589844 5.246094 L 39.054688 5.246094 L 40.25 8.992188 L 42.066406 8.992188 Z M 36.414062 1.402344 L 34.300781 6.375 L 35.921875 6.375 L 35.921875 12.292969 L 37.699219 12.292969 L 37.699219 4.445312 L 37.054688 4.445312 L 38.390625 1.402344 Z M 56.992188 12.019531 L 56.34375 9.84375 C 56.300781 9.707031 56.175781 9.605469 56.023438 9.605469 L 54.308594 9.605469 L 54.804688 11.277344 L 52.785156 11.277344 L 52.785156 8.039062 L 56.753906 8.039062 L 56.753906 7.269531 L 52.785156 7.269531 L 52.785156 5.742188 L 56.753906 5.742188 L 56.753906 4.972656 L 46.851562 4.972656 L 46.851562 5.742188 L 50.820312 5.742188 L 50.820312 7.269531 L 46.851562 7.269531 L 46.851562 8.039062 L 50.820312 8.039062 L 50.820312 11.277344 L 46.851562 11.277344 L 46.851562 12.046875 L 56.992188 12.046875 L 56.984375 12.019531 Z M 48.914062 3.136719 L 54.691406 3.136719 L 54.691406 4.273438 L 56.757812 4.273438 L 56.757812 2.925781 C 56.753906 2.921875 56.753906 2.921875 56.753906 2.917969 C 56.753906 2.613281 56.515625 2.371094 56.222656 2.363281 L 52.882812 2.363281 L 52.882812 1.304688 L 50.722656 1.304688 L 50.722656 2.363281 L 46.851562 2.363281 L 46.851562 4.273438 L 48.914062 4.273438 Z M 48.914062 3.136719 "/>
</g>
</svg>
