<?xml version="1.0" encoding="UTF-8"?>
<svg xmlns="http://www.w3.org/2000/svg" xmlns:xlink="http://www.w3.org/1999/xlink" width="34px" height="20px" viewBox="0 0 34 20" version="1.1">
<g id="surface1">
<path style=" stroke:none;fill-rule:nonzero;fill:rgb(0%,78.431373%,0%);fill-opacity:1;" d="M 12.136719 18.664062 C 12.0625 18.707031 11.984375 18.75 11.90625 18.796875 C 11.683594 18.929688 11.457031 19.058594 11.230469 19.1875 C 11.132812 19.246094 11.035156 19.304688 10.9375 19.363281 C 10.808594 19.4375 10.679688 19.511719 10.550781 19.585938 C 10.316406 19.71875 10.089844 19.863281 9.851562 19.988281 C 9.683594 20.027344 9.492188 19.957031 9.414062 19.792969 C 9.34375 19.660156 9.386719 19.507812 9.425781 19.375 C 9.484375 19.144531 9.546875 18.914062 9.609375 18.6875 C 9.667969 18.457031 9.730469 18.226562 9.789062 18 C 9.824219 17.875 9.859375 17.75 9.886719 17.625 C 9.917969 17.511719 9.953125 17.398438 9.972656 17.28125 C 9.988281 17.125 9.953125 16.964844 9.882812 16.828125 C 9.824219 16.730469 9.75 16.648438 9.660156 16.582031 C 9.5 16.460938 9.34375 16.339844 9.1875 16.214844 C 9.070312 16.117188 8.953125 16.015625 8.835938 15.910156 C 8.730469 15.8125 8.621094 15.714844 8.519531 15.613281 C 8.382812 15.480469 8.25 15.339844 8.117188 15.199219 C 8.019531 15.085938 7.914062 14.972656 7.820312 14.855469 C 7.730469 14.746094 7.640625 14.632812 7.550781 14.519531 C 7.410156 14.335938 7.28125 14.140625 7.152344 13.949219 C 7.125 13.910156 7.101562 13.867188 7.074219 13.828125 C 6.9375 13.609375 6.808594 13.382812 6.691406 13.148438 C 6.609375 12.984375 6.53125 12.816406 6.453125 12.648438 C 6.429688 12.585938 6.402344 12.519531 6.375 12.457031 C 6.28125 12.222656 6.199219 11.984375 6.128906 11.742188 C 6.0625 11.523438 6.003906 11.296875 5.957031 11.070312 C 5.910156 10.839844 5.871094 10.605469 5.84375 10.371094 C 5.761719 9.679688 5.773438 8.976562 5.871094 8.289062 C 5.90625 8.0625 5.945312 7.835938 6 7.617188 C 6.054688 7.382812 6.117188 7.15625 6.191406 6.929688 C 6.265625 6.695312 6.359375 6.464844 6.449219 6.234375 L 6.457031 6.214844 C 6.5625 5.984375 6.667969 5.757812 6.789062 5.539062 C 7.050781 5.050781 7.359375 4.585938 7.707031 4.15625 C 7.75 4.105469 7.789062 4.058594 7.828125 4.007812 C 7.984375 3.824219 8.144531 3.644531 8.3125 3.472656 C 8.375 3.410156 8.4375 3.347656 8.5 3.289062 C 8.671875 3.117188 8.851562 2.953125 9.035156 2.792969 C 9.089844 2.75 9.144531 2.703125 9.199219 2.660156 C 9.625 2.3125 10.078125 1.996094 10.550781 1.71875 C 10.738281 1.609375 10.925781 1.503906 11.117188 1.402344 C 11.160156 1.378906 11.203125 1.359375 11.246094 1.335938 C 11.472656 1.226562 11.699219 1.117188 11.925781 1.019531 C 12.371094 0.828125 12.824219 0.664062 13.289062 0.53125 C 13.535156 0.457031 13.78125 0.390625 14.03125 0.335938 C 14.234375 0.289062 14.441406 0.246094 14.648438 0.210938 C 14.898438 0.160156 15.152344 0.125 15.40625 0.0976562 C 15.820312 0.046875 16.238281 0.015625 16.652344 0.00390625 L 17.308594 0.00390625 C 17.792969 0.015625 18.28125 0.0546875 18.761719 0.117188 C 18.992188 0.148438 19.21875 0.1875 19.445312 0.226562 C 19.671875 0.273438 19.898438 0.320312 20.125 0.375 C 20.355469 0.429688 20.582031 0.492188 20.808594 0.5625 C 21.277344 0.703125 21.738281 0.875 22.1875 1.074219 C 22.414062 1.171875 22.636719 1.285156 22.859375 1.394531 L 22.878906 1.402344 C 23.101562 1.523438 23.328125 1.648438 23.546875 1.78125 C 24.027344 2.070312 24.484375 2.40625 24.917969 2.765625 C 24.925781 2.773438 24.945312 2.789062 24.953125 2.796875 C 25.167969 2.984375 25.382812 3.175781 25.582031 3.378906 C 25.617188 3.414062 25.648438 3.449219 25.683594 3.484375 C 25.847656 3.648438 26 3.828125 26.152344 4.003906 C 26.0625 4.042969 25.972656 4.082031 25.886719 4.121094 C 25.78125 4.167969 25.679688 4.210938 25.582031 4.257812 C 25.355469 4.359375 25.132812 4.460938 24.910156 4.558594 C 24.714844 4.648438 24.515625 4.738281 24.316406 4.828125 C 24.285156 4.839844 24.257812 4.851562 24.230469 4.863281 C 24.003906 4.964844 23.773438 5.070312 23.546875 5.171875 C 23.085938 5.378906 22.628906 5.582031 22.171875 5.789062 C 21.71875 5.992188 21.265625 6.195312 20.8125 6.402344 C 20.582031 6.507812 20.355469 6.609375 20.128906 6.710938 C 19.984375 6.773438 19.84375 6.839844 19.703125 6.90625 C 19.613281 6.941406 19.527344 6.980469 19.441406 7.019531 C 19.210938 7.125 18.976562 7.226562 18.746094 7.332031 C 18.558594 7.417969 18.371094 7.5 18.183594 7.585938 C 18.148438 7.605469 18.109375 7.621094 18.070312 7.640625 C 17.84375 7.742188 17.613281 7.84375 17.386719 7.945312 C 16.929688 8.152344 16.472656 8.359375 16.015625 8.5625 C 15.664062 8.71875 15.316406 8.878906 14.96875 9.035156 C 14.863281 9.085938 14.757812 9.125 14.644531 9.148438 C 14.417969 9.1875 14.179688 9.15625 13.972656 9.0625 C 13.921875 9.035156 13.871094 9.007812 13.824219 8.976562 C 13.648438 8.847656 13.472656 8.722656 13.292969 8.59375 C 13.148438 8.492188 13.007812 8.386719 12.859375 8.285156 C 12.777344 8.222656 12.691406 8.160156 12.601562 8.097656 C 12.382812 7.9375 12.160156 7.777344 11.9375 7.617188 C 11.933594 7.617188 11.925781 7.609375 11.921875 7.609375 C 11.761719 7.492188 11.601562 7.375 11.441406 7.257812 C 11.378906 7.214844 11.304688 7.1875 11.234375 7.167969 C 10.992188 7.15625 10.78125 7.390625 10.835938 7.632812 C 11.03125 8.089844 11.246094 8.539062 11.445312 8.992188 C 11.550781 9.230469 11.660156 9.46875 11.765625 9.703125 C 11.808594 9.796875 11.847656 9.890625 11.890625 9.984375 C 11.949219 10.117188 12.011719 10.25 12.074219 10.386719 C 12.175781 10.613281 12.277344 10.84375 12.382812 11.070312 C 12.449219 11.214844 12.515625 11.363281 12.582031 11.507812 C 12.621094 11.59375 12.65625 11.679688 12.695312 11.765625 C 12.816406 12.007812 12.890625 12.273438 13.054688 12.492188 C 13.121094 12.554688 13.195312 12.609375 13.269531 12.652344 C 13.5 12.765625 13.777344 12.753906 13.996094 12.621094 C 14.074219 12.574219 14.152344 12.527344 14.230469 12.476562 C 14.375 12.394531 14.519531 12.3125 14.664062 12.226562 C 15.121094 11.960938 15.574219 11.695312 16.03125 11.429688 C 16.230469 11.3125 16.425781 11.199219 16.621094 11.082031 C 16.652344 11.0625 16.6875 11.042969 16.71875 11.027344 C 16.949219 10.894531 17.171875 10.761719 17.398438 10.628906 C 17.53125 10.554688 17.660156 10.480469 17.789062 10.402344 C 17.886719 10.34375 17.988281 10.285156 18.089844 10.226562 C 18.316406 10.09375 18.542969 9.960938 18.769531 9.832031 C 18.839844 9.792969 18.910156 9.75 18.976562 9.710938 C 19.140625 9.617188 19.300781 9.523438 19.457031 9.425781 C 19.914062 9.160156 20.371094 8.898438 20.828125 8.628906 C 21 8.527344 21.175781 8.425781 21.347656 8.324219 C 21.398438 8.292969 21.449219 8.261719 21.5 8.234375 C 21.730469 8.101562 21.957031 7.96875 22.183594 7.832031 C 22.304688 7.765625 22.421875 7.695312 22.539062 7.625 C 22.648438 7.5625 22.757812 7.5 22.863281 7.4375 C 23.324219 7.167969 23.785156 6.898438 24.246094 6.628906 C 24.460938 6.503906 24.679688 6.378906 24.894531 6.25 C 24.910156 6.242188 24.929688 6.230469 24.945312 6.21875 C 25.171875 6.089844 25.394531 5.957031 25.617188 5.828125 C 25.78125 5.734375 25.9375 5.640625 26.097656 5.546875 C 26.164062 5.507812 26.226562 5.46875 26.292969 5.433594 C 26.507812 5.3125 26.714844 5.175781 26.9375 5.066406 C 27.015625 5.226562 27.117188 5.378906 27.199219 5.539062 C 27.324219 5.769531 27.441406 6.003906 27.542969 6.242188 C 27.570312 6.3125 27.597656 6.382812 27.625 6.449219 C 27.691406 6.609375 27.75 6.773438 27.800781 6.9375 C 27.875 7.15625 27.9375 7.378906 27.988281 7.605469 C 28.042969 7.832031 28.085938 8.066406 28.121094 8.296875 C 28.152344 8.523438 28.175781 8.757812 28.1875 8.984375 C 28.199219 9.21875 28.203125 9.449219 28.195312 9.679688 C 28.1875 9.914062 28.171875 10.140625 28.144531 10.371094 C 28.121094 10.601562 28.082031 10.828125 28.035156 11.054688 C 27.988281 11.285156 27.929688 11.511719 27.867188 11.738281 C 27.722656 12.21875 27.535156 12.6875 27.308594 13.136719 C 27.0625 13.625 26.773438 14.085938 26.441406 14.519531 C 26.382812 14.59375 26.324219 14.671875 26.265625 14.746094 C 26.140625 14.898438 26.011719 15.046875 25.878906 15.195312 C 25.785156 15.296875 25.691406 15.394531 25.597656 15.492188 C 25.453125 15.636719 25.308594 15.773438 25.160156 15.90625 C 25.082031 15.976562 25 16.046875 24.921875 16.113281 C 24.726562 16.28125 24.523438 16.4375 24.316406 16.589844 C 24.285156 16.609375 24.253906 16.632812 24.222656 16.65625 C 24 16.8125 23.769531 16.96875 23.535156 17.109375 C 23.441406 17.164062 23.351562 17.21875 23.257812 17.273438 C 23.125 17.347656 22.992188 17.421875 22.855469 17.488281 C 22.632812 17.605469 22.402344 17.714844 22.171875 17.816406 C 22.0625 17.867188 21.953125 17.910156 21.84375 17.957031 C 21.722656 18.007812 21.597656 18.050781 21.472656 18.097656 C 21.253906 18.179688 21.03125 18.253906 20.804688 18.324219 C 20.570312 18.394531 20.332031 18.457031 20.09375 18.515625 C 19.894531 18.566406 19.6875 18.605469 19.488281 18.648438 C 19.476562 18.652344 19.453125 18.65625 19.441406 18.65625 C 19.214844 18.695312 18.984375 18.734375 18.753906 18.765625 C 18.527344 18.796875 18.300781 18.820312 18.074219 18.839844 C 17.84375 18.855469 17.613281 18.871094 17.386719 18.875 C 17.15625 18.882812 16.929688 18.882812 16.703125 18.878906 C 16.472656 18.875 16.246094 18.863281 16.015625 18.847656 C 15.789062 18.828125 15.5625 18.808594 15.335938 18.777344 C 15.128906 18.753906 14.925781 18.71875 14.722656 18.6875 C 14.648438 18.671875 14.574219 18.65625 14.503906 18.648438 C 14.328125 18.609375 14.148438 18.574219 13.972656 18.53125 C 13.742188 18.476562 13.511719 18.414062 13.28125 18.351562 C 13.054688 18.289062 12.816406 18.3125 12.597656 18.394531 "/>
</g>
</svg>
