<?xml version="1.0" encoding="UTF-8"?>
<svg xmlns="http://www.w3.org/2000/svg" xmlns:xlink="http://www.w3.org/1999/xlink" width="122px" height="20px" viewBox="0 0 120 20" version="1.1">
<defs>
<linearGradient id="linear0" gradientUnits="userSpaceOnUse" x1="129.21736" y1="1346.5926" x2="101.7292" y2="1372.5814" gradientTransform="matrix(0.813055,0,0,0.815258,-79.973165,-1098.499835)">
<stop offset="0" style="stop-color:rgb(12.156863%,17.254902%,36.862745%);stop-opacity:1;"/>
<stop offset="0.29" style="stop-color:rgb(18.823529%,43.137255%,59.215686%);stop-opacity:1;"/>
<stop offset="0.53" style="stop-color:rgb(26.666667%,58.431373%,70.980392%);stop-opacity:1;"/>
<stop offset="0.75" style="stop-color:rgb(27.843137%,59.215686%,61.568627%);stop-opacity:1;"/>
<stop offset="1" style="stop-color:rgb(30.196078%,62.352941%,39.607843%);stop-opacity:1;"/>
</linearGradient>
</defs>
<g id="surface1">
<path style="fill-rule:nonzero;fill:rgb(100%,100%,100%);fill-opacity:1;stroke-width:1;stroke-linecap:butt;stroke-linejoin:miter;stroke:rgb(85.098039%,85.098039%,84.705882%);stroke-opacity:1;stroke-miterlimit:4;" d="M 34.249302 0.499924 L 55.454237 0.499924 C 57.033829 0.503844 58.311612 1.781627 58.307693 3.361219 L 58.307693 16.444781 C 58.311612 17.201261 58.009804 17.930303 57.476741 18.467285 C 56.939759 19.004268 56.214636 19.306076 55.454237 19.306076 L 34.249302 19.306076 C 33.492823 19.306076 32.7677 19.004268 32.230718 18.467285 C 31.693735 17.930303 31.395847 17.201261 31.395847 16.444781 L 31.395847 3.361219 C 31.395847 1.781627 32.67363 0.503844 34.249302 0.499924 Z M 34.249302 0.499924 " transform="matrix(0.996599,0,0,0.996599,0,0.130682)"/>
<path style=" stroke:none;fill-rule:evenodd;fill:rgb(16.470588%,20.784314%,50.196078%);fill-opacity:1;" d="M 39.621094 13.144531 L 37.949219 13.144531 L 36.695312 8.210938 C 36.648438 7.988281 36.511719 7.796875 36.320312 7.679688 C 35.835938 7.429688 35.320312 7.253906 34.78125 7.160156 L 34.78125 6.96875 L 37.480469 6.96875 C 37.835938 6.972656 38.136719 7.234375 38.183594 7.585938 L 38.832031 11.148438 L 40.507812 6.96875 L 42.132812 6.96875 Z M 43.058594 13.144531 L 41.449219 13.144531 L 42.75 6.96875 L 44.375 6.96875 Z M 46.40625 8.679688 C 46.453125 8.363281 46.738281 8.136719 47.058594 8.160156 C 47.585938 8.109375 48.117188 8.207031 48.59375 8.445312 L 48.878906 7.109375 C 48.417969 6.925781 47.925781 6.828125 47.429688 6.824219 C 45.894531 6.824219 44.78125 7.679688 44.78125 8.867188 C 44.78125 9.773438 45.59375 10.246094 46.128906 10.496094 C 46.667969 10.753906 46.941406 10.980469 46.941406 11.265625 C 46.941406 11.6875 46.476562 11.882812 46.015625 11.882812 C 45.453125 11.875 44.898438 11.746094 44.390625 11.5 L 44.109375 12.828125 C 44.652344 13.054688 45.238281 13.167969 45.828125 13.164062 C 47.550781 13.210938 48.617188 12.347656 48.617188 11.070312 C 48.59375 9.488281 46.40625 9.390625 46.40625 8.679688 Z M 54.128906 13.144531 L 52.878906 6.96875 L 51.527344 6.96875 C 51.230469 6.972656 50.96875 7.160156 50.867188 7.441406 L 48.542969 13.144531 L 50.167969 13.144531 L 50.496094 12.242188 L 52.503906 12.242188 L 52.6875 13.144531 Z M 51.753906 8.632812 L 52.21875 10.964844 L 50.917969 10.964844 Z M 51.753906 8.632812 "/>
<path style=" stroke:none;fill-rule:nonzero;fill:url(#linear0);" d="M 2.84375 0.628906 L 24.785156 0.628906 C 25.542969 0.628906 26.265625 0.929688 26.800781 1.464844 C 27.332031 2 27.632812 2.726562 27.632812 3.480469 L 27.632812 16.519531 C 27.632812 17.273438 27.335938 18 26.800781 18.535156 C 26.265625 19.070312 25.542969 19.371094 24.785156 19.371094 L 2.84375 19.371094 C 2.089844 19.371094 1.363281 19.070312 0.832031 18.535156 C 0.296875 18 0 17.273438 0 16.519531 L 0 3.480469 C 0 1.90625 1.273438 0.632812 2.84375 0.628906 Z M 2.84375 0.628906 "/>
<path style=" stroke:none;fill-rule:nonzero;fill:rgb(100%,100%,100%);fill-opacity:1;" d="M 21.601562 8.09375 C 21.601562 7.863281 21.554688 7.636719 21.464844 7.425781 C 21.390625 7.222656 21.28125 7.039062 21.132812 6.882812 C 20.945312 6.71875 20.726562 6.601562 20.492188 6.539062 C 20.199219 6.460938 19.898438 6.425781 19.59375 6.433594 L 14.523438 6.433594 L 14.523438 9.800781 L 19.585938 9.800781 C 19.890625 9.808594 20.191406 9.773438 20.484375 9.691406 C 20.710938 9.621094 20.921875 9.496094 21.089844 9.324219 C 21.25 9.171875 21.378906 8.984375 21.464844 8.78125 C 21.554688 8.5625 21.601562 8.328125 21.601562 8.09375 Z M 21.601562 8.09375 "/>
<path style=" stroke:none;fill-rule:nonzero;fill:rgb(100%,100%,100%);fill-opacity:1;" d="M 21.601562 11.941406 C 21.601562 11.710938 21.554688 11.480469 21.464844 11.265625 C 21.289062 10.832031 20.933594 10.496094 20.492188 10.34375 C 20.199219 10.261719 19.898438 10.226562 19.59375 10.238281 L 14.523438 10.238281 L 14.523438 13.628906 L 19.585938 13.628906 C 19.890625 13.636719 20.191406 13.605469 20.484375 13.53125 C 20.710938 13.453125 20.917969 13.324219 21.089844 13.152344 C 21.253906 13 21.382812 12.8125 21.464844 12.601562 C 21.554688 12.394531 21.601562 12.167969 21.601562 11.941406 Z M 21.601562 11.941406 "/>
<path style=" stroke:none;fill-rule:nonzero;fill:rgb(100%,100%,100%);fill-opacity:1;" d="M 14.070312 9.800781 C 13.972656 7.605469 12.394531 6.195312 9.921875 6.195312 C 7.453125 6.195312 5.777344 7.703125 5.777344 10.027344 C 5.777344 12.347656 7.40625 13.855469 9.921875 13.855469 C 12.445312 13.855469 13.988281 12.4375 14.070312 10.246094 L 10.054688 10.246094 L 10.054688 9.800781 Z M 14.070312 9.800781 "/>
<path style="fill-rule:nonzero;fill:rgb(100%,100%,100%);fill-opacity:1;stroke-width:1;stroke-linecap:butt;stroke-linejoin:miter;stroke:rgb(85.098039%,85.098039%,84.705882%);stroke-opacity:1;stroke-miterlimit:4;" d="M 65.237512 0.499924 L 86.442448 0.499924 C 88.018119 0.503844 89.295903 1.781627 89.295903 3.361219 L 89.295903 16.444781 C 89.295903 17.201261 88.998015 17.930303 88.461032 18.467285 C 87.927969 19.004268 87.198927 19.306076 86.442448 19.306076 L 65.237512 19.306076 C 64.481033 19.306076 63.751991 19.004268 63.218928 18.467285 C 62.681945 17.930303 62.380138 17.201261 62.384057 16.444781 L 62.384057 3.361219 C 62.380138 1.781627 63.657921 0.503844 65.237512 0.499924 Z M 65.237512 0.499924 " transform="matrix(0.996599,0,0,0.996599,0,0.130682)"/>
<path style=" stroke:none;fill-rule:evenodd;fill:rgb(21.176471%,21.568627%,22.352941%);fill-opacity:1;" d="M 85.863281 17.539062 L 85.863281 17.582031 Z M 85.863281 17.539062 L 85.910156 17.539062 L 85.960938 17.605469 L 85.960938 17.449219 Z M 85.863281 17.742188 L 85.949219 17.742188 L 85.949219 17.691406 C 85.972656 17.664062 85.972656 17.625 85.949219 17.597656 L 85.949219 17.558594 L 85.773438 17.558594 L 85.773438 17.597656 C 85.761719 17.625 85.761719 17.660156 85.773438 17.691406 L 85.773438 17.742188 Z M 85.863281 17.449219 L 85.976562 17.449219 C 85.996094 17.464844 86.007812 17.484375 86.015625 17.507812 C 86.023438 17.527344 86.023438 17.546875 86.015625 17.566406 C 86.023438 17.585938 86.023438 17.609375 86.015625 17.628906 C 86.007812 17.652344 85.992188 17.667969 85.976562 17.683594 L 85.796875 17.683594 C 85.78125 17.6875 85.765625 17.6875 85.75 17.683594 C 85.710938 17.660156 85.691406 17.609375 85.707031 17.566406 C 85.703125 17.546875 85.703125 17.527344 85.707031 17.507812 C 85.71875 17.484375 85.730469 17.464844 85.75 17.449219 C 85.765625 17.445312 85.78125 17.445312 85.796875 17.449219 Z M 70.496094 16.855469 C 70.5 16.601562 70.6875 16.386719 70.933594 16.34375 C 71.183594 16.300781 71.429688 16.445312 71.519531 16.679688 C 71.605469 16.917969 71.511719 17.183594 71.296875 17.316406 C 71.082031 17.445312 70.800781 17.40625 70.632812 17.21875 C 70.542969 17.109375 70.5 16.96875 70.519531 16.832031 Z M 71.828125 16.855469 L 71.828125 16.039062 L 71.519531 16.039062 L 71.519531 16.246094 C 71.402344 16.082031 71.207031 15.988281 71.007812 15.996094 C 70.519531 15.996094 70.125 16.390625 70.125 16.878906 C 70.125 17.363281 70.519531 17.757812 71.007812 17.757812 C 71.207031 17.765625 71.398438 17.675781 71.519531 17.515625 L 71.519531 17.71875 L 71.886719 17.71875 Z M 83.9375 16.855469 C 83.957031 16.585938 84.1875 16.382812 84.457031 16.398438 C 84.726562 16.410156 84.933594 16.636719 84.929688 16.90625 C 84.921875 17.175781 84.703125 17.390625 84.433594 17.390625 C 84.296875 17.386719 84.164062 17.324219 84.074219 17.21875 C 83.984375 17.109375 83.941406 16.96875 83.960938 16.832031 Z M 85.269531 16.855469 L 85.269531 15.316406 L 84.914062 15.316406 L 84.914062 16.195312 C 84.789062 16.035156 84.59375 15.941406 84.390625 15.953125 C 83.90625 15.953125 83.511719 16.34375 83.511719 16.832031 C 83.511719 17.316406 83.90625 17.710938 84.390625 17.710938 C 84.59375 17.714844 84.785156 17.625 84.914062 17.464844 L 84.914062 17.667969 L 85.332031 17.667969 Z M 76.296875 16.316406 C 76.40625 16.316406 76.511719 16.351562 76.589844 16.425781 C 76.667969 16.503906 76.710938 16.605469 76.710938 16.714844 L 75.898438 16.714844 C 75.910156 16.5 76.082031 16.328125 76.296875 16.316406 Z M 76.296875 15.988281 C 75.8125 15.988281 75.417969 16.382812 75.417969 16.871094 C 75.417969 17.355469 75.8125 17.75 76.296875 17.75 C 76.546875 17.757812 76.789062 17.671875 76.980469 17.515625 L 76.804688 17.246094 C 76.667969 17.355469 76.496094 17.417969 76.320312 17.417969 C 76.074219 17.4375 75.855469 17.253906 75.828125 17.007812 L 77.054688 17.007812 C 77.085938 16.765625 77.015625 16.519531 76.863281 16.324219 C 76.710938 16.132812 76.484375 16.011719 76.238281 15.988281 Z M 80.628906 16.871094 C 80.617188 16.730469 80.664062 16.59375 80.757812 16.492188 C 80.855469 16.390625 80.988281 16.332031 81.125 16.332031 C 81.421875 16.332031 81.664062 16.574219 81.664062 16.871094 C 81.664062 17.167969 81.421875 17.410156 81.125 17.410156 C 80.980469 17.410156 80.84375 17.34375 80.75 17.234375 C 80.652344 17.121094 80.613281 16.976562 80.636719 16.832031 Z M 81.964844 16.871094 L 81.964844 16.054688 L 81.605469 16.054688 L 81.605469 16.261719 C 81.480469 16.097656 81.28125 16.007812 81.074219 16.015625 C 80.589844 16.015625 80.195312 16.410156 80.195312 16.898438 C 80.195312 17.382812 80.589844 17.777344 81.074219 17.777344 C 81.28125 17.78125 81.476562 17.691406 81.605469 17.53125 L 81.605469 17.734375 L 81.964844 17.734375 Z M 78.597656 16.871094 C 78.578125 17.109375 78.664062 17.34375 78.832031 17.511719 C 79 17.683594 79.234375 17.769531 79.472656 17.75 C 79.6875 17.761719 79.902344 17.691406 80.070312 17.558594 L 79.898438 17.253906 C 79.773438 17.351562 79.625 17.40625 79.464844 17.410156 C 79.328125 17.410156 79.195312 17.347656 79.101562 17.246094 C 79.007812 17.144531 78.960938 17.007812 78.972656 16.871094 C 78.960938 16.730469 79.003906 16.59375 79.101562 16.492188 C 79.195312 16.390625 79.328125 16.332031 79.464844 16.332031 C 79.621094 16.335938 79.773438 16.386719 79.898438 16.480469 L 80.070312 16.1875 C 79.902344 16.050781 79.691406 15.980469 79.472656 15.988281 C 79.242188 15.976562 79.019531 16.058594 78.851562 16.21875 C 78.6875 16.378906 78.597656 16.601562 78.605469 16.832031 Z M 83.214844 15.988281 C 83.035156 15.988281 82.871094 16.082031 82.78125 16.238281 L 82.78125 15.988281 L 82.425781 15.988281 L 82.425781 17.667969 L 82.78125 17.667969 L 82.78125 16.722656 C 82.78125 16.445312 82.90625 16.292969 83.132812 16.292969 C 83.214844 16.289062 83.292969 16.304688 83.367188 16.332031 L 83.472656 15.988281 C 83.390625 15.960938 83.308594 15.949219 83.222656 15.953125 Z M 73.613281 16.164062 C 73.410156 16.042969 73.175781 15.980469 72.941406 15.988281 C 72.519531 15.988281 72.261719 16.1875 72.261719 16.53125 C 72.261719 16.871094 72.453125 16.96875 72.828125 17.015625 L 72.988281 17.015625 C 73.1875 17.015625 73.285156 17.097656 73.285156 17.199219 C 73.285156 17.292969 73.152344 17.398438 72.910156 17.398438 C 72.710938 17.410156 72.519531 17.347656 72.363281 17.222656 L 72.1875 17.507812 C 72.398438 17.65625 72.652344 17.734375 72.910156 17.726562 C 73.378906 17.726562 73.65625 17.5 73.65625 17.179688 C 73.65625 16.863281 73.4375 16.722656 73.078125 16.675781 L 72.910156 16.675781 C 72.753906 16.675781 72.632812 16.621094 72.632812 16.511719 C 72.632812 16.40625 72.753906 16.316406 72.941406 16.316406 C 73.121094 16.320312 73.296875 16.367188 73.453125 16.457031 Z M 78.238281 15.988281 C 78.058594 15.984375 77.890625 16.082031 77.804688 16.238281 L 77.804688 15.988281 L 77.453125 15.988281 L 77.453125 17.667969 L 77.8125 17.667969 L 77.8125 16.722656 C 77.8125 16.445312 77.929688 16.292969 78.164062 16.292969 C 78.242188 16.289062 78.316406 16.304688 78.386719 16.332031 L 78.5 15.988281 C 78.417969 15.960938 78.332031 15.949219 78.246094 15.953125 Z M 75.175781 16.03125 L 74.589844 16.03125 L 74.589844 15.503906 L 74.234375 15.503906 L 74.234375 16.015625 L 73.894531 16.015625 L 73.894531 16.316406 L 74.234375 16.316406 L 74.234375 17.074219 C 74.234375 17.472656 74.378906 17.703125 74.8125 17.703125 C 74.964844 17.703125 75.117188 17.65625 75.246094 17.574219 L 75.152344 17.265625 C 75.050781 17.316406 74.941406 17.347656 74.828125 17.351562 C 74.648438 17.351562 74.589844 17.238281 74.589844 17.074219 L 74.589844 16.316406 L 75.175781 16.316406 Z M 69.820312 17.710938 L 69.820312 16.648438 C 69.832031 16.472656 69.769531 16.300781 69.644531 16.175781 C 69.496094 16.039062 69.296875 15.972656 69.09375 15.992188 C 68.894531 16.015625 68.710938 16.121094 68.59375 16.285156 C 68.476562 16.09375 68.269531 15.984375 68.050781 15.988281 C 67.855469 15.980469 67.675781 16.074219 67.570312 16.238281 L 67.570312 15.988281 L 67.210938 15.988281 L 67.210938 17.667969 L 67.578125 17.667969 L 67.578125 16.730469 C 67.578125 16.445312 67.726562 16.292969 67.976562 16.292969 C 68.226562 16.292969 68.332031 16.445312 68.332031 16.730469 L 68.332031 17.667969 L 68.691406 17.667969 L 68.691406 16.730469 C 68.683594 16.625 68.71875 16.519531 68.792969 16.441406 C 68.867188 16.363281 68.972656 16.316406 69.078125 16.316406 C 69.324219 16.316406 69.445312 16.472656 69.445312 16.757812 L 69.445312 17.691406 Z M 69.820312 17.710938 "/>
<path style=" stroke:none;fill-rule:evenodd;fill:rgb(94.509804%,49.411765%,12.941176%);fill-opacity:1;" d="M 73.503906 3.1875 L 78.929688 3.1875 L 78.929688 13.136719 L 73.503906 13.136719 Z M 73.503906 3.1875 "/>
<path style=" stroke:none;fill-rule:evenodd;fill:rgb(86.27451%,13.333333%,19.215686%);fill-opacity:1;" d="M 73.851562 8.167969 C 73.84375 6.238281 74.714844 4.410156 76.214844 3.195312 C 75.132812 2.320312 73.78125 1.84375 72.386719 1.84375 C 68.925781 1.875 66.148438 4.707031 66.175781 8.167969 C 66.144531 11.628906 68.925781 14.464844 72.386719 14.5 C 73.78125 14.5 75.132812 14.023438 76.214844 13.144531 C 74.714844 11.929688 73.84375 10.097656 73.851562 8.167969 Z M 73.851562 8.167969 "/>
<path style=" stroke:none;fill-rule:evenodd;fill:rgb(94.901961%,65.490196%,22.352941%);fill-opacity:1;" d="M 86.066406 12.082031 L 86.066406 11.832031 L 86 11.832031 L 85.925781 12.007812 L 85.855469 11.832031 L 85.789062 11.832031 L 85.789062 12.082031 L 85.839844 12.082031 L 85.839844 11.898438 L 85.902344 12.054688 L 85.949219 12.054688 L 86.015625 11.890625 L 86.015625 12.082031 Z M 85.667969 12.082031 L 85.667969 11.875 L 85.75 11.875 L 85.75 11.832031 L 85.539062 11.832031 L 85.539062 11.875 L 85.617188 11.875 L 85.617188 12.082031 Z M 86.261719 8.160156 C 86.292969 11.621094 83.515625 14.457031 80.054688 14.492188 C 78.65625 14.492188 77.304688 14.015625 76.214844 13.136719 C 77.71875 11.921875 78.589844 10.09375 78.589844 8.164062 C 78.589844 6.230469 77.71875 4.402344 76.214844 3.1875 C 77.304688 2.3125 78.65625 1.835938 80.054688 1.835938 C 83.515625 1.871094 86.292969 4.703125 86.261719 8.167969 Z M 86.261719 8.160156 "/>
<path style=" stroke:none;fill-rule:nonzero;fill:rgb(0%,43.529412%,81.176471%);fill-opacity:1;" d="M 119.875 16.527344 C 119.875 18.101562 118.605469 19.382812 117.027344 19.386719 L 95.90625 19.386719 C 94.332031 19.382812 93.058594 18.101562 93.0625 16.527344 L 93.0625 3.460938 C 93.0625 2.707031 93.359375 1.980469 93.894531 1.441406 C 94.425781 0.90625 95.152344 0.605469 95.90625 0.601562 L 117.027344 0.601562 C 117.785156 0.605469 118.511719 0.90625 119.042969 1.441406 C 119.578125 1.980469 119.875 2.707031 119.875 3.460938 "/>
<path style=" stroke:none;fill-rule:nonzero;fill:rgb(100%,100%,100%);fill-opacity:1;" d="M 118.226562 12.398438 C 118.039062 12.398438 117.914062 12.460938 117.914062 12.648438 C 117.929688 12.804688 118.070312 12.917969 118.226562 12.902344 L 118.988281 12.902344 C 119.34375 12.867188 119.6875 13.035156 119.878906 13.335938 L 119.878906 11.832031 L 119.621094 12.398438 Z M 118.226562 12.398438 "/>
<path style=" stroke:none;fill-rule:nonzero;fill:rgb(100%,100%,100%);fill-opacity:1;" d="M 109.941406 12.398438 L 109.054688 12.398438 L 109.054688 13.03125 L 109.941406 13.03125 C 110.191406 13.03125 110.320312 12.902344 110.320312 12.714844 C 110.320312 12.523438 110.191406 12.398438 109.941406 12.398438 Z M 109.941406 12.398438 "/>
<path style=" stroke:none;fill-rule:nonzero;fill:rgb(100%,100%,100%);fill-opacity:1;" d="M 106.460938 6.886719 C 106.460938 6.695312 106.332031 6.570312 106.082031 6.570312 L 105.195312 6.570312 L 105.195312 7.203125 L 106.082031 7.203125 C 106.332031 7.203125 106.460938 7.078125 106.460938 6.886719 Z M 106.460938 6.886719 "/>
<path style=" stroke:none;fill-rule:nonzero;fill:rgb(100%,100%,100%);fill-opacity:1;" d="M 112.535156 6.632812 L 112.089844 7.710938 L 112.976562 7.710938 Z M 112.535156 6.632812 "/>
<path style=" stroke:none;fill-rule:nonzero;fill:rgb(100%,100%,100%);fill-opacity:1;" d="M 94.628906 9.105469 L 95.199219 9.105469 L 95.453125 9.738281 L 105.699219 9.738281 L 105.699219 8.976562 L 106.269531 9.671875 L 109.054688 9.671875 L 109.054688 9.292969 C 109.4375 9.570312 109.910156 9.707031 110.382812 9.671875 L 112.027344 9.671875 L 112.28125 9.039062 L 112.851562 9.039062 L 113.105469 9.671875 L 115.824219 9.671875 L 115.824219 8.914062 L 116.394531 9.671875 L 118.355469 9.671875 L 118.355469 5.242188 L 116.394531 5.242188 L 116.394531 6.0625 L 115.886719 5.242188 L 114.050781 5.242188 L 114.050781 6.378906 L 113.546875 5.242188 L 110.507812 5.242188 C 110.011719 5.242188 109.523438 5.398438 109.117188 5.683594 L 109.117188 5.242188 L 99.246094 5.242188 L 98.929688 6.128906 L 98.613281 5.242188 L 96.335938 5.242188 L 96.335938 6.378906 L 95.832031 5.242188 L 93.996094 5.242188 L 93.046875 7.394531 L 93.046875 9.039062 L 94.375 5.875 L 95.449219 5.875 L 96.78125 9.039062 L 95.894531 9.039062 L 95.640625 8.40625 L 94.1875 8.40625 L 93.933594 9.039062 L 93.046875 9.039062 L 93.046875 9.738281 L 94.375 9.738281 Z M 113.105469 5.875 L 114.433594 9.039062 L 114.433594 5.875 L 115.445312 5.875 L 116.710938 7.835938 L 116.710938 5.875 L 117.53125 5.875 L 117.53125 9.039062 L 116.582031 9.039062 L 115.253906 7.015625 L 115.253906 9.039062 L 113.546875 9.039062 L 113.292969 8.40625 L 111.839844 8.40625 L 111.585938 9.039062 L 110.699219 9.039062 L 112.027344 5.875 Z M 108.800781 7.457031 C 108.75 7.035156 108.890625 6.613281 109.183594 6.304688 C 109.480469 6 109.894531 5.839844 110.320312 5.875 L 111.207031 5.875 L 111.207031 6.632812 L 110.382812 6.632812 C 110.15625 6.605469 109.929688 6.683594 109.769531 6.84375 C 109.609375 7.003906 109.53125 7.230469 109.558594 7.457031 L 109.558594 7.519531 C 109.542969 7.742188 109.625 7.964844 109.78125 8.121094 C 109.941406 8.28125 110.160156 8.359375 110.382812 8.34375 L 110.636719 8.34375 L 110.257812 9.039062 C 109.851562 9.0625 109.457031 8.910156 109.175781 8.617188 C 108.898438 8.324219 108.757812 7.921875 108.800781 7.519531 Z M 107.597656 7.457031 L 107.597656 5.875 L 108.421875 5.875 L 108.421875 9.039062 L 107.597656 9.039062 Z M 104.4375 5.875 L 106.207031 5.875 C 106.488281 5.847656 106.769531 5.941406 106.976562 6.136719 C 107.179688 6.332031 107.292969 6.605469 107.28125 6.886719 C 107.289062 7.378906 106.945312 7.804688 106.460938 7.898438 L 107.472656 9.039062 L 106.460938 9.039062 L 105.511719 7.898438 L 105.195312 7.898438 L 105.257812 9.039062 L 104.433594 9.039062 Z M 101.398438 5.875 L 103.992188 5.875 L 103.992188 6.570312 L 102.222656 6.570312 L 102.222656 7.078125 L 103.929688 7.078125 L 103.929688 7.773438 L 102.222656 7.773438 L 102.222656 8.34375 L 103.992188 8.34375 L 103.992188 9.039062 L 101.398438 9.039062 Z M 96.90625 5.875 L 98.171875 5.875 L 98.867188 7.898438 L 99.5625 5.875 L 100.828125 5.875 L 100.828125 9.039062 L 100.007812 9.039062 L 100.007812 6.695312 L 99.183594 9.039062 L 98.488281 9.039062 L 97.730469 6.695312 L 97.730469 9.039062 L 96.90625 9.039062 Z M 96.90625 5.875 "/>
<path style=" stroke:none;fill-rule:nonzero;fill:rgb(100%,100%,100%);fill-opacity:1;" d="M 106.714844 12.398438 L 105.828125 12.398438 L 105.828125 13.09375 L 106.714844 13.09375 C 106.816406 13.097656 106.914062 13.058594 106.988281 12.988281 C 107.058594 12.914062 107.097656 12.816406 107.09375 12.714844 C 107.09375 12.523438 106.964844 12.398438 106.714844 12.398438 Z M 106.714844 12.398438 "/>
<path style=" stroke:none;fill-rule:nonzero;fill:rgb(100%,100%,100%);fill-opacity:1;" d="M 94.945312 6.632812 L 94.503906 7.710938 L 95.386719 7.710938 Z M 94.945312 6.632812 "/>
<path style=" stroke:none;fill-rule:nonzero;fill:rgb(100%,100%,100%);fill-opacity:1;" d="M 119.875 11.066406 L 103.613281 11.066406 L 103.171875 11.636719 L 102.726562 11.066406 L 98.109375 11.066406 L 98.109375 15.5 L 102.726562 15.5 L 103.171875 14.867188 L 103.613281 15.5 L 106.460938 15.5 L 106.460938 14.488281 L 106.777344 14.488281 C 107.054688 14.480469 107.332031 14.4375 107.597656 14.359375 L 107.597656 15.5 L 109.496094 15.5 L 109.496094 14.738281 L 110.066406 15.5 L 118.925781 15.5 C 119.261719 15.492188 119.59375 15.390625 119.878906 15.210938 L 119.878906 14.269531 C 119.695312 14.621094 119.320312 14.832031 118.925781 14.804688 L 117.28125 14.804688 L 117.28125 14.105469 L 118.925781 14.105469 C 119.070312 14.097656 119.207031 14.027344 119.304688 13.917969 C 119.285156 13.761719 119.144531 13.648438 118.988281 13.664062 L 118.226562 13.664062 C 117.964844 13.691406 117.699219 13.601562 117.503906 13.421875 C 117.308594 13.238281 117.203125 12.980469 117.214844 12.714844 C 117.207031 12.429688 117.316406 12.15625 117.523438 11.960938 C 117.730469 11.769531 118.011719 11.671875 118.292969 11.699219 L 119.878906 11.699219 M 104.941406 14.804688 L 103.929688 14.804688 L 103.171875 13.789062 L 102.410156 14.804688 L 101.398438 14.804688 L 101.398438 14.867188 L 98.804688 14.867188 L 98.804688 11.699219 L 101.398438 11.699219 L 101.398438 12.398438 L 99.628906 12.398438 L 99.628906 12.902344 L 101.335938 12.902344 L 101.335938 13.601562 L 99.628906 13.601562 L 99.628906 14.167969 L 101.398438 14.167969 L 101.398438 14.804688 L 102.664062 13.21875 L 101.398438 11.636719 L 102.410156 11.636719 L 103.171875 12.585938 L 103.929688 11.636719 L 104.941406 11.636719 L 103.675781 13.21875 Z M 106.777344 13.789062 L 105.828125 13.789062 L 105.828125 14.804688 L 105.003906 14.804688 L 105.003906 11.636719 L 106.839844 11.636719 C 107.128906 11.625 107.410156 11.734375 107.613281 11.9375 C 107.820312 12.140625 107.929688 12.425781 107.914062 12.714844 C 107.925781 13.011719 107.804688 13.300781 107.589844 13.507812 C 107.371094 13.714844 107.074219 13.816406 106.777344 13.789062 Z M 110.320312 14.867188 L 109.371094 13.726562 L 109.054688 13.726562 L 109.054688 14.867188 L 108.230469 14.867188 L 108.230469 11.699219 L 110.066406 11.699219 C 110.347656 11.671875 110.628906 11.769531 110.835938 11.960938 C 111.039062 12.15625 111.152344 12.429688 111.140625 12.714844 C 111.148438 13.207031 110.804688 13.632812 110.320312 13.726562 L 111.332031 14.867188 Z M 113.988281 12.398438 L 112.21875 12.398438 L 112.21875 12.902344 L 113.925781 12.902344 L 113.925781 13.601562 L 112.21875 13.601562 L 112.21875 14.167969 L 113.988281 14.167969 L 113.988281 14.867188 L 111.394531 14.867188 L 111.394531 11.699219 L 113.988281 11.699219 Z M 116.015625 14.804688 L 114.367188 14.804688 L 114.367188 14.105469 L 116.015625 14.105469 C 116.160156 14.097656 116.296875 14.027344 116.394531 13.917969 C 116.375 13.761719 116.234375 13.648438 116.078125 13.664062 L 115.316406 13.664062 C 115.054688 13.691406 114.789062 13.601562 114.59375 13.421875 C 114.398438 13.238281 114.292969 12.980469 114.304688 12.714844 C 114.296875 12.429688 114.40625 12.15625 114.613281 11.960938 C 114.820312 11.769531 115.097656 11.671875 115.382812 11.699219 L 117.027344 11.699219 L 116.710938 12.398438 L 115.316406 12.398438 C 115.179688 12.398438 115.066406 12.511719 115.066406 12.648438 C 115.066406 12.789062 115.179688 12.902344 115.316406 12.902344 L 116.078125 12.902344 C 116.710938 12.902344 117.089844 13.21875 117.089844 13.789062 C 117.101562 14.074219 116.988281 14.347656 116.78125 14.539062 C 116.574219 14.734375 116.296875 14.832031 116.015625 14.804688 Z M 116.015625 14.804688 "/>
<path style=" stroke:none;fill-rule:nonzero;fill:rgb(0%,43.529412%,81.176471%);fill-opacity:1;" d="M 119.9375 11.699219 L 119.878906 11.699219 L 119.878906 11.828125 Z M 119.9375 11.699219 "/>
<path style=" stroke:none;fill-rule:nonzero;fill:rgb(0%,43.529412%,81.176471%);fill-opacity:1;" d="M 120 13.789062 C 120 13.628906 119.957031 13.472656 119.878906 13.335938 L 119.878906 14.269531 C 119.957031 14.121094 119.996094 13.957031 120 13.789062 Z M 120 13.789062 "/>
<path style=" stroke:none;fill-rule:nonzero;fill:rgb(0%,43.529412%,81.176471%);fill-opacity:1;" d="M 103.929688 11.636719 L 103.167969 12.585938 L 102.410156 11.636719 L 101.398438 11.636719 L 102.664062 13.21875 L 101.398438 14.800781 L 102.410156 14.800781 L 103.167969 13.789062 L 103.929688 14.800781 L 104.941406 14.800781 L 103.675781 13.21875 L 104.941406 11.636719 Z M 103.929688 11.636719 "/>
<path style=" stroke:none;fill-rule:nonzero;fill:rgb(0%,43.529412%,81.176471%);fill-opacity:1;" d="M 106.839844 11.636719 L 105.003906 11.636719 L 105.003906 14.804688 L 105.828125 14.804688 L 105.828125 13.789062 L 106.777344 13.789062 C 107.074219 13.816406 107.371094 13.714844 107.589844 13.507812 C 107.804688 13.300781 107.925781 13.011719 107.914062 12.714844 C 107.929688 12.425781 107.820312 12.140625 107.613281 11.9375 C 107.410156 11.734375 107.128906 11.625 106.839844 11.636719 Z M 106.714844 13.09375 L 105.828125 13.09375 L 105.828125 12.398438 L 106.714844 12.398438 C 106.964844 12.398438 107.09375 12.523438 107.09375 12.714844 C 107.097656 12.816406 107.058594 12.914062 106.988281 12.988281 C 106.914062 13.058594 106.816406 13.097656 106.714844 13.09375 Z M 106.714844 13.09375 "/>
<path style=" stroke:none;fill-rule:nonzero;fill:rgb(0%,43.529412%,81.176471%);fill-opacity:1;" d="M 111.140625 12.714844 C 111.152344 12.429688 111.039062 12.15625 110.835938 11.960938 C 110.628906 11.769531 110.347656 11.671875 110.066406 11.699219 L 108.230469 11.699219 L 108.230469 14.867188 L 109.054688 14.867188 L 109.054688 13.726562 L 109.371094 13.726562 L 110.320312 14.867188 L 111.332031 14.867188 L 110.320312 13.726562 C 110.804688 13.632812 111.148438 13.207031 111.140625 12.714844 Z M 109.941406 13.03125 L 109.054688 13.03125 L 109.054688 12.398438 L 109.941406 12.398438 C 110.191406 12.398438 110.320312 12.523438 110.320312 12.714844 C 110.320312 12.902344 110.191406 13.03125 109.941406 13.03125 Z M 109.941406 13.03125 "/>
<path style=" stroke:none;fill-rule:nonzero;fill:rgb(0%,43.529412%,81.176471%);fill-opacity:1;" d="M 116.078125 12.902344 L 115.316406 12.902344 C 115.179688 12.902344 115.066406 12.789062 115.066406 12.648438 C 115.066406 12.511719 115.179688 12.398438 115.316406 12.398438 L 116.710938 12.398438 L 117.027344 11.699219 L 115.382812 11.699219 C 115.097656 11.671875 114.820312 11.769531 114.613281 11.960938 C 114.40625 12.15625 114.296875 12.429688 114.304688 12.714844 C 114.292969 12.980469 114.398438 13.238281 114.59375 13.421875 C 114.789062 13.601562 115.054688 13.691406 115.316406 13.664062 L 116.078125 13.664062 C 116.234375 13.648438 116.375 13.761719 116.394531 13.917969 C 116.296875 14.027344 116.160156 14.097656 116.015625 14.105469 L 114.367188 14.105469 L 114.367188 14.804688 L 116.015625 14.804688 C 116.296875 14.832031 116.574219 14.734375 116.78125 14.539062 C 116.988281 14.347656 117.101562 14.074219 117.089844 13.789062 C 117.089844 13.21875 116.710938 12.902344 116.078125 12.902344 Z M 116.078125 12.902344 "/>
<path style=" stroke:none;fill-rule:nonzero;fill:rgb(0%,43.529412%,81.176471%);fill-opacity:1;" d="M 117.214844 12.714844 C 117.203125 12.980469 117.308594 13.238281 117.503906 13.421875 C 117.699219 13.601562 117.964844 13.691406 118.226562 13.664062 L 118.988281 13.664062 C 119.144531 13.648438 119.285156 13.761719 119.304688 13.917969 C 119.207031 14.027344 119.070312 14.097656 118.925781 14.105469 L 117.28125 14.105469 L 117.28125 14.804688 L 118.925781 14.804688 C 119.320312 14.832031 119.695312 14.621094 119.878906 14.269531 L 119.878906 13.335938 C 119.6875 13.035156 119.34375 12.867188 118.988281 12.902344 L 118.226562 12.902344 C 118.070312 12.917969 117.929688 12.804688 117.914062 12.648438 C 117.914062 12.460938 118.039062 12.398438 118.226562 12.398438 L 119.621094 12.398438 L 119.878906 11.828125 L 119.878906 11.699219 L 118.292969 11.699219 C 118.011719 11.671875 117.730469 11.769531 117.523438 11.960938 C 117.316406 12.15625 117.207031 12.429688 117.214844 12.714844 Z M 117.214844 12.714844 "/>
<path style=" stroke:none;fill-rule:nonzero;fill:rgb(0%,43.529412%,81.176471%);fill-opacity:1;" d="M 111.394531 14.867188 L 113.988281 14.867188 L 113.988281 14.167969 L 112.21875 14.167969 L 112.21875 13.601562 L 113.925781 13.601562 L 113.925781 12.902344 L 112.21875 12.902344 L 112.21875 12.398438 L 113.988281 12.398438 L 113.988281 11.699219 L 111.394531 11.699219 Z M 111.394531 14.867188 "/>
<path style=" stroke:none;fill-rule:nonzero;fill:rgb(0%,43.529412%,81.176471%);fill-opacity:1;" d="M 99.628906 14.167969 L 99.628906 13.601562 L 101.335938 13.601562 L 101.335938 12.902344 L 99.628906 12.902344 L 99.628906 12.398438 L 101.398438 12.398438 L 101.398438 11.699219 L 98.804688 11.699219 L 98.804688 14.867188 L 101.398438 14.867188 L 101.398438 14.167969 Z M 99.628906 14.167969 "/>
<path style=" stroke:none;fill-rule:nonzero;fill:rgb(0%,43.529412%,81.176471%);fill-opacity:1;" d="M 103.992188 8.34375 L 102.222656 8.34375 L 102.222656 7.773438 L 103.929688 7.773438 L 103.929688 7.078125 L 102.222656 7.078125 L 102.222656 6.570312 L 103.992188 6.570312 L 103.992188 5.875 L 101.398438 5.875 L 101.398438 9.039062 L 103.992188 9.039062 Z M 103.992188 8.34375 "/>
<path style=" stroke:none;fill-rule:nonzero;fill:rgb(0%,43.529412%,81.176471%);fill-opacity:1;" d="M 94.1875 8.40625 L 95.640625 8.40625 L 95.894531 9.039062 L 96.78125 9.039062 L 95.449219 5.875 L 94.375 5.875 L 93.046875 9.039062 L 93.933594 9.039062 Z M 94.945312 6.632812 L 95.386719 7.710938 L 94.503906 7.710938 Z M 94.945312 6.632812 "/>
<path style=" stroke:none;fill-rule:nonzero;fill:rgb(0%,43.529412%,81.176471%);fill-opacity:1;" d="M 97.726562 6.699219 L 98.488281 9.039062 L 99.183594 9.039062 L 100.007812 6.699219 L 100.007812 9.039062 L 100.828125 9.039062 L 100.828125 5.875 L 99.5625 5.875 L 98.867188 7.898438 L 98.171875 5.875 L 96.90625 5.875 L 96.90625 9.039062 L 97.726562 9.039062 Z M 97.726562 6.699219 "/>
<path style=" stroke:none;fill-rule:nonzero;fill:rgb(0%,43.529412%,81.176471%);fill-opacity:1;" d="M 110.257812 9.039062 L 110.636719 8.34375 L 110.382812 8.34375 C 110.160156 8.359375 109.941406 8.28125 109.78125 8.121094 C 109.625 7.964844 109.542969 7.742188 109.558594 7.519531 L 109.558594 7.457031 C 109.53125 7.230469 109.609375 7.003906 109.769531 6.84375 C 109.929688 6.683594 110.15625 6.605469 110.382812 6.632812 L 111.207031 6.632812 L 111.207031 5.875 L 110.320312 5.875 C 109.894531 5.839844 109.480469 6 109.183594 6.304688 C 108.890625 6.613281 108.75 7.035156 108.800781 7.457031 L 108.800781 7.519531 C 108.757812 7.921875 108.898438 8.324219 109.175781 8.617188 C 109.457031 8.910156 109.851562 9.0625 110.257812 9.039062 Z M 110.257812 9.039062 "/>
<path style=" stroke:none;fill-rule:nonzero;fill:rgb(0%,43.529412%,81.176471%);fill-opacity:1;" d="M 111.585938 9.039062 L 111.839844 8.40625 L 113.292969 8.40625 L 113.546875 9.039062 L 114.433594 9.039062 L 113.105469 5.875 L 112.027344 5.875 L 110.699219 9.039062 Z M 112.535156 6.632812 L 112.976562 7.710938 L 112.089844 7.710938 Z M 112.535156 6.632812 "/>
<path style=" stroke:none;fill-rule:nonzero;fill:rgb(0%,43.529412%,81.176471%);fill-opacity:1;" d="M 108.421875 7.457031 L 108.421875 5.875 L 107.597656 5.875 L 107.597656 9.039062 L 108.421875 9.039062 Z M 108.421875 7.457031 "/>
<path style=" stroke:none;fill-rule:nonzero;fill:rgb(0%,43.529412%,81.176471%);fill-opacity:1;" d="M 115.253906 7.015625 L 116.582031 9.039062 L 117.53125 9.039062 L 117.53125 5.875 L 116.710938 5.875 L 116.710938 7.835938 L 115.445312 5.875 L 114.433594 5.875 L 114.433594 9.039062 L 115.253906 9.039062 Z M 115.253906 7.015625 "/>
<path style=" stroke:none;fill-rule:nonzero;fill:rgb(0%,43.529412%,81.176471%);fill-opacity:1;" d="M 105.195312 7.898438 L 105.511719 7.898438 L 106.460938 9.039062 L 107.472656 9.039062 L 106.460938 7.898438 C 106.945312 7.804688 107.289062 7.378906 107.28125 6.886719 C 107.292969 6.605469 107.179688 6.332031 106.976562 6.136719 C 106.769531 5.941406 106.488281 5.847656 106.207031 5.875 L 104.433594 5.875 L 104.433594 9.039062 L 105.257812 9.039062 Z M 105.195312 6.570312 L 106.082031 6.570312 C 106.332031 6.570312 106.460938 6.695312 106.460938 6.886719 C 106.460938 7.078125 106.332031 7.203125 106.082031 7.203125 L 105.195312 7.203125 Z M 105.195312 6.570312 "/>
</g>
</svg>
