<?xml version="1.0" encoding="UTF-8"?>
<svg xmlns="http://www.w3.org/2000/svg" xmlns:xlink="http://www.w3.org/1999/xlink" width="39px" height="20px" viewBox="0 0 39 20" version="1.1">
<g id="surface1">
<path style=" stroke:none;fill-rule:nonzero;fill:rgb(0%,48.235294%,48.627451%);fill-opacity:1;" d="M 13.222656 19.863281 C 12.65625 15.152344 11.089844 10.800781 8.660156 7.328125 C 8.023438 6.414062 7.339844 5.582031 6.617188 4.832031 C 5.917969 5.464844 5.265625 6.144531 4.664062 6.871094 C 7.589844 9.894531 9.699219 14.515625 10.410156 19.863281 Z M 13.222656 19.863281 "/>
<path style=" stroke:none;fill-rule:nonzero;fill:rgb(0%,48.235294%,48.627451%);fill-opacity:1;" d="M 8.046875 19.863281 C 7.515625 16.34375 6.285156 13.105469 4.445312 10.480469 C 4.046875 9.910156 3.625 9.378906 3.1875 8.886719 C 2.644531 9.734375 2.164062 10.621094 1.753906 11.554688 C 3.425781 13.707031 4.660156 16.589844 5.222656 19.863281 Z M 8.046875 19.863281 "/>
<path style=" stroke:none;fill-rule:nonzero;fill:rgb(0%,48.235294%,48.627451%);fill-opacity:1;" d="M 0.734375 14.40625 C 0.257812 16.140625 0.00390625 17.972656 0.00390625 19.863281 L 2.835938 19.863281 C 2.425781 17.867188 1.71875 16.011719 0.734375 14.40625 Z M 0.734375 14.40625 "/>
<path style=" stroke:none;fill-rule:nonzero;fill:rgb(0%,48.235294%,48.627451%);fill-opacity:1;" d="M 23.53125 19.863281 C 24.363281 12.414062 27.445312 7.394531 30.089844 4.367188 C 30.308594 4.121094 30.527344 3.882812 30.746094 3.648438 C 30.378906 3.375 30 3.117188 29.617188 2.871094 C 29.441406 3.058594 29.265625 3.25 29.097656 3.445312 C 26.839844 6.023438 24.285156 9.96875 22.929688 15.523438 C 22.515625 13.28125 21.933594 11.117188 21.191406 9.058594 C 22.664062 5.671875 24.488281 3.058594 26.164062 1.125 C 25.714844 0.949219 25.25 0.792969 24.785156 0.65625 C 23.339844 2.382812 21.824219 4.582031 20.515625 7.308594 C 19.574219 5.046875 18.425781 2.9375 17.09375 1.023438 C 16.875 0.714844 16.65625 0.40625 16.429688 0.113281 C 15.398438 0.273438 14.394531 0.523438 13.421875 0.847656 C 15.75 3.621094 17.648438 7.136719 18.949219 11.152344 C 18.46875 12.566406 18.054688 14.082031 17.730469 15.714844 C 16.8125 11.410156 15.167969 7.457031 12.875 4.171875 C 12.289062 3.332031 11.671875 2.546875 11.027344 1.828125 C 10.164062 2.257812 9.332031 2.746094 8.542969 3.296875 C 12.222656 7.132812 14.832031 13.046875 15.570312 19.859375 L 18.484375 19.859375 C 18.703125 17.550781 19.097656 15.4375 19.628906 13.507812 C 20.144531 15.527344 20.511719 17.65625 20.710938 19.859375 L 23.53125 19.859375 Z M 23.53125 19.863281 "/>
<path style=" stroke:none;fill-rule:nonzero;fill:rgb(0%,48.235294%,48.627451%);fill-opacity:1;" d="M 28.585938 19.863281 C 29.386719 14.046875 31.839844 10.089844 33.960938 7.667969 C 34.109375 7.503906 34.253906 7.339844 34.402344 7.183594 C 34.113281 6.828125 33.816406 6.476562 33.503906 6.140625 C 30.515625 9.292969 28.015625 13.871094 27.238281 19.867188 L 28.585938 19.867188 Z M 28.585938 19.863281 "/>
<path style=" stroke:none;fill-rule:nonzero;fill:rgb(0%,48.235294%,48.627451%);fill-opacity:1;" d="M 33.675781 19.863281 C 34.316406 16.257812 35.757812 13.613281 37.160156 11.789062 C 36.957031 11.324219 36.742188 10.871094 36.507812 10.421875 C 34.5625 12.769531 32.96875 15.914062 32.316406 19.863281 Z M 33.675781 19.863281 "/>
<path style=" stroke:none;fill-rule:nonzero;fill:rgb(0%,48.235294%,48.627451%);fill-opacity:1;" d="M 38.554688 16.632812 C 38.089844 17.609375 37.707031 18.6875 37.4375 19.863281 L 38.804688 19.863281 C 38.808594 18.761719 38.722656 17.683594 38.554688 16.632812 Z M 38.554688 16.632812 "/>
</g>
</svg>
